<svg width="2402" height="1745" viewBox="0 0 2402 1745" fill="none" xmlns="http://www.w3.org/2000/svg">
<path d="M2081.97 951.299C1976.19 1104.63 1801.69 1206.9 1602.96 1213.64C1483.36 1524.45 1181.94 1745 829 1745C371.156 1745 0 1373.84 0 916C0 458.156 371.156 87 829 87C950.856 87 1066.57 113.291 1170.78 160.511C1278.92 60.862 1423.35 0 1582 0C1686.46 0 1784.75 26.3863 1870.59 72.8572C1896.21 68.3504 1922.58 66 1949.5 66C2199.41 66 2402 268.591 2402 518.5C2402 722.316 2267.25 894.659 2081.97 951.299Z" fill="#09B2DE"/>
</svg>
