<svg width="80" height="80" viewBox="0 0 80 80" fill="none" xmlns="http://www.w3.org/2000/svg">
<path d="M53 46.4247V75.9526C52.5477 76.8863 51.8572 77.648 51.0246 78.1762C50.1925 78.7049 49.2201 79 48.2036 79H3.9926C2.27648 79 0.810044 77.9239 0.247287 76.4192C0.0873907 75.993 0 75.5329 0 75.052L0 38.8568C0 36.7303 1.74829 34.9999 3.89801 34.9999H18.8091C20.0912 34.9999 21.2911 35.6232 22.0176 36.6672L26.1197 42.5525C26.1284 42.559 26.1514 42.5678 26.185 42.5678H49.1034C51.2522 42.5678 53 44.2982 53 46.4247Z" fill="url(#paint0_linear)"/>
<circle cx="20" cy="19" r="18" fill="url(#paint1_linear)"/>
<circle cx="64" cy="16" r="16" fill="url(#paint2_linear)"/>
<path opacity="0.75" fill-rule="evenodd" clip-rule="evenodd" d="M63.2872 9.41638C63.4451 9.2538 63.4441 9.00018 63.2863 8.83711C61.8977 7.40525 60.5249 7.17253 59.4496 7.35846L59.4447 7.35693C59.4432 7.36164 59.4384 7.36012 59.4271 7.36178C59.3983 7.36828 59.3647 7.37326 59.3359 7.37976C59.0557 7.43691 58.8101 7.52038 58.5888 7.61148C58.06 7.81318 57.7654 8.0364 57.6231 8.1832C57.6041 8.19275 57.5899 8.20383 57.5899 8.20383L57.5948 8.20536L57.5899 8.20383C57.5679 8.2228 57.5557 8.24482 57.5386 8.26532C57.5278 8.28263 57.5185 8.29524 57.5107 8.30313C57.4309 8.43844 57.4311 8.60909 57.527 8.74763C58.1558 9.64729 58.8366 10.1755 59.5286 10.428C60.2205 10.6805 60.8799 10.6437 61.4374 10.4871C61.9886 10.3338 62.4526 10.0653 62.7697 9.83874C62.929 9.72312 63.0566 9.62341 63.146 9.54282C63.1822 9.51277 63.212 9.4859 63.2418 9.45904C63.2418 9.45904 63.2481 9.45585 63.2496 9.45114C63.2638 9.44006 63.2716 9.43217 63.2794 9.42428L63.2872 9.41638V9.41638L63.2775 9.41333L63.2872 9.41638Z" fill="url(#paint3_linear)"/>
<path opacity="0.8" fill-rule="evenodd" clip-rule="evenodd" d="M70.9358 19.484L70.9352 19.4793C70.7489 18.057 69.8962 16.8842 68.724 16.2512C67.6664 15.7455 66.8928 15.9244 66.2593 16.0843C65.6204 16.24 65.2006 16.1485 65.2006 16.1485C64.1542 16.039 63.4254 16.3379 62.998 16.611C61.8114 17.4446 61.135 18.8872 61.3303 20.457L61.3309 20.4617C61.3321 20.4712 61.3333 20.4806 61.3357 20.4996C61.3394 20.5279 61.3454 20.5752 61.352 20.6272C61.3707 20.7354 61.3997 20.8857 61.4475 21.0676C61.5431 21.4313 61.7144 21.9263 62.021 22.4411C62.4045 23.0964 63.0039 23.7874 63.9056 24.3041C63.9056 24.3041 64.6896 24.8615 65.8573 24.997C65.8622 24.9965 65.8628 25.0012 65.8676 25.0007C65.8779 25.0045 65.8828 25.004 65.8925 25.003L65.8973 25.0025L65.907 25.0015C65.9168 25.0005 65.9271 25.0043 65.9416 25.0028L65.9465 25.0023C66.0259 25.0086 66.1054 25.0149 66.1843 25.0165C66.268 25.0176 66.362 25.0225 66.47 25.0211C66.4797 25.0201 66.4894 25.0191 66.4991 25.0182C66.5434 25.0185 66.5829 25.0192 66.6223 25.02C66.6223 25.02 66.8625 25.0149 67.2357 24.934C67.2788 24.9248 67.3219 24.9157 67.3692 24.9013C67.9026 24.7659 68.6508 24.465 69.3817 23.8356C69.4042 23.819 69.4212 23.7981 69.4437 23.7815C69.4698 23.7549 69.5013 23.7325 69.5274 23.7059L69.522 23.7017C70.2068 23.0578 70.5878 22.3058 70.78 21.616C70.9425 21.0394 70.9775 20.5044 70.9723 20.1171C70.9719 19.9208 70.9568 19.7644 70.9472 19.6504C70.94 19.5937 70.9345 19.5512 70.9303 19.5181C70.9388 19.5076 70.937 19.4935 70.9358 19.484Z" fill="url(#paint4_linear)"/>
<path opacity="0.8" fill-rule="evenodd" clip-rule="evenodd" d="M66.3108 17.024C65.4747 17.3219 64.8913 17.1979 64.8913 17.1979C64.5758 17.1688 64.2943 17.1751 64.0241 17.2043C63.2974 17.4095 62.6058 17.7573 62.8778 18.3462C62.8778 18.3462 64.0582 20.0844 66.1314 18.39C66.1314 18.39 68.1315 16.3617 69.6859 17.1709C68.1623 16.3812 67.1404 16.7271 66.3108 17.024Z" fill="url(#paint5_linear)"/>
<path opacity="0.8" fill-rule="evenodd" clip-rule="evenodd" d="M64.5709 19.5728L64.5724 19.5681C65.0107 18.1491 64.7005 16.6925 63.8489 15.6147C63.0522 14.7039 62.2312 14.5558 61.5531 14.4472C60.8716 14.3324 60.5081 14.0739 60.5081 14.0739C59.5502 13.5418 58.7201 13.5253 58.191 13.608C56.689 13.9087 55.413 14.9934 54.9193 16.5553L54.9179 16.5601C54.9149 16.5695 54.912 16.5789 54.9061 16.5977C54.8972 16.626 54.8825 16.6731 54.8663 16.7249C54.8373 16.8347 54.8 16.9885 54.767 17.1797C54.7009 17.5623 54.6506 18.0997 54.7218 18.7113C54.8058 19.4871 55.0819 20.3851 55.724 21.2423C55.724 21.2423 56.2353 22.0897 57.2985 22.6961C57.3034 22.6976 57.3019 22.7024 57.3068 22.7039C57.3151 22.7116 57.32 22.7132 57.3297 22.7162L57.3346 22.7177L57.3443 22.7208C57.3541 22.7238 57.3624 22.7316 57.377 22.7362L57.3819 22.7377C57.4555 22.7762 57.5291 22.8147 57.6042 22.8486C57.6842 22.8839 57.7724 22.927 57.8768 22.97C57.8865 22.973 57.8963 22.976 57.906 22.9791C57.9484 22.9975 57.986 23.0144 58.0235 23.0313C58.0235 23.0313 58.2566 23.1249 58.6503 23.2014C58.6956 23.2105 58.741 23.2195 58.7927 23.2253C59.364 23.316 60.2135 23.3386 61.189 23.0439C61.2178 23.0374 61.2432 23.0247 61.272 23.0182C61.3086 23.0038 61.3486 22.9956 61.3853 22.9812L61.3818 22.975C62.3193 22.6478 63.0118 22.094 63.4959 21.5216C63.9022 21.0438 64.1681 20.5531 64.3312 20.1854C64.416 19.9999 64.4694 19.846 64.5096 19.7346C64.5273 19.678 64.5406 19.6357 64.5509 19.6027C64.5636 19.5963 64.568 19.5822 64.5709 19.5728Z" fill="url(#paint6_linear)"/>
<path opacity="0.9" fill-rule="evenodd" clip-rule="evenodd" d="M61.2561 14.9425C60.2829 14.7988 59.7691 14.4099 59.7691 14.4099C59.4724 14.2326 59.1915 14.1025 58.9104 13.9977C58.0913 13.8262 57.2358 13.7955 57.2108 14.4387C57.2108 14.4387 57.5097 16.5192 60.3988 16.0442C60.3988 16.0442 63.3821 15.2435 64.5126 16.6962C63.4027 15.2753 62.2224 15.0839 61.2561 14.9425Z" fill="url(#paint7_linear)"/>
<path opacity="0.85" fill-rule="evenodd" clip-rule="evenodd" d="M70.5936 7.92416C70.6187 8.14194 70.4577 8.33473 70.2341 8.35477C64.6757 8.8528 62.1519 12.7751 61.2205 15.7542C61.1555 15.9622 60.9281 16.0763 60.7126 16.0089C60.4971 15.9416 60.3752 15.7183 60.4402 15.5102C61.4228 12.3673 64.1348 8.10446 70.1432 7.56612C70.3669 7.54608 70.5685 7.70638 70.5936 7.92416Z" fill="url(#paint8_linear)"/>
<path opacity="0.85" fill-rule="evenodd" clip-rule="evenodd" d="M66.4741 8.71158C66.6896 8.77894 66.8116 9.00223 66.7465 9.21029C66.4724 10.0871 66.1408 11.5664 66.0455 13.1277C65.9495 14.701 66.0979 16.293 66.7248 17.4407C66.8312 17.6355 66.7566 17.874 66.5582 17.9735C66.3599 18.073 66.1128 17.9958 66.0064 17.801C65.2714 16.4552 65.1331 14.6835 65.2318 13.0652C65.3313 11.435 65.676 9.89473 65.9662 8.96634C66.0313 8.75827 66.2587 8.64421 66.4741 8.71158Z" fill="url(#paint9_linear)"/>
<circle cx="48" cy="42" r="16" fill="url(#paint10_linear)"/>
<path d="M13.6055 27.9443L31.9769 21.2577L33.516 25.4864L15.1446 32.1731L13.6055 27.9443Z" fill="url(#paint11_linear)"/>
<path d="M29.3185 9.64749L29.9586 15.7039L31.98 21.2576L13.6085 27.9443L11.5872 22.3906L8.18448 17.3397L9.96011 15.4641L15.3817 17.9923L16.2604 11.7661L19.5024 10.5861L24.1776 14.7908L26.7527 9.35211L29.3185 9.64749Z" fill="url(#paint12_linear)"/>
<path d="M8.53836 17.6737C7.37253 18.0981 6.03178 17.5119 5.60745 16.346C5.18313 15.1802 5.8334 13.8694 6.99924 13.445C8.16507 13.0207 9.45883 13.624 9.88316 14.7898C10.3075 15.9557 9.7042 17.2494 8.53836 17.6737Z" fill="url(#paint13_linear)"/>
<path d="M28.8371 10.4291C27.6712 10.8535 26.3775 10.2502 25.9532 9.08433C25.5288 7.9185 26.1321 6.62474 27.298 6.20041C28.4638 5.77608 29.7575 6.37937 30.1819 7.5452C30.6062 8.71104 30.0029 10.0048 28.8371 10.4291Z" fill="url(#paint14_linear)"/>
<path d="M16.4718 7.38742C15.3017 7.81328 14.7011 9.10129 15.127 10.2713C15.5528 11.4412 16.8409 12.042 18.0109 11.6161C19.181 11.1903 19.7815 9.90209 19.3557 8.73221C18.9298 7.56216 17.6418 6.96155 16.4718 7.38742Z" fill="url(#paint15_linear)"/>
<path d="M11.7491 20.6399L10.9174 24.9334L14.3143 27.6877L15.1461 23.3942L11.7491 20.6399Z" fill="#CB75F6"/>
<path d="M23.6031 20.3159L22.7714 24.6094L19.3744 21.855L20.2062 17.5615L23.6031 20.3159Z" fill="#FF6C6C"/>
<path d="M23.602 20.3159L22.7703 24.6094L20.2051 17.5615L23.602 20.3159Z" fill="#FF4949"/>
<path d="M28.7101 14.4663L27.8783 18.7598L31.2753 21.5141L32.107 17.2206L28.7101 14.4663Z" fill="#B760EA"/>
<path d="M11.9414 27.7524L33.132 20.0397L33.645 21.4493L12.4544 29.162L11.9414 27.7524Z" fill="#FFE470"/>
<path d="M13.4805 31.981L34.671 24.2682L35.1841 25.6778L13.9935 33.3905L13.4805 31.981Z" fill="#FFE470"/>
<path d="M57.6383 36.2227C57.3158 35.8462 56.8033 35.6896 56.3106 35.7466L54.729 35.9286C52.8104 36.1495 50.9275 35.2878 49.8401 33.6914L48.9439 32.3754C48.6648 31.9658 48.2114 31.6799 47.7157 31.6819C47.2333 31.684 46.7562 31.9143 46.461 32.351L41.9661 38.1583L43.1547 39.5772C46.1212 43.3027 50.0249 45.0856 54.6454 44.8355L56.4961 44.8075L57.9521 37.6095C58.0897 37.1007 57.9521 36.5891 57.6383 36.2227Z" fill="url(#paint16_linear)"/>
<path d="M56.1787 46.3843L55.9739 47.3969C55.9418 47.5559 55.8032 47.6712 55.6408 47.6738L53.332 47.7092C48.7115 47.9592 44.8079 46.1763 41.8414 42.4508L40.359 40.6806C40.2547 40.5559 40.2513 40.3757 40.3507 40.2475L40.9831 39.4306C38.7536 37.3536 37.3168 36.0683 36.3286 38.2277C34.5654 42.0808 38.4644 47.6426 45.0371 50.6503C51.6098 53.6581 58.3675 52.973 60.1308 49.12C61.119 46.9605 59.207 46.7135 56.1787 46.3843Z" fill="url(#paint17_linear)"/>
<path fill-rule="evenodd" clip-rule="evenodd" d="M57.3602 47.6947C47.1172 50.1531 41.3076 42.2914 39.6113 39.7469L42.6052 37.751C44.2672 40.244 48.7725 46.0554 56.5205 44.1959L57.3602 47.6947Z" fill="url(#paint18_linear)"/>
<path d="M62.4874 55.5167L53.882 75.8919C53.4285 76.8442 52.7364 77.6211 51.9017 78.1598C51.0676 78.699 50.0928 79 49.0738 79H4.75449C3.03416 79 1.56414 77.9025 1 76.3678L11.0812 51.1181C11.9303 49.2206 13.8167 47.9999 15.8908 47.9999H57.7332C59.6123 47.9999 61.3067 48.9648 62.2655 50.5789C63.1589 52.0869 63.2426 53.9327 62.4874 55.5167Z" fill="url(#paint19_linear)"/>
<defs>
<linearGradient id="paint0_linear" x1="-59.5" y1="13.5" x2="62.4282" y2="45.4929" gradientUnits="userSpaceOnUse">
<stop stop-color="#06BEE1"/>
<stop offset="1" stop-color="#06BEE1" stop-opacity="0"/>
</linearGradient>
<linearGradient id="paint1_linear" x1="14" y1="34" x2="38" y2="4" gradientUnits="userSpaceOnUse">
<stop stop-color="#EAECF3"/>
<stop offset="1" stop-color="#EAECF3" stop-opacity="0"/>
</linearGradient>
<linearGradient id="paint2_linear" x1="58.6667" y1="29.3333" x2="80" y2="2.66667" gradientUnits="userSpaceOnUse">
<stop stop-color="#EAECF3"/>
<stop offset="1" stop-color="#EAECF3" stop-opacity="0"/>
</linearGradient>
<linearGradient id="paint3_linear" x1="63.3604" y1="5.82575" x2="62.3516" y2="11.3095" gradientUnits="userSpaceOnUse">
<stop offset="0.270833" stop-color="#26BE6C"/>
<stop offset="0.770833" stop-color="#77EA77"/>
<stop offset="1" stop-color="#6CEC80"/>
</linearGradient>
<linearGradient id="paint4_linear" x1="61.6131" y1="18.8196" x2="71.2676" y2="21.1512" gradientUnits="userSpaceOnUse">
<stop stop-color="#F85473"/>
<stop offset="0.22" stop-color="#F2627C"/>
<stop offset="0.46" stop-color="#F58697"/>
<stop offset="0.72" stop-color="#F79CA5"/>
<stop offset="0.98" stop-color="#FABCB9"/>
<stop offset="1" stop-color="#FABEBA"/>
</linearGradient>
<linearGradient id="paint5_linear" x1="64.2337" y1="20.1935" x2="64.3402" y2="17.3637" gradientUnits="userSpaceOnUse">
<stop stop-color="white"/>
<stop offset="1" stop-color="white" stop-opacity="0"/>
</linearGradient>
<linearGradient id="paint6_linear" x1="55.9017" y1="15.1255" x2="63.9926" y2="21.5027" gradientUnits="userSpaceOnUse">
<stop stop-color="#FC6E89"/>
<stop offset="0.22" stop-color="#FF7790"/>
<stop offset="0.46" stop-color="#F58697"/>
<stop offset="0.72" stop-color="#F79CA5"/>
<stop offset="0.98" stop-color="#FABCB9"/>
<stop offset="1" stop-color="#FABEBA"/>
</linearGradient>
<linearGradient id="paint7_linear" x1="57.6285" y1="16.6986" x2="58.961" y2="14.192" gradientUnits="userSpaceOnUse">
<stop stop-color="white"/>
<stop offset="1" stop-color="white" stop-opacity="0"/>
</linearGradient>
<linearGradient id="paint8_linear" x1="64.4758" y1="16.9961" x2="66.9124" y2="4.77645" gradientUnits="userSpaceOnUse">
<stop stop-color="#D3B3DB"/>
<stop offset="0.32" stop-color="#A776BB"/>
<stop offset="0.598958" stop-color="#9059AC"/>
<stop offset="0.84" stop-color="#794496"/>
</linearGradient>
<linearGradient id="paint9_linear" x1="65.3165" y1="17.5514" x2="66.4451" y2="7.53827" gradientUnits="userSpaceOnUse">
<stop stop-color="#D3B3DB"/>
<stop offset="0.32" stop-color="#A776BB"/>
<stop offset="0.598958" stop-color="#9059AC"/>
<stop offset="0.84" stop-color="#794496"/>
</linearGradient>
<linearGradient id="paint10_linear" x1="46" y1="52.5" x2="64" y2="28.6667" gradientUnits="userSpaceOnUse">
<stop stop-color="#EAECF3"/>
<stop offset="1" stop-color="#EAECF3" stop-opacity="0"/>
</linearGradient>
<linearGradient id="paint11_linear" x1="17.5472" y1="29.6612" x2="34.548" y2="23.8666" gradientUnits="userSpaceOnUse">
<stop stop-color="#FFD60A"/>
<stop offset="1" stop-color="#FFD60A" stop-opacity="0"/>
</linearGradient>
<linearGradient id="paint12_linear" x1="13.9248" y1="22.6276" x2="33.3965" y2="15.7044" gradientUnits="userSpaceOnUse">
<stop stop-color="#FFD60A"/>
<stop offset="1" stop-color="#FFD60A" stop-opacity="0"/>
</linearGradient>
<linearGradient id="paint13_linear" x1="7.04442" y1="18.1681" x2="9.19317" y2="13.3707" gradientUnits="userSpaceOnUse">
<stop stop-color="#FDBF00"/>
<stop offset="1" stop-color="#FDBF00" stop-opacity="0"/>
</linearGradient>
<linearGradient id="paint14_linear" x1="27.3826" y1="10.9091" x2="29.5461" y2="6.14935" gradientUnits="userSpaceOnUse">
<stop stop-color="#FDBF00"/>
<stop offset="1" stop-color="#FDBF00" stop-opacity="0"/>
</linearGradient>
<linearGradient id="paint15_linear" x1="16.5564" y1="12.0961" x2="18.72" y2="7.33636" gradientUnits="userSpaceOnUse">
<stop stop-color="#FDBF00"/>
<stop offset="1" stop-color="#FDBF00" stop-opacity="0"/>
</linearGradient>
<linearGradient id="paint16_linear" x1="43.5696" y1="37.3913" x2="62.9999" y2="38.4707" gradientUnits="userSpaceOnUse">
<stop stop-color="#CB8252"/>
<stop offset="1" stop-color="#CB8252" stop-opacity="0"/>
</linearGradient>
<linearGradient id="paint17_linear" x1="36.1901" y1="43.014" x2="63.0718" y2="37.2882" gradientUnits="userSpaceOnUse">
<stop stop-color="#CB8252"/>
<stop offset="1" stop-color="#CB8252" stop-opacity="0"/>
</linearGradient>
<linearGradient id="paint18_linear" x1="48.4858" y1="37.751" x2="57.6023" y2="47.8259" gradientUnits="userSpaceOnUse">
<stop stop-color="#895C3D"/>
<stop offset="1" stop-color="#895C3D" stop-opacity="0"/>
</linearGradient>
<linearGradient id="paint19_linear" x1="-82" y1="11.5" x2="40.8493" y2="110.881" gradientUnits="userSpaceOnUse">
<stop stop-color="#06BEE1" stop-opacity="0.7"/>
<stop offset="1" stop-color="#06BEE1" stop-opacity="0"/>
</linearGradient>
</defs>
</svg>
