<svg fill="none" height="40" viewBox="0 0 120 40" width="120" xmlns="http://www.w3.org/2000/svg"><path d="m99.0655 3h-78.1182v34h78.1182z" fill="#1a212a"/><path d="m21.1493 16.1509c.7405.7405 1.4811 1.4729 2.2176 2.2175.5099.5168 1.0117 1.0457 1.469 1.5137-.8053.8382-1.6268 1.7008-2.4605 2.5552-.4046.4151-.8174.822-1.2261 1.2329-.3764.3662-.7527.7324-1.1493 1.119 0-3.2592 0-6.49 0-9.7614.3966.3866.7729.7569 1.1493 1.1231z" fill="#fff"/><path d="m98.8793 23.7113c-.522-.5249-1.0481-1.0539-1.5701-1.5747-.7082-.7039-1.4124-1.4079-2.1246-2.1077-.0931-.0895-.0971-.1343 0-.2279 1.2059-1.1881 2.4038-2.3844 3.6057-3.5766.0323-.0325.0607-.0691.093-.1058.3642-.354.7285-.708 1.1167-1.0864v9.7736c-.3923-.3865-.7565-.7405-1.1207-1.0945z" fill="#fff"/><path d="m27.5275 26.689c0-2.0141 0-4.0282-.0041-6.0424 0-.1546.0365-.1993.1943-.1993 2.4604.004 4.9249.004 7.3853 0 .1295 0 .2023.0325.2711.1505.3925.6958.5625 1.4363.5585 2.2339-.0081 1.9205.004 3.837.0081 5.7575 0 .4842-.0567.9603-.2064 1.4201-.4816 1.5055-1.9627 2.9337-3.9092 2.9377-1.3678.0041-2.7396-.004-4.1074.0041-.1659 0-.1943-.0488-.1943-.2035.0081-2.0141.0081-4.0363.0041-6.0586zm2.8044-.9765h-.0041c0 1.4037.0041 2.8075-.004 4.2113 0 .1465.0283.1994.1861.1912.3521-.0122.7001-.004 1.0522-.004.1699 0 .3359.0122.5018-.0366.6394-.1791 1.044-.7243 1.0481-1.4201.004-1.0457.004-2.0874.0081-3.1331 0-.9033.0081-1.8025.004-2.7058-.004-.8992-.5908-1.4892-1.4811-1.4892-.3723 0-.7405.0081-1.1128-.0041-.1579-.0041-.2024.0366-.2024.1994.0081 1.3997.0041 2.7953.0041 4.191z" fill="#fdfdfd"/><path d="m27.5275 13.1151c0-2.0141.004-4.02823-.0041-6.04235 0-.1709.0405-.20752.2064-.20752 1.2424.00814 2.4807.00407 3.723.00407 2.08.00407 3.8282 1.49737 4.1641 3.5644.0445.2685.0445.5412.0445.8097 0 1.9205.0041 3.837.0081 5.7575 0 .7935-.178 1.5422-.5908 2.2258-.0647.1057-.1295.1464-.2549.1464-2.3755-.004-4.7469-.004-7.1223.0041-.174 0-.174-.0692-.174-.1994 0-2.0222 0-4.0445 0-6.0627zm2.776.9969c.0041 0 .0041 0 0 0 .0041 1.3916.0081 2.7791-.004 4.1707 0 .1871.0486.2278.2226.2197.2671-.0163.5382-.0041.8093-.0041.9065 0 1.4973-.59 1.4973-1.4974 0-.6388-.004-1.2735-.004-1.9124 0-1.2817-.0081-2.5634-.0041-3.8451.0041-.9114-.5422-1.43633-1.1938-1.51771-.3723-.04882-.7527-.00813-1.1331-.02441-.1578-.00814-.2023.03662-.2023.19938.0162 1.40784.0121 2.80754.0121 4.21134z" fill="#fdfdfd"/><g fill="#fff"><path d="m75.5327 24.8628c0 1.3509.0162 2.6977-.0041 4.0486-.0283 2.1606-2.0274 4.3131-4.6173 4.0201-2.1973-.2482-3.7553-2.0385-3.7472-4.2602.0121-2.6733.0081-5.3425.004-8.0158 0-.1953.0486-.2441.2428-.2441.777.0122 1.5499.0122 2.3269 0 .17-.0041.2104.0448.2104.2116-.0081 2.6651-.0081 5.3303-.0081 7.9954 0 .7406.3926 1.2777 1.0522 1.4567.8053.2157 1.6672-.3784 1.7482-1.2125.0081-.0936.0081-.1913.0081-.2849 0-2.6448.004-5.2896 0-7.9344 0-.1871.0485-.236.2347-.2319.781.0122 1.566.0081 2.3471 0 .174-.0041.2266.0366.2266.2197-.0081 1.4119-.0041 2.8198-.0041 4.2317-.0081 0-.0121 0-.0202 0z"/><path d="m67.1901 14.9709c0-1.3428-.0162-2.6855.004-4.0283.0284-1.90424 1.4852-3.6254 3.3426-3.99161 2.1812-.4313 4.2653.8382 4.8804 2.97846.1214.42315.1578.86265.1538 1.30615-.0081 1.6276-.0081 3.2551-.0081 4.8827 0 1.005-.0081 2.006 0 3.011 0 .1872-.0567.2197-.2267.2197-.7891-.0081-1.5782-.0081-2.3673 0-.1699 0-.2104-.0447-.2104-.2116.0081-2.6244.0081-5.2489.0121-7.8733 0-.4924-.1254-.9318-.522-1.2451-.4532-.3581-.9591-.42727-1.4811-.175-.5382.2604-.8134.7161-.8134 1.3224-.004 1.4038-.004 2.8076-.004 4.2114 0 1.2532-.0041 2.5105.004 3.7637 0 .1709-.0445.2116-.2104.2116-.781-.0081-1.5661-.0122-2.3471 0-.1902.0041-.2186-.061-.2145-.2319.0081-1.3835.004-2.7669.004-4.1503z"/><path d="m59.6338 20.4152h.2388c1.3961 0 2.7922.0041 4.1883-.0041.1376 0 .2226.0407.3035.1465.5949.7894.9429 1.6805 1.0927 2.653.1861 1.2003.0607 2.4088.085 3.6132.0121.6713.0242 1.3427-.0122 2.0141-.0971 1.7822-.9712 3.0883-2.5859 3.78-2.4685 1.062-5.0341-.4394-5.6533-2.7913-.0971-.3702-.1416-.7446-.1335-1.1271.0081-.6022.0081-1.2084.004-1.8106 0-.1425.0365-.1831.1781-.1791.8174.0082 1.6308.0082 2.4483 0 .1618 0 .1861.0529.178.1953-.0202.5615-.0364 1.1231-.0404 1.6886-.0041.5493.1821 1.0091.6677 1.3102.9024.5575 2.1164-.0569 2.1407-1.123.0283-1.3549.0769-2.714-.0405-4.0648-.1052-1.2533-.6434-2.3071-1.6268-3.1128-.4653-.3743-.9226-.7609-1.4325-1.1881z"/><path d="m63.0247 19.3127c-.0809.0528-.1497.0325-.2104.0325-1.384 0-2.764 0-4.1479.0041-.1417 0-.2348-.0448-.3197-.1587-.5868-.7975-.9105-1.6968-1.0603-2.6692-.1335-.8504-.0728-1.7049-.0769-2.5553-.004-1.0376-.0162-2.0752.0243-3.1128.0729-1.87573 1.5175-3.53993 3.3426-3.90206 2.1488-.42724 4.2167.80972 4.852 2.90522.1255.41504.1781.84634.1741 1.28174-.0081.5981-.0122 1.1922-.0081 1.7903 0 .1261-.0243.175-.166.175-.8295-.0082-1.6591-.0041-2.4887 0-.1254 0-.1578-.0367-.1578-.1587.004-.6388.0162-1.2736-.0041-1.9124-.0242-.7446-.6029-1.30615-1.3232-1.32243-.7487-.01627-1.3962.52893-1.4326 1.28173-.0405.8382-.0243 1.6805-.0324 2.5227-.004.5819-.0242 1.1637.0648 1.7456.1821 1.2451.7648 2.2501 1.7401 3.0354.4168.3255.8174.6714 1.2302 1.0173z"/></g><path d="m37.9555 26.6651c0-2.0141.004-4.0283-.0041-6.0424 0-.1709.0446-.2116.2105-.2116 2.2945.0041 4.5849.0041 6.8794 0 .174 0 .2185.0489.2023.2157-.0161.175-.0161.354-.004.5289.0121.1465-.0405.1791-.1821.175-1.3638-.0081-2.7235 0-4.0872-.0081-.1659 0-.2145.0366-.2145.2075.0041 2.7872.0041 5.5744-.004 8.3617 0 .1709.0323.2238.2145.2238 1.3637-.0041 2.7234.0081 4.0871.004.166 0 .1983.0488.1983.2035-.0162.826-.0242 1.656-.0283 2.482 0 .1099-.0243.1506-.1416.1506-2.3269-.0041-4.6538-.0082-6.9806 0-.1821 0-.1498-.1018-.1498-.2035 0-2.0304 0-4.0608.0041-6.0871-.0041 0 0 0 0 0z" fill="#fdfdfd"/><path d="m77.44 13.0909c0-2.0019.0041-3.99974-.004-6.00166 0-.17496.0323-.22786.2185-.22379 2.3107.00814 4.6254.00407 6.9361 0 .1659 0 .2144.03662.2104.20751-.0122.81379-.0122 1.62758-.0041 2.44136 0 .1709-.0566.19531-.2063.19531-1.3759-.00407-2.7518.00407-4.1277-.00407-.174 0-.2064.04883-.2064.21566.0041 2.78718.0041 5.57448-.004 8.35758 0 .179.0404.2238.2226.2238 1.3677-.0081 2.7355-.0041 4.1074-.0122.1659 0 .2266.0407.2104.2116-.0162.1546-.0121.3133 0 .4679.0121.1465-.0405.179-.1821.179-.9105-.004-1.821-.004-2.7315-.004-1.4043 0-2.8044-.0041-4.2086.004-.1902 0-.2469-.0366-.2469-.24.0081-2.006.0041-4.012.0041-6.0221.0121.0041.0121.0041.0121.0041z" fill="#fff"/><path d="m37.9594 13.1029c0-2.006 0-4.01603-.004-6.02201 0-.15869.0242-.21566.2023-.21566 2.2945.00814 4.5849.00814 6.8794.00407.17 0 .1943.05697.1902.20345-.0081.81379-.0081 1.62757-.004 2.44136 0 .15869-.0364.20345-.1983.19938-1.3637-.00814-2.7234-.00407-4.0872-.00814-.1538 0-.2023.03255-.2023.19531.004 2.79944.004 5.59884-.0041 8.40234 0 .1709.0526.1953.2064.1953 1.3678-.0041 2.7396 0 4.1074-.0081.17 0 .2347.0447.2064.2116-.0081.0651-.004.1342-.004.2034-.0041.4354-.0041.4354-.4452.4354-2.2135 0-4.423-.0041-6.6366.0041-.1902 0-.2185-.057-.2185-.2279.004-2.006.004-4.016.004-6.022.0041.0081.0081.0081.0081.0081z" fill="#fdfdfd"/><path d="m91.461 14.5396c0 1.534-.004 3.0639.0041 4.5979 0 .1709-.0445.2156-.2145.2115-.8012-.0081-1.6065-.0081-2.4078 0-.17.0041-.2104-.0447-.2104-.2115.004-3.0639.004-6.1279.0121-9.19176 0-.19938-.0526-.24413-.2428-.24007-.7972.01221-1.5904.00407-2.3876.00814-.1416 0-.1821-.03662-.1821-.17903.0081-.83413.0122-1.66826.0041-2.50239 0-.13835.0445-.16276.1699-.16276 2.6102.00407 5.2203.00407 7.8264 0 .1376 0 .166.04069.166.17089-.0081.83414-.0122 1.66827-.0081 2.5024 0 .13427-.0365.17089-.17.17089-.7203-.00407-1.4447.00407-2.165-.00407-.1578 0-.2024.03662-.2024.19938.0122 1.54208.0122 3.08828.0081 4.63048z" fill="#fff"/><path d="m52.7943 14.5191c0 1.538-.004 3.0761.0041 4.6141 0 .1669-.0405.2157-.2105.2116-.7972-.0081-1.5903-.0122-2.3875 0-.1862.0041-.2145-.057-.2145-.2278.0081-3.064.004-6.1279.0121-9.19177 0-.17089-.0283-.22786-.2145-.22379-.8093.01221-1.6186.00407-2.428.00814-.1295 0-.17-.03255-.17-.16683.0081-.83413.0122-1.66826.0041-2.50239 0-.14648.0486-.17496.1821-.17496 2.5899.00407 5.1758 0 7.7657-.00407.1416 0 .1983.01627.1942.1831-.0121.82192-.0162 1.63978-.0121 2.4617 0 .15869-.0445.20345-.2064.19938-.7082-.00814-1.4164.00407-2.1245-.00407-.1579 0-.2024.03662-.2024.19938.0162 1.54208.0122 3.08018.0081 4.61828.0041 0 .0041 0 0 0z" fill="#fdfdfd"/><path d="m77.4358 26.6649c0-2.0141.0041-4.0282-.004-6.0383 0-.1668.0405-.2116.2104-.2116 2.3188.0041 4.6376.0041 6.9563 0 .1498 0 .2186.0285.2024.1953-.0162.175-.0122.354 0 .529.0121.1546-.0364.1912-.1902.1912-1.3435-.004-2.683 0-4.0265 0-.3116 0-.3116 0-.3116.3052-.0041 3.6946-.0122 7.3892-.0081 11.0838 0 .1994-.0526.2441-.2428.2401-.8013-.0122-1.6066-.0082-2.4078 0-.1538 0-.1862-.0448-.1862-.1913.0081-2.0385.0081-4.0689.0081-6.1034z" fill="#fff"/><path d="m88.6408 26.6649c0-2.0141.004-4.0283-.0041-6.0424 0-.1668.0405-.2116.2105-.2116.7972.0082 1.5903.0082 2.3875 0 .1781-.0041.2347.0366.2347.2279-.0081 3.2022-.0081 6.4004-.0081 9.6027 0 .8423-.004 1.6805.0041 2.5227 0 .1506-.0364.1913-.1902.1913-.8094-.0082-1.6187-.0082-2.428 0-.166 0-.2105-.0366-.2105-.2075.0041-2.0264 0-4.0568.0041-6.0831z" fill="#fff"/><path d="m52.787 26.7058c0 2.0141-.0041 4.0282.004 6.0424 0 .1749-.0486.2075-.2104.2075-.8013-.0082-1.6066-.0082-2.4078 0-.1376 0-.1943-.0163-.1943-.1831.0081-4.0608.0122-8.1216.0081-12.1824 0-.1424.0364-.1791.1781-.1791.8174.0082 1.6308.0082 2.4482 0 .1579 0 .1862.0489.1862.1913-.0041 2.0344-.0041 4.0689-.0041 6.1034-.004 0-.004 0-.008 0z" fill="#fdfdfd"/><path d="m30.3323 25.7129c0-1.3956.0041-2.7953-.004-4.191 0-.1627.0445-.2034.2023-.1994.3723.0122.7406.0041 1.1129.0041.8902 0 1.4811.5859 1.4811 1.4892.004.9033-.0041 1.8026-.0041 2.7059-.004 1.0457-.004 2.0873-.0081 3.133-.004.6958-.4087 1.2411-1.0481 1.4201-.1659.0448-.3359.0326-.5018.0366-.352.0041-.7001-.0081-1.0521.0041-.1579.0081-.1862-.0448-.1862-.1913.0041-1.4037.0041-2.8075.0041-4.2113z" fill="#010100"/><path d="m30.3029 14.1123c0-1.4038.004-2.8075-.0041-4.21133 0-.16275.0445-.20751.2024-.19938.3763.01628.7608-.02441 1.1331.02442.6515.08545 1.1978.60629 1.1937 1.51769-.004 1.2817 0 2.5634.0041 3.8452 0 .6388.004 1.2735.004 1.9123-.004.9074-.5948 1.4933-1.4973 1.4974-.2711 0-.5382-.0122-.8093.0041-.174.0122-.2266-.0326-.2226-.2197.0041-1.3916 0-2.7791-.004-4.1707.004 0 .004 0 0 0z" fill="#010100"/></svg>