<svg fill="none" height="40" viewBox="0 0 120 40" width="120" xmlns="http://www.w3.org/2000/svg"><g fill="#31373f"><path d="m59.6465 21.2481c0-2.1024 0-4.1932 0-6.2955 0-.8131.023-1.6378.1842-2.4393.1957-.9989.5411-1.9281 1.1973-2.71794.3685-.44138.8175-.80145 1.3125-1.09183 2.1184-1.208 4.3519-1.64938 6.7582-1.17315.7253.151 1.4161.40653 2.0723.74338 1.0937.55753 1.8421 1.45191 2.3717 2.54374.5411 1.1151.8289 2.2998.9441 3.5311.1266 1.3938.046 2.7876-.2764 4.1466-.2763 1.1732-.7483 2.2534-1.4966 3.1942-1.278 1.603-2.9589 2.3347-4.9967 2.2069-.5526-.0348-1.0937-.1277-1.6233-.3136-.7484-.2555-1.3816-.6853-1.8882-1.3009-.1266-.151-.2417-.3252-.3569-.4878-.023-.0233-.0575-.0349-.0921-.0349-.046 0-.069.0233-.069.0697v.3369 4.9597c0 .2091 0 .4065-.0231.6156-.1266.9176-.8519 1.6494-1.7615 1.7191-.6792.0581-1.3585.0232-2.0378.0232-.1266 0-.2072-.0697-.2072-.2091 0-.1277 0-.2555 0-.3949-.0115-2.5321-.0115-5.0875-.0115-7.6312zm10.7877-5.5754c.0115-.8363-.0806-1.6726-.3569-2.4741-.2994-.8943-.8059-1.6261-1.6809-2.0326-.5526-.2556-1.1283-.3136-1.727-.2672-.898.0697-1.6118.4762-2.1414 1.208-.3109.4298-.5066.906-.6217 1.4171-.2648 1.2428-.2993 2.5089-.0921 3.7633.0691.4182.1957.8363.3799 1.2196.403.8131.9671 1.4403 1.8651 1.7075 1.1744.3601 2.7171.1858 3.6151-1.2893.1727-.2904.3224-.5808.426-.906.2533-.7434.3454-1.5332.3339-2.3463z"/><path d="m13.0411 9.55156c.2187-.06969.2648-.19746.3454-.29038.9671-1.18476 2.199-1.8236 3.7187-1.90491 1.4276-.06969 2.7401.25554 3.8799 1.16153.7138.56915 1.2779 1.27769 1.7269 2.0791.5987 1.0803.9326 2.2534 1.0708 3.4846.1496 1.3358.1381 2.6716-.1037 3.9957-.2072 1.1615-.6101 2.2534-1.2549 3.2407-.5756.906-1.3585 1.5564-2.3486 1.9397-1.301.5227-2.6596.7202-4.0526.6389-1.6464-.1046-3.1661-.6156-4.5822-1.4636-.8405-.4994-1.4161-1.2312-1.79607-2.1256-.46052-1.0686-.63322-2.2069-.63322-3.3684-.01151-1.8817-.01151-3.7517-.01151-5.6334 0-2.54378 0-5.08753.01151-7.63128 0-.16262 0-.33685.01152-.49946 0-.10454.06907-.16262.17269-.17423h.16118c.57566 0 1.1398.01161 1.7154 0 .8635-.02323 1.8767.72015 1.9573 1.89329.0115.16262.0115.33685.0115.49946v3.5659zm.0345 6.09804c0 .3136-.0115.6272 0 .9408.0461.6505.1612 1.2893.4145 1.8933.3914.9176 1.0362 1.5681 2.0148 1.8353.3914.1045.8059.1045 1.2088.0813.9902-.0697 1.75-.5343 2.2796-1.3706.3684-.5924.5757-1.2429.6793-1.9282s.1382-1.3706.1036-2.0559c-.0345-.7318-.1497-1.4403-.449-2.114-.5066-1.1267-1.301-1.8933-2.5789-1.9862-1.0822-.0813-2.0378.2207-2.7516 1.1151-.2303.2904-.403.6156-.5411.964-.3339.848-.426 1.7307-.38 2.6251z"/><path d="m53.8437 16.753c-1.5083 0-3.0165 0-4.5247 0-.6677 0-.6332 0-.5641.662.0921.7667.3224 1.4752.8404 2.0792.3685.4181.8175.6969 1.3471.8247.6332.151 1.2779.151 1.9111 0 .5181-.1278.9786-.3485 1.3125-.7783.5181-.6736 1.1859-.8827 1.9918-.8363.6562.0349 1.324.0117 1.9917.0117.1497 0 .2994 0 .4375.0116.1036.0116.1497.0929.1267.1974-.0115.0697-.0346.1394-.0576.2207-.6793 2.1489-2.0608 3.624-4.1792 4.3441-1.6234.5576-3.2928.5924-4.9506.1743-2.0724-.5343-3.477-1.8585-4.3059-3.8215-.3684-.8595-.5642-1.7655-.6563-2.6947-.1151-1.1151-.1151-2.2301.0231-3.3336.1611-1.2428.5065-2.4276 1.1858-3.4962 1.0016-1.57967 2.4523-2.48567 4.2598-2.81089 1.2434-.2207 2.4984-.18585 3.7303.10453 1.1858.27877 2.2565.81307 3.12 1.68422.6793.6853 1.1398 1.49834 1.4737 2.39274.4029 1.057.5756 2.1488.6217 3.2639.023.4995.0115.9989.0115 1.51 0 .2323-.0691.2904-.2994.3136-.1266.0116-.2532 0-.3914 0-1.4737-.0232-2.9704-.0232-4.4555-.0232zm-5.1579-2.7993c.1842.1394.3799.0813.5641.0929h4.6859c.944 0 .8059.1046.6677-.8479-.0576-.3717-.1842-.7202-.3569-1.0454-.3108-.5575-.7599-.9524-1.37-1.1499-.6102-.1975-1.2204-.2439-1.8536-.1161-.4951.1045-.9326.3136-1.324.6504-.7254.6389-.9556 1.4868-1.0132 2.416z"/><path d="m94.75 18.3099v4.681c0 .151 0 .302-.0115.4414-.0116.1045-.0691.1626-.1727.1742-.0922.0116-.1843.0116-.2764.0116-1.0822 0-2.1759 0-3.2582 0-.0921 0-.1842 0-.2763-.0116-.1036-.0116-.1611-.0813-.1611-.1858 0-.1278 0-.2556 0-.395 0-2.8457 0-5.6799 0-8.5256 0-.8015.0575-1.5913.1957-2.3811.1496-.8363.426-1.6146.921-2.29987.2763-.39492.6217-.73176 1.0362-.99892 1.3931-.90599 2.9243-1.40545 4.5707-1.46352 1.2088-.04647 2.3832.19746 3.4996.66207.334.13938.668.31361.99.48784 1.106.55754 1.762 1.48676 2.13 2.6483.3.9292.403 1.8817.415 2.8574.011 1.1847.011 2.3811.011 3.5659v5.4011.4414c0 .1045-.069.1626-.172.1858-.035 0-.069.0116-.115.0116-.645 0-1.29.0116-1.935-.0116-.575-.0116-1.07-.2555-1.439-.7085-.276-.3253-.38-.7086-.426-1.1267-.011-.1626-.011-.3369-.011-.4995 0-2.5205 0-5.0526 0-7.5732 0-.3716-.012-.7433-.104-1.1034-.138-.5692-.4374-1.0105-.9209-1.3358-1.0823-.7201-2.4408-.7317-3.4885-.0232-.4836.3252-.7829.7782-.9095 1.3474-.0806.3484-.1036.6969-.1036 1.0454.023 1.568.0115 3.1245.0115 4.6809z"/><path d="m29.9529 13.1643c0-1.5797 0-3.1593 0-4.73902 0-.12777 0-.25553 0-.39492.0115-.26715.0461-.31361.3339-.31361h3.4769c.2764 0 .2994.04646.3109.33684v.33685c.0115 3.06646.0115 6.13286.023 9.19936 0 .2787.0115.5575.0461.8363.0806.9176.5756 1.5564 1.4046 1.9049 1.1282.4762 2.199.3368 3.1891-.3833.5641-.4066.7829-1.0222.8519-1.6843.0231-.2555.0231-.5226.0231-.7782 0-2.474.0115-4.9365.0115-7.4105 0-.18589-.0115-.37173.0115-.55758.0806-.95245.8059-1.71906 1.75-1.77714.6793-.04646 1.3585-.01162 2.0378-.01162.1957 0 .2418.05808.2533.27877v.27877c0 2.9503 0 5.9122.0115 8.8625 0 .7782-.0691 1.5564-.2188 2.323-.1496.7318-.4029 1.4287-.8289 2.0443-.2993.4298-.6562.8015-1.1168 1.0686-2.1874 1.2777-4.5016 1.6726-6.9654.999-.8174-.2207-1.6003-.5576-2.3371-.9873-.9326-.5344-1.4967-1.359-1.8421-2.3463-.3224-.9176-.4375-1.8817-.4375-2.8458 0-1.4054 0-2.8225.0115-4.2396-.0115 0 0 0 0 0z"/><path d="m105.48 12.1414c0-2.85732 0-5.7263 0-8.58367 0-.49945-.069-.52268.507-.52268.518 0 1.036.01161 1.543 0 1.139-.03485 2.06.9873 2.037 2.04429-.011.70853 0 1.41707 0 2.11398v.39492c0 .10454.069.17423.173.17423.242.01162.484.01162.714.01162h1.324c.127 0 .207.05808.207.19746v.72015c-.011 1.10345-.898 1.8817-1.842 1.9398-.15.0116-.299.0116-.437.0232-.081.0116-.139.0581-.139.1394-.011.1161-.011.2207-.011.3368v8.1423.1162c.011.7434.334 1.0802 1.082 1.1034.345.0117.702 0 1.048.0117.265 0 .299.0348.299.2787v2.567c0 .2555-.023.2788-.288.2904-1.324.0581-2.648.0348-3.972-.0697-.126-.0116-.253-.0232-.38-.0465-.84-.1858-1.416-.6736-1.681-1.5099-.149-.4995-.195-1.0222-.195-1.5449.011-2.7877.011-5.5521.011-8.3282z"/><path d="m24.7963 13.245c0-3.1942 0-6.38839 0-9.5826 0-.63884-.0806-.62723.6332-.62723h1.4391c.3339 0 .6563.06969.9556.22069.6447.32523 1.0131.84792 1.0822 1.56807.023.18584.0115.37169.0115.55753.0115 5.85414.0115 11.70824.0115 17.55074 0 .7085.0576.6737-.6447.6737-.9786 0-1.9572 0-2.9243 0-.1497 0-.2993 0-.4375-.0233-.0806-.0116-.1382-.0696-.1497-.151-.0115-.1626-.0115-.3368-.0115-.4994 0-3.2291 0-6.4697 0-9.6988.0115.0116.023.0116.0346.0116z"/><path d="m75.2459 18.9834c0-1.057 0-2.114 0-3.1826 0-.8596.0691-1.7075.2648-2.5438.3569-1.51 1.0592-2.7993 2.2565-3.79819.6333-.52269 1.3586-.89438 2.1185-1.16153 1.2894-.44139 2.6134-.604 3.972-.58077.2532 0 .2763.03485.2763.302v3.68209c0 .2207-.0346.2555-.2648.2555-.3454.0116-.7023 0-1.0477 0-.426 0-.852.0348-1.2665.1278-1.1397.2671-1.819.9989-2.0608 2.1372-.0921.4181-.1151.8479-.1151 1.2777v7.4686.3369c.023.3019-.0921.3136-.3224.3136-1.1743 0-2.3602 0-3.5345 0-.2533 0-.2878-.0349-.2878-.2904 0-.8131 0-1.6378 0-2.4508.0115-.6273.0115-1.2661.0115-1.8933z"/><path d="m85.3547 15.6378c0-2.474 0-4.9481 0-7.41052 0-.48784-.046-.52269.5181-.52269h1.6003c.7368.01162 1.3125.32523 1.7269.94084.2073.302.2879.63884.3109.99892.0115.151 0 .30199 0 .44135v12.9279.3368c-.0115.2091-.0576.2555-.2648.2555-.8289 0-1.6579 0-2.4868 0-.3914 0-.7714 0-1.1628 0-.1842 0-.2418-.058-.2418-.2323-.0115-.151 0-.302 0-.4413 0-2.416 0-4.8552 0-7.2945z"/><path d="m87.2763 33.1916c.1381-.0813.1496-.1742.1842-.2671.6332-1.8236 1.2664-3.6472 1.8881-5.4708.0346-.093.0576-.1743.0921-.2672.1497-.4181.1497-.3717.4951-.3717h1.5427c.38 0 .3799.0116.3915.4182v.1626 7.852.2206c-.0116.2788-.0346.3137-.3224.3137-.403 0-.8059 0-1.2204 0-.1266 0-.1957-.0697-.1957-.2091 0-.1278 0-.2556.0115-.3949.0115-1.5216.0345-3.0433.0461-4.5649 0-.151 0-.302 0-.4413 0-.0697-.0116-.151-.0921-.1859-.1152-.0348-.1612.0697-.1843.151-.2763.7899-.5411 1.5797-.8174 2.3695-.3454.999-.6908 1.9979-1.0361 2.9968-.0922.2788-.1152.2904-.3915.2904-.2418 0-.4835 0-.7138 0-.2878 0-.3109-.0116-.403-.2788-.1957-.5459-.3799-1.0802-.5641-1.6261-.4375-1.2661-.875-2.5206-1.3125-3.7866-.0345-.1046-.0921-.1975-.1381-.2904-.0115-.0116-.0806-.0116-.0921.0116-.0231.0465-.0461.1045-.0461.151 0 .3368.0115.6737.0115.9989.0115 1.4287.0346 2.8574.0461 4.2861 0 .1161.0115.2207 0 .3368 0 .1045-.0691.1626-.1727.1742-.0691 0-.1497.0117-.2188.0117-.3684 0-.7368 0-1.1052 0-.1727 0-.2188-.0581-.2303-.244 0-.1161 0-.2207 0-.3368 0-2.6018 0-5.2037 0-7.8055 0-.6737-.023-.604.5987-.604h1.3816c.3223 0 .3338.0116.4375.302.2763.7666.5411 1.5448.8059 2.3114.3914 1.1267.7713 2.2418 1.1513 3.3685.0575.1626.1151.2788.1727.4181z"/><path d="m71.885 31.0306h2.153.3914c.1727.0117.2187.0697.2303.244.023.7898-.1267 1.5448-.5066 2.2533-1.324 2.4509-3.9145 2.8806-5.7796 2.1256-1.5428-.6272-2.4869-1.8236-2.7862-3.4729-.3339-1.8701.2993-3.3917 1.7385-4.5881.4029-.3368.8635-.5808 1.3585-.7201 1.3471-.3717 2.6596-.3253 3.8915.4297.7483.4646 1.2434 1.1499 1.6118 1.9282.0576.1161 0 .209-.1496.209-.5296 0-1.0708 0-1.6004 0-.1842 0-.3108-.0696-.4375-.1974-.2072-.2091-.4375-.3949-.7138-.5227-1.6694-.8015-3.5921.2323-3.8914 2.1024-.1958 1.2196.3338 2.3811 1.37 2.9851.9902.5808 2.7286.5808 3.6612-.9757.0115-.0116.023-.0348.023-.0465.0806-.1509.0231-.2555-.1496-.2555-.7714 0-1.5428 0-2.3257-.0116-.2418 0-.4835 0-.7138 0-.1036 0-.1842-.0581-.1842-.1626 0-.3717-.0115-.7434 0-1.1151 0-.1742.0575-.2207.2533-.2207.1496-.0116.2993 0 .4375 0 .7253.0116 1.4276.0116 2.1184.0116z"/><path d="m109.209 31.0307h2.153.392c.184.0116.242.058.242.2323.023.604-.046 1.1963-.265 1.7539-1.059 2.6367-3.673 3.4962-5.895 2.6947-1.635-.5923-2.613-1.8352-2.913-3.5659-.322-1.8236.3-3.3219 1.693-4.5067.414-.3485.886-.6156 1.404-.755 1.393-.3833 2.729-.3252 3.984.4762.702.453 1.174 1.1151 1.531 1.8585.058.1277 0 .2207-.138.2207-.553 0-1.105 0-1.658.0116-.184 0-.299-.1046-.426-.2207-.507-.5111-1.128-.755-1.842-.755-1.128-.0116-1.946.5343-2.452 1.51-.68 1.2893-.311 2.9967 1.082 3.833.978.5924 2.74.5808 3.673-.9524.011-.0116.011-.0349.023-.0465.08-.1626.046-.2555-.127-.2555-.426-.0116-.852 0-1.267-.0116-.575 0-1.139 0-1.715 0-.207 0-.242-.0233-.242-.2091 0-.3717 0-.7434 0-1.1151 0-.1045.069-.1742.173-.1742.127-.0116.253 0 .391 0 .726-.0232 1.463-.0232 2.199-.0232z"/><path d="m100.747 26.8257h1.404c.127 0 .208.0581.219.1975v.3368 7.9681.2788c0 .1394-.092.1974-.207.1974-.403 0-.806 0-1.209 0-.196 0-.288-.1394-.38-.2787-.368-.5924-.7482-1.1964-1.1166-1.7888-.7368-1.1731-1.4737-2.3579-2.2105-3.531-.023-.0349-.0576-.093-.1382-.0581-.069.0348-.0575.0929-.0575.1394v.3949 4.6229c0 .4994 0 .4994-.4721.4994-.3453 0-.7023 0-1.0476 0-.1267 0-.2073-.058-.2073-.209 0-.1162 0-.2207 0-.3369 0-2.6134 0-5.2385 0-7.8519 0-.0697 0-.151 0-.2207.0115-.3369.023-.3601.3339-.3601h.7714c.5987.0116.4835-.1161.875.4878.9671 1.4984 1.9226 2.9968 2.8785 4.4835.08.1278.161.2556.242.3717.034.0581.057.151.149.1394.138-.0232.092-.1394.092-.2207 0-1.5564 0-3.1245 0-4.6809 0-.1743-.046-.3717.081-.5808z"/><path d="m81.3252 35.8047c-.2187 0-.4375 0-.6677 0-.1612 0-.2764-.0581-.3339-.2207-.1497-.4065-.3109-.8014-.4605-1.1964-.0231-.0697-.0461-.1394-.0691-.209-.0461-.1627-.1382-.244-.3224-.244-.9441 0-1.8766 0-2.8207 0-.1957 0-.2878.1046-.3569.2788-.1496.4182-.2993.8363-.449 1.2545-.1266.3252-.1381.3368-.472.3368-.403 0-.8059 0-1.2204 0-.1842 0-.2303-.0697-.1612-.2439.2303-.604.4721-1.208.7023-1.812.5296-1.3822 1.0592-2.7645 1.6003-4.1467.3224-.8247.6448-1.661.9556-2.4856.0806-.1975.1842-.302.403-.2904.3108.0116.6217.0116.944 0 .1957 0 .2994.0697.3684.2555.2188.604.4606 1.208.6908 1.8236.8174 2.1488 1.6349 4.2977 2.4408 6.4465.0345.0813.0691.1742.0921.2555.046.1394 0 .1975-.1497.1975-.2302.0116-.472 0-.7138 0zm-2.2796-3.5427c.0115-.0813.0346-.1394.0115-.1858-.2993-.8479-.6101-1.7075-.9095-2.5554-.1266.0465-.1612.1394-.1842.2207-.2072.5575-.4145 1.1035-.6217 1.661-.0806.2091-.1612.4181-.2418.6272-.046.1394 0 .2323.1267.2323z"/><path d="m92.7344 26.8262h1.5542c.1267 0 .2073.0813.2073.209v.2788 8.0843.2207c0 .1161-.0691.1626-.1727.1742-.023 0-.0346.0116-.0576.0116-.4375 0-.8865 0-1.324 0-.1266 0-.2072-.0697-.1957-.2091 0-.0929 0-.1858 0-.2787 0-2.6599 0-5.3082 0-7.9681-.0115-.151-.0115-.2904-.0115-.5227z"/><path d="m87.4146 6.33368c-.5872 0-1.1744 0-1.7615 0-.2533 0-.2879-.04647-.2879-.29039 0-.90599 0-1.8236 0-2.72959 0-.22069.0461-.26716.2533-.27877.6793 0 1.3586-.02323 2.0378.01161.9671.05808 1.727.78985 1.8421 1.75392.0461.44138.0231.89437.0231 1.33576 0 .13938-.1037.18584-.2303.18584-.2993 0-.5872 0-.8865 0-.3224.01162-.6563.01162-.9901.01162z"/></g></svg>