<svg fill="none" height="40" viewBox="0 0 120 40" width="120" xmlns="http://www.w3.org/2000/svg"><path clip-rule="evenodd" d="m2.32733 29.3582c2.66837 2.949 6.49411 4.6418 10.48057 4.6418 7.7694 0 14.092-6.2814 14.092-14s-6.3226-14-14.092-14c-3.67569 0-7.1585 1.39468-9.79472 3.92852-.51439.48978-.5251 1.29888-.03215 1.80988s1.30739.5217 1.82178.0319c2.15398-2.076 5.00453-3.21517 8.00509-3.21517 6.3548 0 11.5201 5.13157 11.5201 11.44487s-5.1653 11.4449-11.5201 11.4449c-3.26847 0-6.38692-1.3734-8.57306-3.7901-.47152-.5217-1.28596-.5643-1.81106-.0959-.5251.4685-.56797 1.2776-.09645 1.7993zm36.40337-14.4899c-.9644.1916-1.7682.7026-2.5719 1.4798v-.7985c0-.4773.0034-.9529.0069-1.4282v-.0003-.0003-.0003-.0003-.0003-.0003-.0003-.0003c.0051-.7112.0103-1.4217.0038-2.1359 0-.692-.5251-1.3308-1.1466-1.4905-.6537-.1597-1.2967.1277-1.7039.7133-.2215.3301-.206.6737-.1903 1.02.0041.0893.0081.1787.0081.2682 0 2.2076-.0027 4.4151-.0053 6.6227l-.0001.0047c-.0026 2.2091-.0053 4.4182-.0053 6.6274 0 .7452.4501 1.3946 1.0716 1.533.793.181 1.5539-.1809 1.8539-.8943.0754-.1646.103-.3449.1314-.53l.0001-.0002c.012-.0782.0241-.1572.04-.2363.1574.0411.2507.1459.3394.2454.0261.0292.0518.058.0785.0846 1.5646 1.4799 4.0187 1.6822 5.8083.4791 3.2471-2.1825 3.7722-7.2714 1.0395-10.0821-1.3181-1.3627-2.9041-1.8738-4.7581-1.4798zm-1.1788 2.8532c.418-.3726.9002-.5323 1.4467-.5536.9967.0319 1.6396.5642 2.1433 1.3734 1.0716 1.7034.793 4.2159-.6644 5.6-.8466.7984-2.0683.8197-2.9363.0425-1.7682-1.565-1.7575-4.8973.0107-6.4623zm65.4661-2.7678c-1.061-.2129-1.672.2129-1.982 1.3947-.14-.1278-.225-.2023-.333-.2768-1.9929-1.7673-4.8756-1.6821-6.751.181-2.5076 2.5019-2.5397 6.7178-.0642 9.4327 1.4574 1.5969 3.7292 2.0015 5.6689 1.054.3688-.1796.6743-.4368 1.0013-.7127.158-.1329.321-.2702.499-.4052.003.2074.017.4106.03.6095.035.5159.068 1.0025-.094 1.4559-.515 1.4373-2.4222 2.289-3.8796 1.8418-.8466-.2661-1.5003-.7665-2.0147-1.4798-.2358-.3194-.4929-.6175-.943-.6175-.5787 0-1.0717.1384-1.3181.7133-.2358.5323-.1608 1.0327.1714 1.5011 1.6182 2.289 5.1546 3.1727 7.78 1.8312 2.1-1.0753 3.429-2.7148 3.322-5.2274-.014-.4396-.009-.8745-.005-1.3111.003-.2188.005-.438.005-.6584v-7.6654c0-.905-.418-1.5225-1.093-1.6609zm-6.3011 9.1879c-.8788-.8731-1.2967-1.927-1.2324-3.162-.0322-1.086.3-2.0441.9859-2.8852 1.018-1.235 2.8291-1.1605 3.7396.1597 1.168 1.6928 1.222 4.0669-.2354 5.7491-.8573.9794-2.3254 1.0539-3.2577.1384zm-34.8388 3.151c-2.9256.2768-6.1191-2.6084-6.1084-6.1643.0108-3.492 2.7434-6.3772 6.2905-6.292 3.1935.0745 5.9369 2.9384 5.9369 6.2814.0107 3.5878-3.3328 6.4623-6.119 6.1749zm2.9791-6.3027c0-.8198-.2143-1.5757-.6323-2.2783-1.0394-1.7567-3.1077-2.0015-4.3615-.511-.4715.5642-.7716 1.2243-.8895 1.9482-.2464 1.5118.0322 2.8852 1.1574 4.0137.9323.9369 2.4219.9795 3.3649.0958.9538-.8836 1.361-1.9908 1.361-3.2684zm40.9468.1597c0 3.4388 3.001 6.3026 6.119 6.1323 3.151.1597 6.119-2.8532 6.077-6.2388-.033-3.4601-2.744-6.2601-6.13-6.2388-3.451.0107-6.066 2.7681-6.066 6.3453zm8.123-2.9065c.59.7559.933 1.4905.911 2.9491.065.9369-.257 1.8737-.975 2.6935-1.136 1.3308-2.711 1.3202-3.911.0426-1.479-1.5757-1.319-4.4821.107-5.9194 1.136-1.1498 2.872-1.0433 3.868.2342zm-23.7792 3.9394v3.6198c0 .873-.5894 1.4586-1.4574 1.4799-.8252.0212-1.4896-.5962-1.5003-1.4586-.0143-.7669-.0095-1.5386-.0048-2.3087.0024-.3844.0048-.7685.0048-1.1514 0-.9684-.0105-1.9263-.0211-2.8945l-.0004-.0332c-.0107-1.1392-.7287-2.0016-1.9075-2.289-.9537-.2342-2.0789.2662-2.604 1.1498-.2358.3939-.3001.8198-.3001 1.2669v6.2282c0 .7026-.3965 1.1711-1.0288 1.4159-.5572.213-1.0823.0852-1.5217-.3407-.2465-.2342-.3751-.5003-.3751-.841 0-1.0931-.0011-2.1861-.0023-3.2791-.0024-2.1861-.0048-4.3721.0023-6.5582 0-.5642.4394-1.0859.9538-1.2137.7716-.181 1.5432.1171 1.8111.7772.2036.4897.2893.5217.7072.1384 2.3469-2.0867 6.3013-1.1498 7.18 2.1612.133.5065.1081 1.0382.0833 1.5673v.0001c-.0112.2383-.0223.4762-.019.711.0071.4116.0047.8233.0024 1.2349-.0012.2059-.0024.4117-.0024.6175zm-81.22988-9.3051v2.5551c.00714.5678.00476 1.1356.00238 1.7034-.00119.284-.00238.5679-.00238.8518.01072.873.55725 1.4159 1.43598 1.4159.2934-.004.5867-.0124.8801-.0209.4889-.0142.9779-.0283 1.4668-.0217.1183.0023.2375.0022.3569.0021h.0001.0001c.4541-.0004.9119-.0007 1.3361.1257 1.4788.4259 2.3683 2.0973 2.0039 3.5878-.3107 1.2563-1.3717 2.0548-2.6898 2.0974-1.2324.0319-2.4647.0958-3.6864.1916-.71799.0639-1.12521.5749-1.10378 1.2882.02143.6601.54653 1.1711 1.24308 1.1924 1.179.0422 2.3685.0635 3.5477.0846l.0316.0006c3.2577.0532 6.3119-2.981 5.4224-6.8776-.7608-3.311-4.0293-5.0038-7.2764-3.8433-.3857.1384-.3965.0213-.3965-.2981.0108-1.3521.0108-2.6936 0-4.0457-.0107-.7239-.5572-1.2136-1.3288-1.2136-.75013 0-1.24308.479-1.24308 1.2243zm42.97248 14.4686c-2.3468-.2768-4.04-1.6395-4.9402-3.8859-1.2324-3.0661.0107-6.654 3.1077-8.1551.7931-.3833 1.6504-.5323 2.5398-.4578.7073.0532 1.1788.6175 1.1574 1.3308-.0322.692-.568 1.2775-1.2217 1.3095-1.586.0745-2.7648 1.2776-2.9148 2.8639-.1286 1.2562.0643 2.3848.9002 3.3749.4929.5855 1.0823.9369 1.8753.9475.6966.0106 1.1467.3513 1.3074.8943.1822.6175-.0321 1.1817-.568 1.5863-.2171.1618-.4513.1614-.7245.1609-.1584-.0002-.3298-.0005-.5186.0307zm18.1213-1.5119c-.0642.9795.4716 1.4586 1.3932 1.4586 1.1895.0213 2.0575-.2875 2.8291-.8198 2.6576-1.7779 3.665-4.6525 2.5826-7.6654-.8037-2.2251-2.7969-3.9605-5.4439-3.9711-.8144 0-1.3502.4791-1.3717 1.235-.0214.7878.4823 1.3201 1.2967 1.3734.0588.0035.1175.0059.1761.0082.2944.0119.5864.0236.8634.1834 1.1359.6814 1.661 1.6928 1.8325 2.9597.2893 2.108-1.0181 3.8646-3.1185 4.1308-.5465.0639-1.0073.5536-1.0395 1.1072zm-57.5574-3.4916c0 .7772-.5894 1.3627-1.3824 1.3734-.7609.0106-1.39316-.6282-1.37172-1.3947.02143-.7559.60012-1.2989 1.39312-1.3095.7716.0106 1.361.5749 1.361 1.3308z" fill="#31373f" fill-rule="evenodd"/></svg>