<svg width="102" height="39" viewBox="0 0 102 39" fill="none" xmlns="http://www.w3.org/2000/svg">
<path d="M34.1944 20.5018L35.1178 18.8762H35.8564L36.2627 25.3599H35.5471C34.9962 23.4965 34.3468 22.1472 33.5989 21.3122C33.2026 20.8237 32.7037 20.4278 32.1374 20.1525C31.571 19.8773 30.951 19.7292 30.3211 19.7189C29.3928 19.6986 28.4832 19.9816 27.7311 20.5248C26.9276 21.1348 26.3273 21.9726 26.0091 22.9286C25.547 24.2404 25.3432 25.6288 25.409 27.0177C25.3466 28.3733 25.5504 29.728 26.0091 31.0056C26.3143 31.9345 26.8916 32.751 27.6665 33.3495C28.3903 33.8559 29.2571 34.1188 30.141 34.1001C30.685 34.1345 31.2302 34.0565 31.7426 33.8711C32.255 33.6857 32.7235 33.3968 33.1188 33.0225C33.4698 32.655 33.7436 32.2214 33.9244 31.7469C34.1051 31.2725 34.1891 30.7668 34.1714 30.2596V28.7307C34.1763 28.6209 34.1531 28.5116 34.1038 28.4133C34.0545 28.315 33.9808 28.2309 33.8897 28.1689C33.6082 28.0137 33.287 27.9449 32.9664 27.9709H31.5814V27.2019H37.9847V27.9709H37.4861C37.1768 27.9426 36.8668 28.0171 36.6043 28.1828C36.5152 28.2589 36.4449 28.3547 36.3993 28.4626C36.3536 28.5705 36.3337 28.6875 36.3412 28.8044V34.9842H35.6118C35.3471 34.0172 35.0716 33.0962 34.7854 32.2213C34.3065 33.0475 33.6311 33.7434 32.8187 34.2474C32.0352 34.7047 31.141 34.9388 30.2334 34.9243C28.8874 34.9319 27.5658 34.5668 26.4154 33.8698C24.6568 32.7624 23.3898 31.0255 22.8747 29.0157C22.3596 27.0058 22.6354 24.8755 23.6454 23.0621C24.2953 21.8171 25.2617 20.7643 26.4477 20.009C27.5114 19.2923 28.7607 18.8988 30.0441 18.8762C30.7181 18.8732 31.3872 18.9901 32.02 19.2216C32.806 19.5353 33.5392 19.967 34.1944 20.5018Z" fill="#31373F"/>
<path d="M48.9683 33.8008L49.1391 34.1047C49.1391 34.685 48.4374 34.6205 47.7818 34.6205C47.2832 34.6205 46.2814 34.5929 45.9352 34.335C45.5889 34.0771 45.4504 33.7778 45.1919 33.0963C44.6698 33.6925 44.0442 34.1901 43.3452 34.5652C42.7443 34.8254 42.0935 34.9511 41.4386 34.9336C40.5787 34.9945 39.7245 34.7534 39.0241 34.2521C38.7606 34.0446 38.5489 33.779 38.4055 33.4762C38.2622 33.1734 38.191 32.8416 38.1977 32.5068C38.1977 31.4385 38.8271 30.5497 40.0859 29.8406C41.6521 29.0438 43.3606 28.5634 45.1134 28.4269V26.8658C45.1141 26.5929 45.054 26.3233 44.9374 26.0764C44.8209 25.8295 44.6507 25.6116 44.4394 25.4383C43.9653 25.0327 43.3553 24.8206 42.7312 24.8443C42.155 24.8292 41.585 24.9658 41.0785 25.2403C40.7492 25.4398 40.5845 25.6348 40.5845 25.8251C40.6232 26.0178 40.7142 26.1962 40.8476 26.3409C41.0332 26.5622 41.1446 26.836 41.1662 27.1237C41.1716 27.2727 41.1461 27.4211 41.0913 27.5598C41.0365 27.6985 40.9535 27.8244 40.8476 27.9296C40.7366 28.0351 40.6054 28.1173 40.4618 28.1711C40.3183 28.2249 40.1653 28.2492 40.012 28.2427C39.8406 28.2477 39.67 28.2172 39.5111 28.153C39.3521 28.0888 39.2083 27.9923 39.0887 27.8697C38.9654 27.7433 38.869 27.5932 38.8055 27.4286C38.742 27.2639 38.7127 27.0881 38.7194 26.9119C38.7194 26.1874 39.1287 25.5243 39.9474 24.9225C40.8962 24.2746 42.0303 23.9514 43.179 24.0016C44.1798 23.9339 45.1732 24.2138 45.9906 24.7936C46.2915 25.021 46.5356 25.3147 46.7038 25.6518C46.872 25.989 46.9597 26.3603 46.9601 26.7369V32.3641C46.942 32.7037 47.0273 33.0408 47.2048 33.3311C47.3357 33.5371 47.5433 33.6828 47.7818 33.7364C48.1753 33.7864 48.5718 33.8079 48.9683 33.8008ZM45.1319 29.1499C43.2668 29.4077 41.9449 29.8252 41.1662 30.4024C40.8799 30.62 40.6512 30.9041 40.4999 31.2299C40.3487 31.5557 40.2795 31.9134 40.2983 32.272C40.2718 32.7559 40.4377 33.2308 40.7599 33.5936C40.9124 33.749 41.0961 33.8704 41.2991 33.9498C41.502 34.0291 41.7195 34.0647 41.9372 34.0541C42.3606 34.0568 42.7798 33.9709 43.1679 33.8019C43.5559 33.633 43.9042 33.3847 44.1901 33.0732C44.5063 32.7462 44.7538 32.3593 44.9179 31.9354C45.082 31.5115 45.1595 31.0592 45.1457 30.605L45.1319 29.1499Z" fill="#31373F"/>
<path d="M48.5991 24.3235L51.5537 24.1347C51.7081 24.856 51.8145 25.5867 51.8723 26.322C52.3046 25.6454 52.8757 25.0678 53.5481 24.6274C54.1072 24.2985 54.7457 24.1281 55.3948 24.1347C56.0297 24.1099 56.6535 24.3069 57.1583 24.6918C57.691 25.1767 58.0643 25.8107 58.2294 26.5108C58.6386 25.8044 59.198 25.1961 59.8683 24.7287C60.4518 24.3406 61.1383 24.1354 61.8396 24.1393C62.2315 24.1104 62.625 24.1703 62.9903 24.3147C63.3557 24.459 63.6836 24.684 63.9494 24.9728C64.584 25.7795 64.9112 26.7847 64.8728 27.8094V32.9162C64.858 33.0314 64.8712 33.1485 64.9114 33.2575C64.9516 33.3665 65.0175 33.4643 65.1036 33.5425C65.3726 33.7312 65.699 33.8208 66.0269 33.7958H66.5117V34.62H61.3226V33.7958H61.8396C62.1634 33.8258 62.4881 33.7481 62.7629 33.5747C62.8546 33.4915 62.926 33.3885 62.9716 33.2736C63.0172 33.1587 63.0358 33.0349 63.0261 32.9116V27.8002C63.0677 27.1604 62.8685 26.5282 62.4675 26.0273C62.2834 25.8211 62.0559 25.6581 61.8014 25.5499C61.5468 25.4416 61.2713 25.3908 60.9948 25.401C60.5502 25.3964 60.1144 25.5247 59.7437 25.7694C59.3577 26.0297 59.0535 26.3937 58.8665 26.8193C58.593 27.3333 58.4354 27.9006 58.4048 28.4817V32.9162C58.3947 33.0386 58.4113 33.1616 58.4536 33.2769C58.4958 33.3922 58.5627 33.497 58.6495 33.5839C58.8648 33.7427 59.1306 33.818 59.3974 33.7958H60.1038V34.62H54.8223V33.7958H55.4317C55.7272 33.8174 56.0214 33.7395 56.2673 33.5747C56.3549 33.5097 56.4256 33.4249 56.4738 33.3272C56.522 33.2295 56.5461 33.1218 56.5443 33.0129V28.2699C56.6071 27.5022 56.4193 26.7349 56.0088 26.0825C55.841 25.8621 55.6226 25.6852 55.3719 25.5666C55.1212 25.4479 54.8457 25.3912 54.5684 25.401C54.2276 25.3818 53.887 25.4436 53.5748 25.5813C53.2626 25.719 52.9876 25.9286 52.7725 26.1931C52.18 26.9352 51.865 27.86 51.8815 28.8086V32.9162C51.8671 33.033 51.8782 33.1515 51.9141 33.2636C51.95 33.3757 52.0097 33.4787 52.0893 33.5655C52.364 33.7399 52.688 33.8207 53.0126 33.7958H53.5435V34.62H48.3359V33.7958H49.1162C49.3625 33.8123 49.6057 33.7331 49.7948 33.5747C49.8721 33.5034 49.9332 33.4163 49.9739 33.3194C50.0145 33.2225 50.0337 33.1179 50.0302 33.0129V26.2667C50.0421 26.1157 50.0228 25.9638 49.9736 25.8204C49.9244 25.6771 49.8462 25.5453 49.744 25.4332C49.408 25.201 49.0079 25.0787 48.5991 25.0833V24.3235Z" fill="#31373F"/>
<path d="M66.7379 24.3244L70.4313 24.2046V33.0599C70.4216 33.1534 70.4323 33.2479 70.4626 33.3369C70.4929 33.4259 70.542 33.5073 70.6067 33.5756C70.7835 33.7268 71.0111 33.8058 71.2438 33.7967H72.4118V34.621H66.1055V33.7967H67.6243C67.7527 33.8092 67.8823 33.7948 68.0048 33.7544C68.1272 33.7139 68.2398 33.6483 68.3353 33.5618C68.4976 33.3713 68.5788 33.1251 68.5615 32.8757V26.392C68.5731 26.2223 68.5477 26.0521 68.4872 25.8932C68.4266 25.7342 68.3323 25.5902 68.2107 25.471C67.9118 25.2416 67.5387 25.1301 67.1627 25.1579H66.7426L66.7379 24.3244ZM69.1755 19.457C69.3381 19.4568 69.4989 19.4898 69.6482 19.5539C69.7974 19.6181 69.932 19.712 70.0435 19.83C70.1628 19.9433 70.2575 20.0798 70.3218 20.2311C70.3861 20.3824 70.4187 20.5452 70.4174 20.7095C70.4184 20.8695 70.3865 21.0281 70.3238 21.1753C70.261 21.3226 70.1688 21.4556 70.0527 21.566C69.9087 21.7062 69.7326 21.8092 69.5395 21.8658C69.3465 21.9225 69.1425 21.9311 68.9453 21.891C68.7481 21.8509 68.5638 21.7633 68.4084 21.6358C68.253 21.5083 68.1313 21.3448 68.0539 21.1596C67.9764 20.9743 67.9456 20.773 67.9642 20.5731C67.9827 20.3733 68.05 20.181 68.1601 20.0131C68.2703 19.8451 68.42 19.7066 68.5962 19.6097C68.7724 19.5128 68.9697 19.4603 69.1709 19.457H69.1755Z" fill="#31373F"/>
<path d="M72.1062 24.3246L75.5317 24.1174C75.6855 24.8633 75.7888 25.6187 75.8411 26.3784C76.2416 25.6946 76.8024 25.1179 77.4753 24.6976C78.1212 24.3188 78.8591 24.1244 79.6082 24.1358C80.2062 24.1149 80.799 24.2532 81.3256 24.5364C81.8177 24.837 82.2059 25.2805 82.4382 25.8074C82.7237 26.4151 82.8674 27.0795 82.8583 27.7507V32.7608C82.8437 32.9039 82.8587 33.0484 82.9024 33.1854C82.9461 33.3225 83.0175 33.4491 83.1123 33.5574C83.3563 33.7383 83.6591 33.822 83.9617 33.7923H84.2618V34.6166H79.6682V33.7923H79.7606C80.1151 33.8261 80.4712 33.7454 80.7762 33.5621C80.8746 33.4771 80.9516 33.3704 81.0013 33.2505C81.051 33.1306 81.072 33.0007 81.0625 32.8713V28.4644C81.1059 27.7251 80.9463 26.9879 80.6008 26.3323C80.4078 26.0132 80.1315 25.7525 79.8013 25.5781C79.4711 25.4037 79.0995 25.3222 78.7265 25.3423C78.3263 25.3374 77.9305 25.4251 77.57 25.5985C77.2096 25.7719 76.8943 26.0262 76.649 26.3416C76.069 27.0836 75.7742 28.0081 75.818 28.9479V32.7608C75.8031 32.9042 75.8184 33.0492 75.863 33.1863C75.9075 33.3235 75.9802 33.4499 76.0765 33.5574C76.3225 33.7378 76.6266 33.8214 76.9306 33.7923H77.2214V34.6166H72.2031V33.7923H72.9187C73.2097 33.8122 73.499 33.7344 73.7405 33.5713C73.8284 33.5085 73.8999 33.4255 73.949 33.3293C73.998 33.2331 74.0231 33.1266 74.0221 33.0187V26.3784C74.0349 26.196 74.0095 26.013 73.9475 25.841C73.8855 25.6689 73.7883 25.5116 73.662 25.3791C73.3769 25.1352 73.0072 25.0128 72.6325 25.0384H72.1016L72.1062 24.3246Z" fill="#31373F"/>
<path d="M92.0777 24.8997C92.8117 24.1583 94.8477 23.0578 95.5217 23.0578C95.707 23.0331 95.8953 23.046 96.0754 23.0959C96.2555 23.1458 96.4237 23.2315 96.5697 23.3479C96.8144 23.5827 96.3758 24.1123 96.3758 24.4484C96.3838 24.6978 96.2944 24.9405 96.1265 25.1254C96.0553 25.2087 95.9668 25.2758 95.8672 25.3219C95.7676 25.368 95.6592 25.392 95.5494 25.3924C95.1308 25.3924 94.8477 25.1361 94.6999 24.6234C94.6399 24.4024 94.543 24.2965 94.4045 24.2965C93.7401 24.5292 93.126 24.8854 92.5947 25.3464C92.8615 25.6916 93.0804 26.0711 93.2457 26.4746C93.3646 26.8038 93.424 27.1515 93.4211 27.5015C93.4325 28.0958 93.2722 28.6809 92.9595 29.1869C92.5688 29.7433 92.0387 30.1879 91.4221 30.4763C90.7932 30.827 90.0881 31.0198 89.3677 31.0381H88.1674C87.5897 30.988 87.0084 31.0781 86.4731 31.3006C86.3399 31.3868 86.2312 31.5059 86.1577 31.6462C86.0841 31.7866 86.048 31.9435 86.053 32.1018C86.0479 32.2317 86.0767 32.3606 86.1366 32.4761C86.1965 32.5915 86.2854 32.6894 86.3946 32.7603C86.7959 32.9497 87.2404 33.0291 87.6826 32.9906L90.4018 32.9353C91.7745 32.9353 92.764 33.164 93.3703 33.6214C93.667 33.836 93.9064 34.12 94.0673 34.4483C94.2283 34.7767 94.306 35.1395 94.2937 35.5048C94.2987 35.9284 94.2084 36.3477 94.0294 36.7318C93.8504 37.1159 93.5874 37.4551 93.2595 37.7244C92.2962 38.5748 90.8604 39 88.9522 39C87.3733 39 86.2022 38.7099 85.439 38.1296C85.1725 37.9684 84.9492 37.745 84.7884 37.4787C84.6276 37.2124 84.534 36.9112 84.5156 36.6008C84.5217 36.3733 84.5763 36.1496 84.6758 35.9447C84.7753 35.7399 84.9174 35.5585 85.0927 35.4127C85.6564 34.9758 86.3279 34.699 87.0363 34.6115C86.4318 34.4961 85.8664 34.2299 85.3928 33.8379C85.2151 33.6778 85.074 33.4814 84.9792 33.2621C84.8844 33.0428 84.8381 32.8057 84.8434 32.5669C84.8418 32.116 85.0061 31.6802 85.3051 31.342C85.7336 30.9137 86.2666 30.6042 86.8516 30.444C86.2856 30.1512 85.8017 29.7223 85.4436 29.1961C85.1284 28.6946 84.9678 28.1117 84.9819 27.5199C84.9761 27.0409 85.079 26.5667 85.2828 26.1329C85.4867 25.6991 85.7863 25.3169 86.1591 25.0148C87.0211 24.316 88.1103 23.9572 89.22 24.0064C89.7238 24.0053 90.2249 24.0798 90.7065 24.2274C91.194 24.3837 91.6559 24.6102 92.0777 24.8997ZM89.8294 34.6253C88.4782 34.6253 87.5149 34.8126 86.9394 35.1871C86.6892 35.3175 86.4777 35.5113 86.3262 35.7489C86.1747 35.9865 86.0884 36.2596 86.0761 36.5409C86.0715 36.7765 86.1293 37.009 86.2436 37.2152C86.3579 37.4214 86.5246 37.5938 86.727 37.7152C87.4694 38.1393 88.3199 38.3377 89.1738 38.2862C90.1651 38.3512 91.1545 38.134 92.0269 37.6599C92.6671 37.2424 92.9872 36.7819 92.9872 36.2785C92.9839 35.9743 92.88 35.6797 92.6917 35.4404C92.4454 35.1496 92.1147 34.942 91.7453 34.8463C91.122 34.6819 90.4784 34.6075 89.834 34.6253H89.8294ZM89.1784 24.7109C88.8719 24.7036 88.5675 24.7643 88.2873 24.8885C88.0071 25.0128 87.758 25.1974 87.558 25.4293C87.1024 25.9996 86.8754 26.7184 86.9209 27.4462C86.8721 28.2156 87.0978 28.9774 87.558 29.5967C87.7582 29.8325 88.0075 30.0219 88.2885 30.1518C88.5696 30.2817 88.8756 30.349 89.1854 30.349C89.4951 30.349 89.8011 30.2817 90.0822 30.1518C90.3632 30.0219 90.6125 29.8325 90.8127 29.5967C91.2719 28.9859 91.4963 28.231 91.4452 27.4693C91.4871 26.7355 91.2589 26.0117 90.8035 25.4339C90.6046 25.2005 90.3558 25.0144 90.0754 24.8893C89.795 24.7642 89.4901 24.7032 89.183 24.7109H89.1784Z" fill="#31373F"/>
<path d="M95.91 23.1174C96.0725 23.1173 96.2334 23.1502 96.3826 23.2144C96.5319 23.2785 96.6664 23.3725 96.7779 23.4904C96.8972 23.6037 96.9919 23.7403 97.0563 23.8915C97.1206 24.0428 97.1531 24.2057 97.1519 24.37C97.1531 24.53 97.1213 24.6886 97.0586 24.836C96.9958 24.9833 96.9035 25.1162 96.7872 25.2265C96.6432 25.3667 96.467 25.4696 96.274 25.5263C96.0809 25.5829 95.8769 25.5916 95.6798 25.5515C95.4826 25.5114 95.2983 25.4238 95.1429 25.2963C94.9875 25.1688 94.8658 25.0052 94.7883 24.82C94.7109 24.6348 94.6801 24.4334 94.6986 24.2336C94.7171 24.0337 94.7844 23.8414 94.8946 23.6735C95.0048 23.5056 95.1545 23.3671 95.3307 23.2701C95.5069 23.1732 95.7042 23.1208 95.9054 23.1174H95.91Z" fill="#31373F"/>
<path d="M16.5417 1.60309H29.0067L29.316 5.81199H28.5773C28.2865 4.08054 28.2495 3.72596 27.6124 3.04904C26.9753 2.37212 25.7242 2.44119 24.704 2.44119H21.5138C21.4075 2.43419 21.3008 2.4494 21.2006 2.48588C21.1004 2.52235 21.009 2.57928 20.9322 2.65301C20.7889 2.83274 20.7181 3.05939 20.7336 3.28849V8.62559H22.1186C22.4625 8.63568 22.8043 8.56896 23.119 8.43033C23.4338 8.2917 23.7134 8.08466 23.9376 7.82433C24.4615 7.11213 24.7269 6.24331 24.6901 5.3607H25.4518V12.8897H24.6901C24.6532 11.6433 24.3993 10.7515 23.9284 10.2143C23.6872 9.945 23.3888 9.73287 23.0549 9.59344C22.7211 9.45401 22.3601 9.3908 21.9986 9.40843H20.7244V15.4455C20.718 15.5475 20.7361 15.6495 20.777 15.7432C20.8179 15.8369 20.8806 15.9195 20.9599 15.9842C21.194 16.1304 21.4695 16.1966 21.7447 16.173H24.2654C27.003 16.173 28.5773 15.2797 28.9974 11.7938H29.7915L29.5145 16.9973H16.5417V16.1776H17.2296C17.5542 16.2107 17.8804 16.131 18.1529 15.952C18.2433 15.8698 18.3139 15.7683 18.3595 15.6551C18.405 15.5419 18.4244 15.4198 18.4161 15.2981V3.27007C18.4254 3.15384 18.4096 3.03697 18.3698 2.92734C18.33 2.81771 18.2671 2.71788 18.1853 2.63459C17.978 2.47737 17.7199 2.40194 17.4604 2.42276H16.5371L16.5417 1.60309Z" fill="#31373F"/>
<path d="M28.7812 6.70612H34.4182V7.45213C33.9796 7.42693 33.5404 7.48794 33.1255 7.63172C33.0391 7.67332 32.9666 7.7389 32.9167 7.82058C32.8667 7.90225 32.8415 7.99656 32.8439 8.09221C32.8484 8.25171 32.8862 8.40852 32.9547 8.5527L35.6924 14.6312L38.1853 8.73689C38.2214 8.63796 38.2401 8.53362 38.2407 8.42837C38.2407 7.8942 37.7129 7.56111 36.6572 7.4291V6.68311H40.9322V7.4291C40.5622 7.45079 40.205 7.57171 39.8981 7.77908C39.6342 7.97762 39.4285 8.2432 39.3026 8.54809L35.5215 17.2974H34.926L30.8633 8.31784C30.756 8.04427 30.5696 7.80866 30.3278 7.64092C29.8265 7.49864 29.307 7.43039 28.7859 7.43832L28.7812 6.70612Z" fill="#31373F"/>
<path d="M44.9057 6.40148C45.5625 6.38896 46.2144 6.51639 46.8178 6.77527C47.4213 7.03415 47.9624 7.41851 48.4051 7.90267C49.38 8.98255 49.8892 10.402 49.8224 11.8537C49.8514 12.8517 49.6342 13.8416 49.1899 14.7364C48.7773 15.5207 48.1518 16.1733 47.3848 16.6198C46.6206 17.0762 45.7456 17.3151 44.8549 17.3105C44.2123 17.3185 43.5757 17.1872 42.989 16.9256C42.4023 16.664 41.8796 16.2784 41.457 15.7955C40.5535 14.6803 40.0605 13.2898 40.0605 11.856C40.0605 10.4222 40.5535 9.03165 41.457 7.91648C41.888 7.43038 42.4194 7.04323 43.0148 6.78168C43.6101 6.52014 44.2552 6.39043 44.9057 6.40148ZM44.9057 7.1843C44.501 7.18422 44.1029 7.28638 43.7485 7.48124C43.3941 7.67611 43.0949 7.95735 42.879 8.2987C42.3496 9.04163 42.0849 10.2159 42.0849 11.8215C42.0849 13.427 42.3481 14.6212 42.8743 15.4041C43.0872 15.7507 43.3858 16.037 43.7415 16.2353C44.0973 16.4337 44.4981 16.5375 44.9057 16.5369C45.3214 16.5408 45.7313 16.4389 46.0964 16.2406C46.4616 16.0424 46.77 15.7545 46.9924 15.4041C47.5248 14.6489 47.7911 13.4209 47.7911 11.7201C47.7911 10.1299 47.5279 8.98023 47.0016 8.27107C46.7707 7.92975 46.4581 7.65121 46.0922 7.46066C45.7262 7.2701 45.3184 7.17354 44.9057 7.17969V7.1843Z" fill="#31373F"/>
<path d="M53.253 1.41449V15.4871C53.2496 15.5729 53.2647 15.6585 53.2974 15.7379C53.33 15.8174 53.3795 15.8889 53.4423 15.9476C53.6342 16.0976 53.8726 16.1758 54.1163 16.1686H54.7811V16.9929H49.7813V16.1778H50.3907C50.664 16.1987 50.9345 16.111 51.1432 15.9338C51.2288 15.8429 51.2951 15.7357 51.3379 15.6185C51.3808 15.5014 51.3993 15.3768 51.3925 15.2523V3.56038C51.4056 3.41335 51.3859 3.26523 51.3349 3.12669C51.2838 2.98815 51.2025 2.86263 51.097 2.75913C50.8181 2.52271 50.4611 2.39799 50.0952 2.40915H49.1719V1.58487L53.253 1.41449Z" fill="#31373F"/>
<path d="M58.4849 6.52148V13.346C58.4414 14.0474 58.6676 14.7391 59.1173 15.28C59.3245 15.5043 59.5778 15.6813 59.8598 15.7989C60.1419 15.9165 60.4461 15.972 60.7516 15.9616C61.1535 15.9636 61.5506 15.8752 61.9135 15.703C62.2764 15.5308 62.5956 15.2792 62.8476 14.9669C63.4335 14.2711 63.741 13.3838 63.7109 12.4756V8.62593C63.719 8.46895 63.6887 8.31237 63.6228 8.1696C63.5569 8.02684 63.4572 7.90215 63.3323 7.80626C62.8861 7.5641 62.3805 7.45237 61.8735 7.48391V6.7149L65.4975 6.5307V14.9807C65.4866 15.1453 65.5106 15.3103 65.5678 15.465C65.6251 15.6197 65.7144 15.7607 65.8299 15.8787C66.0847 16.0997 66.4162 16.2122 66.7533 16.1918H67.4042V16.9148L63.9325 16.9931L63.7109 14.9715C63.1903 15.6159 62.5663 16.1699 61.8642 16.6109C61.2947 16.9612 60.6405 17.1506 59.9714 17.1588C59.5384 17.1717 59.1072 17.0967 58.704 16.9384C58.3009 16.7801 57.9342 16.5418 57.6262 16.2379C56.9891 15.6239 56.6705 14.5801 56.6705 13.1065V8.62593C56.6836 8.44521 56.6476 8.26431 56.5664 8.10225C56.4852 7.94018 56.3617 7.80294 56.2089 7.70495C55.7827 7.51604 55.3168 7.43385 54.8516 7.4655V6.69647L58.4849 6.52148Z" fill="#31373F"/>
<path d="M69.4902 2.51031H70.2288V6.71H76.5121V7.70466H70.2288V14.3081C70.1961 14.7807 70.3409 15.2486 70.6351 15.6205C70.7626 15.7687 70.9215 15.8869 71.1003 15.9665C71.2791 16.0461 71.4734 16.0852 71.6692 16.081C71.9225 16.0777 72.1712 16.0131 72.3939 15.8928C72.6167 15.7725 72.8068 15.6 72.948 15.3903C73.3719 14.6981 73.5867 13.8987 73.5666 13.0878H74.3053C74.2622 14.457 73.9544 15.4731 73.382 16.1363C73.1039 16.4595 72.7568 16.7166 72.3662 16.8887C71.9756 17.0609 71.5513 17.1436 71.1244 17.1309C70.3921 17.1723 69.6732 16.9222 69.1254 16.4356C68.8827 16.196 68.6932 15.9082 68.5692 15.5909C68.4451 15.2736 68.3893 14.9338 68.4052 14.5936V7.70466H66.6094V6.93563C67.3323 6.8399 67.9921 6.47464 68.456 5.91334C69.1496 4.91505 69.5113 3.7247 69.4902 2.51031Z" fill="#31373F"/>
<path d="M74.291 6.70589L78.3998 6.58617V15.4414C78.3905 15.5349 78.4013 15.6293 78.4316 15.7182C78.4618 15.8072 78.5108 15.8887 78.5753 15.9572C78.7521 16.1084 78.9796 16.1873 79.2124 16.1782H79.9556V17.0025H74.9373V16.1782H75.6021C75.7305 16.1908 75.8601 16.1764 75.9826 16.1359C76.105 16.0955 76.2176 16.0299 76.3131 15.9434C76.4754 15.7529 76.5566 15.5066 76.5393 15.2572V8.97152C76.5509 8.80185 76.5255 8.63169 76.465 8.47272C76.4044 8.31375 76.3101 8.16972 76.1885 8.05054C75.8896 7.82113 75.5165 7.70965 75.1405 7.7374H74.291V6.70589ZM77.1533 1.83851C77.3166 1.83797 77.4782 1.87078 77.6283 1.93493C77.7784 1.99908 77.9137 2.09321 78.0259 2.2115C78.1469 2.32566 78.243 2.46351 78.3082 2.61644C78.3733 2.76938 78.4061 2.93409 78.4044 3.10025C78.4054 3.26027 78.3735 3.41879 78.3108 3.56608C78.2481 3.71337 78.1558 3.84631 78.0397 3.95676C77.8958 4.09697 77.7196 4.19991 77.5265 4.25657C77.3335 4.31322 77.1295 4.32187 76.9323 4.28178C76.7352 4.24168 76.5509 4.15407 76.3955 4.02656C76.2401 3.89905 76.1184 3.73554 76.0409 3.5503C75.9635 3.36506 75.9327 3.16372 75.9512 2.96386C75.9697 2.76401 76.037 2.57173 76.1472 2.40379C76.2574 2.23585 76.4071 2.09737 76.5833 2.00044C76.7595 1.90351 76.9568 1.85107 77.1579 1.84771L77.1533 1.83851Z" fill="#31373F"/>
<path d="M85.1453 6.40148C85.8021 6.38896 86.454 6.51639 87.0574 6.77527C87.6609 7.03415 88.202 7.41851 88.6447 7.90267C89.6196 8.98255 90.1288 10.402 90.062 11.8537C90.0912 12.8518 89.874 13.8417 89.4295 14.7364C89.0169 15.5207 88.3914 16.1733 87.6244 16.6198C86.8603 17.0764 85.9852 17.3154 85.0945 17.3105C84.4519 17.3185 83.8153 17.1872 83.2286 16.9256C82.6419 16.664 82.1192 16.2784 81.6966 15.7955C80.7923 14.6807 80.2988 13.2901 80.2988 11.856C80.2988 10.4219 80.7923 9.03129 81.6966 7.91648C82.1276 7.43038 82.659 7.04323 83.2544 6.78168C83.8497 6.52014 84.4948 6.39043 85.1453 6.40148ZM85.1453 7.1843C84.7405 7.18379 84.3422 7.28578 83.9878 7.48068C83.6333 7.67559 83.3342 7.95705 83.1186 8.2987C82.5892 9.04163 82.3245 10.2159 82.3245 11.8215C82.3245 13.427 82.5877 14.6212 83.114 15.4041C83.3272 15.7504 83.6258 16.0364 83.9815 16.2347C84.3371 16.4331 84.7378 16.5371 85.1453 16.5369C85.5609 16.5404 85.9706 16.4383 86.3357 16.2401C86.7008 16.0419 87.0093 15.7542 87.232 15.4041C87.7644 14.6489 88.0307 13.4209 88.0307 11.7201C88.0307 10.1299 87.7675 8.98023 87.2412 8.27107C87.0106 7.92945 86.6981 7.65068 86.3321 7.46009C85.9661 7.26951 85.5581 7.17312 85.1453 7.17969V7.1843Z" fill="#31373F"/>
<path d="M89.8446 6.70636L93.2702 6.49915C93.4245 7.24652 93.5278 8.00345 93.5795 8.76476C93.9796 8.08064 94.5405 7.50382 95.2138 7.08396C95.8594 6.70451 96.5974 6.51011 97.3467 6.52216C97.9446 6.50194 98.5372 6.64017 99.0641 6.92279C99.5564 7.22316 99.9447 7.6667 100.177 8.19375C100.463 8.80135 100.606 9.46587 100.597 10.137V15.1472C100.582 15.2902 100.598 15.4347 100.641 15.5717C100.685 15.7087 100.756 15.8353 100.851 15.9438C101.095 16.1243 101.398 16.2079 101.7 16.1787H102V17.003H97.4113V16.1787H97.5037C97.8582 16.2128 98.2144 16.132 98.5193 15.9484C98.6174 15.8632 98.6942 15.7565 98.7439 15.6366C98.7936 15.5168 98.8147 15.3871 98.8055 15.2577V10.8508C98.8494 10.1114 98.6898 9.37413 98.3439 8.71872C98.1513 8.39924 97.875 8.13822 97.5447 7.96376C97.2144 7.7893 96.8427 7.70801 96.4695 7.72865C96.0693 7.72345 95.6734 7.811 95.3129 7.9844C94.9524 8.1578 94.6371 8.41233 94.392 8.72792C93.8121 9.46995 93.5173 10.3944 93.561 11.3343V15.1472C93.5465 15.2906 93.5619 15.4354 93.6064 15.5726C93.6509 15.7097 93.7235 15.8361 93.8196 15.9438C94.0658 16.1238 94.3697 16.2073 94.6736 16.1787H94.9645V17.003H90.3479V16.1787H90.6387C90.9297 16.1985 91.219 16.1207 91.4605 15.9576C91.5478 15.8953 91.6189 15.813 91.6679 15.7177C91.7169 15.6224 91.7423 15.5168 91.7421 15.4097V8.76476C91.7549 8.58239 91.7295 8.39936 91.6675 8.22732C91.6055 8.05528 91.5082 7.89801 91.382 7.7655C91.0967 7.522 90.7271 7.39968 90.3525 7.42474H89.8262L89.8446 6.70636Z" fill="#31373F"/>
<path d="M12.165 17.108H11.9249V16.7396H12.0265C12.1057 16.7301 12.1861 16.738 12.2619 16.7626C12.2909 16.777 12.3151 16.7994 12.3315 16.8272C12.3479 16.855 12.3558 16.887 12.3543 16.9192C12.3545 16.9455 12.3491 16.9715 12.3384 16.9955C12.3277 17.0194 12.312 17.0409 12.2923 17.0583C12.2726 17.0758 12.2494 17.0888 12.2243 17.0966C12.1992 17.1044 12.1726 17.1067 12.1465 17.1034L12.165 17.108ZM12.5759 16.9238C12.5779 16.8684 12.5668 16.8133 12.5435 16.7629C12.5203 16.7125 12.4855 16.6683 12.442 16.6337C12.335 16.5616 12.205 16.5321 12.0773 16.5508H11.6987V17.7297H11.9249V17.2922H12.1234L12.3589 17.7297H12.6128L12.3497 17.2692C12.4195 17.2496 12.4807 17.2072 12.5234 17.1487C12.5661 17.0902 12.5878 17.0191 12.5851 16.9468L12.5759 16.9238ZM12.1234 18.0889C11.9408 18.0889 11.7623 18.0348 11.6105 17.9336C11.4586 17.8325 11.3403 17.6886 11.2704 17.5203C11.2005 17.352 11.1822 17.1669 11.2178 16.9882C11.2535 16.8095 11.3414 16.6454 11.4705 16.5166C11.5997 16.3878 11.7642 16.3001 11.9433 16.2646C12.1224 16.2291 12.3081 16.2473 12.4768 16.317C12.6455 16.3867 12.7897 16.5048 12.8912 16.6562C12.9926 16.8077 13.0468 16.9857 13.0468 17.1679C13.0468 17.4121 12.9495 17.6464 12.7763 17.8191C12.6032 17.9918 12.3683 18.0889 12.1234 18.0889ZM12.1234 16.0397C11.897 16.0397 11.6756 16.1066 11.4874 16.2321C11.2991 16.3576 11.1523 16.536 11.0657 16.7447C10.979 16.9533 10.9563 17.183 11.0005 17.4045C11.0447 17.626 11.1537 17.8295 11.3139 17.9892C11.474 18.1489 11.678 18.2577 11.9001 18.3018C12.1222 18.3458 12.3524 18.3232 12.5616 18.2368C12.7708 18.1503 12.9496 18.004 13.0754 17.8162C13.2012 17.6284 13.2684 17.4076 13.2684 17.1817C13.2684 16.8788 13.1477 16.5883 12.933 16.3742C12.7183 16.16 12.4271 16.0397 12.1234 16.0397Z" fill="#31373F"/>
<path d="M0.0195312 1.09223C5.50872 -1.83189 12.5953 1.25339 13.1308 8.69493C2.95109 9.49158 1.72307 4.91891 0.0195312 1.09223Z" fill="#31373F"/>
<path d="M0.0195312 17.0485C5.50872 19.9726 12.5953 16.8873 13.1308 9.44574C2.95109 8.62606 1.72307 13.231 0.0195312 17.0485Z" fill="#31373F"/>
<path d="M11.2231 3.41565C9.93982 1.75355 8.10057 0.606676 6.04051 0.184045C3.98044 -0.238585 1.83671 0.0911618 0 1.11319C1.52811 4.53925 2.67304 8.55934 10.2028 8.79419C11.1193 7.16439 11.4775 5.28081 11.2231 3.42946V3.41565ZM1.85127 13.2748C2.06825 13.2748 2.28524 13.307 2.50684 13.307C3.95653 13.3089 5.38408 12.9524 6.66183 12.2693C7.93958 11.5863 9.02769 10.598 9.82884 9.39283C5.30914 9.60927 3.18086 11.2486 1.85127 13.2748Z" fill="#31373F"/>
</svg>
