<svg fill="none" height="40" viewBox="0 0 120 40" width="120" xmlns="http://www.w3.org/2000/svg"><g fill="#31373f"><path d="m28.3841 17.1787c.8035 1.2396 1.5862 2.4499 2.3897 3.6895-1.5862 0-3.1308 0-4.7308 0 .7757-1.2249 1.5446-2.4352 2.3411-3.6895z"/><path d="m89.2824 21.8364 4.426 5.1492h4.3983l-4.7585-5.5673c.4849-.154.9143-.308 1.3161-.5354 1.5377-.8655 2.2649-2.2298 2.2026-4.0636-.0623-1.753-.8797-2.956-2.3827-3.6601-1.0529-.4915-2.2719-.7189-3.4079-.7262-2.4658-.022-4.8762-.0073-7.3075 0h-2.8606v3.2567 11.2959h3.5602v-5.1638h4.7932c0 .0073.0069.0146.0208.0146zm4.1005-4.8044c.0207.5575-.1316.9829-.6442 1.2103-.4779.2127-.9766.3007-1.4892.3447h-6.788v-2.8973h5.749c.4225.0147.8381.0294 1.2606.0587.4226.0294.8451.11 1.2468.2787.4295.1907.6511.5062.665 1.0049z"/><path d="m98.6387 12.4185v3.418h6.3243v11.1492h3.615v-11.1492h6.421v-.0953c0-1.1002 0-2.2005 0-3.3007v-.022z"/><path d="m79.2592 26.8093c-3.1446-4.8484-6.2824-9.7042-9.4201-14.5599-.1454-.2201-.3047-.2494-.5195-.2494-21.3198.0073-42.6396.0073-63.95942 0-.27706 0-.36018.0513-.36018.3667.01385 4.7311.01385 9.4622 0 14.1932 0 .3594.08312.4328.40866.4328 17.04614-.0074 34.09924-.0074 51.14544-.0074 2.0641 0 4.1351-.0073 6.1992.0074.0416 0 .0762 0 .1108-.0074h.2563l1.6-2.5525h9.0946l.7826 1.2029c.2425.3741.4849.7408.7204 1.1149.0208.0294.0346.0514.0554.0807l.1108.1687 3.8858-.0073c-.0623-.1101-.0831-.1467-.1108-.1834zm-59.1802-6.1394v2.4059h-.0277c0 .0147-.0069.022-.0138.0367 0 .0073-.007.0146-.007.022-.0069.0146-.0138.0293-.0207.044-.007.0073-.007.022-.0139.0293-.0069.0074-.0069.0147-.0138.022-.007.0074-.0139.022-.0208.0294-.0069.0073-.0069.0146-.0139.0146-.0138.0147-.0277.0294-.0415.044-.007.0074-.007.0074-.0139.0147-.0138.0147-.0346.0294-.0485.044-1.0459.8656-2.258 1.3057-3.5533 1.489-1.8009.2641-3.5948.2421-5.3265-.4034-1.84935-.6968-3.12383-1.9804-3.38011-4.1296-.32555-2.6919.8104-4.753 3.22081-5.6992.0762-.0294.1524-.0587.2355-.0881.0277-.0073.0554-.022.0831-.0293.0485-.0147.097-.0367.1524-.0514.0347-.0146.0624-.022.097-.0293.0416-.0147.09-.0293.1385-.044.0347-.0147.0693-.022.1039-.0293.0416-.0147.0831-.0294.1247-.0367.0346-.0074.0762-.022.1108-.0294.0416-.0146.0831-.022.1178-.0366.0415-.0074.0762-.022.1177-.0294.0416-.0073.0762-.022.1178-.0293.0415-.0073.0831-.0147.1177-.0294.0347-.0073.0762-.0146.1109-.022.0415-.0073.0831-.0146.1246-.022.0347-.0073.0693-.0146.1109-.022.0415-.0073.0831-.0146.1246-.022.0347-.0073.0693-.0146.1039-.0146.0416-.0074.0901-.0147.1316-.022.0347-.0074.0693-.0074.1039-.0147.0416-.0074.0901-.0147.1316-.0147.0347-.0073.0693-.0073.097-.0147.0485-.0073.0901-.0073.1385-.0146.0347 0 .0624-.0074.097-.0074.0485-.0073.0901-.0073.1385-.0073.0347 0 .0624-.0073.097-.0073.0485 0 .097-.0074.1385-.0074.0277 0 .0624 0 .0901-.0073.0485 0 .097 0 .1454-.0073h.0901.1454.0832.1523.0832c.0484 0 .1039.0073.1523.0073.0278 0 .0555 0 .0762.0073.0555 0 .1039.0074.1593.0074.0278 0 .0485.0073.0762.0073.0555.0073.1039.0073.1593.0147.0208 0 .0485.0073.0693.0073.0554.0073.1108.0147.1663.022.0207 0 .0484.0073.0692.0073.0554.0074.1108.0147.1663.0221.0207 0 .0415.0073.0623.0073.0554.0073.1108.0147.1732.0293.0207 0 .0415.0074.0623.0074.0554.0073.1177.022.1732.0293.0207 0 .0346.0073.0554.0147.0623.0146.1177.022.1801.0366.0138.0074.0346.0074.0484.0147.0624.0147.1247.0294.1801.044.0139.0074.0277.0074.0485.0147.0624.0147.1247.0293.187.0513.0139 0 .0277.0074.0416.0074.0623.0146.1316.0367.1939.0513.0139 0 .0208.0074.0347.0074.0692.022.1316.0366.2008.0586.007 0 .0208.0074.0277.0074.0693.022.1386.044.2078.066.007 0 .0139.0073.0208.0073.0693.022.1385.0514.2147.0734.007 0 .007 0 .0139.0073.0762.0293.1455.0514.2216.0807 0 0 .0624.022.1663.066.0069 0 .0138.0073.0208.0073.0484.022.1039.0441.1523.0661.0693.0293.1386.066.2078.1026.3394.1761.7758.4475 1.1845.8289l-1.2537 1.6504s-.4295-.4475-.8658-.7335c-.0485-.0294-.1039-.0587-.1524-.0881-.007-.0073-.0208-.0073-.0277-.0146-.0485-.0294-.1039-.0514-.1524-.0807h-.0069c-.0485-.022-.0901-.044-.1386-.066-.0138-.0074-.0208-.0074-.0346-.0147-.0416-.0147-.0762-.0367-.1178-.0513-.0069-.0074-.0207-.0074-.0277-.0147-.0484-.022-.0969-.0367-.1454-.0514-.0069 0-.0139-.0073-.0208-.0073-.0416-.0147-.0831-.0293-.1247-.044-.0138-.0073-.0277-.0073-.0415-.0147-.0416-.0146-.0901-.0293-.1316-.0366-.007 0-.0139 0-.0139-.0074-.0485-.0146-.097-.0293-.1524-.0367-.0138 0-.0208-.0073-.0346-.0073-.0416-.0073-.0831-.022-.1178-.0293-.0138 0-.0277-.0074-.0346-.0074-.1039-.022-.2009-.044-.3048-.0586-.0138 0-.0277-.0074-.0415-.0074-.0416-.0073-.0831-.0146-.1247-.022-.0138 0-.0208 0-.0346-.0073-.0485-.0074-.1039-.0147-.1524-.022-.0069 0-.0208 0-.0277 0-.0416-.0074-.0901-.0074-.1316-.0147-.0139 0-.0277 0-.0416-.0073-.0415-.0074-.09-.0074-.1316-.0147-.0069 0-.0138 0-.0277 0-.0554-.0073-.1039-.0073-.1593-.0073-.0139 0-.0277 0-.0416 0-.0415 0-.0831-.0074-.1246-.0074-.0139 0-.0277 0-.0416 0-.0554 0-.1039-.0073-.1593-.0073-.8866-.0293-1.7732.0073-2.639.2787-1.7039.5355-2.50741 1.7678-2.3758 3.6455.10389 1.511.7896 2.5086 2.1611 2.9193 1.8078.5501 3.6225.5061 5.4027-.1613.0346-.0147.0692-.0221.0969-.0367.007 0 .007 0 .0139-.0074.0277-.0146.0623-.022.09-.0366h.0069c.0901-.0367.1594-.066.2217-.1027s.1108-.066.1455-.1027v-1.5917c-.007-.0073-.0139-.0073-.0277-.0147 0 0 0 0-.007 0-.0138-.0073-.0208-.0073-.0346-.0146h-4.5369v-2.1198h4.6062 2.1818v2.1124zm15.647 4.1883h-2.4589l-1.3091-1.9731c-.0416-.0073-.09-.0147-.1454-.0147-2.265.0074-4.5231.0074-6.788 0-.0832 0-.1524.0147-.2148.044l-1.2329 1.9438h-2.3966l7.0443-11.1345h.4918l5.6659 9c.3879.6015.7827 1.203 1.1706 1.8044.0485.0807.0969.1614.1731.3007-.0069 0-.0138 0-.0138 0zm15.4947-.0147h-1.3576-.7758-.1178v-6.2714l-4.0035 3.9756c-.0208.022-.0485.0513-.0693.0733-.0207.022-.0415.044-.0623.0587l-.3186.3154-.3463-.3374c-.0139-.0147-.0277-.022-.0416-.0367-.2286-.22-.4572-.4401-.6788-.6601l-3.6087-3.4841v6.3594h-.0277-.8935-1.3022v-11.0318h.4156l6.4763 6.2421 6.3031-6.2421h.4087zm13.9084-8.6406h-8.1594c-.0485.0074-.0901.0294-.1247.0514v2.0538c.0069.0073.0208.0073.0277.0146h6.9611l-1.3229 2.1198h-5.6659v2.2739h4.3221l-1.4199 2.2225h-2.9022-2.2511v-2.2225-8.78h1.1221 1.1221 9.704zm1.6554 4.9878 2.4382-3.8508c.6996 1.0782 1.3853 2.1418 2.0918 3.22l.4086.6308c-1.6762 0-3.2831 0-4.9386 0z"/></g></svg>