<svg width="120" height="40" viewBox="0 0 120 40" fill="none" xmlns="http://www.w3.org/2000/svg">
<g clip-path="url(#clip0)">
<path d="M75.1835 1.97372C75.4928 2.01306 75.8005 1.99087 76.1094 1.99388C76.9054 2.00014 77.6994 1.99232 78.4956 1.9958C78.8769 1.99787 79.1752 2.25433 79.2428 2.63287C79.265 2.76554 79.3188 2.79412 79.4442 2.79377C80.3658 2.79411 81.284 2.8054 82.2053 2.8113C82.3807 2.81136 82.5559 2.8142 82.7312 2.81704C83.7209 2.84128 84.3541 3.69447 84.0815 4.64607C83.6081 6.29973 83.1841 7.96493 82.8286 9.64848C82.5167 11.1282 82.2597 12.6197 82.1048 14.1262C82.0452 14.7089 82.0025 15.2898 81.9485 15.8728C81.9393 15.9727 81.9694 16.0249 82.0678 16.0536C84.3385 16.7714 85.9118 18.2935 87.0014 20.3684C87.6492 21.6023 88.106 22.905 88.3013 24.2915C88.4032 25.0045 88.4296 25.7239 88.4059 26.4429C88.3573 27.811 88.1515 29.155 87.761 30.4705C87.13 32.586 86.0506 34.4411 84.5599 36.0659C83.7967 36.8968 82.9664 37.6451 81.9989 38.2311C80.5854 39.0845 79.057 39.5145 77.4034 39.4645C75.6443 39.4106 74.0277 38.9134 72.6033 37.8504C71.9416 37.3556 71.378 36.7638 70.8917 36.096C70.7867 35.9524 70.7812 35.952 70.6437 36.055C69.9415 36.5853 69.2419 37.1186 68.537 37.646C67.6451 38.3122 66.4959 38.0822 65.9276 37.1299C65.4522 36.3343 64.9826 35.5362 64.5102 34.738C64.4976 34.7177 64.4877 34.6975 64.4751 34.6771C64.4449 34.6277 64.4146 34.5783 64.3463 34.6019C64.2864 34.6232 64.2805 34.6731 64.2799 34.7261C64.2818 34.8267 64.2807 34.93 64.2852 35.0336C64.3184 35.8205 63.7844 36.5068 63.0091 36.6555C61.0924 37.0187 59.1759 37.3792 57.2597 37.7341C56.3383 37.9041 55.5548 37.1809 55.6394 36.2508C55.6511 36.1119 55.6061 36.0755 55.4542 36.0993C54.4156 36.273 53.383 36.4834 52.3547 36.7136C50.3746 37.1538 48.4033 37.6308 46.4392 38.1251C45.9864 38.2385 45.6273 38.1066 45.4384 37.751C45.4236 37.7222 45.4087 37.6933 45.3966 37.6646C45.3083 37.4355 45.3083 37.4355 45.0686 37.5263C43.981 37.9426 42.8961 38.3619 41.8085 38.7782C41.0351 39.0722 40.2678 38.6181 40.1477 37.7978C40.148 37.7922 40.1482 37.7895 40.1458 37.7837C40.1063 37.5299 40.0984 37.5238 39.8587 37.6145C37.9145 38.3642 35.9728 39.1168 34.0286 39.8665C33.2007 40.1849 32.4121 39.7155 32.2844 38.8389C31.8868 36.1325 31.4863 33.4287 31.0857 30.7249C30.7594 28.5146 30.4358 26.3045 30.1095 24.0942C29.8606 22.4138 29.6121 20.7279 29.3608 19.0418C29.3413 18.9121 29.3328 18.7831 29.3412 18.6524C29.3456 18.5829 29.3559 18.5528 29.4351 18.5774C30.3738 18.833 30.9973 19.4454 31.0327 20.5033C31.0318 20.5172 31.0364 20.5314 31.0422 20.5709C31.1125 20.257 31.1618 19.9642 31.3472 19.7219C31.3528 19.7642 31.3557 19.8062 31.3615 19.8457C31.6881 22.0532 32.0172 24.2637 32.3409 26.4711C32.8611 30.0036 33.3812 33.536 33.9041 37.0687C33.9352 37.2801 33.9377 37.5009 34.0194 37.7044C34.036 37.7055 34.0501 37.7036 34.0569 37.6844C34.1066 37.6904 34.1446 37.6621 34.1873 37.6481C35.472 37.1523 36.7568 36.6564 38.0417 36.1578C38.4501 35.9996 38.8587 35.8359 39.2644 35.6747C39.2955 35.6237 39.2625 35.5741 39.2543 35.5289C38.9863 34.1908 38.7183 32.8527 38.4505 31.5119C38.3537 31.0225 38.2599 30.5306 38.1631 30.0413C38.553 29.9099 38.9429 29.7784 39.3328 29.647C39.8137 29.4851 40.2947 29.3232 40.7756 29.1613C40.7794 29.1894 40.7804 29.2174 40.7841 29.2456C41.0934 31.3738 41.4 33.5019 41.7121 35.6303C41.7585 35.9488 41.7824 36.2715 41.8654 36.584C41.8817 36.5907 41.8958 36.5888 41.8972 36.5665L41.8944 36.5663C41.9493 36.5782 41.9932 36.5447 42.0389 36.5281C42.7609 36.2532 43.4802 35.9781 44.1997 35.7002C44.7849 35.4751 45.3705 35.2445 45.9558 35.0194C46.5209 35.3265 46.7703 35.8228 46.8093 36.476C46.8478 36.3528 46.8707 36.2565 46.9044 36.1637C46.9518 36.0327 46.9829 35.895 47.0923 35.7959C47.1055 35.9364 47.1927 35.8359 47.2323 35.8272C50.1289 35.119 53.028 34.4165 55.978 33.963C56.5404 33.8761 57.0982 33.7749 57.6645 33.7162C57.6155 34.2632 57.564 34.8073 57.5178 35.3545C57.5097 35.4378 57.4737 35.522 57.5186 35.6031C57.5351 35.6069 57.549 35.6078 57.5504 35.5856L57.5474 35.5882C57.594 35.5995 57.6393 35.5885 57.6846 35.5774C59.0542 35.3216 60.4239 35.0657 61.7937 34.8071C62.0501 34.7593 62.3107 34.7341 62.5585 34.6466C62.5609 34.6105 62.5689 34.5719 62.5684 34.5356C62.5545 33.884 62.5601 33.2309 62.5714 32.5753C62.5872 31.719 62.6115 30.8604 62.6634 30.0064C62.703 29.3443 62.7232 28.6809 62.7959 28.0237C62.8163 28.053 62.8394 28.0824 62.8569 28.1142C64.3725 30.6687 65.888 33.2232 67.4036 35.7778C67.4362 35.8329 67.4509 35.9092 67.5214 35.9389C67.5408 35.9401 67.5468 35.9321 67.5507 35.9156L67.5505 35.9184C67.5852 35.8983 67.6227 35.8784 67.6548 35.8553C68.4389 35.2632 69.2231 34.671 70.0046 34.076C70.4437 33.741 70.8749 33.4 71.3086 33.0619C71.3283 33.1023 71.3508 33.1428 71.3703 33.1859C71.9532 34.4771 72.7921 35.5529 73.9835 36.3413C74.8037 36.8825 75.7017 37.2081 76.6736 37.3373C77.2246 37.4731 77.7845 37.4699 78.3426 37.4078C79.6718 37.2611 80.8526 36.7363 81.9148 35.933C82.8219 35.2482 83.5636 34.4048 84.2238 33.4864C84.8045 32.6802 85.3072 31.8299 85.6839 30.9045C85.6966 30.8802 85.7093 30.8558 85.7194 30.8285C86.3747 29.2033 86.6752 27.5106 86.6979 25.7639C86.7146 24.458 86.4805 23.2003 85.9869 21.993C85.5607 20.952 85.0329 19.9743 84.2592 19.1429C83.6418 18.4778 82.911 17.9758 82.0755 17.6291C82.1056 17.5947 82.1587 17.6344 82.1891 17.5945C81.0332 17.4256 80.3173 16.6481 80.2432 15.2386C80.2372 15.2885 80.2323 15.3217 80.2276 15.3521C80.1177 15.9371 79.8868 16.4558 79.4244 16.8506C79.2124 17.0298 78.9815 17.1574 78.6936 17.1753C78.4056 17.1932 78.1226 17.2644 77.8426 17.3331C76.4034 17.7185 75.211 18.5107 74.1981 19.5881C72.6863 21.1948 71.6256 23.0622 71.0109 25.1844C70.8676 25.6835 70.7407 26.1864 70.7045 26.7091C70.5847 27.3186 70.5311 27.9379 70.5138 28.5568C70.5 29.0334 70.5197 29.5094 70.5504 29.9862C70.1466 29.4213 69.7369 28.8617 69.339 28.2917C68.7751 27.4876 68.1995 26.6912 67.6997 25.8438C67.7285 25.8288 67.7547 25.811 67.7835 25.7961C69.2976 24.9798 70.5404 23.878 71.3599 22.3415C71.8188 21.48 72.0588 20.557 72.0712 19.5804C72.1007 18.9456 72.009 18.3337 71.7597 17.748C71.3624 16.8206 70.6494 16.2136 69.7508 15.8098C68.4949 15.2463 67.1607 15.1218 65.8045 15.1244C65.0415 15.1258 64.2838 15.217 63.5241 15.2968C62.0074 15.4567 60.4987 15.6673 58.9986 15.9595C58.883 15.9828 58.7608 15.9777 58.6587 16.0494C58.6574 16.1136 58.6504 16.1801 58.6518 16.2444C58.6792 16.774 58.6788 17.3018 58.6785 17.8296C58.6743 19.1558 58.6312 20.4824 58.5631 21.8073C58.443 24.0756 58.2953 26.3394 58.1059 28.6032C57.2977 28.7442 56.4867 28.885 55.6784 29.0287C54.4563 29.241 53.2313 29.4558 52.0093 29.668C52.0076 29.4333 52.0033 29.1957 52.0016 28.961C51.9983 28.3603 51.995 27.7597 51.9916 27.1591C52.0282 27.153 52.0648 27.147 52.1016 27.1382C53.6755 26.8228 55.2522 26.5076 56.8262 26.1923C56.8657 26.1836 56.9255 26.207 56.9356 26.135C56.9324 26.0985 56.9292 26.062 56.9232 26.0253C56.8013 25.3194 56.6766 24.6132 56.5605 23.9048C56.4784 23.4025 56.4047 22.9007 56.3285 22.3959C56.2835 22.4014 56.2361 22.404 56.1908 22.4151C55.4263 22.57 54.6644 22.7279 53.8998 22.8828C53.2172 23.0206 52.5345 23.1585 51.852 23.2935C51.8633 22.987 51.8688 22.683 51.8828 22.3767C51.9069 21.7834 51.9171 21.1892 51.9772 20.5983C52.8826 20.4607 53.7833 20.3089 54.6905 20.1882C55.6902 20.0567 56.6907 19.956 57.6922 19.8386C57.9251 19.8116 57.8826 19.8229 57.8545 19.6535C57.6511 18.4369 57.4475 17.223 57.2385 16.0088C57.1755 15.6445 57.1348 15.2788 57.038 14.9208C56.9891 14.9009 56.9363 14.9003 56.8886 14.9056C56.0591 15.0313 55.2321 15.1627 54.4026 15.2883C53.7053 15.3945 53.0077 15.5034 52.3104 15.6096C51.4133 15.7477 50.5164 15.8829 49.6195 16.0182C48.9531 16.118 48.2868 16.2178 47.6203 16.3203C47.1759 16.3896 46.7342 16.4619 46.2898 16.5312C46.2532 16.5372 46.2208 16.5212 46.2243 16.5968C46.2514 17.0873 46.2672 17.5798 46.2887 18.0699C46.3311 19.0612 46.379 20.0529 46.4212 21.0469C46.4608 21.9515 46.4976 22.8559 46.5373 23.7576C46.576 24.6761 46.6176 25.592 46.6591 26.5106C46.6913 27.2248 46.7263 27.9391 46.7588 28.6506C46.7999 29.5301 46.8382 30.4122 46.8793 31.2917C46.9115 31.964 46.9436 32.6363 46.9758 33.3086C46.965 33.347 46.9788 33.3926 46.9434 33.4238C46.9346 33.387 46.9256 33.3529 46.9168 33.316C46.0621 29.2678 45.5613 25.1725 45.2262 21.0542C45.0873 19.353 44.979 17.6509 44.8988 15.9451C44.8941 15.8443 44.9292 15.732 44.86 15.6382C44.8406 15.637 44.816 15.6298 44.8138 15.6632L44.814 15.6604C44.7657 15.6322 44.7273 15.666 44.6849 15.6773C44.1032 15.8467 43.5243 16.0163 42.9425 16.1885C41.6539 16.5696 40.3681 16.9509 39.0796 17.332C39.0107 17.3639 39.0487 17.4222 39.0544 17.4644C39.3596 19.5254 39.6706 21.5839 39.9759 23.6449C40.0482 24.1243 40.1121 24.6059 40.1815 25.0879C39.8289 25.2022 39.4791 25.3166 39.1266 25.4281C38.6265 25.586 38.1235 25.7437 37.6233 25.9016C37.5766 25.2395 37.5325 24.5804 37.4857 23.9184C37.4011 22.7177 37.3109 21.5167 37.2262 20.316C37.1497 19.2499 37.0788 18.1814 36.9995 17.1151C36.9903 16.9972 37.0152 16.8704 36.9443 16.7597C36.9304 16.7588 36.914 16.755 36.9151 16.7802L36.9181 16.7776C36.8606 16.7627 36.8085 16.7929 36.7573 16.8092C36.0394 17.0201 35.3214 17.2311 34.6032 17.4449C33.7177 17.7065 32.832 17.971 31.9463 18.2355C31.6578 18.002 31.5115 17.6771 31.4025 17.335C31.3565 17.184 31.273 17.0083 31.3287 16.8778C31.3844 16.7473 31.5896 16.7605 31.7315 16.7193C33.3039 16.253 34.8762 15.7895 36.4485 15.3261C36.6473 15.2662 36.6588 15.2166 36.5178 15.0708C35.5061 14.0398 34.8892 12.8023 34.6236 11.3834C34.3724 10.0436 34.3665 8.69993 34.7127 7.38161C35.1186 5.82417 35.8024 4.40738 36.9858 3.2767C38.0742 2.23769 39.3818 1.69024 40.8751 1.59033C42.3963 1.48941 43.7252 1.95706 44.8597 2.98196C44.9861 3.09617 45.0001 3.09427 45.109 2.95882C46.1401 1.68434 47.4719 0.976468 49.1077 0.868923C50.0584 0.806894 50.9694 0.974111 51.8209 1.41679C51.8883 1.45182 51.9545 1.46164 52.0332 1.44993C52.5598 1.35796 53.086 1.27156 53.6265 1.18048C53.4587 2.0187 53.0134 2.53755 52.1203 2.56976C52.9898 2.73153 53.4475 3.28026 53.4366 4.14807C53.4344 4.18144 53.4352 4.21221 53.4331 4.24559C53.437 4.70662 53.4407 5.17044 53.4446 5.63147C53.2479 5.09387 52.9934 4.58887 52.6526 4.12861C52.2036 3.53017 51.6888 3.00293 51.0053 2.67434C50.4838 2.42593 49.9286 2.3122 49.3437 2.35854C49.0189 2.34334 48.7081 2.41281 48.4041 2.50785C47.3191 2.84055 46.5684 3.56327 46.0405 4.54601C45.6263 5.31819 45.3568 6.13594 45.207 6.99765C45.1851 7.12192 45.1422 7.18341 45.0143 7.2227C44.0943 7.50173 43.1767 7.78649 42.2587 8.07682C41.6817 8.26051 41.1097 8.45289 40.5351 8.64232C40.5126 8.64647 40.5113 8.66593 40.5129 8.68558C40.5791 9.39077 40.6481 10.0961 40.7142 10.8041C40.7616 10.8462 40.7981 10.7983 40.8352 10.7839C41.6246 10.5021 42.4143 10.2148 43.201 9.93C43.1198 10.4163 42.9599 10.8696 42.6429 11.2543C42.3047 11.6655 41.8657 11.9111 41.3466 12.0175C41.3242 12.0189 41.3019 12.0202 41.2793 12.0244C40.6348 12.1311 40.0442 12.0486 39.5727 11.5409C39.3722 11.3242 39.2213 11.0716 39.1248 10.7946C38.814 9.90894 38.8262 9.02166 39.1361 8.13947C39.3841 7.44043 39.7233 6.7947 40.2922 6.3033C40.6694 5.97836 41.1026 5.77988 41.614 5.83775C41.9929 5.87875 42.3155 6.05858 42.6065 6.29782C42.6515 6.33422 42.6897 6.38972 42.7264 6.29433C42.8543 6.12379 42.982 5.95602 43.1043 5.78512C43.4372 5.32609 43.7673 4.86689 44.0735 4.3894C44.0586 4.27395 43.9683 4.20672 43.8949 4.135C43.2039 3.44568 42.3662 3.09046 41.3956 3.07302C39.8548 3.04422 38.6152 3.66026 37.669 4.87035C37.0504 5.66017 36.7159 6.57988 36.4844 7.54249C36.2943 8.33739 36.2564 9.14762 36.2601 9.96051C36.2636 10.6449 36.3374 11.3199 36.5375 11.9778C36.8988 13.1627 37.6091 14.0292 38.8086 14.4299C39.6047 14.6959 40.4249 14.7148 41.249 14.5861C41.4149 14.5604 41.5881 14.5519 41.7415 14.4612C41.8094 14.4879 41.8701 14.4527 41.9298 14.4342C42.8798 14.1654 43.6519 13.6312 44.2715 12.8693C44.8216 12.1924 45.1968 11.4205 45.4561 10.5882C45.4708 10.6198 45.491 10.6518 45.5027 10.6861C45.7528 11.3472 46.0985 11.9502 46.5923 12.4566C47.4023 13.2876 48.385 13.6828 49.5474 13.6203C50.3285 13.5977 51.0297 13.3438 51.6454 12.861C52.3284 12.3266 52.7804 11.6155 53.1499 10.846C53.2847 10.567 53.3762 10.2685 53.5029 9.98613C53.5126 10.9223 53.5193 11.861 53.5318 12.7974C53.5343 12.9316 53.5058 13.0722 53.5559 13.2039C53.5723 13.2077 53.5888 13.2115 53.5876 13.1863L53.5873 13.1919C53.6237 13.1886 53.6597 13.1909 53.6965 13.1821C54.6525 12.9501 55.6149 12.7492 56.5836 12.5794C57.4201 12.4319 58.2587 12.2928 59.1029 12.1989C59.1 12.288 59.0917 12.3741 59.0943 12.4636C59.0995 12.6873 59.0516 12.9133 59.093 13.1365C59.4845 13.1532 59.8777 13.1449 60.2695 13.1141C61.8818 12.9827 63.369 12.4998 64.6892 11.5371C65.4601 10.9776 66.1228 10.3247 66.5886 9.48597C66.7114 9.26483 66.8073 9.02801 66.9246 8.80374C66.9079 9.15175 66.8692 9.49556 66.8359 9.8425C66.7239 10.9831 66.6202 12.1242 66.5193 13.2656C66.508 13.3989 66.4492 13.5348 66.5017 13.6722C66.5296 13.6712 66.5573 13.6729 66.5825 13.6717C67.2477 13.5887 67.9143 13.528 68.5831 13.4758C69.4421 13.4107 70.2997 13.3679 71.1588 13.3447C71.686 13.3309 72.2135 13.3116 72.7387 13.3285C72.683 13.6768 72.6271 14.0279 72.5714 14.3762C72.5667 14.4066 72.5305 14.449 72.5936 14.4642C72.6354 14.4641 72.6768 14.4695 72.7187 14.4666C73.4209 14.4166 74.1257 14.3668 74.8282 14.3112C75.0186 14.2955 75.2125 14.3107 75.3974 14.2499C75.3938 14.0877 75.4539 13.9323 75.4557 13.7733C75.4592 13.4579 75.5317 13.1526 75.5516 12.8411C75.5617 12.6826 75.575 12.5186 75.6099 12.3645C75.6732 12.0725 75.6893 11.7775 75.7497 11.4854C75.7852 11.3229 75.7905 11.1529 75.8398 10.9913C75.8547 11.0201 75.8725 11.0464 75.8846 11.0751C76.3082 12.0266 76.7318 12.9781 77.1611 13.9271C77.2661 14.1572 77.354 14.3947 77.4935 14.6074C77.5129 14.6087 77.5294 14.6125 77.549 14.611C78.4494 14.5513 79.3469 14.4943 80.2473 14.4346C80.278 14.4338 80.3139 14.4389 80.3278 14.3951C80.3699 13.9984 80.4092 13.6016 80.4569 13.2053C80.6182 11.8584 80.8456 10.5241 81.1198 9.19841C81.3893 7.90312 81.6943 6.61848 82.0376 5.34466C82.129 5.00423 82.2148 4.66343 82.3034 4.32282C82.2784 4.27932 82.2381 4.29909 82.2047 4.29974C81.3168 4.29319 80.4292 4.28385 79.5439 4.28025C79.4325 4.2815 79.3148 4.24883 79.2061 4.29493C79.1597 4.54051 79.1134 4.78609 79.0726 5.03202C78.9297 5.87184 78.7896 6.71184 78.644 7.55148C78.5103 8.33603 78.3737 9.1204 78.2372 9.90477C78.1552 9.83808 78.1505 9.73725 78.1255 9.64908C77.9885 9.17952 77.891 8.70133 77.8416 8.21224C77.8022 7.82713 77.746 7.44373 77.7067 7.05584C77.6677 6.66516 77.6455 6.27277 77.612 5.88245C77.5874 5.57089 77.5487 5.26123 77.538 4.95056C77.5264 4.60912 77.5148 4.26768 77.5061 3.92641C77.5013 3.78368 77.5469 3.6358 77.4976 3.49301C76.9327 3.48757 76.3706 3.48232 75.8056 3.47688C75.9411 3.40457 76.0946 3.40042 76.2617 3.35527C75.4834 3.07366 75.129 2.60695 75.1835 1.97372ZM75.664 16.3056C75.6416 16.3069 75.6221 16.3085 75.6052 16.3102C74.7492 16.3727 73.8931 16.4352 73.0343 16.4975C72.8607 16.5115 72.8324 16.5628 72.9284 16.7169C73.1353 17.0513 73.3018 17.4083 73.4397 17.7774C73.5206 17.992 73.5452 17.9991 73.719 17.8511C74.3113 17.3416 74.9516 16.9079 75.6482 16.5531C75.674 16.5408 75.6971 16.5283 75.7229 16.516C75.7778 16.486 75.7784 16.433 75.7649 16.3818C75.7515 16.3307 75.7113 16.3058 75.664 16.3056Z" fill="#31373F"/>
<path d="M54.4291 2.57495C54.0821 2.42708 53.8827 2.14902 53.7543 1.80568C53.6926 1.63976 53.6618 1.46744 53.6453 1.29044C53.637 1.20334 53.664 1.17156 53.7514 1.15481C54.5535 1.02183 55.3558 0.886074 56.1553 0.750137C56.5607 0.681132 56.9661 0.612128 57.3711 0.548686C57.6327 0.506787 57.7586 0.629337 57.7306 0.892845C57.6162 2.02771 57.5459 3.1682 57.4785 4.30887C57.405 5.54409 57.3563 6.7837 57.3133 8.02088C57.308 8.19089 57.3825 8.24593 57.5472 8.19503C57.803 8.11366 57.803 8.11366 57.8198 7.85222C57.9263 6.36219 58.0302 4.86919 58.1395 3.37933C58.1799 2.83456 58.2233 2.28719 58.2609 1.74224C58.2893 1.34192 58.3857 1.22801 58.7767 1.16646C59.8935 0.989389 61.0142 0.882384 62.147 0.932549C63.3743 0.985967 64.5598 1.21543 65.6621 1.78587C65.7402 1.82717 65.7959 1.82794 65.8459 1.74178C65.9052 1.64225 65.9994 1.60638 66.1164 1.60549C67.097 1.59844 68.078 1.58582 69.056 1.57581C70.243 1.56242 71.4328 1.5492 72.6197 1.53859C73.2913 1.53131 73.9602 1.52106 74.6314 1.51933C74.9573 1.51785 75.1101 1.6533 75.1789 1.97048L75.1818 1.96788C75.1358 2.03474 75.1306 2.1154 75.112 2.18961C74.94 2.83208 74.4509 3.2085 73.8125 3.17602C74.0083 3.24999 74.2095 3.28241 74.3803 3.39668C74.4151 3.41845 74.4734 3.42218 74.4693 3.48615C74.3873 3.46136 74.3916 3.52586 74.3828 3.57556C74.2571 4.32153 74.1369 5.06785 74.0114 5.81104C73.7458 7.39422 73.4776 8.97444 73.2092 10.5574C72.0206 10.5959 70.8319 10.6343 69.6405 10.6725C69.6726 10.2138 69.746 9.7633 69.8112 9.30949C70.6383 9.26468 71.4626 9.21969 72.2901 9.16932C72.3851 9.16423 72.4913 9.20175 72.5742 9.12328C72.5786 9.09843 72.5828 9.07636 72.5558 9.06346C72.5598 8.95759 72.575 8.84965 72.5678 8.74586C72.5392 8.19109 72.5471 7.63307 72.5354 7.07658C72.489 7.01776 72.4257 7.05001 72.3727 7.05221C71.5929 7.09725 70.813 7.14507 70.0332 7.19012C70.1196 6.70973 70.2062 6.22656 70.2927 5.74617C70.8333 5.73889 71.3745 5.72326 71.9147 5.72432C72.438 5.72709 72.9599 5.75211 73.4825 5.76601C73.5157 5.76814 73.5724 5.7969 73.5689 5.72127C73.5732 5.69642 73.5802 5.67453 73.5504 5.66145C73.5556 5.53612 73.5664 5.41114 73.5659 5.28823C73.5587 4.88004 73.5484 4.47445 73.5328 4.06573C73.5211 3.72706 73.5064 3.39101 73.4917 3.05495C73.4951 3.00211 73.4555 3.01075 73.4248 3.01158C73.3106 3.01264 73.1936 3.01353 73.0794 3.0146C71.3433 3.03474 69.6075 3.05211 67.8713 3.07503C67.7459 3.07539 67.6165 3.05314 67.4911 3.09817C67.4832 3.13398 67.4698 3.16942 67.4675 3.20558C67.3994 3.92172 67.337 4.63544 67.2606 5.35104C67.2389 5.5591 67.2502 5.77486 67.1815 5.97712C67.1821 5.96878 67.1856 5.95783 67.1833 5.94931C66.791 4.55301 65.9275 3.55663 64.6245 2.94542C63.7782 2.55056 62.8747 2.39778 61.9467 2.36631C61.1713 2.34182 60.4047 2.39888 59.6437 2.54287C59.5874 2.55322 59.511 2.52878 59.4805 2.6134C59.4609 3.00592 59.444 3.40138 59.4272 3.79407C59.3996 4.44299 59.372 5.09191 59.3471 5.741C59.3049 6.92238 59.2627 8.10376 59.2231 9.2881C59.2211 9.36337 59.194 9.39514 59.1212 9.40165C58.9922 9.41574 58.863 9.43261 58.7367 9.44965C57.8802 9.56239 57.0235 9.67792 56.1668 9.79344C56.1383 8.62987 56.1515 7.46619 56.198 6.30463C56.2384 5.23764 56.3038 4.17225 56.3942 3.10845C56.4181 2.82234 56.4336 2.53569 56.452 2.24922C56.444 2.24313 56.436 2.23703 56.4281 2.23094C56.425 2.23632 56.4216 2.24449 56.4213 2.25005L56.4242 2.24745C56.3113 2.22905 56.2056 2.26976 56.0988 2.28527C55.544 2.3838 54.9865 2.47938 54.4291 2.57495Z" fill="#31373F"/>
<path d="M34.0202 37.7042C33.9386 37.5007 33.9358 37.2827 33.905 37.0685C33.3821 33.5359 32.8647 30.0036 32.3417 26.4709C32.0152 24.2634 31.6889 22.0531 31.3624 19.8456C31.3567 19.8033 31.3537 19.764 31.348 19.7218C31.5075 19.4052 31.7686 19.1985 32.0736 19.0449C32.2864 18.9385 32.5097 18.8438 32.7551 18.8372C32.7807 18.8723 32.8188 18.886 32.8599 18.897C33.3149 19.0099 33.7673 19.1198 34.2223 19.2327C34.2229 19.2663 34.2238 19.297 34.2272 19.3308C34.3362 20.1504 34.4453 20.97 34.5541 21.7924C34.827 23.8374 35.1 25.8795 35.3757 27.9246C35.4022 28.119 35.3977 28.3198 35.4779 28.5036C35.4766 28.5231 35.4726 28.5424 35.4715 28.5591C35.4742 28.6039 35.474 28.6514 35.4794 28.6964C35.5397 29.1471 35.5974 29.5948 35.6576 30.0455C35.8418 31.4313 36.0317 32.8146 36.2131 34.2002C36.2565 34.5241 36.3192 34.8493 36.3316 35.1768C35.6973 35.8651 35.0601 36.5532 34.4282 37.2472C34.2993 37.3898 34.144 37.5111 34.0548 37.6869C34.0461 37.6919 34.0345 37.6996 34.0202 37.7042Z" fill="#EDF1FB"/>
<path d="M56.1759 9.79675C57.0325 9.68123 57.889 9.56848 58.7457 9.45296C58.8749 9.4361 59.0014 9.41627 59.1302 9.40497C59.2031 9.39846 59.2302 9.36668 59.2322 9.29141C59.2716 8.10985 59.3138 6.92848 59.3562 5.74432C59.381 5.09523 59.4086 4.44631 59.4362 3.79739C59.453 3.4047 59.4727 3.00941 59.4895 2.61673C59.5112 2.62649 59.536 2.63087 59.5519 2.64306C59.9995 3.04592 60.4443 3.4486 60.8917 3.85424C60.8814 4.01555 60.8849 4.17775 60.8801 4.33942C60.8718 4.77453 60.8244 5.20995 60.8216 5.64542C60.8198 6.10888 60.7623 6.57157 60.7605 7.03503C60.7582 7.46216 60.7088 7.88627 60.7038 8.31322C60.701 8.79059 60.6512 9.26494 60.64 9.74455C60.6277 10.3274 60.5876 10.9113 60.5613 11.4961C60.559 11.5322 60.5482 11.5706 60.5854 11.5982C60.5845 11.6121 60.5864 11.6262 60.5853 11.6428C60.5458 11.6515 60.5244 11.6808 60.4977 11.707C60.2329 11.9722 59.9655 12.2343 59.7005 12.5022C59.4922 12.7123 59.2918 12.9284 59.086 13.1415C59.0446 12.9182 59.0897 12.6921 59.0873 12.4685C59.0845 12.3818 59.093 12.293 59.0959 12.2038C59.5457 11.702 59.9955 11.2002 60.4665 10.6718C60.3512 10.6895 60.2725 10.7012 60.1965 10.7131C58.506 10.9792 56.8155 11.2452 55.1252 11.5084C55.0407 11.5226 54.9746 11.5546 54.9173 11.6236C54.622 11.9733 54.3162 12.314 54.021 12.6637C53.8733 12.8386 53.7044 12.9981 53.5831 13.197L53.5834 13.1914C53.572 13.1963 53.5633 13.2013 53.5517 13.209C53.5016 13.0773 53.5301 12.9367 53.5276 12.8025C53.5123 11.866 53.5084 10.9274 53.4987 9.99123C53.4934 9.63902 53.4879 9.28959 53.4826 8.93738C53.4769 8.50416 53.4686 8.06798 53.4657 7.63494C53.4581 6.9698 53.4535 6.30207 53.446 5.63694C53.4421 5.17591 53.4384 4.71209 53.4344 4.25105C53.4336 4.22028 53.4358 4.18691 53.4379 4.15353C53.4829 3.9721 53.4924 3.78002 53.5759 3.60663C53.6918 3.36271 53.8471 3.15483 54.0867 3.02215C54.3774 3.13571 54.6681 3.24926 54.9587 3.36281C54.9586 3.53874 54.9557 3.71449 54.9556 3.89042C54.9561 4.18647 54.9567 4.48253 54.96 4.77876C54.9644 5.3627 54.9745 5.94422 54.9789 6.52816C54.9826 6.99197 54.9753 7.45508 54.9792 7.91611C54.9843 8.48893 54.9975 9.06506 54.9999 9.6377C55.0036 10.1015 54.9934 10.5644 55.0029 11.0258C55.0053 11.1628 54.9991 11.3021 55.0099 11.4815C55.1637 11.254 55.2928 11.0639 55.4247 10.8741C55.6761 10.5132 55.9274 10.1551 56.1759 9.79675Z" fill="#EDF1FB"/>
<path d="M34.2246 19.2328C33.7696 19.1199 33.3174 19.0072 32.8622 18.8971C32.8211 18.8861 32.783 18.8725 32.7574 18.8373C32.8447 18.7787 32.949 18.8021 33.0486 18.7694C32.6428 18.6708 32.2458 18.5644 31.955 18.2358C32.8407 17.9713 33.7264 17.7069 34.6119 17.4452C35.3301 17.2314 36.048 17.0205 36.766 16.8095C36.8172 16.7932 36.8692 16.763 36.9268 16.7779C36.6042 17.0756 36.2816 17.3733 35.9565 17.6681C35.3799 18.1925 34.8008 18.714 34.2246 19.2328Z" fill="#EDF1FB"/>
<path d="M31.2305 16.8686C31.043 17.7977 30.3947 18.3985 29.4805 18.4992C29.3852 18.5098 29.3464 18.5073 29.376 18.3919C29.5424 17.7072 29.9553 17.2589 30.6232 17.0475C30.822 16.9876 31.0205 16.9305 31.2305 16.8686Z" fill="#31373F"/>
<path d="M54.9637 3.36057C54.673 3.24702 54.3823 3.13347 54.0917 3.01991C54.348 2.84363 54.6391 2.77569 54.9742 2.76083C54.7788 2.6813 54.5833 2.69113 54.4292 2.57514C54.9867 2.47957 55.5443 2.38121 56.1016 2.28842C56.2085 2.27013 56.3142 2.22941 56.427 2.2506C56.4089 2.27178 56.3935 2.29593 56.373 2.31137C55.9023 2.66105 55.4344 3.0109 54.9637 3.36057Z" fill="#EDF1FB"/>
<path d="M46.9817 33.3145C46.9495 32.6422 46.9174 31.9699 46.8852 31.2976C46.8441 30.4181 46.8058 29.5359 46.7647 28.6564C46.7324 27.9422 46.6974 27.2278 46.665 26.5164C46.6235 25.5978 46.5819 24.6819 46.5432 23.7635C46.5036 22.8589 46.4669 21.9545 46.4271 21.0528C46.3847 20.0615 46.3368 19.0698 46.2946 18.0757C46.2731 17.5856 46.2573 17.0931 46.2302 16.6027C46.2267 16.527 46.2619 16.5432 46.2957 16.537C46.7402 16.4649 47.182 16.3927 47.6262 16.3262C48.2927 16.2236 48.9589 16.1266 49.6254 16.024C50.5223 15.8888 51.4194 15.7507 52.3163 15.6154C53.0136 15.5092 53.711 15.4031 54.4085 15.2941C55.2382 15.1657 56.065 15.0371 56.8945 14.9114C56.9451 14.9035 56.9952 14.9039 57.0439 14.9266C56.7326 15.4401 56.4187 15.9506 56.1074 16.464C55.9111 16.7894 55.7232 17.1153 55.5297 17.4408C55.4892 17.508 55.4594 17.5815 55.3667 17.5951C55.0208 17.6484 54.6749 17.7017 54.329 17.7549C53.4966 17.8832 52.6669 18.0116 51.8343 18.1426C50.9679 18.2799 50.1013 18.4199 49.2319 18.5597C49.1277 18.5782 49.1754 18.6594 49.1748 18.7125C49.1732 18.8687 49.1882 19.0261 49.1921 19.1827C49.2045 19.6415 49.2115 20.0972 49.2239 20.5559C49.2375 21.0399 49.2509 21.5267 49.2645 22.0107C49.2734 22.3492 49.2798 22.6847 49.2888 23.0232C49.3032 23.4933 49.3147 23.966 49.332 24.4363C49.3438 24.7302 49.3303 25.0282 49.3673 25.321C49.3632 25.3403 49.3594 25.3568 49.3581 25.3763C49.3628 25.6083 49.3648 25.8375 49.3695 26.0696C49.383 26.5536 49.3964 27.0403 49.41 27.5243C49.419 27.8628 49.4253 28.1983 49.4343 28.5368C49.4465 28.9984 49.4643 29.4603 49.4765 29.9219C49.4872 30.2772 49.4894 30.6348 49.5001 30.9902C49.5138 31.4714 49.5192 31.9521 49.547 32.4314C49.5559 32.5967 49.503 32.7721 49.593 32.9314C49.5919 32.9481 49.5936 32.965 49.5926 32.9817C49.5532 32.9875 49.5266 33.011 49.5025 33.0401C49.0113 33.6231 48.5174 34.2059 48.0262 34.7888C47.3254 34.4703 47.12 33.8511 47.0397 33.1478C46.9947 33.198 47.0291 33.27 46.9817 33.3145Z" fill="#EDF1FB"/>
<path d="M58.6614 16.0524C58.7635 15.9807 58.8884 15.9859 59.0013 15.9624C60.4986 15.6701 62.0073 15.4594 63.5268 15.2998C64.2865 15.2199 65.0414 15.1286 65.8072 15.1274C67.1606 15.1246 68.4976 15.2493 69.7535 15.8128C70.6521 16.2166 71.3651 16.8235 71.7624 17.751C72.0145 18.3368 72.1032 18.9513 72.0739 19.5834C71.0767 19.3715 70.0765 19.1623 69.049 18.9457C69.082 18.9953 69.092 19.0127 69.1074 19.0332C69.5443 19.6477 69.596 20.3184 69.3839 21.0225C69.1292 21.8692 68.6259 22.5547 67.9944 23.1538C67.2828 23.8315 66.4592 24.3429 65.5873 24.7842C65.1815 24.99 64.764 25.1616 64.351 25.3502C64.3454 25.3498 64.3371 25.3493 64.3314 25.3517C64.3142 25.359 64.2944 25.3633 64.2773 25.3706C63.6348 25.6199 62.9828 25.8435 62.3193 26.03C61.7011 26.2055 61.0809 26.3669 60.4448 26.4742C60.4455 26.463 60.446 26.4547 60.4467 26.4436C60.4674 26.4253 60.4906 26.4101 60.5087 26.3889C61.3658 25.4831 62.2203 24.5743 63.0775 23.6685C63.7947 23.3821 64.4822 23.0379 65.1328 22.6187C65.5656 22.3393 65.9726 22.0274 66.3071 21.6299C66.5572 21.3331 66.7477 21.0102 66.7347 20.6044C66.7434 20.5994 66.7519 20.5972 66.7606 20.5921C67.4907 20.0608 68.2208 19.5294 68.9536 19.0011C69.0383 18.9395 68.999 18.9006 68.9493 18.85C68.6806 18.5675 68.3597 18.3598 68.0081 18.1977C67.413 17.925 66.7842 17.787 66.1409 17.7012C65.1553 17.5683 64.1673 17.5609 63.1783 17.6121C62.5553 17.6448 61.9358 17.7085 61.3177 17.7946C60.9523 17.5869 60.6118 17.3389 60.2589 17.1097C59.7244 16.7599 59.193 16.4048 58.6614 16.0524Z" fill="#EDF1FB"/>
<path d="M44.8662 15.6413C44.9353 15.7351 44.9003 15.8474 44.905 15.9482C44.9852 17.6541 45.0934 19.3561 45.2324 21.0574C45.5702 25.1758 46.0681 29.2737 46.923 33.3191C46.9318 33.356 46.9407 33.3901 46.9495 33.4269C46.8429 33.8306 46.6401 34.1723 46.293 34.4182C45.9478 34.3738 45.6148 34.2687 45.2739 34.1994C44.9331 34.1301 44.6039 34.0085 44.2551 33.9778C44.2546 33.9414 44.2571 33.9025 44.2509 33.8686C44.033 32.5309 43.8123 31.1931 43.5972 29.8556C43.3308 28.1881 43.0081 26.531 42.8233 24.8492C42.7445 24.1236 42.6488 23.3998 42.5616 22.6737C42.4419 21.6719 42.3251 20.6702 42.208 19.6713C42.1465 19.1535 42.0906 18.6333 42.0321 18.1129C42.7603 17.4809 43.4883 16.8517 44.214 16.2168C44.4176 16.0371 44.6368 15.8752 44.8171 15.6689L44.8169 15.6717C44.8344 15.6588 44.8488 15.6514 44.8662 15.6413Z" fill="#EDF1FB"/>
<path d="M42.0354 18.1131C42.0939 18.6335 42.1527 19.1511 42.2113 19.6714C42.3282 20.6731 42.4451 21.6748 42.5649 22.6738C42.6521 23.3999 42.7478 24.1237 42.8266 24.8493C43.0115 26.5283 43.3313 28.1881 43.6005 29.8557C43.8156 31.1932 44.0363 32.531 44.2542 33.8687C44.2602 33.9054 44.2579 33.9415 44.2584 33.9779C44.2406 33.9935 44.2203 34.0062 44.2054 34.022C43.6157 34.6656 43.0233 35.3063 42.436 35.9557C42.2533 36.1563 42.0521 36.3417 41.8983 36.5692L41.9011 36.5694C41.8896 36.5742 41.878 36.5819 41.8693 36.5869C41.7835 36.2742 41.7624 35.9517 41.716 35.6332C41.4039 33.5047 41.0974 31.3767 40.7881 29.2485C40.7843 29.2203 40.7833 29.1923 40.7793 29.1669C40.7985 29.129 40.8121 29.0908 40.8366 29.0561C41.337 28.3285 41.843 27.6013 42.3408 26.8708C42.5344 26.5871 42.7437 26.3185 42.9105 26.0192C42.9389 26.0098 42.9284 26.0008 42.9124 25.9886C42.8816 25.9475 42.8376 25.9391 42.794 25.9251C41.9262 25.649 41.0613 25.3702 40.1937 25.0913C40.1271 24.6095 40.0605 24.1277 39.9881 23.6483C39.6801 21.5872 39.3719 19.5288 39.0666 17.4679C39.061 17.4256 39.0229 17.3673 39.0918 17.3354C39.135 17.3996 39.2115 17.3794 39.269 17.3942C39.7013 17.5141 40.1367 17.6285 40.5723 17.7402C41.0571 17.8661 41.5476 17.9897 42.0354 18.1131Z" fill="#EDF1FB"/>
<path d="M58.6621 16.0522C59.1937 16.4046 59.7223 16.7595 60.257 17.1065C60.6099 17.3358 60.9476 17.5836 61.3158 17.7915C61.3147 17.8082 61.3137 17.8249 61.3126 17.8415C61.2702 18.1991 61.2221 18.559 61.1853 18.9169C61.146 19.3138 61.0983 19.7101 61.0536 20.1038C60.9706 20.8357 60.8986 21.5684 60.8267 22.301C60.7764 22.8256 60.7232 23.3528 60.6729 23.8774C60.5876 24.732 60.5218 25.5852 60.4476 26.4406C60.4469 26.4517 60.4463 26.46 60.4456 26.4712C60.4451 26.4795 60.4446 26.4878 60.4468 26.4964C60.4181 26.6844 60.4032 26.8734 60.3855 27.0621C60.3191 27.7951 60.2553 28.5311 60.2139 29.2657C60.1804 29.8752 60.0915 30.4811 60.0858 31.0923C60.0803 31.832 60.0523 32.573 60.0356 33.312C59.9975 33.3431 59.9537 33.3738 59.9181 33.4078C59.4124 33.8698 58.9095 34.3319 58.401 34.7936C58.1142 35.0545 57.8248 35.3125 57.551 35.5882L57.5539 35.5856C57.5425 35.5904 57.5309 35.5981 57.5222 35.6031C57.4774 35.5192 57.5135 35.435 57.5214 35.3545C57.5676 34.8073 57.6191 34.2632 57.668 33.7162C57.8094 33.5521 57.9482 33.3851 58.0895 33.221C58.5498 32.6863 59.0156 32.152 59.4734 31.6116C59.6633 31.3864 59.877 31.1795 60.0351 30.9271C60.0503 30.8638 60.0083 30.8248 59.9719 30.7834C59.6012 30.3547 59.219 29.9309 58.863 29.4892C58.6177 29.1887 58.3429 28.9142 58.1065 28.6058C58.2959 26.3419 58.4436 24.0782 58.5637 21.8099C58.6346 20.4851 58.6749 19.1584 58.6791 17.8322C58.6822 17.3046 58.68 16.7738 58.6524 16.247C58.6537 16.1829 58.6608 16.1163 58.6621 16.0522Z" fill="#EDF1FB"/>
<path d="M82.0822 17.6295C82.9175 17.9789 83.6483 18.4809 84.2658 19.1432C85.0398 19.9719 85.5675 20.9496 85.9936 21.9933C86.4869 23.2034 86.7213 24.4583 86.7045 25.7642C86.6818 27.511 86.3786 29.2034 85.726 30.8289C85.7161 30.8534 85.7032 30.8805 85.6905 30.9048C85.549 30.7673 85.4194 30.6165 85.2837 30.4738C84.8973 30.0721 84.5318 29.6493 84.1454 29.2476C84.0174 29.1165 83.9044 28.9669 83.7614 28.8516C83.7688 28.8242 83.7705 28.7963 83.7806 28.7691C84.1014 27.7591 84.3176 26.7313 84.3107 25.6641C84.3074 25.2366 84.2816 24.8132 84.2081 24.3952C83.9454 22.9318 83.2728 21.6935 82.1408 20.7163C81.8954 20.5051 81.647 20.2965 81.3461 20.1683L81.3493 20.1629C81.1387 19.4932 80.9282 18.8235 80.7149 18.1535C81.1043 17.8126 81.5731 17.6667 82.0822 17.6295Z" fill="#EDF1FB"/>
<path d="M83.7608 28.8542C83.9038 28.9695 84.0167 29.1191 84.1448 29.2502C84.5312 29.652 84.8969 30.0719 85.2831 30.4764C85.4188 30.6192 85.5484 30.7699 85.6899 30.9074C85.3134 31.83 84.8135 32.6805 84.2299 33.4893C83.5669 34.4076 82.8279 35.2511 81.9209 35.9359C80.8587 36.7392 79.6806 37.2643 78.3486 37.4108C77.7905 37.4728 77.2306 37.4761 76.6797 37.3403C76.4317 36.5592 76.1808 35.7808 75.9386 34.9973C75.8672 34.7637 75.7646 34.5393 75.7357 34.2945L75.7387 34.2919C75.7884 34.2979 75.8413 34.2985 75.8908 34.3072C76.5681 34.4288 77.2487 34.4528 77.9354 34.3822C79.2529 34.2459 80.4025 33.7303 81.384 32.838C82.2059 32.0919 82.807 31.1837 83.2668 30.177C83.4611 29.751 83.6311 29.3151 83.7382 28.8584C83.7467 28.8561 83.7525 28.8537 83.7608 28.8542Z" fill="#EDF1FB"/>
<path d="M80.7106 18.1591C80.9212 18.8288 81.1317 19.4986 81.345 20.1685C80.5653 19.7779 79.7375 19.7026 78.8888 19.8242C77.7282 19.9901 76.7178 20.5063 75.8081 21.2328C74.734 22.0912 73.9844 23.1882 73.4957 24.4722C73.308 24.9685 73.1833 25.4799 73.0889 25.9989C72.294 26.2357 71.5018 26.4754 70.707 26.7122C70.7458 26.1924 70.8701 25.6865 71.0134 25.1875C71.6282 23.0653 72.6889 21.1979 74.2007 19.5911C75.2136 18.5138 76.4061 17.7188 77.8481 17.3336C78.0259 17.3393 78.1963 17.3754 78.3628 17.4279C78.947 17.6105 79.4339 17.921 79.7293 18.4816C79.9132 18.8285 79.9698 19.2064 79.9755 19.5949C80.03 19.3526 80.068 19.1065 80.1717 18.8786C80.2984 18.5963 80.4593 18.3441 80.7106 18.1591Z" fill="#EDF1FB"/>
<path d="M70.7049 26.7091C71.4997 26.4723 72.2919 26.2325 73.0867 25.9958C73.0816 26.0318 73.0792 26.0707 73.0687 26.1035C72.923 26.6835 72.8185 27.2716 72.7529 27.8622C72.6791 28.5361 72.6582 29.2106 72.7235 29.8878C72.8128 30.7983 73.0469 31.6651 73.5287 32.4471C74.0585 33.3049 74.7782 33.9374 75.7331 34.2889C75.7619 34.5337 75.8645 34.7581 75.9359 34.9917C76.1781 35.7752 76.429 36.5536 76.677 37.3347C75.7051 37.2054 74.8071 36.8799 73.9869 36.3387C72.7953 35.5531 71.9565 34.4745 71.3737 33.1833C71.3542 33.1402 71.3317 33.0996 71.312 33.0593C71.2999 33.0306 71.288 32.9991 71.2759 32.9704C71.2683 32.9587 71.2606 32.9499 71.2529 32.9382L71.2557 32.9384C71.2421 32.89 71.2314 32.8391 71.2121 32.7932C70.9603 32.1599 70.7851 31.5036 70.6749 30.8319C70.6289 30.5497 70.5913 30.268 70.5508 29.9861C70.5201 29.5094 70.5004 29.0334 70.5142 28.5567C70.5343 27.9381 70.5851 27.3186 70.7049 26.7091Z" fill="#EDF1FB"/>
<path d="M34.226 19.233C34.8023 18.7113 35.3813 18.1926 35.9577 17.671C36.2828 17.3762 36.6026 17.0784 36.9279 16.7808L36.925 16.7834C36.9338 16.7756 36.9425 16.7706 36.9541 16.7629C37.025 16.8736 37.0004 16.9977 37.0094 17.1183C37.0887 18.1846 37.1595 19.2532 37.2361 20.3193C37.3208 21.5199 37.411 22.721 37.4956 23.9216C37.5425 24.5809 37.5893 25.243 37.6332 25.9048C37.1354 26.5041 36.6321 27.103 36.1369 27.7053C35.9257 27.9599 35.6983 28.205 35.511 28.4779L35.514 28.4753C35.5051 28.4831 35.4933 28.4935 35.4845 28.5013L35.4874 28.4987C35.4073 28.3149 35.4118 28.1141 35.3852 27.9197C35.1094 25.8774 34.8365 23.8324 34.5637 21.7875C34.4546 20.9679 34.3456 20.1482 34.2367 19.3258C34.2274 19.2973 34.2266 19.2665 34.226 19.233Z" fill="#EDF1FB"/>
<path d="M64.2785 25.3678C64.2957 25.3605 64.3155 25.3562 64.3326 25.3489C64.3551 25.3894 64.3748 25.4298 64.4 25.4705C64.6656 25.8896 64.9311 26.3088 65.1968 26.7251C65.9933 27.9853 66.7925 29.2457 67.589 30.5059C67.9431 31.0647 68.2942 31.6262 68.6453 32.1876C68.358 33.1522 68.0681 34.1139 67.7864 35.0789C67.7046 35.3557 67.5926 35.6278 67.5572 35.9188L67.5574 35.916C67.5485 35.9238 67.5369 35.9314 67.5281 35.9392C67.4576 35.9096 67.4428 35.836 67.4103 35.7781C65.8947 33.2236 64.3792 30.6691 62.8636 28.1145C62.8462 28.0827 62.823 28.0533 62.8026 28.0241C62.804 28.0018 62.8027 27.9794 62.8039 27.9599C62.8129 27.9493 62.8246 27.9417 62.8336 27.9311C63.2532 27.2039 63.6729 26.4768 64.0844 25.7463C64.1507 25.6249 64.2388 25.5104 64.2785 25.3678Z" fill="#EDF1FB"/>
<path d="M41.7425 14.4613C41.5919 14.5522 41.4159 14.5605 41.25 14.5862C40.4259 14.7149 39.6085 14.6961 38.8096 14.43C37.6101 14.0293 36.8998 13.1628 36.5385 11.9779C36.3383 11.32 36.2646 10.645 36.2611 9.96061C36.2574 9.14772 36.2953 8.33749 36.4854 7.54259C36.7169 6.57998 37.0514 5.66027 37.67 4.87044C38.6164 3.65757 39.8532 3.04136 41.3965 3.07312C42.37 3.09074 43.2047 3.44856 43.8959 4.1351C43.9693 4.20682 44.0596 4.27404 44.0745 4.38949C43.8729 4.40731 43.6715 4.42234 43.4696 4.44294C43.108 4.48123 42.7488 4.52526 42.3871 4.56355C41.9537 4.41852 41.5096 4.39568 41.0594 4.42552C40.2761 4.48151 39.602 4.79023 39.0407 5.33797C38.604 5.76522 38.2981 6.28183 38.0643 6.84494C37.8142 7.44611 37.6598 8.07574 37.5602 8.71726C37.4853 9.1928 37.4073 9.67093 37.4405 10.1534C37.5052 11.1433 37.8851 11.9943 38.6042 12.6798C39.4886 13.5239 40.685 13.7988 41.806 13.2087C41.7848 13.6262 41.7637 14.0438 41.7425 14.4613Z" fill="#EDF1FB"/>
<path d="M60.0371 30.9273C59.8764 31.1768 59.6652 31.3867 59.4754 31.6119C59.0176 32.1523 58.552 32.6838 58.0915 33.2213C57.9502 33.3854 57.8114 33.5524 57.67 33.7165C57.1036 33.778 56.546 33.8764 55.9835 33.9632C53.0334 34.4195 50.1345 35.1193 47.2378 35.8275C47.201 35.8363 47.1139 35.9369 47.0978 35.7962C47.4759 35.2395 48.0078 34.9776 48.6927 34.9795C48.4541 34.9223 48.2212 34.9074 48.0232 34.7803C48.5144 34.1973 49.0084 33.6146 49.4996 33.0316C49.5237 33.0024 49.5529 32.982 49.5896 32.9731C51.1067 32.6765 52.6237 32.3798 54.141 32.0803C55.2153 31.8698 56.2869 31.6592 57.3613 31.4487C58.2522 31.2767 59.1461 31.1021 60.0371 30.9273Z" fill="#EDF1FB"/>
<path d="M60.0373 30.9275C59.1463 31.1022 58.2526 31.274 57.3615 31.4488C56.2871 31.6593 55.2155 31.87 54.1412 32.0805C52.6241 32.3771 51.1071 32.6738 49.5899 32.9733C49.5909 32.9566 49.5892 32.9397 49.5903 32.923C50.3976 31.8381 51.2022 30.753 52.0095 29.668C53.2316 29.4558 54.4564 29.2438 55.6786 29.0288C56.4868 28.8878 57.2977 28.747 58.1061 28.6032C58.3425 28.9116 58.6201 29.1863 58.8626 29.4867C59.2214 29.9285 59.601 30.3494 59.9715 30.7808C60.0105 30.8252 60.0525 30.8642 60.0373 30.9275Z" fill="#EDF1FB"/>
<path d="M68.6445 32.1905C68.2934 31.629 67.9423 31.0676 67.5882 30.5087C66.7918 29.2485 65.9953 27.9883 65.1961 26.728C64.9305 26.3088 64.665 25.8897 64.3993 25.4734C64.3738 25.4354 64.3543 25.3923 64.3319 25.3517C64.3376 25.3493 64.3459 25.3499 64.3514 25.3502C64.4067 25.3565 64.4622 25.3601 64.5175 25.3664C64.9311 25.4292 65.342 25.4918 65.7557 25.5546C66.0066 25.593 66.2551 25.6256 66.5062 25.6613C66.9062 25.7204 67.303 25.7849 67.7028 25.8468C68.2027 26.6942 68.7782 27.4906 69.3422 28.2947C69.7402 28.862 70.1498 29.4244 70.5536 29.9892C70.594 30.271 70.6317 30.5527 70.6776 30.8349C70.7906 31.5068 70.9658 32.1631 71.2148 32.7962C71.2342 32.8421 71.2448 32.8931 71.2584 32.9414C71.2168 32.9388 71.1749 32.9417 71.1368 32.9281C70.6038 32.7711 70.074 32.6087 69.5441 32.4491C69.2433 32.3629 68.9425 32.2766 68.6445 32.1905Z" fill="#EDF1FB"/>
<path d="M75.8416 10.9885C75.7922 11.1501 75.7869 11.3201 75.7515 11.4826C75.6912 11.7719 75.6749 12.0697 75.6117 12.3617C75.5795 12.516 75.5662 12.6799 75.5533 12.8383C75.5306 13.1496 75.4608 13.4579 75.4575 13.7705C75.4556 13.9295 75.3956 14.0849 75.3991 14.2471C74.9729 13.9014 74.5467 13.5558 74.1206 13.2102C74.1901 12.8627 74.2627 12.5127 74.3295 12.1651C74.338 12.1182 74.3608 12.0666 74.3193 12.0193C74.3197 12.0137 74.3198 12.0109 74.3202 12.0053C74.3325 11.9866 74.3449 11.9678 74.3572 11.9491C74.4468 11.6811 74.4814 11.4013 74.5408 11.1258C74.6765 10.4838 74.7958 9.83798 74.926 9.19563C75.0557 8.56163 75.1882 7.9278 75.3177 7.29657C75.4231 6.7811 75.5312 6.2658 75.634 5.74736C75.7082 5.37231 75.7797 4.99429 75.8538 4.61924C76.0603 4.48165 76.2668 4.34407 76.4737 4.20092C76.8145 3.96581 77.1555 3.72792 77.4965 3.49003C77.5459 3.63282 77.5002 3.7807 77.505 3.92343C77.5138 4.2647 77.5253 4.60614 77.5369 4.94758C77.5476 5.25825 77.5863 5.56791 77.6109 5.87947C77.6416 6.26961 77.6666 6.66218 77.7057 7.05286C77.7423 7.43779 77.8013 7.82136 77.8405 8.20926C77.8899 8.69834 77.9874 9.17653 78.1244 9.64609C78.1494 9.73426 78.1539 9.83788 78.2362 9.90178C78.2388 9.94664 78.2386 9.9941 78.2496 10.0395C78.4494 11.0939 78.6493 12.1484 78.8491 13.2028C78.8577 13.2425 78.8748 13.2799 78.8125 13.3401C77.3371 11.7237 76.7655 9.73505 76.3916 7.65853C76.3048 8.14448 76.2265 8.62818 76.1456 9.10892C76.0784 9.50676 76.0058 9.90146 75.9387 10.2965C75.9044 10.5289 75.8757 10.7589 75.8416 10.9885Z" fill="#EDF1FB"/>
<path d="M49.2303 18.5569C50.0969 18.4168 50.9635 18.2768 51.8327 18.1397C52.6625 18.0085 53.4948 17.8831 54.3274 17.7521C54.6733 17.6988 55.0193 17.6427 55.3651 17.5923C55.4578 17.5787 55.4904 17.5053 55.5281 17.4379C55.7216 17.1124 55.9124 16.7839 56.1057 16.4612C56.4171 15.9477 56.7282 15.437 57.0423 14.9237C57.1363 15.2816 57.1797 15.6474 57.2427 16.0117C57.4518 17.2259 57.6552 18.4426 57.8587 19.6564C57.8869 19.8258 57.9294 19.8146 57.6965 19.8416C56.6949 19.959 55.6944 20.0597 54.6947 20.1912C53.7876 20.3119 52.8869 20.4637 51.9815 20.6012C51.9039 20.5516 51.8263 20.5019 51.7519 20.4469C51.4591 20.2355 51.1691 20.0242 50.8791 19.8129C50.3471 19.4242 49.8121 19.0381 49.2801 18.6494C49.2481 18.6278 49.1904 18.6157 49.2303 18.5569Z" fill="#EDF1FB"/>
<path d="M67.7013 25.8466C67.3015 25.7847 66.9045 25.723 66.5047 25.6611C66.2538 25.6227 66.0053 25.5901 65.7542 25.5544C65.3405 25.4917 64.9296 25.4291 64.516 25.3663C64.4609 25.3572 64.4054 25.3536 64.35 25.3501C64.7604 25.1585 65.1807 24.9871 65.5863 24.7841C66.4582 24.3428 67.2819 23.8286 67.9934 23.1537C68.6221 22.5544 69.1282 21.8691 69.3828 21.0225C69.595 20.3183 69.5432 19.6476 69.1064 19.0332C69.0936 19.0156 69.081 18.9952 69.048 18.9457C70.0755 19.1622 71.0755 19.3742 72.0729 19.5833C72.0575 20.5625 71.8202 21.4857 71.3615 22.3444C70.542 23.8809 69.2992 24.9826 67.7851 25.7989C67.7563 25.8138 67.7301 25.8317 67.7013 25.8466Z" fill="#EDF1FB"/>
<path d="M41.8069 13.2087C40.686 13.7988 39.4897 13.5212 38.6052 12.6798C37.8861 11.9943 37.5062 11.1433 37.4415 10.1534C37.4083 9.67095 37.4864 9.19003 37.5612 8.71727C37.6608 8.07575 37.8152 7.44612 38.0653 6.84495C38.2989 6.28462 38.605 5.76523 39.0417 5.33798C39.603 4.79024 40.2771 4.48151 41.0604 4.42552C41.5107 4.39291 41.9576 4.41592 42.3881 4.56356C42.4708 5.05477 42.548 5.54563 42.6363 6.0372C42.6529 6.12484 42.6208 6.23449 42.7256 6.29426C42.6889 6.38965 42.6507 6.33414 42.6057 6.29775C42.3147 6.05851 41.992 5.87868 41.6132 5.83768C41.1016 5.78259 40.6686 5.97829 40.2914 6.30323C39.7224 6.79741 39.3833 7.44036 39.1353 8.1394C38.8224 9.0242 38.8132 9.90887 39.124 10.7945C39.2205 11.0715 39.3714 11.3242 39.5719 11.5409C40.0434 12.0486 40.634 12.1311 41.2785 12.0243C41.301 12.0202 41.3234 12.0188 41.3458 12.0174C41.4989 12.4098 41.6492 12.802 41.8023 13.1944C41.8049 13.1974 41.8073 13.2031 41.8069 13.2087Z" fill="#EDF1FB"/>
<path d="M41.8042 13.1916C41.6511 12.7992 41.5007 12.407 41.3476 12.0146C41.8668 11.9082 42.3058 11.6626 42.644 11.2514C42.9609 10.8668 43.1208 10.4134 43.2021 9.92712C43.5005 9.572 43.7963 9.21393 44.0947 8.85881C44.0871 8.84716 44.0794 8.8355 44.0718 8.82384C43.2386 9.05257 42.4023 9.28389 41.569 9.51262C41.3733 9.35208 41.1716 9.19675 40.9788 9.0336C40.8283 8.90389 40.6567 8.80075 40.5362 8.63944C41.1108 8.45001 41.6856 8.2578 42.2598 8.07394C43.1778 7.78361 44.0954 7.49884 45.0154 7.21982C45.1432 7.18053 45.1862 7.11904 45.208 6.99477C45.3577 6.13584 45.6246 5.31513 46.0416 4.54312C46.5723 3.56057 47.3202 2.83767 48.4052 2.50497C48.7118 2.41289 49.02 2.34045 49.3448 2.35566C49.3745 2.41341 49.4014 2.47099 49.4341 2.52614C49.6714 2.95185 49.9114 3.37773 50.1487 3.80343C49.8417 3.72793 49.5356 3.72509 49.2281 3.7864C48.3256 3.96601 47.6354 4.48316 47.0909 5.20232C46.4945 5.99357 46.2801 6.907 46.3067 7.88333C46.1886 7.94559 46.0704 8.00784 45.9523 8.0701C45.6641 8.222 45.3758 8.37669 45.0876 8.5286C45.0739 8.39368 45.0714 8.25947 45.0799 8.12597C45.1002 7.85359 45.1176 7.58102 45.1378 7.30864C45.1441 7.29787 45.1503 7.2871 45.1536 7.27893C45.1538 7.27615 45.1485 7.27302 45.1459 7.27006C45.1396 7.28083 45.1361 7.29178 45.1299 7.30255C45.0965 7.34509 45.0604 7.38746 45.0324 7.43315C44.7385 7.89188 44.4476 8.34801 44.1537 8.80674C44.1495 8.82881 44.1396 8.85331 44.1437 8.87591C44.2059 9.51382 44.1572 10.1446 43.9923 10.7624C43.7397 11.7069 43.2235 12.4642 42.3676 12.9596C42.1909 13.0656 42.0117 13.1686 41.8042 13.1916Z" fill="#EDF1FB"/>
<path d="M75.841 10.9884C75.8725 10.7586 75.9009 10.5315 75.9407 10.3022C76.0079 9.90438 76.0805 9.50968 76.1475 9.11463C76.2286 8.6311 76.3069 8.1474 76.3935 7.66423C76.7674 9.74075 77.339 11.7294 78.8144 13.3458C78.8765 13.2883 78.8568 13.248 78.851 13.2085C78.6512 12.1541 78.4514 11.0996 78.2515 10.0452C78.2433 9.99998 78.2435 9.95252 78.2381 9.90749C78.3746 9.12312 78.5083 8.33857 78.6449 7.55419C78.7877 6.71437 78.9278 5.87438 79.0734 5.03474C79.1142 4.7888 79.1633 4.5434 79.2069 4.29765C79.4484 4.39688 79.6705 4.53677 79.9023 4.65772C80.1769 4.80376 80.4544 4.94998 80.7289 5.0988C80.7146 5.14815 80.6977 5.19455 80.6862 5.24408C80.5338 5.84033 80.3787 6.43641 80.2292 7.03284C80.0278 7.82981 79.8427 8.63342 79.6687 9.43773C79.5499 9.98866 79.4311 10.5396 79.3205 11.0938C79.2259 11.5709 79.1452 12.0489 79.0506 12.5259C78.9928 12.821 78.9624 13.1207 78.8798 13.4114C78.7385 13.5308 78.5972 13.6503 78.4559 13.7697C78.1294 14.042 77.8081 14.3203 77.4969 14.6131C77.3574 14.4003 77.2698 14.1601 77.1646 13.9328C76.7352 12.9837 76.3144 12.0324 75.888 11.0808C75.8737 11.0436 75.8561 11.0145 75.841 10.9884Z" fill="#EDF1FB"/>
<path d="M62.8015 27.9624C62.8001 27.9846 62.8014 28.007 62.8002 28.0265C62.7273 28.6865 62.7071 29.3498 62.6677 30.0092C62.6157 30.866 62.5915 31.7218 62.5757 32.5781C62.5646 33.2308 62.5562 33.8838 62.5728 34.5383C62.5732 34.5747 62.5681 34.6106 62.5629 34.6494C62.5547 34.6461 62.5436 34.6454 62.5355 34.6421C61.8358 34.2622 61.1362 33.8823 60.4336 33.505C60.3044 33.4353 60.1848 33.3466 60.0392 33.315C60.0559 32.576 60.0838 31.8349 60.0894 31.0952C60.0923 30.4838 60.184 29.8781 60.2174 29.2687C60.2589 28.5341 60.3227 27.7981 60.3891 27.0651C60.4067 26.8763 60.4216 26.6874 60.4504 26.4993C60.7129 26.6614 60.9754 26.8234 61.2349 26.988C61.58 27.2084 61.9187 27.4423 62.2671 27.6545C62.4411 27.7633 62.5991 27.9047 62.8015 27.9624Z" fill="#EDF1FB"/>
<path d="M36.3347 35.1771C36.3223 34.8496 36.2595 34.5244 36.2162 34.2005C36.0348 32.8149 35.8449 31.4316 35.6607 30.0458C35.6005 29.5951 35.54 29.1472 35.4825 28.6967C35.4771 28.6517 35.4773 28.6042 35.4746 28.5594C35.6825 28.6174 35.8523 28.7483 36.038 28.8496C36.5491 29.1308 37.0479 29.428 37.5559 29.7147C37.7574 29.8281 37.9623 29.9334 38.1641 30.044C38.2609 30.5334 38.3547 31.0253 38.4514 31.5146C38.7194 32.8527 38.9902 34.1909 39.2552 35.5316C39.2635 35.5768 39.2993 35.6266 39.2654 35.6775C38.9462 35.6179 38.6242 35.5582 38.3047 35.5043C37.9962 35.451 37.6872 35.4061 37.3816 35.353C37.0322 35.286 36.686 35.2136 36.3347 35.1771Z" fill="#EDF1FB"/>
<path d="M67.1899 5.97758C67.2587 5.77254 67.2473 5.55957 67.269 5.35151C67.3452 4.63868 67.4078 3.92218 67.4759 3.20604C67.4782 3.16988 67.4916 3.13444 67.4995 3.09864C67.841 3.37462 68.1438 3.69002 68.4763 3.97661C68.6399 4.11833 68.7736 4.29165 68.9642 4.4016C68.9609 4.40976 68.9604 4.41811 68.9571 4.42627C68.934 4.43876 68.9298 4.46083 68.9254 4.48569C68.8355 5.28142 68.7484 6.07733 68.6587 6.87028C68.6208 7.20018 68.5775 7.52973 68.545 7.86277C68.5374 7.93769 68.499 8.01621 68.5556 8.08965C68.5552 8.09521 68.5548 8.10077 68.5545 8.10634C68.5455 8.11693 68.5336 8.12734 68.5246 8.13794C68.4668 8.60619 68.4062 9.07427 68.3539 9.54288C68.2973 10.0363 68.2601 10.5311 68.1925 11.021C68.1566 11.2784 68.1455 11.5375 68.104 11.7945C68.0809 11.9382 68.0377 12.0919 68.095 12.2408C68.0939 12.2574 68.0954 12.2771 68.0944 12.2938C68.0496 12.2965 68.0173 12.3224 67.9877 12.3512C67.4945 12.7916 66.9987 13.229 66.5027 13.6692C66.4503 13.5318 66.5091 13.3959 66.5204 13.2626C66.6213 12.1213 66.7277 10.9803 66.8369 9.83955C66.8703 9.49261 66.909 9.1488 66.9257 8.80078L66.9227 8.80339C66.9318 8.7928 66.9382 8.77925 66.9472 8.76865C66.9822 8.26542 67.0616 7.76504 67.0799 7.26074C67.1168 7.20725 67.1122 7.14831 67.1189 7.0873C67.1338 6.89835 67.132 6.70834 67.1633 6.52324C67.1945 6.34092 67.2142 6.16345 67.1899 5.97758Z" fill="#EDF1FB"/>
<path d="M78.8737 13.4056C78.9536 13.1147 78.9866 12.8152 79.0445 12.5201C79.1391 12.0431 79.217 11.5649 79.3144 11.088C79.425 10.5338 79.5438 9.98286 79.6626 9.43193C79.8366 8.62762 80.0215 7.82679 80.2231 7.02704C80.3754 6.43078 80.5277 5.83453 80.6801 5.23828C80.6916 5.18875 80.7087 5.13957 80.7228 5.093C80.7484 5.08347 80.7741 5.07395 80.8 5.06164C81.3003 4.81439 81.8006 4.56715 82.3037 4.32009C82.2151 4.6607 82.1292 5.0015 82.0378 5.34193C81.6944 6.61853 81.3866 7.90299 81.1201 9.19568C80.8459 10.5214 80.6183 11.8585 80.4571 13.2026C80.4095 13.5989 80.3702 13.9957 80.3281 14.3924C80.3064 14.3826 80.2844 14.3784 80.2657 14.366C80.0048 14.179 79.747 13.9865 79.48 13.8075C79.2769 13.6744 79.1015 13.5012 78.8737 13.4056Z" fill="#EDF1FB"/>
<path d="M52.0135 29.6709C51.2061 30.7558 50.4016 31.8409 49.5942 32.9259C49.5042 32.7665 49.5572 32.5912 49.5483 32.4258C49.5205 31.9465 49.515 31.4658 49.5013 30.9846C49.4934 30.6294 49.4884 30.2717 49.4778 29.9163C49.4655 29.4547 49.4478 28.9928 49.4355 28.5312C49.4266 28.1928 49.4202 27.8572 49.4112 27.5187C49.3977 27.0347 49.3843 26.548 49.3707 26.064C49.3661 25.8319 49.3612 25.6026 49.3594 25.3707C49.3838 25.3806 49.4112 25.3879 49.4352 25.4034C50.0033 25.7945 50.571 26.1911 51.1421 26.5795C51.4276 26.7737 51.7009 26.9839 51.9988 27.1593C52.0021 27.76 52.0054 28.3606 52.0087 28.9612C52.0075 29.1985 52.0092 29.4332 52.0135 29.6709Z" fill="#EDF1FB"/>
<path d="M49.2302 18.5568C49.193 18.6159 49.2479 18.6278 49.2772 18.6492C49.8092 19.0379 50.3442 19.424 50.8762 19.8127C51.1662 20.024 51.4562 20.2352 51.7489 20.4467C51.8234 20.5017 51.9011 20.5486 51.9785 20.601C51.9184 21.192 51.9083 21.7862 51.8842 22.3794C51.8702 22.6857 51.8646 22.9898 51.8534 23.2963C51.6447 23.4672 51.4363 23.6354 51.2304 23.8065C50.6251 24.3012 50.0171 24.7957 49.4118 25.2903C49.3973 25.3006 49.3854 25.311 49.371 25.3184L49.3655 25.3181C49.3258 25.0251 49.3421 24.7273 49.3302 24.4333C49.3102 23.9629 49.2987 23.4902 49.287 23.0203C49.2781 22.6818 49.2717 22.3463 49.2627 22.0078C49.2491 21.5238 49.233 21.0369 49.2222 20.553C49.2096 20.097 49.2027 19.6386 49.1903 19.1798C49.1864 19.0232 49.1742 18.866 49.1731 18.7095C49.1737 18.6565 49.1232 18.5751 49.2302 18.5568Z" fill="#EDF1FB"/>
<path d="M38.1611 30.0439C37.9592 29.936 37.7543 29.8307 37.5529 29.7145C37.0477 29.428 36.5462 29.1278 36.035 28.8494C35.8494 28.7481 35.6795 28.6172 35.4716 28.5592C35.4729 28.5397 35.4769 28.5204 35.478 28.5037L35.475 28.5063C35.4918 28.5046 35.506 28.4999 35.5045 28.4803L35.5016 28.4829C35.5591 28.4978 35.6111 28.4676 35.6625 28.4485C37.9907 27.6592 40.3191 26.8671 42.6501 26.078C42.7299 26.0496 42.8085 25.996 42.9018 26.0187C42.7323 26.3178 42.5227 26.5893 42.3321 26.8703C41.8343 27.6008 41.3285 28.3252 40.8279 29.0556C40.8034 29.0903 40.7898 29.1286 40.7706 29.1664C40.2897 29.3283 39.8088 29.4902 39.3278 29.6522C38.9409 29.781 38.551 29.9124 38.1611 30.0439Z" fill="#EDF1FB"/>
<path d="M66.9236 8.80635C66.9236 8.80635 66.9265 8.80374 66.9236 8.80635C66.8092 9.02802 66.7132 9.26484 66.5903 9.48876C66.1245 10.3275 65.459 10.9802 64.6909 11.5399C63.3707 12.5026 61.8835 12.9855 60.2712 13.1169C59.8794 13.1477 59.4862 13.156 59.0947 13.1393C59.3004 12.9263 59.5008 12.7101 59.7092 12.5001C59.9714 12.232 60.2415 11.97 60.5063 11.7049C60.5331 11.6787 60.5572 11.6495 60.594 11.6407C60.7557 11.6371 60.9173 11.6363 61.0766 11.6269C61.9151 11.5772 62.7251 11.4085 63.4913 11.0526C64.2489 10.7017 64.8717 10.1942 65.2787 9.44671C65.5814 8.89359 65.7169 8.29905 65.7402 7.67499C65.7433 7.58303 65.7735 7.54587 65.8611 7.52634C66.2675 7.44065 66.6743 7.34939 67.081 7.26092C67.0626 7.76521 66.9833 8.2656 66.9483 8.76883C66.9391 8.78221 66.9328 8.79297 66.9236 8.80635Z" fill="#EDF1FB"/>
<path d="M49.3651 25.3154L49.3707 25.3157C49.3845 25.3166 49.3956 25.3173 49.4093 25.321C49.4541 25.3183 49.5016 25.3157 49.5465 25.3102C50.5382 25.1726 51.527 25.0376 52.5187 24.9C53.3447 24.7853 54.1709 24.6679 54.997 24.5504C55.0152 24.5711 55.0275 24.597 55.0488 24.6123C55.4164 24.9151 55.7837 25.2235 56.1575 25.5183C56.4173 25.722 56.656 25.9523 56.934 26.1321C56.9266 26.2043 56.8641 26.1807 56.8246 26.1893C55.2505 26.5075 53.6767 26.8201 52.1 27.1353C52.0634 27.1413 52.0266 27.1501 51.9901 27.1562C51.692 26.9835 51.4189 26.7705 51.1333 26.5763C50.5623 26.1879 49.9974 25.7915 49.4265 25.4003C49.4052 25.385 49.3779 25.3776 49.3507 25.3675C49.36 25.3513 49.3611 25.3347 49.3651 25.3154Z" fill="#EDF1FB"/>
<path d="M53.4872 8.93497C53.4925 9.28718 53.4978 9.63939 53.5033 9.98882C53.3766 10.2711 53.2853 10.5669 53.1503 10.8487C52.7781 11.618 52.326 12.3291 51.6458 12.8636C51.0304 13.3437 50.3289 13.6004 49.5478 13.623C49.488 13.5131 49.4338 13.4035 49.3712 13.2934C49.1464 12.8908 48.9216 12.4882 48.6967 12.0857C48.6971 12.0801 48.6947 12.0743 48.6948 12.0716C48.8458 12.0617 48.9992 12.0575 49.1509 12.0365C50.4816 11.8676 51.4363 11.1774 52.0047 9.95434C52.2597 9.40655 52.3779 8.82208 52.4492 8.22902C52.5796 8.32394 52.71 8.41885 52.8433 8.51116C53.0597 8.65348 53.2736 8.79283 53.4872 8.93497Z" fill="#EDF1FB"/>
<path d="M42.9055 26.0188C42.8122 25.9961 42.7336 26.0497 42.6538 26.0781C40.3256 26.8674 37.9974 27.6567 35.6662 28.4486C35.615 28.4648 35.563 28.495 35.5053 28.483C35.6928 28.2073 35.9199 27.9649 36.1311 27.7104C36.6263 27.1081 37.1269 26.5091 37.6274 25.91C38.1276 25.7521 38.6306 25.5944 39.1308 25.4365C39.4832 25.325 39.833 25.2106 40.1856 25.0963C41.0532 25.3752 41.918 25.654 42.7858 25.9301C42.8295 25.9441 42.8763 25.9527 42.9043 25.9936C42.9067 25.9993 42.9062 26.0077 42.9055 26.0188Z" fill="#EDF1FB"/>
<path d="M54.9961 24.5503C54.1699 24.6678 53.3437 24.7853 52.5178 24.9C51.526 25.0376 50.5371 25.1753 49.5455 25.3102C49.5006 25.3157 49.4531 25.3182 49.4084 25.3209C49.4091 25.3098 49.4098 25.2987 49.4105 25.2876C50.0158 24.7929 50.6238 24.2984 51.2291 23.8038C51.4377 23.6328 51.6462 23.4646 51.8521 23.2935C52.5347 23.1557 53.2172 23.0206 53.8999 22.8828C54.6644 22.7279 55.4263 22.57 56.1908 22.415C56.2359 22.4067 56.2806 22.404 56.3285 22.3959C56.133 22.7101 55.9404 23.0218 55.7449 23.336C55.4961 23.7418 55.2446 24.1473 54.9961 24.5503Z" fill="#EDF1FB"/>
<path d="M48.6997 12.0861C48.9246 12.4887 49.1494 12.8912 49.3742 13.2938C49.4342 13.401 49.491 13.5135 49.5508 13.6235C48.3885 13.6859 47.4058 13.2907 46.5958 12.4597C46.0991 11.9532 45.7562 11.3503 45.5062 10.6892C45.4945 10.655 45.4742 10.623 45.4595 10.5913C45.3216 10.1357 45.2061 9.67865 45.136 9.20779C45.1225 8.98352 45.1062 8.75907 45.0926 8.53757C45.3807 8.38567 45.6691 8.23098 45.9573 8.07907C46.0754 8.01682 46.1936 7.95456 46.3117 7.89231C46.3446 8.42222 46.3831 8.95249 46.5056 9.47418C46.6437 10.0583 46.8533 10.6107 47.2152 11.0918C47.5896 11.5934 48.0735 11.9511 48.6997 12.0861Z" fill="#EDF1FB"/>
<path d="M53.4885 8.93511C53.2749 8.79298 53.0582 8.65345 52.8475 8.50871C52.714 8.41918 52.5866 8.32166 52.4535 8.22656C52.4815 7.8318 52.5094 7.43982 52.4733 7.04654C52.4019 6.20418 52.1508 5.42851 51.5881 4.78091C51.1965 4.32857 50.7229 3.98548 50.1468 3.80619L50.1494 3.80915C49.9121 3.38344 49.6721 2.95756 49.4348 2.53185C49.4021 2.4767 49.3754 2.41634 49.3455 2.36137C49.9306 2.31225 50.4857 2.42597 51.0124 2.6803C51.6987 3.00907 52.2109 3.53336 52.6597 4.13458C53.0033 4.59502 53.2578 5.10002 53.4518 5.63744C53.4593 6.30258 53.4639 6.97031 53.4715 7.63544C53.4773 8.06589 53.4828 8.50189 53.4885 8.93511Z" fill="#EDF1FB"/>
<path d="M66.5025 13.6693C66.9985 13.2291 67.4915 12.7915 67.9875 12.3513C68.0199 12.3226 68.0494 12.2966 68.0942 12.2939C68.164 12.29 68.2339 12.2861 68.3008 12.2848C68.8399 12.2578 69.3816 12.2339 69.9208 12.2069C70.5436 12.177 71.1667 12.1442 71.7895 12.1143C72.3204 12.0868 72.8513 12.0566 73.3818 12.0347C73.6945 12.0212 74.0089 11.9826 74.3222 12.0027C74.3219 12.0083 74.3217 12.011 74.3213 12.0166C73.795 12.4521 73.2687 12.8876 72.7452 13.3232C72.2171 13.309 71.6897 13.3255 71.1654 13.3394C70.3063 13.3626 69.4459 13.4053 68.5897 13.4706C67.9208 13.5227 67.2542 13.5834 66.589 13.6665C66.558 13.6729 66.5302 13.6711 66.5025 13.6693Z" fill="#EDF1FB"/>
<path d="M45.1315 9.20738C45.2016 9.67824 45.3198 10.1382 45.4551 10.5909C45.1958 11.4233 44.8233 12.1953 44.2705 12.8721C43.6511 13.6311 42.876 14.168 41.9288 14.4369C41.8693 14.4526 41.8084 14.4906 41.7405 14.4639C41.7616 14.0464 41.7828 13.6288 41.8067 13.2115C41.8071 13.2059 41.8047 13.2002 41.805 13.1946C42.0126 13.1716 42.1918 13.0686 42.3681 12.9681C43.2242 12.47 43.7402 11.7155 43.9928 10.771C44.1577 10.1532 44.2064 9.52239 44.1442 8.88448C44.1428 8.86205 44.1498 8.84015 44.1542 8.8153C44.3142 8.8814 44.4743 8.94749 44.6344 9.01359C44.8001 9.07726 44.956 9.16543 45.1315 9.20738Z" fill="#EDF1FB"/>
<path d="M53.5883 13.1947C53.7096 12.9958 53.8786 12.8363 54.0262 12.6614C54.3215 12.3117 54.6273 11.971 54.9225 11.6213C54.9826 11.5525 55.046 11.5202 55.1304 11.5061C56.8207 11.2429 58.5112 10.9769 60.2018 10.7108C60.2777 10.6989 60.3564 10.6872 60.4717 10.6695C60.0009 11.1951 59.5509 11.6997 59.1011 12.2015C58.257 12.2955 57.4185 12.4317 56.5819 12.582C55.613 12.7546 54.6508 12.9527 53.6947 13.1848C53.6609 13.191 53.6247 13.1914 53.5883 13.1947Z" fill="#EDF1FB"/>
<path d="M68.6455 32.1904C68.9435 32.2765 69.2442 32.3627 69.5421 32.4516C70.075 32.6086 70.6048 32.771 71.1348 32.9306C71.1731 32.9414 71.2178 32.9387 71.2564 32.9439L71.2537 32.9438C71.2613 32.9554 71.269 32.9643 71.2767 32.9759C71.2887 33.0046 71.3006 33.0361 71.3127 33.0648C70.879 33.4029 70.4477 33.7467 70.0087 34.0789C69.2272 34.674 68.443 35.2661 67.6589 35.8582C67.6266 35.8841 67.5893 35.9012 67.5546 35.9213C67.5927 35.6306 67.7018 35.3611 67.7838 35.0815C68.0683 34.1167 68.3582 33.155 68.6455 32.1904Z" fill="#EDF1FB"/>
<path d="M42.0356 18.1132C41.5451 17.9896 41.0572 17.869 40.5668 17.7427C40.1312 17.631 39.6958 17.5166 39.2635 17.3968C39.2062 17.3791 39.1295 17.4021 39.0863 17.3379C40.3749 16.9568 41.6606 16.5756 42.9492 16.1945C43.5283 16.0221 44.1099 15.8526 44.6916 15.6832C44.7341 15.672 44.7752 15.6383 44.8208 15.6664C44.6405 15.8726 44.4213 16.0345 44.2177 16.2142C43.4948 16.8493 42.7638 17.4812 42.0356 18.1132Z" fill="#EDF1FB"/>
<path d="M60.0392 33.315C60.1848 33.3467 60.307 33.4383 60.4336 33.505C61.1364 33.8796 61.8359 34.2622 62.5355 34.6421C62.5437 34.6455 62.552 34.646 62.5629 34.6495C62.3151 34.7369 62.0545 34.7622 61.798 34.81C60.4282 35.0686 59.0586 35.3244 57.6889 35.5803C57.6439 35.5886 57.5984 35.6024 57.5518 35.591C57.8256 35.3153 58.115 35.0574 58.4018 34.7965C58.9074 34.3373 59.4132 33.8726 59.919 33.4107C59.9573 33.3768 59.9983 33.3459 60.0392 33.315Z" fill="#EDF1FB"/>
<path d="M36.3342 35.177C36.6855 35.2135 37.0317 35.2859 37.3812 35.3501C37.6895 35.4062 37.9986 35.4483 38.3043 35.5014C38.6265 35.5583 38.9457 35.6178 39.265 35.6746C38.8565 35.8355 38.4506 35.9995 38.0423 36.1576C36.7574 36.6563 35.4726 37.1521 34.1879 37.648C34.145 37.6648 34.1044 37.6901 34.0575 37.6843C34.1467 37.5085 34.302 37.3872 34.4309 37.2446C35.0599 36.5532 35.6998 35.8653 36.3342 35.177Z" fill="#EDF1FB"/>
<path d="M80.7122 18.1589C80.4609 18.3439 80.2971 18.5987 80.1706 18.8783C80.0669 19.1062 80.0288 19.3523 79.9744 19.5946C79.9714 19.2062 79.912 18.8282 79.7282 18.4813C79.4327 17.9206 78.9456 17.613 78.3616 17.4276C78.1951 17.3751 78.022 17.3388 77.8469 17.3332C78.127 17.2646 78.41 17.1933 78.698 17.1755C78.9887 17.1578 79.2196 17.0301 79.4288 16.8508C79.891 16.4587 80.1221 15.9373 80.232 15.3523C80.2367 15.3219 80.2416 15.2887 80.2476 15.2388C80.3217 16.6482 81.0376 17.4257 82.1935 17.5947C82.1631 17.6346 82.11 17.5949 82.0799 17.6293C81.5735 17.6667 81.1048 17.8126 80.7122 18.1589Z" fill="#EDF1FB"/>
<path d="M41.8975 36.5693C42.0511 36.3445 42.2525 36.1563 42.4352 35.9558C43.0195 35.309 43.6148 34.6657 44.2045 34.022C44.2195 34.0062 44.2398 33.9936 44.2575 33.9779C44.6064 34.0087 44.9355 34.1303 45.2764 34.1995C45.6172 34.2688 45.9502 34.3739 46.2954 34.4184C45.9665 34.685 45.571 34.7295 45.1631 34.7508C45.4497 34.7971 45.7178 34.8729 45.9616 35.0225C45.3762 35.2504 44.7908 35.4782 44.2055 35.7033C43.4861 35.9812 42.764 36.2561 42.0447 36.5312C41.9963 36.5477 41.9524 36.5812 41.8975 36.5693Z" fill="#EDF1FB"/>
<path d="M54.9961 24.5504C55.2446 24.1474 55.4961 23.7418 55.7447 23.3388C55.9375 23.0244 56.133 22.7102 56.3283 22.3987C56.4048 22.9007 56.4783 23.4053 56.5603 23.9076C56.6765 24.616 56.8041 25.3196 56.9231 26.0282C56.9291 26.0649 56.9295 26.1012 56.9355 26.1379C56.6574 25.9581 56.416 25.7276 56.159 25.5241C55.7854 25.2265 55.4179 24.9209 55.0502 24.6181C55.0265 24.597 55.0141 24.5739 54.9961 24.5504Z" fill="#EDF1FB"/>
<path d="M45.9594 35.0225C45.7156 34.8728 45.4476 34.797 45.1609 34.7508C45.5688 34.7294 45.9643 34.6849 46.2932 34.4183C46.6402 34.1752 46.8402 33.8333 46.9498 33.427C46.9852 33.3958 46.9714 33.3502 46.9822 33.3118C47.0296 33.2674 46.9952 33.1954 47.038 33.1367C47.1183 33.84 47.3264 34.4593 48.0245 34.7776C48.2226 34.902 48.4526 34.9195 48.6939 34.9769C48.0089 34.9777 47.4772 35.2369 47.099 35.7936C46.9924 35.8929 46.9584 36.0331 46.9112 36.1614C46.8774 36.2541 46.8518 36.3502 46.816 36.4736C46.7769 35.8232 46.5245 35.3295 45.9594 35.0225Z" fill="#EDF1FB"/>
<path d="M41.5695 9.51541C42.4028 9.28668 43.239 9.05535 44.0723 8.82663C44.0799 8.83829 44.0875 8.84994 44.0951 8.8616C43.7967 9.21672 43.5009 9.57479 43.2026 9.92991C42.413 10.2145 41.6263 10.4993 40.8368 10.7838C40.7996 10.7982 40.7632 10.8462 40.7157 10.804C40.9995 10.3726 41.2859 9.94408 41.5695 9.51541Z" fill="#EDF1FB"/>
<path d="M74.1209 13.2102C74.5471 13.5559 74.9733 13.9015 75.3995 14.2471C75.2146 14.3079 75.0206 14.2927 74.8303 14.3085C74.1278 14.364 73.4229 14.4139 72.7208 14.4639C72.6789 14.4668 72.6373 14.4641 72.5957 14.4615C72.9654 14.1221 73.3664 13.8182 73.7543 13.4995C73.8776 13.4013 73.9825 13.2852 74.1209 13.2102Z" fill="#EDF1FB"/>
<path d="M78.8748 13.4056C79.1026 13.5012 79.2781 13.6744 79.4782 13.8101C79.7452 13.9891 80.0001 14.1842 80.2639 14.3686C80.2826 14.381 80.3046 14.3852 80.3263 14.3949C80.3125 14.436 80.2766 14.4309 80.2458 14.4345C79.3453 14.4941 78.4477 14.554 77.5474 14.6109C77.5306 14.6126 77.5114 14.6086 77.492 14.6073C77.8031 14.3144 78.1244 14.0362 78.4509 13.7639C78.595 13.6446 78.7335 13.525 78.8748 13.4056Z" fill="#EDF1FB"/>
<path d="M74.1193 13.21C73.978 13.2848 73.8731 13.4009 73.7525 13.5021C73.3646 13.8208 72.9664 14.1248 72.5938 14.464C72.5336 14.449 72.5671 14.4037 72.5716 14.376C72.6246 14.0275 72.6832 13.6766 72.7389 13.3283C73.2652 12.8929 73.7915 12.4574 74.315 12.0217C74.3595 12.0665 74.3367 12.1181 74.3252 12.1676C74.2614 12.5126 74.1918 12.86 74.1193 13.21Z" fill="#EDF1FB"/>
<path d="M42.7239 6.29407C42.6189 6.23709 42.6484 6.12448 42.6345 6.03702C42.546 5.54823 42.469 5.05459 42.3863 4.56338C42.7481 4.5223 43.1072 4.48105 43.4689 4.44276C43.6707 4.42217 43.8721 4.40713 44.0737 4.38932C43.7675 4.86681 43.4346 5.32584 43.1045 5.78504C42.9794 5.95576 42.8517 6.12353 42.7239 6.29407Z" fill="#EDF1FB"/>
<path d="M74.4746 3.48658C74.4787 3.42261 74.4203 3.42167 74.3856 3.39711C74.2146 3.28563 74.0135 3.25042 73.8178 3.17645C74.4562 3.20893 74.9451 2.83529 75.1172 2.19004C75.1359 2.11583 75.1411 2.03518 75.1871 1.96831C75.1297 2.60415 75.4843 3.06808 76.2599 3.34951C76.0927 3.39466 75.9367 3.39585 75.8038 3.47112C75.5127 3.58095 75.2736 3.74996 75.1566 4.05525C75.0624 4.17768 75.0445 4.32734 75.0083 4.50096C74.9979 4.40255 74.9913 4.33231 74.9817 4.26467C74.9247 3.93708 74.7809 3.65978 74.4746 3.48658Z" fill="#EDF1FB"/>
<path d="M75.1593 4.05836C75.2763 3.75307 75.5127 3.58389 75.8065 3.47423C76.3687 3.47949 76.9336 3.48493 77.4985 3.49036C77.1575 3.72825 76.8192 3.96632 76.4756 4.20125C76.2717 4.3418 76.0624 4.47921 75.8557 4.61957C75.6349 4.41554 75.3896 4.24624 75.1593 4.05836Z" fill="#EDF1FB"/>
<path d="M82.3052 4.32266C81.8049 4.5699 81.3046 4.81714 80.8015 5.06421C80.7757 5.07652 80.75 5.08604 80.7243 5.09557C80.4496 4.94953 80.1752 4.80071 79.8977 4.65449C79.666 4.53354 79.4438 4.39365 79.2024 4.29442C79.3139 4.2485 79.4288 4.28098 79.5402 4.27974C80.4284 4.28073 81.3133 4.28989 82.2009 4.29923C82.2399 4.29893 82.2802 4.27916 82.3052 4.32266Z" fill="#EDF1FB"/>
<path d="M41.569 9.51542C41.2854 9.94409 40.999 10.3726 40.7154 10.8013C40.6491 10.0961 40.5801 9.39069 40.514 8.68272C40.5125 8.66307 40.5136 8.64638 40.5363 8.63946C40.6568 8.80077 40.8312 8.90409 40.9789 9.03362C41.1715 9.19955 41.3732 9.35488 41.569 9.51542Z" fill="#EDF1FB"/>
<path d="M36.9493 16.7628C36.9406 16.7704 36.9322 16.7753 36.9208 16.7828C36.9196 16.7582 36.9357 16.7619 36.9493 16.7628Z" fill="#FDE8A7"/>
<path d="M44.8667 15.6413C44.8523 15.6487 44.8349 15.6588 44.8205 15.6662C44.8226 15.6329 44.8445 15.6398 44.8667 15.6413Z" fill="#FDE8A7"/>
<path d="M53.5574 13.2061C53.5686 13.2013 53.5771 13.1964 53.5884 13.189C53.5896 13.2136 53.5735 13.2098 53.5574 13.2061Z" fill="#F9B300"/>
<path d="M67.5277 35.9413C67.5364 35.9337 67.5478 35.9263 67.5564 35.9186C67.5554 35.9349 67.5466 35.9453 67.5277 35.9413Z" fill="#F9B300"/>
<path d="M57.5222 35.6056C57.5334 35.6008 57.5448 35.5934 57.5533 35.5885C57.5521 35.6075 57.5385 35.6066 57.5222 35.6056Z" fill="#F9B300"/>
<path d="M41.866 36.5837C41.8772 36.5789 41.8885 36.5715 41.897 36.5666C41.8955 36.591 41.8819 36.5901 41.866 36.5837Z" fill="#F9B300"/>
<path d="M34.0201 37.7038C34.0315 37.6963 34.0427 37.6916 34.0568 37.6843C34.0527 37.7059 34.0389 37.7077 34.0201 37.7038Z" fill="#F9B300"/>
<path d="M67.0798 7.26071C66.6731 7.34918 66.2691 7.44061 65.8599 7.52613C65.7723 7.54566 65.7448 7.583 65.739 7.67478C65.7157 8.29884 65.58 8.89616 65.2775 9.4465C64.8705 10.194 64.2477 10.7015 63.4901 11.0524C62.724 11.4055 61.9141 11.5743 61.0754 11.6267C60.9133 11.6359 60.7517 11.6367 60.5928 11.6405C60.5937 11.6266 60.592 11.6097 60.5928 11.5958C60.6139 11.572 60.6349 11.5482 60.6587 11.5246C61.1153 11.0456 61.5748 10.5667 62.0317 10.0849C62.3071 10.002 62.5631 9.87319 62.8068 9.72122C63.8272 9.09117 64.4157 8.20726 64.4111 6.97262C64.8175 7.14943 65.227 7.32086 65.633 7.50323C65.7196 7.54228 65.7295 7.51779 65.7373 7.44009C65.76 7.21534 65.7268 6.99539 65.6907 6.77525C65.4804 5.49393 64.7793 4.61406 63.5584 4.15612C63.126 3.9944 62.677 3.91819 62.221 3.86387C61.7789 3.81044 61.3357 3.81838 60.8936 3.85152C60.446 3.44866 60.0014 3.0432 59.5538 2.64034C59.538 2.62537 59.5133 2.62099 59.4914 2.61401C59.5189 2.53199 59.5983 2.55382 59.6547 2.54347C60.4157 2.39948 61.1823 2.34243 61.9576 2.36691C62.8858 2.3956 63.7893 2.54838 64.6354 2.94603C65.9385 3.55723 66.8019 4.55362 67.1943 5.94991C67.1965 5.95843 67.193 5.96938 67.1925 5.97773C67.2142 6.16064 67.1943 6.34089 67.1632 6.52321C67.1318 6.70831 67.1336 6.89832 67.1187 7.08727C67.112 7.14828 67.1164 7.21 67.0798 7.26071Z" fill="#EDF1FB"/>
<path d="M75.1605 4.05827C75.3907 4.24615 75.6361 4.41544 75.8543 4.61652C75.7802 4.99157 75.7114 5.36977 75.6345 5.74464C75.5319 6.2603 75.4238 6.7756 75.3182 7.29386C75.1885 7.92787 75.0533 8.56152 74.9266 9.19292C74.7963 9.83527 74.677 10.4811 74.5413 11.1231C74.4847 11.3987 74.4473 11.6784 74.3577 11.9464C74.1732 11.7837 74.0475 11.5718 73.8922 11.3888C73.6618 11.1171 73.4404 10.8348 73.2158 10.5579C73.4842 8.97494 73.7524 7.39472 74.018 5.81153C74.1437 5.06557 74.2667 4.31942 74.3894 3.57606C74.398 3.52913 74.391 3.46446 74.4759 3.48664C74.7824 3.65707 74.9262 3.93436 74.9828 4.26752C74.9952 4.33533 74.9991 4.40539 75.0095 4.5038C75.0484 4.33036 75.0664 4.1807 75.1605 4.05827Z" fill="#EDF1FB"/>
<path d="M54.9643 3.36043C55.435 3.01076 55.9057 2.66108 56.3736 2.31123C56.3941 2.29578 56.4095 2.27164 56.4276 2.25046L56.4246 2.25306C56.4357 2.25377 56.447 2.2517 56.4581 2.25241C56.4398 2.53888 56.4242 2.82552 56.4003 3.11164C56.31 4.17543 56.2445 5.24083 56.2041 6.30782C56.1604 7.46955 56.1472 8.63324 56.1729 9.79662C55.9245 10.1549 55.6758 10.516 55.4273 10.8743C55.2982 11.0644 55.1691 11.2544 55.0126 11.4817C55.0018 11.3023 55.0079 11.1631 55.0055 11.0261C54.9962 10.5619 55.0064 10.099 55.0025 9.63793C54.9974 9.06511 54.9841 8.48898 54.9818 7.91634C54.9781 7.45253 54.9854 6.98942 54.9815 6.52838C54.9771 5.94444 54.967 5.36292 54.9626 4.77898C54.9593 4.48275 54.9587 4.1867 54.9582 3.89064C54.9613 3.71211 54.9614 3.53618 54.9643 3.36043Z" fill="#EDF1FB"/>
<path d="M73.2143 10.5578C73.4388 10.8346 73.6602 11.1169 73.8907 11.3886C74.0486 11.5746 74.1745 11.7837 74.3562 11.9462C74.3439 11.9649 74.3315 11.9837 74.322 12.0026C74.0086 11.9826 73.6943 12.0211 73.3815 12.0346C72.8511 12.0565 72.3201 12.0867 71.7893 12.1142C71.1662 12.1469 70.5434 12.1769 69.9205 12.2068C69.3814 12.2338 68.8397 12.2578 68.3005 12.2847C68.2307 12.2886 68.1608 12.2925 68.0939 12.2938C68.095 12.2771 68.0934 12.2575 68.0945 12.2408C68.6124 11.7182 69.1276 11.1954 69.6456 10.6728C70.8342 10.6344 72.0229 10.596 73.2143 10.5578Z" fill="#EDF1FB"/>
<path d="M68.9681 4.40213C68.7772 4.29496 68.6437 4.11886 68.4802 3.97714C68.1475 3.69333 67.8448 3.37515 67.5033 3.09916C67.6287 3.05413 67.7581 3.07638 67.8835 3.07602C69.6197 3.05309 71.3555 3.03573 73.0916 3.01559C73.2058 3.01452 73.3228 3.01363 73.437 3.01256C73.4677 3.01174 73.5073 3.0031 73.5039 3.05594C73.1504 3.48852 72.7942 3.92092 72.4405 4.35628C71.9919 4.36108 71.5462 4.36327 71.0974 4.37085C70.3869 4.37844 69.676 4.39158 68.9681 4.40213Z" fill="#EDF1FB"/>
<path d="M68.9673 4.40195C69.678 4.39159 70.3859 4.38104 71.0967 4.37068C71.5425 4.3657 71.9911 4.3609 72.4397 4.3561C72.4601 4.38534 72.4774 4.41995 72.5007 4.44658C72.7914 4.77796 73.0702 5.11975 73.3461 5.46414C73.4053 5.54054 73.4519 5.63847 73.5616 5.66504C73.5574 5.68711 73.5615 5.70972 73.5801 5.72487C73.5836 5.80049 73.5269 5.77173 73.4937 5.7696C72.9711 5.7557 72.4492 5.73068 71.9259 5.72791C71.3859 5.72407 70.8447 5.7397 70.3039 5.74977C70.0679 5.47774 69.7929 5.25069 69.542 4.99447C69.3539 4.80091 69.1569 4.61516 68.9629 4.42681C68.9607 4.41829 68.964 4.41012 68.9673 4.40195Z" fill="#EDF1FB"/>
<path d="M69.6462 10.673C69.1283 11.1956 68.6131 11.7183 68.0952 12.2409C68.0379 12.092 68.0811 11.9384 68.1042 11.7947C68.1485 11.5378 68.1568 11.2786 68.1927 11.0212C68.2603 10.5312 68.2975 10.0365 68.3542 9.54306C68.4064 9.07445 68.467 8.60638 68.5248 8.13812C68.9565 8.52879 69.3853 8.91928 69.817 9.30995C69.7517 9.76377 69.6782 10.2171 69.6462 10.673Z" fill="#EDF1FB"/>
<path d="M68.9596 4.4267C69.1536 4.61505 69.3476 4.80341 69.5386 4.99436C69.7895 5.25059 70.0674 5.47782 70.3006 5.74966C70.2141 6.23005 70.1275 6.71322 70.0411 7.1936C69.5459 7.49144 69.0534 7.78946 68.5581 8.09007C68.5043 8.01682 68.54 7.93811 68.5475 7.8632C68.5826 7.53312 68.6234 7.20061 68.6612 6.87071C68.7511 6.07497 68.838 5.28185 68.928 4.48612C68.9323 4.46126 68.9365 4.43919 68.9596 4.4267Z" fill="#EDF1FB"/>
<path d="M69.8167 9.30982C69.385 8.91915 68.9561 8.52866 68.5245 8.13799C68.5335 8.1274 68.5453 8.11698 68.5543 8.10639C68.6866 8.12882 68.8213 8.1123 68.9549 8.11248C69.6564 8.11549 70.3602 8.12702 71.0622 8.12168C71.2655 8.12073 71.4697 8.15055 71.6699 8.11031C71.6762 8.23079 71.7938 8.26345 71.8559 8.33725C72.0531 8.56211 72.2564 8.77898 72.4596 8.99864C72.4883 9.02841 72.5111 9.06338 72.5584 9.06361C72.557 9.08586 72.5584 9.10829 72.5769 9.12344C72.4937 9.20469 72.3877 9.16439 72.2927 9.16948C71.4708 9.22021 70.6437 9.26501 69.8167 9.30982Z" fill="#EDF1FB"/>
<path d="M71.6725 8.11339C71.4694 8.15345 71.2655 8.12085 71.0647 8.12476C70.3627 8.13009 69.6617 8.11874 68.9575 8.11555C68.8238 8.11538 68.6891 8.13189 68.5569 8.10946C68.5572 8.1039 68.5576 8.09834 68.558 8.09278C69.0532 7.79494 69.5456 7.49693 70.041 7.19631C70.8209 7.14849 71.6007 7.10345 72.3805 7.0584C72.4335 7.05621 72.497 7.02118 72.5432 7.08278C72.2434 7.41547 71.9541 7.75999 71.6725 8.11339Z" fill="#EDF1FB"/>
<path d="M73.562 5.66499C73.4524 5.63842 73.4057 5.54049 73.3466 5.46409C73.0707 5.1197 72.7946 4.77808 72.5012 4.44653C72.4778 4.4199 72.4605 4.38528 72.4401 4.35605C72.7936 3.92347 73.1498 3.49107 73.5035 3.05572C73.5182 3.39177 73.5327 3.73061 73.5446 4.06649C73.5574 4.47504 73.5677 4.88062 73.5777 5.28899C73.5779 5.41746 73.5671 5.54244 73.562 5.66499Z" fill="#EDF1FB"/>
<path d="M71.6728 8.11316C71.9543 7.75976 72.2437 7.41524 72.5436 7.07977C72.5526 7.63607 72.5449 8.19132 72.576 8.74904C72.5803 8.85544 72.568 8.96077 72.564 9.06664C72.5165 9.06918 72.4911 9.03125 72.4652 9.00167C72.2648 8.78219 72.0587 8.56513 71.8615 8.34027C71.7966 8.2663 71.679 8.23364 71.6728 8.11316Z" fill="#EDF1FB"/>
<path d="M72.5819 9.12393C72.5605 9.1086 72.5592 9.08617 72.5634 9.0641C72.5905 9.077 72.5863 9.09908 72.5819 9.12393Z" fill="#FCC500"/>
<path d="M73.5779 5.72465C73.5566 5.70932 73.5553 5.68689 73.5595 5.66482C73.5893 5.6779 73.5851 5.69997 73.5779 5.72465Z" fill="#FCC500"/>
<path d="M56.4573 2.25193C56.4464 2.25123 56.4354 2.25325 56.4246 2.25256C56.4276 2.24731 56.4309 2.23934 56.4312 2.23391C56.4417 2.24003 56.4495 2.24598 56.4573 2.25193Z" fill="#FDE8A7"/>
<path d="M60.8934 3.85453C61.3354 3.82138 61.7785 3.81623 62.2208 3.86688C62.6768 3.92119 63.1258 3.99741 63.5581 4.15913C64.7765 4.61411 65.4774 5.49676 65.6905 6.77825C65.7266 6.99838 65.7598 7.21834 65.7371 7.44309C65.7293 7.52078 65.7194 7.54528 65.6328 7.50623C65.2268 7.32386 64.8201 7.15261 64.4109 6.97562C64.376 6.69412 64.3101 6.41902 64.1502 6.17699C63.7413 5.56158 63.1233 5.38518 62.4344 5.35785C62.3594 5.35584 62.3539 5.39738 62.3476 5.45283C62.2897 5.96576 62.2237 6.47538 62.1769 6.98902C62.0831 8.01909 62.0363 9.05495 62.0313 10.0907C61.5746 10.5697 61.1151 11.0486 60.6583 11.5304C60.6373 11.5542 60.6162 11.578 60.5925 11.6016C60.5552 11.5741 60.5688 11.5358 60.5684 11.4995C60.5946 10.9147 60.6346 10.3336 60.647 9.74798C60.6581 9.27114 60.7053 8.79383 60.7108 8.31664C60.7131 7.88951 60.7653 7.46558 60.7676 7.03845C60.7694 6.57499 60.8241 6.11212 60.8286 5.64884C60.8315 5.21337 60.8788 4.77796 60.8872 4.34284C60.8838 4.17786 60.883 4.01584 60.8934 3.85453Z" fill="#EDF1FB"/>
<path d="M60.4503 26.4437C60.5245 25.5883 60.5903 24.7352 60.6756 23.8805C60.7287 23.3561 60.7791 22.8287 60.8294 22.3042C60.8986 21.5713 60.9733 20.8388 61.0564 20.1069C61.1012 19.7104 61.1459 19.3167 61.188 18.9201C61.2248 18.5622 61.2729 18.2022 61.3153 17.8447C61.4799 17.9278 61.5872 18.0771 61.716 18.1971C62.0654 18.5238 62.4091 18.853 62.7558 19.1796C63.0052 19.4162 63.2546 19.6528 63.5039 19.8893C63.418 20.4061 63.3542 20.9242 63.3124 21.4465C63.2538 22.1884 63.1452 22.9271 63.0811 23.6687C62.2239 24.5745 61.3694 25.4832 60.5123 26.3891C60.4916 26.4073 60.471 26.4255 60.4503 26.4437Z" fill="#EDF1FB"/>
<path d="M63.5016 19.889C63.2522 19.6524 63.0028 19.4159 62.7534 19.1793C62.407 18.8499 62.0605 18.5205 61.7136 18.1967C61.5851 18.074 61.4775 17.9275 61.313 17.8444C61.314 17.8277 61.3151 17.811 61.3162 17.7943C61.9343 17.7082 62.5537 17.6445 63.1768 17.6118C64.1658 17.5606 65.1538 17.568 66.1394 17.7008C66.7827 17.7867 67.4141 17.9277 68.0066 18.1974C68.3582 18.3595 68.6791 18.5671 68.9478 18.8496C68.9975 18.9003 69.0368 18.9391 68.9521 19.0007C68.2193 19.5291 67.4892 20.0604 66.7591 20.5918C66.7504 20.5968 66.7419 20.5991 66.7332 20.6041C66.6933 20.3139 66.5456 20.0978 66.2965 19.945C66.0739 19.8107 65.8241 19.7556 65.5682 19.7504C64.8789 19.7314 64.1896 19.799 63.5016 19.889Z" fill="#EDF1FB"/>
<path d="M63.5008 19.8892C64.1887 19.7992 64.878 19.7316 65.5701 19.7508C65.826 19.756 66.0731 19.8109 66.2984 19.9454C66.5477 20.0954 66.6952 20.3143 66.7351 20.6045C66.7481 21.0103 66.5576 21.3332 66.3075 21.63C65.973 22.0275 65.566 22.3393 65.1332 22.6188C64.4826 23.038 63.7949 23.3849 63.0779 23.6686C63.1421 22.927 63.2506 22.1883 63.3092 21.4465C63.351 20.9241 63.415 20.4032 63.5008 19.8892Z" fill="#31373F"/>
<path d="M62.8015 27.9625C62.5991 27.9049 62.4411 27.7635 62.2671 27.6546C61.9187 27.4424 61.58 27.2085 61.2349 26.9881C60.9756 26.8207 60.7129 26.6615 60.4503 26.4995C60.4481 26.491 60.4486 26.4826 60.4492 26.4743C61.0824 26.3696 61.7055 26.2056 62.3237 26.0301C62.9872 25.8436 63.6392 25.62 64.2817 25.3707C64.2421 25.5106 64.1566 25.628 64.0846 25.7518C63.6703 26.4821 63.2507 27.2093 62.8338 27.9366C62.8249 27.9445 62.8105 27.9519 62.8015 27.9625Z" fill="#EDF1FB"/>
<path d="M42.9043 26.018C42.905 26.0072 42.9056 25.999 42.9062 25.9882C42.9218 26.0001 42.9322 26.0089 42.9043 26.018Z" fill="#F9B300"/>
<path d="M75.7354 34.2921C74.7833 33.9408 74.0609 33.3081 73.531 32.4503C73.0492 31.6683 72.8151 30.8015 72.7258 29.891C72.6606 29.2138 72.6815 28.5393 72.7552 27.8654C72.8183 27.2718 72.9255 26.6839 73.071 26.1067C73.0789 26.0709 73.0812 26.0348 73.0891 25.999C73.1863 25.4802 73.3082 24.9686 73.4959 24.4723C73.9846 23.1883 74.7342 22.0913 75.8083 21.2329C76.715 20.509 77.7254 19.9928 78.889 19.8243C79.7377 19.7026 80.5653 19.7807 81.3452 20.1686L81.342 20.174C81.244 20.3129 81.1459 20.4546 81.0479 20.5936C80.6048 21.2075 80.1644 21.8244 79.7213 22.4384C79.2172 22.3531 78.7704 22.5032 78.3548 22.7754C77.9014 23.0731 77.5476 23.4666 77.233 23.9016C76.6402 24.7238 76.2226 25.6354 75.8671 26.5789C75.7297 26.9416 75.5563 27.3019 75.5012 27.6837C75.3914 28.4419 75.4068 29.2025 75.5985 29.9492C75.7879 30.6874 76.1374 31.3186 76.8042 31.7327C77.1363 31.9382 77.5061 32.0345 77.8859 32.1035C77.3383 32.6549 76.7879 33.2061 76.2428 33.7605C76.0704 33.931 75.8795 34.0863 75.7354 34.2921Z" fill="#EDF1FB"/>
<path d="M79.7221 22.4353C80.1651 21.8213 80.6084 21.2046 81.0486 20.5905C81.1494 20.4517 81.2446 20.3126 81.3428 20.1709C81.6464 20.2992 81.8948 20.5078 82.1375 20.7188C83.2669 21.6931 83.9395 22.9314 84.2048 24.3978C84.2811 24.816 84.3069 25.2393 84.3074 25.6666C84.3143 26.7338 84.0981 27.7617 83.7773 28.7716C83.77 28.7991 83.7654 28.8267 83.7581 28.8542C83.7525 28.8538 83.744 28.8561 83.7385 28.8557C83.6009 28.8301 83.4627 28.8576 83.3233 28.8599C82.9975 28.8613 82.6709 28.8739 82.3445 28.8838C82.004 28.8955 81.6661 28.9102 81.3257 28.9219C81.3335 28.8861 81.3442 28.8505 81.3493 28.8145C81.4917 27.9383 81.5564 27.0572 81.5381 26.168C81.5208 25.438 81.4501 24.7158 81.2107 24.019C80.9554 23.2654 80.5345 22.6632 79.7221 22.4353Z" fill="#EDF1FB"/>
<path d="M81.3266 28.922C81.6671 28.9103 82.005 28.8956 82.3454 28.8839C82.6718 28.874 82.9984 28.8614 83.3243 28.8599C83.4635 28.8605 83.5991 28.83 83.7395 28.8558C83.6323 29.3125 83.4624 29.7484 83.268 30.1745C82.811 31.1813 82.2099 32.0895 81.3853 32.8354C80.4037 33.7277 79.2541 34.2433 77.9367 34.3796C77.2527 34.4504 76.5693 34.4262 75.8921 34.3046C75.8425 34.2959 75.7898 34.2925 75.7399 34.2893C75.881 34.0861 76.0718 33.9335 76.2418 33.7573C76.7868 33.203 77.3372 32.6517 77.8848 32.1003C78.0864 32.1272 78.292 32.1348 78.4941 32.1086C79.2688 32.013 79.8676 31.6184 80.346 31.0179C80.8395 30.3988 81.1304 29.683 81.3266 28.922Z" fill="#EDF1FB"/>
<path d="M71.2784 32.9727C71.2709 32.9613 71.2633 32.9526 71.2559 32.9413C71.2633 32.9526 71.2709 32.9613 71.2784 32.9727Z" fill="#FCC500"/>
<path d="M35.5096 28.4778C35.5083 28.4968 35.4944 28.5014 35.4807 28.5032C35.4893 28.4956 35.4982 28.4853 35.5096 28.4778Z" fill="#FDE8A7"/>
<path d="M48.6994 12.0859C48.0732 11.9509 47.5893 11.5932 47.2095 11.0885C46.8477 10.6074 46.6352 10.0548 46.5 9.47088C46.3772 8.95197 46.3388 8.4217 46.3061 7.889C46.2796 6.90989 46.4938 5.99923 47.0902 5.20799C47.6349 4.48604 48.3249 3.97168 49.2275 3.79207C49.5349 3.73076 49.844 3.73099 50.148 3.8091L50.1454 3.80614C50.1225 3.86052 50.1049 3.91804 50.0791 3.97225C49.8903 4.39861 49.7015 4.82497 49.5128 5.25133C49.1276 5.26578 48.8604 5.48047 48.6358 5.77049C48.5842 5.837 48.5408 5.90683 48.4972 5.97944C48.2606 6.36923 48.1219 6.79601 48.0187 7.23343C47.8385 8.00384 47.748 8.76602 48.0519 9.54228C48.3124 10.2152 48.791 10.6983 49.6042 10.6526C49.53 10.7679 49.4556 10.886 49.3814 11.0013C49.1553 11.3583 48.9077 11.7027 48.6949 12.0689C48.6974 12.0746 48.6998 12.0804 48.6994 12.0859Z" fill="#EDF1FB"/>
<path d="M45.1304 9.20724C44.9548 9.16528 44.799 9.07712 44.6362 9.01084C44.4759 8.94753 44.3161 8.87865 44.156 8.81255C44.4471 8.35364 44.741 7.89491 45.0347 7.43896C45.0627 7.39328 45.1016 7.35108 45.1322 7.30836L45.1401 7.31445C45.1199 7.58684 45.1025 7.8594 45.0822 8.13178C45.0737 8.26528 45.0735 8.39932 45.0899 8.53441C45.1006 8.75851 45.1169 8.98296 45.1304 9.20724Z" fill="#EDF1FB"/>
<path d="M45.1288 7.30747C45.1349 7.29697 45.1383 7.28629 45.1444 7.27579C45.147 7.27867 45.152 7.28445 45.152 7.28445C45.1459 7.29495 45.1398 7.30546 45.1366 7.31342L45.1288 7.30747Z" fill="#FCC500"/>
<path d="M66.9235 8.80544C66.9324 8.79511 66.9387 8.78189 66.9475 8.77156C66.9387 8.78189 66.9325 8.7924 66.9235 8.80544Z" fill="#1B3266"/>
<path d="M49.411 25.2875C49.4103 25.2984 49.4096 25.3092 49.4089 25.3201C49.3954 25.3192 49.3845 25.3185 49.3711 25.3149C49.3825 25.3075 49.3968 25.2975 49.411 25.2875Z" fill="#FDDE78"/>
<path d="M49.5129 5.25153C49.7017 4.82517 49.8905 4.39881 50.0793 3.97245C50.1023 3.91807 50.1226 3.86073 50.1456 3.80634C50.7244 3.98581 51.1954 4.32873 51.5869 4.78106C52.1497 5.42866 52.4007 6.20433 52.4721 7.04669C52.5053 7.44257 52.4802 7.83473 52.4523 8.2267C52.3807 8.82254 52.2628 9.40424 52.0077 9.95202C51.4394 11.1751 50.4847 11.8652 49.154 12.0342C49.0025 12.0524 48.8518 12.0568 48.6979 12.0692C48.9107 11.7031 49.1582 11.3587 49.3844 11.0017C49.4586 10.8864 49.533 10.7683 49.6044 10.6528C50.1283 10.6025 50.5131 10.3339 50.773 9.88417C50.9981 9.49923 51.1142 9.0766 51.1119 8.63521C51.111 7.77782 50.9498 6.94647 50.5819 6.16891C50.3664 5.70829 50.0527 5.34472 49.5129 5.25153Z" fill="#EDF1FB"/>
<path d="M62.0298 10.085C62.032 9.04912 62.0814 8.01621 62.1754 6.98337C62.2222 6.46972 62.2882 5.9601 62.3461 5.44717C62.3524 5.39173 62.3579 5.35018 62.4329 5.3522C63.1217 5.37952 63.7397 5.55592 64.1487 6.17133C64.3086 6.41336 64.3747 6.68568 64.4094 6.96996C64.4167 8.20477 63.8255 9.0885 62.805 9.71856C62.5612 9.8733 62.305 10.0049 62.0298 10.085Z" fill="#31373F"/>
<path d="M81.3261 28.922C81.1271 29.6829 80.839 30.3989 80.3455 31.018C79.8673 31.6157 79.2682 32.013 78.4936 32.1087C78.2914 32.1348 78.086 32.1245 77.8843 32.1004C77.5045 32.0314 77.1347 31.9351 76.8026 31.7296C76.1358 31.3155 75.7863 30.6843 75.5969 29.9461C75.4052 29.1994 75.3898 28.4388 75.4996 27.6806C75.5549 27.296 75.7281 26.9385 75.8655 26.5758C76.221 25.6323 76.6386 24.7207 77.2314 23.8986C77.546 23.4635 77.9026 23.0702 78.3532 22.7723C78.7689 22.5001 79.2156 22.35 79.7197 22.4353C80.5349 22.6634 80.9531 23.2654 81.2111 24.0192C81.4478 24.7158 81.5213 25.4382 81.5386 26.1682C81.5598 27.0548 81.4921 27.9385 81.3497 28.8146C81.3446 28.8506 81.334 28.8862 81.3261 28.922ZM77.4291 27.9019C77.418 28.0743 77.4017 28.2855 77.413 28.5012C77.4373 28.9915 77.7835 29.3683 78.267 29.4272C78.872 29.5022 79.4324 29.0997 79.5821 28.4586C79.7584 27.7047 79.7658 26.9372 79.667 26.174C79.5858 25.5293 78.9999 25.2852 78.4566 25.6386C78.2649 25.7631 78.1146 25.935 77.9803 26.1191C77.6045 26.6397 77.4908 27.2412 77.4291 27.9019Z" fill="#31373F"/>
<path d="M49.5132 5.25118C50.0502 5.34419 50.3667 5.70794 50.585 6.16873C50.9527 6.94907 51.1141 7.77764 51.1149 8.63503C51.1145 9.07625 50.9984 9.49888 50.776 9.88399C50.5133 10.3336 50.1314 10.6023 49.6075 10.6526C48.7942 10.6983 48.3156 10.2152 48.0551 9.54229C47.754 8.76621 47.8417 8.00386 48.0219 7.23345C48.1253 6.79324 48.264 6.36647 48.5004 5.97946C48.5438 5.90963 48.5875 5.83702 48.639 5.77051C48.8609 5.48031 49.128 5.26562 49.5132 5.25118Z" fill="#31373F"/>
<path d="M77.4289 27.9018C77.4907 27.2411 77.6044 26.6395 77.9802 26.119C78.1146 25.9322 78.2647 25.763 78.4564 25.6385C78.9998 25.2851 79.5856 25.5292 79.6668 26.1739C79.7628 26.9369 79.7582 27.7046 79.5819 28.4585C79.4321 29.1023 78.8746 29.5023 78.2669 29.4271C77.7806 29.3681 77.4371 28.9914 77.4128 28.5011C77.4042 28.2884 77.4179 28.0742 77.4289 27.9018Z" fill="#FEFEFE"/>
<path d="M53.6236 1.23882C53.4466 2.04574 53.0027 2.54234 52.129 2.57579C52.9986 2.73756 53.4563 3.28629 53.4453 4.15409C53.4904 3.97266 53.4999 3.78058 53.5834 3.60719C53.6992 3.36327 53.8545 3.15539 54.0941 3.02271C54.3504 2.84642 54.6416 2.77849 54.9767 2.76363C54.7813 2.6841 54.5858 2.69393 54.4317 2.57794C54.0847 2.43007 53.8853 2.15201 53.7569 1.80868C53.6952 1.64275 53.6644 1.47043 53.6479 1.29344C53.6466 1.27101 53.645 1.25136 53.6489 1.23485L53.6236 1.23882Z" fill="#EDF1FB"/>
<path d="M31.9562 18.2389C31.6676 18.0054 31.5213 17.6804 31.4124 17.3383C31.3779 17.2244 31.3219 17.098 31.3207 16.9862L31.2098 16.9791C30.9957 17.8451 30.3614 18.4021 29.4834 18.5023C29.461 18.5037 29.4385 18.5078 29.4246 18.5069L29.4204 18.5737C29.4259 18.574 29.434 18.5773 29.4396 18.5777C30.3783 18.8332 31.0018 19.4456 31.0372 20.5035C31.0363 20.5174 31.0409 20.5317 31.0467 20.5712C31.117 20.2573 31.1663 19.9644 31.3517 19.7222C31.5112 19.4056 31.7722 19.1989 32.0772 19.0453C32.2901 18.9388 32.5133 18.8442 32.7588 18.8376C32.8461 18.7789 32.9504 18.8024 33.0499 18.7697C32.6414 18.6709 32.2444 18.5645 31.9562 18.2389Z" fill="#EDF1FB"/>
</g>
<defs>
<clipPath id="clip0">
<rect width="120" height="40" fill="white"/>
</clipPath>
</defs>
</svg>
