<svg width="120" height="40" viewBox="0 0 120 40" fill="none" xmlns="http://www.w3.org/2000/svg">
<path d="M85.5889 29.6222C85.7993 29.4418 85.8694 29.2614 85.9796 29.0911C87.2922 26.8767 88.5948 24.6724 89.8874 22.458C90.0777 22.1274 90.2881 21.9871 90.6689 22.0171C90.9494 22.0472 91.2601 22.0171 91.5406 22.0272C91.9314 22.0372 91.9314 22.0372 91.9414 22.428C91.9514 23.5903 91.9514 24.7425 91.9514 25.9048C91.9514 28.2795 91.9614 30.6442 91.9614 33.0189C91.9614 33.109 91.9514 33.2092 91.9614 33.2994C91.9815 33.5299 91.9013 33.6401 91.6609 33.6401C91.1799 33.6301 90.709 33.6301 90.238 33.6401C90.0076 33.6501 89.8874 33.58 89.9074 33.3295C89.9174 33.1992 89.9074 33.079 89.9074 32.9387C89.9074 30.8045 89.8974 28.6703 89.8974 26.5361C89.8974 26.4158 89.8974 26.2956 89.8974 26.1152C89.6569 26.2655 89.5968 26.4459 89.5066 26.5962C88.4545 28.3496 87.3924 30.1231 86.3303 31.8766C86.2402 32.0269 86.1901 32.2574 85.9997 32.2774C85.7291 32.3075 85.4586 32.3075 85.1881 32.2674C85.0177 32.2373 84.9676 32.0269 84.8875 31.8966C83.8454 30.1933 82.8034 28.4799 81.7713 26.7765C81.6711 26.6062 81.5609 26.4359 81.4307 26.2355C81.2603 26.4359 81.3204 26.6463 81.3204 26.8166C81.3104 28.8506 81.3204 30.9047 81.3204 32.9387C81.3204 33.069 81.3104 33.1892 81.3204 33.3295C81.3305 33.5399 81.2403 33.6301 81.0299 33.6301C80.5389 33.62 80.0479 33.62 79.557 33.6301C79.3465 33.6301 79.2564 33.5499 79.2764 33.3295C79.2864 33.2193 79.2764 33.109 79.2764 32.9988C79.2764 29.542 79.2764 26.0852 79.2764 22.6284C79.2764 22.5181 79.2864 22.4079 79.2764 22.2977C79.2664 22.1173 79.3165 22.0171 79.5169 22.0272C79.9577 22.0372 80.3886 22.0372 80.8295 22.0272C81.0299 22.0171 81.12 22.1374 81.2102 22.2877C81.4106 22.6384 81.621 22.979 81.8314 23.3297C82.9837 25.2636 84.156 27.1974 85.3083 29.1312C85.3584 29.2715 85.4586 29.4318 85.5889 29.6222Z" fill="#31373F"/>
<path d="M83.7053 18.7106C95.4384 18.7106 107.162 18.7106 118.895 18.7106C119.656 18.7106 119.566 18.5503 119.586 19.422C119.596 19.6425 119.536 19.7727 119.285 19.7427C119.165 19.7226 119.035 19.7427 118.895 19.7427C95.4384 19.7427 71.9821 19.7427 48.5258 19.7427C47.7844 19.7427 47.7844 19.7427 47.8345 18.9812C47.8545 18.7507 47.9447 18.7006 48.1351 18.7106C48.2753 18.7206 48.4256 18.7106 48.5759 18.7106C60.289 18.7106 71.9921 18.7106 83.7053 18.7106Z" fill="#31373F"/>
<path d="M97.7229 27.7885C97.7229 26.0251 97.7229 24.2516 97.7229 22.4881C97.7229 22.0272 97.7329 22.0172 98.1537 22.0172C100.689 22.0172 103.224 22.0172 105.759 22.0172C106.19 22.0172 106.19 22.0272 106.2 22.4781C106.2 22.7887 106.21 23.0993 106.2 23.4199C106.19 23.8207 106.19 23.8207 105.809 23.8307C105.188 23.8408 104.566 23.8307 103.945 23.8307C102.743 23.8307 101.54 23.8307 100.328 23.8307C99.8571 23.8307 99.8571 23.8408 99.8571 24.3217C99.8571 24.993 99.8571 25.6844 99.8571 26.3557C99.8571 26.8166 99.8671 26.8166 100.348 26.8166C101.841 26.8166 103.344 26.8166 104.837 26.8166C104.947 26.8166 105.057 26.8266 105.168 26.8166C105.368 26.7966 105.478 26.8667 105.478 27.0872C105.468 27.508 105.478 27.9288 105.478 28.3597C105.478 28.52 105.408 28.6001 105.248 28.6001C105.127 28.6001 104.997 28.6001 104.867 28.6001C103.354 28.6001 101.841 28.6001 100.318 28.6001C99.8671 28.6001 99.8571 28.6102 99.8571 29.0611C99.8471 29.8326 99.8471 30.6041 99.8571 31.3756C99.8571 31.7864 99.8671 31.7864 100.298 31.7864C102.122 31.7864 103.945 31.7864 105.769 31.7864C105.889 31.7864 106.019 31.7965 106.15 31.7864C106.33 31.7764 106.42 31.8566 106.42 32.0369C106.42 32.4778 106.41 32.9187 106.42 33.3595C106.42 33.5499 106.32 33.61 106.139 33.6C106.029 33.59 105.919 33.6 105.809 33.6C103.314 33.6 100.809 33.6 98.314 33.6C98.2038 33.6 98.0936 33.59 97.9834 33.6C97.803 33.61 97.7028 33.5299 97.7128 33.3495C97.7128 33.2193 97.7128 33.099 97.7128 32.9588C97.7229 31.2454 97.7229 29.522 97.7229 27.7885Z" fill="#31373F"/>
<path d="M57.4634 25.0531C57.3131 24.9229 57.1828 24.8127 57.0626 24.7125C55.6097 23.6003 54.0166 23.4399 52.3633 24.1313C50.7501 24.8026 49.8784 26.4258 50.0587 28.2494C50.2291 29.9829 51.4615 31.4057 53.1348 31.7664C54.1969 31.9968 55.2289 31.9167 56.2409 31.4858C56.5115 31.3756 56.6317 31.2353 56.6217 30.9147C56.5916 30.0129 56.6117 29.1111 56.6117 28.2094C56.6117 27.6483 56.5816 27.6883 57.1527 27.6883C57.5535 27.6883 57.9543 27.6984 58.3551 27.6883C58.5956 27.6783 58.6657 27.7785 58.6657 28.019C58.6557 29.3616 58.6557 30.7043 58.6657 32.0469C58.6657 32.3275 58.5054 32.4377 58.3251 32.5579C57.3531 33.2293 56.271 33.59 55.1187 33.7202C53.7761 33.8806 52.4635 33.7503 51.221 33.1692C48.9065 32.067 47.664 29.8326 47.8845 27.2976C48.1149 24.6824 49.8183 22.6985 52.3533 22.0773C53.9164 21.6865 55.4594 21.7767 56.9624 22.4079C57.5736 22.6584 58.1146 23.0392 58.5856 23.5101C58.7359 23.6604 58.806 23.7706 58.6156 23.951C58.2349 24.3017 57.8541 24.6724 57.4634 25.0531Z" fill="#31373F"/>
<path d="M75.028 33.6201C74.3867 33.6201 73.7655 33.61 73.1543 33.6301C72.9038 33.6401 72.8036 33.5199 72.7134 33.3094C72.4329 32.6481 72.1323 31.9968 71.8617 31.3355C71.7415 31.045 71.6012 30.9147 71.2706 30.9147C69.6073 30.9348 67.954 30.9348 66.2907 30.9147C65.9901 30.9147 65.8298 31.0149 65.7196 31.2955C65.4491 31.9668 65.1485 32.6081 64.888 33.2694C64.7878 33.5299 64.6375 33.6301 64.3569 33.6201C63.7758 33.6 63.1946 33.61 62.6135 33.61C62.5333 33.4096 62.6536 33.2694 62.7237 33.1291C64.3269 29.5721 65.93 26.015 67.5232 22.438C67.6835 22.0873 67.8538 21.9771 68.2145 21.9971C68.5953 22.0272 68.9861 22.0272 69.3668 21.9971C69.7275 21.967 69.9079 22.0873 70.0582 22.438C71.01 24.5822 71.982 26.7264 72.9539 28.8506C73.5851 30.2334 74.2164 31.6261 74.8276 33.0088C74.9178 33.1892 75.038 33.3495 75.028 33.6201ZM68.7857 24.1714C68.0442 25.9148 67.3428 27.528 66.6414 29.1813C68.1043 29.1813 69.5071 29.1813 70.9599 29.1813C70.2285 27.528 69.5371 25.9148 68.7857 24.1714Z" fill="#31373F"/>
<path d="M111.25 30.7243C112.222 31.4057 113.234 31.7864 114.336 31.9468C114.987 32.0269 115.648 32.0169 116.29 31.8666C116.65 31.7864 116.981 31.6462 117.251 31.3756C117.803 30.8346 117.762 30.033 117.151 29.562C116.871 29.3516 116.56 29.2114 116.219 29.1112C115.418 28.8907 114.606 28.6903 113.795 28.4499C113.394 28.3296 112.993 28.2094 112.602 28.0491C111.64 27.6182 110.909 26.9569 110.769 25.8247C110.618 24.5722 111.009 23.5301 112.031 22.7787C112.773 22.2276 113.624 21.9971 114.526 21.8969C116.029 21.7466 117.472 21.947 118.835 22.6284C119.285 22.8488 119.285 22.8688 119.095 23.3297C118.965 23.6303 118.835 23.941 118.724 24.2516C118.634 24.5221 118.504 24.5321 118.283 24.4019C117.893 24.1714 117.452 24.0211 117.021 23.8909C116.179 23.6504 115.338 23.5903 114.476 23.7205C114.055 23.7907 113.664 23.9209 113.334 24.2115C112.662 24.8127 112.733 25.7245 113.474 26.2154C113.845 26.4559 114.276 26.5762 114.686 26.6964C115.518 26.9268 116.35 27.1373 117.171 27.3677C117.572 27.4779 117.963 27.6483 118.324 27.8587C120.307 29.0009 119.957 31.4057 118.925 32.4578C118.314 33.079 117.562 33.4597 116.73 33.6201C114.897 33.9808 113.103 33.8004 111.39 32.9988C110.408 32.5379 110.418 32.5279 110.849 31.556C110.999 31.2854 111.109 31.0249 111.25 30.7243Z" fill="#31373F"/>
<path d="M84.697 12.859C84.697 12.5284 84.697 12.1977 84.697 11.8671C84.697 10.7248 84.697 9.58258 84.697 8.44033C84.697 7.79906 84.6469 7.8692 85.2982 7.85918C85.4785 7.85918 85.6689 7.8692 85.8392 7.85918C86.0196 7.84916 86.1098 7.93934 86.0998 8.12971C86.0897 8.23993 86.0998 8.35015 86.0998 8.46037C86.0998 10.6347 86.0998 12.7989 86.0998 14.9732C86.0998 15.0634 86.0897 15.1636 86.0998 15.2538C86.1198 15.4542 86.0396 15.5644 85.8192 15.5544C85.6389 15.5443 85.4485 15.5343 85.2781 15.5544C85.0076 15.5844 84.8473 15.4642 84.687 15.2538C83.5447 13.8209 82.3924 12.3981 81.2302 10.9753C81.0999 10.815 80.9897 10.6246 80.7191 10.4643C80.7191 10.7048 80.7191 10.8751 80.7191 11.0555C80.7191 12.4182 80.7191 13.7809 80.7191 15.1436C80.7191 15.5544 80.7091 15.5644 80.2983 15.5544C79.9877 15.5443 79.6069 15.6946 79.3965 15.4842C79.1961 15.2838 79.3264 14.8931 79.3164 14.5824C79.3064 12.5585 79.3164 10.5345 79.3164 8.51047C79.3164 8.38021 79.3264 8.25997 79.3164 8.11969C79.3064 7.92932 79.4066 7.85918 79.5869 7.8692C79.7172 7.8692 79.8474 7.88924 79.9677 7.8692C80.3284 7.8191 80.5688 7.95938 80.7993 8.25997C81.9215 9.68278 83.0738 11.0956 84.216 12.5084C84.3263 12.6486 84.4465 12.7789 84.5667 12.9091C84.6168 12.8891 84.6569 12.8691 84.697 12.859Z" fill="#31373F"/>
<path d="M104.887 11.7268C104.887 10.5846 104.887 9.45234 104.887 8.31008C104.887 7.87923 104.897 7.85919 105.298 7.86921C106.5 7.88925 107.703 7.79907 108.905 7.91931C109.837 7.99947 110.679 8.35016 111.35 9.03151C112.402 10.1237 112.612 11.4463 112.232 12.8591C111.851 14.2718 110.849 15.0534 109.476 15.4141C109.126 15.5043 108.765 15.5444 108.394 15.5444C107.372 15.5444 106.36 15.5444 105.328 15.5444C104.887 15.5444 104.887 15.5343 104.887 15.0834C104.887 13.9713 104.887 12.849 104.887 11.7268ZM106.31 11.6867C106.31 12.4583 106.32 13.2298 106.3 14.0013C106.29 14.2618 106.37 14.352 106.641 14.352C107.282 14.332 107.913 14.372 108.554 14.3219C109.967 14.2318 110.899 13.2298 110.939 11.807C110.979 10.3341 110.108 9.30204 108.665 9.1317C108.013 9.05155 107.352 9.09162 106.691 9.09162C106.3 9.09162 106.3 9.10164 106.29 9.49241C106.31 10.2138 106.31 10.9453 106.31 11.6867Z" fill="#31373F"/>
<path d="M61.5616 13.0595C62.1327 13.8911 62.6638 14.6626 63.285 15.5444C62.754 15.5444 62.3231 15.5444 61.8722 15.5444C61.6919 15.5444 61.6418 15.3841 61.5616 15.2638C61.1809 14.7228 60.8101 14.1817 60.4394 13.6306C60.2991 13.4102 60.1388 13.2899 59.8583 13.31C59.4374 13.34 59.0166 13.31 58.5958 13.32C58.195 13.33 58.185 13.33 58.185 13.7609C58.1749 14.2017 58.185 14.6426 58.185 15.0835C58.185 15.2237 58.215 15.3841 58.1148 15.5444C57.7641 15.5444 57.4034 15.5344 57.0427 15.5444C56.8223 15.5544 56.7521 15.4542 56.7622 15.2438C56.7722 15.1536 56.7622 15.0534 56.7622 14.9632C56.7622 12.7689 56.7622 10.5846 56.7622 8.39026C56.7622 8.30008 56.7622 8.19988 56.7622 8.1097C56.7521 7.92935 56.8323 7.83917 57.0126 7.83917C58.2551 7.86923 59.4975 7.74899 60.73 7.90931C62.4935 8.13976 63.4654 9.57259 63.0646 11.276C62.9143 11.9172 62.5636 12.4082 62.0125 12.7589C61.8823 12.8691 61.742 12.9493 61.5616 13.0595ZM58.185 10.6347C58.185 11.0355 58.185 11.4463 58.185 11.8471C58.185 11.9773 58.195 12.1276 58.3653 12.1276C59.1068 12.1076 59.8583 12.2278 60.5997 12.0475C61.3712 11.8571 61.7821 11.296 61.742 10.5245C61.7019 9.76296 61.241 9.26198 60.4394 9.14174C59.7881 9.04154 59.1268 9.10166 58.4755 9.08162C58.2651 9.0716 58.185 9.1718 58.195 9.38221C58.185 9.79302 58.185 10.2139 58.185 10.6347Z" fill="#31373F"/>
<path d="M119.416 9.02147C119.095 9.10162 118.764 9.05153 118.444 9.06154C117.532 9.07156 116.62 9.06155 115.708 9.07156C115.318 9.07156 115.318 9.08158 115.308 9.48238C115.298 9.88317 115.328 10.294 115.298 10.6948C115.278 10.9954 115.388 11.0755 115.678 11.0755C116.57 11.0655 117.462 11.0655 118.364 11.0755C118.484 11.0755 118.614 11.0755 118.754 11.0755C118.935 11.0655 118.995 11.1557 119.025 11.336C119.115 12.2278 119.105 12.2579 118.213 12.2579C117.372 12.2579 116.54 12.2679 115.698 12.2478C115.418 12.2378 115.318 12.328 115.318 12.6186C115.338 13.0795 115.348 13.5404 115.318 14.0013C115.298 14.3019 115.428 14.372 115.708 14.372C116.811 14.362 117.893 14.372 118.995 14.372C119.125 14.372 119.245 14.382 119.386 14.372C119.566 14.362 119.636 14.4422 119.666 14.6225C119.776 15.5143 119.736 15.5644 118.825 15.5644C117.362 15.5644 115.909 15.5644 114.446 15.5644C113.895 15.5644 113.925 15.5944 113.925 15.0734C113.925 12.829 113.925 10.5846 113.925 8.34012C113.925 7.88923 113.935 7.87921 114.366 7.87921C115.939 7.87921 117.502 7.87921 119.065 7.87921C119.476 7.87921 119.486 7.88923 119.486 8.31006C119.446 8.54052 119.486 8.78099 119.416 9.02147Z" fill="#31373F"/>
<path d="M70.2988 9.01145C69.898 9.09161 69.5373 9.05153 69.1765 9.06154C68.3048 9.07156 67.4231 9.06155 66.5514 9.07156C66.1706 9.07156 66.1606 9.08158 66.1506 9.48238C66.1406 9.88317 66.1706 10.294 66.1406 10.6948C66.1205 10.9954 66.2307 11.0755 66.5213 11.0755C67.4732 11.0655 68.415 11.0655 69.3669 11.0755C69.8479 11.0755 69.8579 11.0855 69.8479 11.5565C69.8379 12.3681 69.9581 12.2478 69.1565 12.2478C68.2848 12.2579 67.4031 12.2579 66.5313 12.2478C66.2508 12.2378 66.1406 12.328 66.1506 12.6186C66.1706 13.0795 66.1806 13.5404 66.1506 14.0013C66.1305 14.3019 66.2608 14.372 66.5313 14.372C67.6435 14.362 68.7557 14.362 69.8679 14.372C69.9982 14.372 70.1184 14.372 70.2487 14.372C70.3789 14.372 70.439 14.4522 70.4591 14.5724C70.4591 14.5925 70.4591 14.6025 70.4591 14.6325C70.5693 15.5343 70.5392 15.5844 69.6274 15.5844C68.1345 15.5844 66.6315 15.5844 65.1386 15.5844C64.7478 15.5844 64.7378 15.5744 64.7378 15.1936C64.7378 12.8891 64.7378 10.5946 64.7378 8.29002C64.7378 7.89925 64.7478 7.88923 65.1286 7.88923C66.7317 7.87921 68.3349 7.88923 69.9381 7.87921C70.2186 7.87921 70.3288 7.96939 70.3088 8.25996C70.2787 8.50044 70.2988 8.76095 70.2988 9.01145Z" fill="#31373F"/>
<path d="M54.9885 9.01147C54.8883 9.12169 54.8082 9.20185 54.738 9.28201C54.5577 9.46236 54.3974 9.71286 54.1769 9.79302C53.9164 9.89321 53.7661 9.55254 53.5457 9.44232C52.5537 8.89123 51.5618 8.86118 50.5698 9.37218C49.6079 9.87317 49.137 10.9152 49.2773 12.1276C49.3975 13.1496 50.179 14.0514 51.181 14.3119C51.8523 14.4923 52.5136 14.4422 53.1649 14.2117C53.4455 14.1216 53.5757 13.9713 53.5557 13.6506C53.5256 13.0795 53.5557 12.5084 53.5457 11.9473C53.5357 11.7068 53.6359 11.6467 53.8663 11.6266C54.9084 11.5665 54.9084 11.5565 54.9084 12.5986C54.9084 13.1897 54.8983 13.7709 54.9084 14.362C54.9084 14.5825 54.8583 14.7428 54.6679 14.873C53.2351 15.8349 50.8003 16.0754 49.2272 14.7628C47.9045 13.6606 47.5639 12.2178 47.9647 10.5846C48.3254 9.12169 49.658 8.00949 51.181 7.81912C52.0628 7.7089 52.9245 7.74898 53.7561 8.11971C54.227 8.31009 54.6378 8.58062 54.9885 9.01147Z" fill="#31373F"/>
<path d="M72.0322 11.6867C72.0322 10.5445 72.0322 9.40224 72.0322 8.25998C72.0322 7.87923 72.0423 7.85919 72.423 7.85919C74.0061 7.85919 75.5893 7.85919 77.1824 7.85919C77.5932 7.85919 77.6032 7.86921 77.5932 8.30006C77.5832 9.17178 77.7135 9.04153 76.8417 9.05155C75.8899 9.06157 74.948 9.05155 73.9961 9.05155C73.3949 9.05155 73.4551 9.02149 73.445 9.63269C73.445 9.9934 73.4551 10.3641 73.445 10.7349C73.435 10.9753 73.5252 11.0555 73.7657 11.0455C74.6674 11.0355 75.5492 11.0455 76.451 11.0455C76.5812 11.0455 76.7015 11.0555 76.8317 11.0455C77.0421 11.0254 77.1423 11.1256 77.1223 11.3361C77.1223 11.3561 77.1223 11.3661 77.1223 11.3962C77.1724 12.2378 77.1724 12.2378 76.3508 12.2378C75.5291 12.2378 74.7075 12.2378 73.8859 12.2378C73.455 12.2378 73.4551 12.2479 73.445 12.6386C73.435 13.0595 73.445 13.4803 73.445 13.9111C73.445 14.342 73.4551 14.342 73.8558 14.342C74.7276 14.342 75.6093 14.342 76.481 14.342C76.7015 14.342 76.9219 14.342 77.1323 14.342C77.7736 14.342 77.7235 14.2718 77.7235 14.9231C77.7135 15.6145 77.8036 15.5343 77.1123 15.5444C75.5592 15.5444 74.0061 15.5444 72.4631 15.5444C72.0222 15.5444 72.0222 15.5343 72.0122 15.0935C72.0322 13.9713 72.0322 12.829 72.0322 11.6867Z" fill="#31373F"/>
<path d="M103.855 15.5444C103.454 15.5444 103.063 15.5344 102.652 15.5444C102.472 15.5444 102.392 15.4642 102.332 15.3039C102.161 14.8831 101.971 14.4622 101.791 14.0314C101.711 13.841 101.61 13.7508 101.39 13.7508C100.318 13.7609 99.2457 13.7609 98.1636 13.7508C97.9131 13.7508 97.8129 13.851 97.7227 14.0715C97.5724 14.4723 97.382 14.843 97.2317 15.2338C97.1516 15.4642 97.0213 15.5444 96.7909 15.5344C96.4302 15.5143 96.0795 15.5243 95.7188 15.5243C95.7188 15.2738 95.829 15.1235 95.8991 14.9532C96.8911 12.7188 97.883 10.5044 98.865 8.27002C99.0153 7.92934 99.1956 7.80911 99.5563 7.82915C100.679 7.87924 100.368 7.64879 100.819 8.65077C101.771 10.7349 102.703 12.829 103.624 14.9231C103.735 15.1336 103.855 15.2939 103.855 15.5444ZM101.19 12.6386C100.719 11.5264 100.268 10.4744 99.7968 9.37219C99.3559 10.1036 98.4842 12.2679 98.4642 12.6386C99.3559 12.6386 100.238 12.6386 101.19 12.6386Z" fill="#31373F"/>
<path d="M90.7993 13.5905C90.9396 13.7508 91.0397 13.8811 91.16 13.9913C91.4506 14.2518 91.7912 14.4322 92.192 14.4522C92.9635 14.4923 93.4545 14.1416 93.4745 13.36C93.5246 12.0174 93.4946 10.6848 93.5046 9.33209C93.5046 9.09161 93.3743 9.07157 93.184 9.07157C92.5627 9.07157 91.9415 9.07157 91.3203 9.07157C90.679 9.07157 90.7792 9.06155 90.7792 8.55054C90.7893 7.8191 90.659 7.87922 91.4506 7.87922C92.4726 7.87922 93.4946 7.87922 94.5066 7.87922C94.8974 7.87922 94.9074 7.88924 94.9074 8.26999C94.9074 9.88317 94.9074 11.5064 94.9074 13.1196C94.9074 13.4202 94.8573 13.7107 94.7871 13.9913C94.5767 14.8029 94.0858 15.354 93.2541 15.5544C92.1519 15.8149 91.1199 15.6746 90.2482 14.863C89.9676 14.5925 89.9676 14.5824 90.2081 14.2919C90.3985 14.0614 90.5889 13.841 90.7993 13.5905Z" fill="#31373F"/>
<path d="M0.0299016 23.3197C0.150139 23.3498 0.170178 23.45 0.210258 23.5402C0.330495 23.7906 0.520871 23.991 0.751325 24.1514C1.93366 25.003 3.12601 25.8647 4.30835 26.7164C6.44256 28.2494 8.58679 29.7725 10.711 31.3055C11.5627 31.9167 12.4043 32.5279 13.256 33.1191C13.767 33.4798 14.3381 33.6902 14.9794 33.7503C15.3902 33.7904 15.791 33.7804 16.1918 33.7202C16.6828 33.6401 17.1437 33.4497 17.5545 33.1591C19.6085 31.7764 21.6726 30.4037 23.7367 29.021C25.5603 27.7986 27.3839 26.5862 29.2075 25.3738C30.971 24.2015 32.7244 23.0191 34.4979 21.8368C35.9809 20.8448 37.4638 19.8529 38.9467 18.8609C39.067 18.7808 39.1772 18.7206 39.2673 18.6104C39.8585 18.2998 40.3996 17.899 40.9507 17.5283C41.0509 17.6385 41.0008 17.7688 41.0008 17.879C41.0008 19.0413 40.9807 20.2036 41.0008 21.3659C41.0008 21.6364 40.9106 21.7867 40.6902 21.937C35.0791 25.6844 29.468 29.4418 23.867 33.1992C21.7728 34.602 19.6787 35.9947 17.5846 37.3975C16.4924 38.1289 15.3201 38.1991 14.1077 37.8384C13.7971 37.7482 13.5165 37.5779 13.256 37.3875C9.1479 34.4417 5.02977 31.4758 0.911642 28.53C0.280396 28.0891 -0.0201973 27.528 0.009862 26.7264C0.0399213 25.5942 0.0299016 24.462 0.0299016 23.3197Z" fill="#31373F"/>
<path d="M29.5583 9.37218C26.0113 6.82715 22.4643 4.28213 18.9173 1.7371C18.7269 1.60685 18.5366 1.45655 18.3261 1.36637C17.0136 0.795245 15.721 0.815285 14.4986 1.61687C11.5528 3.55068 8.63702 5.52458 5.70123 7.47844C4.49885 8.29004 3.3065 9.0816 2.10413 9.88318C1.75343 10.1237 1.45284 10.4142 1.40274 10.8751C1.39272 10.8952 1.3827 10.9152 1.37268 10.9453C1.30254 11.1457 1.32258 11.3461 1.34262 11.5565C1.40274 11.5865 1.41276 11.6467 1.41276 11.7068C1.52298 12.0875 1.76345 12.3681 2.06405 12.5885C3.54697 13.6606 5.03992 14.7227 6.53287 15.7949C8.59694 17.2778 10.661 18.7507 12.7251 20.2336C13.0157 20.444 13.3163 20.6444 13.6068 20.8548C13.7772 20.9851 13.7872 21.0252 13.6369 21.1254C12.685 21.7466 11.7331 22.3778 10.7813 22.9991C10.7612 23.0091 10.7312 23.0091 10.7011 23.0191C10.641 23.2095 10.3805 23.1894 10.3404 23.3898C10.7612 23.5802 11.0919 23.9009 11.4826 24.1513C11.7331 24.3117 11.9736 24.492 12.2041 24.6724C13.3463 25.5742 15.3603 25.5441 16.5727 24.7225C19.3281 22.8588 22.1136 21.0152 24.8891 19.1615C25.9512 18.4501 27.0133 17.7387 28.0754 17.0373C28.1856 16.9571 28.2858 16.8469 28.4361 16.867C28.4361 16.7367 28.3159 16.7167 28.2457 16.6666C27.865 16.386 27.4842 16.1155 27.0935 15.8349C27.0133 15.7748 26.9131 15.7448 26.9131 15.6145C26.7728 15.6045 26.6626 15.5143 26.5524 15.4341C25.0895 14.3821 23.6366 13.34 22.1737 12.298C20.9914 11.4563 19.8091 10.6146 18.6368 9.77297C18.5065 9.68279 18.4163 9.71285 18.3061 9.77297C18.1558 9.85312 18.0356 10.0435 17.8151 9.98338C17.8452 10.1738 17.6648 10.1938 17.5646 10.2639C16.2821 11.1156 14.9795 11.9673 13.697 12.829C13.5668 12.9092 13.4365 12.9693 13.3463 13.0895C14.0677 13.6105 14.7892 14.1416 15.5106 14.6526C15.7911 14.853 16.0717 15.0534 16.3522 15.2638C16.6528 15.4842 16.6629 15.4943 16.9735 15.2939C17.3442 15.0534 17.7149 14.8029 18.0757 14.5524C18.246 14.4322 18.3762 14.4021 18.5666 14.5424C19.258 15.0534 19.9794 15.5544 20.6708 16.0654C20.8912 16.2257 20.8912 16.2558 20.6708 16.4061C19.6187 17.1074 18.5666 17.7988 17.5145 18.5002C17.3041 18.6405 17.1538 18.5804 16.9735 18.4601C16.2821 17.9691 15.6108 17.4782 14.9194 16.9872C14.3683 16.5864 13.8172 16.2057 13.2461 15.8149C12.4946 15.2738 11.7432 14.7428 11.0017 14.1917C10.8915 14.1115 10.7211 14.0614 10.7011 13.8911C10.3905 13.841 10.1901 13.5905 9.95963 13.4302C9.23821 12.9292 8.5268 12.4182 7.8154 11.8972C7.7653 11.8671 7.7152 11.827 7.68514 11.7268C7.98574 11.5164 8.29635 11.306 8.60696 11.0856C9.36847 10.5745 10.13 10.0736 10.8915 9.56255C12.5848 8.44034 14.2681 7.3081 15.9515 6.17587C16.2821 5.95543 16.6228 5.76506 16.9434 5.51456C17.1438 5.36426 17.2841 5.39432 17.4745 5.5346C17.9354 5.87527 18.4063 6.19591 18.8672 6.52656C19.8792 7.258 20.8912 7.98945 21.9132 8.72089C23.2559 9.68279 24.5885 10.6447 25.9312 11.5966C25.9913 11.6366 26.0614 11.6767 26.1115 11.7268C26.2317 11.8471 26.3319 11.827 26.4622 11.7368C27.1536 11.2759 27.8449 10.815 28.5363 10.3541C28.8369 10.1637 29.1275 9.95332 29.4381 9.75293C29.5383 9.68279 29.6385 9.61265 29.7687 9.59261C29.7587 9.47237 29.6385 9.44231 29.5583 9.37218Z" fill="#5A5F65"/>
<path d="M8.61709 11.0956C9.3786 10.5846 10.1401 10.0836 10.9016 9.57257C12.5949 8.45036 14.2783 7.31812 15.9616 6.18589C16.2922 5.96545 16.6329 5.77508 16.9535 5.52458C17.1539 5.37429 17.2942 5.40435 17.4846 5.54462C17.9455 5.8853 18.4164 6.20593 18.8773 6.53658C19.8893 7.26803 20.9013 7.99947 21.9234 8.73091C23.266 9.69281 24.5986 10.6547 25.9413 11.6066C26.0014 11.6467 26.0715 11.6867 26.1216 11.7368C26.2419 11.8571 26.3421 11.837 26.4723 11.7469C27.1637 11.286 27.8551 10.825 28.5464 10.3641C28.847 10.1738 29.1376 9.96335 29.4482 9.76295C29.5484 9.69281 29.6486 9.62267 29.7789 9.60263C29.7789 10.5144 29.7889 11.4262 29.7889 12.338C29.7889 12.4683 29.7989 12.6086 29.8089 12.7488C29.4783 13.0294 29.0875 13.2098 28.7268 13.5304C30.3099 14.6726 31.873 15.7848 33.4361 16.9171C33.2858 17.1074 33.1054 17.1876 32.9451 17.2978C32.4441 17.6485 31.9031 17.9591 31.4321 18.3499C31.4021 18.3499 31.382 18.3599 31.362 18.38C31.3319 18.41 31.3119 18.42 31.2818 18.4501C31.0814 18.5303 30.9211 18.6906 30.7408 18.8008C30.6305 18.8709 30.5404 18.9811 30.4001 18.9912C29.9091 18.6405 29.4182 18.2697 28.9272 17.9291C28.7568 17.8088 28.6967 17.6886 28.6967 17.4682C28.7168 16.5964 28.7067 15.7247 28.7067 14.843C28.7067 14.7528 28.7368 14.6526 28.6566 14.5424C28.5164 14.6326 28.3761 14.7328 28.2158 14.8229C27.7849 15.0935 27.3942 15.4241 26.9332 15.6446C26.793 15.6345 26.6828 15.5444 26.5725 15.4642C25.1096 14.4121 23.6568 13.3701 22.1939 12.328C21.0116 11.4864 19.8292 10.6447 18.6569 9.80303C18.5267 9.71285 18.4365 9.74291 18.3263 9.80303C18.176 9.88319 18.0557 10.0736 17.8353 10.0134C17.705 9.92327 17.5648 9.83309 17.4445 9.73289C17.3042 9.61265 17.184 9.60263 17.0237 9.71285C16.6129 10.0134 16.182 10.284 15.7612 10.5645C14.0879 11.6767 12.4146 12.7989 10.7513 13.9011C10.4407 13.851 10.2403 13.6005 10.0098 13.4402C9.28842 12.9392 8.57701 12.4282 7.86561 11.9072C7.81551 11.8771 7.76541 11.837 7.73535 11.7368C7.99587 11.5264 8.30648 11.316 8.61709 11.0956Z" fill="#31373F"/>
<path d="M1.41293 11.7068C1.52315 12.0875 1.76362 12.3681 2.06422 12.5885C3.54714 13.6606 5.04009 14.7227 6.53304 15.7949C8.59711 17.2778 10.6612 18.7507 12.7253 20.2336C13.0158 20.444 13.3164 20.6444 13.607 20.8548C13.7773 20.9851 13.7874 21.0252 13.6371 21.1254C12.6852 21.7466 11.7333 22.3778 10.7814 22.9991C10.7614 23.0091 10.7313 23.0091 10.7013 23.0191C10.4007 22.7987 10.1001 22.5782 9.79948 22.3678C9.49889 22.1574 9.21834 21.9169 8.85763 21.7366C8.85763 21.9169 8.85763 22.0372 8.85763 22.1574C8.85763 22.9991 8.85763 23.8608 8.84761 24.7024C8.84761 24.8227 8.8977 24.9529 8.77747 25.0531C8.53699 24.983 8.35664 24.8026 8.15624 24.6523C7.38472 24.1213 6.62321 23.5702 5.86171 23.0191C5.82163 22.9891 5.78155 22.949 5.73145 22.9189C5.80159 22.7786 5.92183 22.7285 6.03205 22.6584C6.81359 22.1374 7.59513 21.6163 8.3867 21.0953C8.44681 21.0552 8.51695 21.0152 8.56705 20.9651C8.80753 20.7947 8.80753 20.7647 8.55703 20.5743C8.37668 20.444 8.19632 20.3138 8.01596 20.1835C7.2745 19.6525 6.52302 19.1214 5.78155 18.5804C5.46092 18.3499 5.46092 18.3499 5.14029 18.5603C5.01003 18.6405 4.90983 18.7507 4.74952 18.7507C3.89784 18.1395 3.06619 17.5383 2.21451 16.9371C2.02414 16.7968 1.83376 16.6465 1.68347 16.4762C1.46303 16.2157 1.32275 15.9051 1.32275 15.5644C1.32275 14.2819 1.33277 12.9993 1.34279 11.7168C1.37285 11.7068 1.38287 11.7068 1.41293 11.7068Z" fill="#31373F"/>
<path d="M40.9508 17.5383C40.7705 17.408 40.6102 17.2778 40.4298 17.1475C39.4779 16.4762 38.5461 15.7949 37.5942 15.1135C36.6423 14.4322 35.6905 13.7408 34.7386 13.0595C33.9771 12.5084 33.2056 11.9573 32.444 11.4062C32.1936 11.2158 32.1635 11.2158 31.903 11.3862C31.2116 11.8471 30.5002 12.298 29.8088 12.7589C29.4782 13.0394 29.0874 13.2198 28.7267 13.5404C30.3098 14.6827 31.8729 15.7949 33.436 16.9271C33.2857 17.1175 33.1054 17.1976 32.945 17.3078C32.444 17.6585 31.903 17.9691 31.4321 18.3599C31.402 18.3599 31.382 18.3699 31.3619 18.39C31.3319 18.42 31.3118 18.4301 31.2818 18.4601C31.0814 18.5403 30.921 18.7006 30.7407 18.8108C30.6305 18.8809 30.5403 18.9912 30.4 19.0012C30.1696 19.2417 29.869 19.3819 29.5984 19.5723C29.2277 19.8328 28.857 20.0833 28.4762 20.3438C27.6446 20.8949 26.823 21.436 26.0013 21.9871C22.9353 24.0311 19.8592 26.0852 16.7831 28.1292C16.2421 28.4899 15.6409 28.7003 14.9896 28.7705C14.679 28.8005 14.3784 28.7705 14.0778 28.7404C13.9175 28.7304 13.7572 28.6703 13.6269 28.5801C12.5448 27.8086 11.4727 27.037 10.3905 26.2755C10.3605 26.2555 10.3404 26.2154 10.3204 26.1954C9.87951 25.995 9.52882 25.6643 9.14807 25.4038C9.01781 25.3237 8.86751 25.2635 8.79738 25.1032C8.5569 25.0331 8.37655 24.8527 8.17615 24.7024C7.40463 24.1213 6.64313 23.5702 5.88162 23.0191C5.84154 22.9891 5.80146 22.949 5.75137 22.9189C5.8215 22.7786 5.94174 22.7285 6.05196 22.6584C6.8335 22.1374 7.61504 21.6163 8.40661 21.0953C8.46672 21.0552 8.53686 21.0152 8.58696 20.9651C8.82744 20.7947 8.82744 20.7647 8.57694 20.5743C8.39659 20.444 8.21623 20.3138 8.03587 20.1835C7.29441 19.6525 6.54293 19.1214 5.80146 18.5804C5.48083 18.3499 5.48083 18.3499 5.1602 18.5603C5.02994 18.6405 4.92974 18.7507 4.76943 18.7507C4.72935 18.901 4.58907 18.9411 4.47885 19.0112C3.30654 19.7927 2.14425 20.5843 0.961913 21.3558C0.250509 21.8167 -0.0701241 22.468 0.0501132 23.3197C0.17035 23.3498 0.19039 23.45 0.230469 23.5401C0.350706 23.7906 0.541082 23.991 0.771537 24.1514C1.95387 25.003 3.14622 25.8647 4.32856 26.7164C6.46277 28.2494 8.607 29.7724 10.7312 31.3055C11.5829 31.9167 12.4245 32.5279 13.2762 33.1191C13.7872 33.4798 14.3584 33.6902 14.9996 33.7503C15.4104 33.7904 15.8112 33.7804 16.212 33.7202C16.703 33.6401 17.1639 33.4497 17.5747 33.1591C19.6288 31.7764 21.6928 30.4037 23.7569 29.021C25.5805 27.7985 27.4041 26.5862 29.2277 25.3637C30.9912 24.1914 32.7446 23.0091 34.5181 21.8268C36.0011 20.8348 37.484 19.8428 38.9669 18.8509C39.0872 18.7707 39.1974 18.7106 39.2876 18.6004C39.8487 18.2998 40.3897 17.909 40.9508 17.5383Z" fill="#5A5F65"/>
<path d="M1.41266 11.7068C1.39262 11.7068 1.37258 11.7068 1.35254 11.6968C1.35254 11.6467 1.35254 11.5966 1.35254 11.5465C1.40264 11.5966 1.41266 11.6467 1.41266 11.7068Z" fill="#3BC7A1"/>
<path d="M1.41283 10.8752C1.40281 10.8952 1.38277 10.9253 1.37275 10.9453C1.36273 10.9052 1.37275 10.8952 1.41283 10.8752Z" fill="#3BD2A8"/>
<path d="M10.3303 23.3899C10.7512 23.5802 11.0818 23.9009 11.4726 24.1514C11.7231 24.3117 11.9636 24.492 12.194 24.6724C13.3363 25.5742 15.3503 25.5441 16.5626 24.7225C19.3181 22.8588 22.1036 21.0152 24.8791 19.1615C25.9412 18.4501 27.0033 17.7387 28.0653 17.0373C28.1756 16.9572 28.2758 16.8469 28.4261 16.867C28.4261 17.8589 28.4261 18.8409 28.4361 19.8328C28.4361 19.9932 28.416 20.1535 28.4661 20.3138C27.6345 20.8649 26.8129 21.4059 25.9913 21.957C22.9252 24.0011 19.8491 26.0551 16.7731 28.0992C16.232 28.4599 15.6308 28.6703 14.9795 28.7404C14.6689 28.7705 14.3683 28.7404 14.0677 28.7104C13.9074 28.7003 13.7471 28.6402 13.6168 28.55C12.5347 27.7785 11.4626 27.007 10.3804 26.2455C10.3504 26.2255 10.3303 26.1854 10.3103 26.1653C10.3103 26.0351 10.3103 25.8948 10.3103 25.7545C10.3103 24.9529 10.3203 24.1714 10.3303 23.3899Z" fill="#31373F"/>
<path d="M31.2717 18.4501C31.3018 18.42 31.3218 18.41 31.3519 18.3799C31.3218 18.41 31.3018 18.42 31.2717 18.4501Z" fill="#3BCFA6"/>
<path d="M13.3465 13.0995C14.068 13.6206 14.7894 14.1516 15.5108 14.6626C15.7914 14.863 16.0719 15.0734 16.3525 15.2738C16.6531 15.4943 16.6631 15.5043 16.9737 15.3039C17.3444 15.0634 17.7152 14.8129 18.0759 14.5624C18.2462 14.4422 18.3765 14.4121 18.5668 14.5524C19.2582 15.0634 19.9796 15.5644 20.671 16.0754C20.8914 16.2357 20.8914 16.2658 20.671 16.4161C19.6189 17.1175 18.5668 17.8088 17.5148 18.5102C17.3043 18.6505 17.1541 18.5904 16.9737 18.4701C16.2823 17.9792 15.611 17.4882 14.9196 16.9972C14.3686 16.5964 13.8175 16.2157 13.2463 15.8249C13.2964 15.0534 13.2564 14.2819 13.2764 13.5104C13.3065 13.3701 13.2664 13.2198 13.3465 13.0995Z" fill="#31373F"/>
</svg>
