<svg fill="none" height="40" viewBox="0 0 120 40" width="120" xmlns="http://www.w3.org/2000/svg"><g fill="#31373f"><path d="m0 11.9696c.243235-.4831.543703-.9023 1.13748-1.0089.72256-.135 1.43795.2842 1.63826.9805.20032.6892-.15738 1.421-.81555 1.6909-.67963.2771-1.459411 0-1.795648-.6465-.050078-.0995-.1073102-.206-.15738802-.3055-.00715398-.2345-.00715398-.476-.00715398-.7105z"/><path d="m78.6947 5.00732c.1288.12789.1574.26999.1217.44761-.7512 3.47424-1.5023 6.94847-2.2392 10.42987-.0715.3552-.236.5115-.6009.4902-.3863-.0213-.465-.1066-.3863-.4831.279-1.2931.5508-2.5862.8298-3.8792.4579-2.13859.9157-4.27713 1.3736-6.40857.05-.22025.1073-.4334.2647-.59681z"/><path d="m28.6517 5.29834h8.7279.2861c.5366.01421.7083.24156.558.746-.4149 1.42096-.8298 2.83482-1.2447 4.25576-2.4467 8.3055-4.9005 16.6181-7.3543 24.9236-.1574.54-.4436.7603-1.0088.7603-4.0062 0-8.0124 0-12.0187 0-.5723 0-.7368-.2132-.5794-.7532.7225-2.4582 1.4522-4.9165 2.1676-7.3818.0644-.2274.1574-.334.415-.3126.4077.0355.8084-.0214 1.1732-.2274.5938-.3339.9157-.9449.787-1.4991-.1431-.611-.694-1.0515-1.3951-1.0586-.9658-.0142-1.9316-.0071-2.8973-.0071-.973 0-1.5811-.4974-1.5954-1.2931-.0143-.8171.7011-1.5133 1.6025-1.5275 1.1947-.0142 2.3823-.0071 3.577-.0071h2.6112c.694 0 1.302-.5471 1.3807-1.2292.0716-.6678-.4077-1.2717-1.1375-1.4067-.2074-.0355-.4292-.0498-.6438-.0498-2.647 0-5.294 0-7.9409 0-.229 0-.4579.0071-.6725-.0497-.93-.2629-1.2591-1.3783-.6296-2.1527.3434-.4263.7941-.604 1.345-.604 3.9347.0072 7.8694-.0142 11.8041.0214.7368.0071 1.4952-.7176 1.4952-1.3713 0-.7104-.6153-1.3001-1.438-1.3357-.1431-.0071-.2862 0-.4292 0-5.6016 0-11.2103 0-16.81191 0-.16454 0-.33624.0071-.50078-.0213-.65101-.1208-1.08741-.6181-1.09456-1.2575-.01431-.6963.49362-1.3286 1.19471-1.492.22178-.0498.45071-.0569.67248-.0569h16.95496c.4149 0 .8084-.0497 1.1661-.27.5795-.3552.8585-.9591.7082-1.53459-.143-.53286-.7082-.95915-1.3521-.98046-.5937-.02132-1.1947-.00711-1.7885-.00711-1.7026 0-3.4124 0-5.1151 0-.1788 0-.3577-.01421-.5294-.04263-.5866-.11367-1.0087-.44049-1.1446-1.03019-.1216-.54707.1574-1.10835.6939-1.44227.372-.23446.7941-.30551 1.2305-.29841 2.926-.0071 5.852-.0071 8.7708-.0071z"/><path d="m39.2267 15.7992c1.3449.0142 2.6899.0213 4.0348.0426 2.5755.0355 5.1509.0852 7.7263.1208.415.0071.8084.071 1.1518.3197.4293.3126.601.7957.465 1.2788-.9371 3.3677-1.8743 6.7354-2.8115 10.1102-.6295 2.2664-1.2519 4.5329-1.8743 6.7993-.322 1.1794-.7798 1.5275-2.0389 1.5275-4.5285 0-9.0641 0-13.5926 0-.1288 0-.2647.0071-.3935-.0071-.3791-.0426-.5294-.2629-.4149-.6536.3505-1.1794.7082-2.3517 1.0659-3.5311 1.5954-5.2789 3.1979-10.5649 4.7932-15.8437.0143-.0569.0501-.1066.0716-.1563.6152-.064 1.2161-.0498 1.8171-.0071z"/><path d="m39.226 15.7991c-.601 0-1.2091.0071-1.81.0071.3291-1.293.7512-2.5577 1.1375-3.8365.5866-1.961 1.1804-3.91479 1.7742-5.86861.1717-.56128.4507-.77442 1.0373-.78153.5008-.0071 1.0016 0 1.5023 0h11.0816.3434c.0071.02132.0214.04974.0286.07105-5.6016 3.43162-11.196 6.85609-16.862 10.33039.6439.0639 1.2091-.0071 1.7671.0781z"/><path d="m90.8703 8.90047c.558-.36235 1.0016-.80285 1.6311-.91652.6367-.10657 1.2591-.09947 1.8672.12078.6152.22025 1.0373.63943 1.2806 1.27886.1144-.12078.2003-.21314.2861-.3055.6939-.7318 1.531-1.14388 2.554-1.15098 1.7457-.00711 2.8257 1.1865 2.5687 2.89879-.265 1.7406-.716 3.4458-1.0735 5.1723-.0716.3552-.5366.5328-.8514.3481-.2289-.1279-.1287-.3339-.093-.5116.2147-1.0301.4436-2.0532.6653-3.0834.1288-.611.2647-1.2221.3576-1.8402.236-1.57014-.6866-2.38719-2.2319-1.9538-1.2591.35524-1.8886 1.2931-2.1605 2.5009-.3291 1.4494-.6295 2.913-.9443 4.3623-.1073.5045-.2146.5826-.6868.5684-.3005-.0142-.3935-.1421-.3291-.4334.3077-1.4209.6081-2.8419.9157-4.2628.0787-.3695.136-.7461.1574-1.1226.0573-1.20782-.7297-1.88988-1.9244-1.68384-1.2519.22025-2.1748 1.12964-2.4824 2.47954-.3362 1.5134-.6582 3.0267-.9873 4.54-.1001.4405-.3362.5826-.7797.476-.2504-.0639-.2576-.2415-.2147-.4405.3148-1.4565.6224-2.9129.9372-4.3694.2146-.9947.4221-1.98937.6367-2.98404.1002-.45471.1932-.52576.6582-.51865.3577.0071.4221.08525.3505.43339-.0429.09947-.0644.21314-.1073.39787z"/><path d="m80.3545 28.0197c.7011-.7034 1.5167-1.0728 2.5039-.9876.9944.0782 1.7956.4334 2.182 1.4281.1502-.0569.2074-.1847.2933-.2771.6939-.7318 1.5309-1.151 2.5539-1.1581 1.7599-.0142 2.8402 1.1936 2.5683 2.9272-.2718 1.7265-.7154 3.4245-1.0731 5.1368-.0787.3623-.5222.5399-.8513.3552-.2289-.1279-.1359-.3339-.1002-.5044.1932-.9237.4007-1.8473.601-2.7709.1502-.7176.3148-1.4352.4221-2.1528.2432-1.5701-.6797-2.3943-2.2249-1.9609-1.2591.3552-1.8958 1.2931-2.1677 2.4938-.3291 1.4494-.6295 2.913-.9443 4.3623-.1073.5045-.2075.5897-.6796.5755-.2933-.0071-.4006-.135-.3363-.4263.2862-1.3144.5652-2.6358.8514-3.9502.1001-.4761.2003-.9521.2217-1.4352.0573-1.2078-.7225-1.897-1.9244-1.6909-1.2519.2131-2.1819 1.1225-2.4824 2.4795-.3362 1.5134-.651 3.0267-.9873 4.54-.093.4405-.1931.5044-.6367.4902-.3362-.0142-.4292-.1208-.3577-.4476.2862-1.3428.5724-2.6785.8585-4.0213.2361-1.0941.465-2.1954.7011-3.2966.1073-.4974.2075-.5613.6939-.5613.3148 0 .4078.1421.3291.4263-.0286.1066-.05.2202-.0787.3339.0287.0355.043.064.0644.0924z"/><path d="m65.4672 29.5188c.5509 0 1.0946.0071 1.6454 0 .2719-.0071.4149.0923.3577.3765-.2003 1.0089-.3505 2.0249-.8084 2.9627-1.0659 2.1954-3.1048 2.9556-5.3225 2.7354-.5366-.0568-1.0516-.1989-1.5166-.4831-.8585-.5258-1.2806-1.3073-1.3736-2.2807-.1002-1.0089.1717-1.9751.372-2.9414.1789-.881.3577-1.762.6868-2.6003 1.1732-2.9698 3.9704-3.5453 6.1881-2.9769 1.2377.3197 2.0318 1.1367 2.1748 2.4724.0644.5826-.1287.7603-.7082.6679-.2361-.0355-.3148-.1989-.3362-.3979-.1431-1.2788-.8514-1.8401-2.2321-1.9183-2.2463-.1208-3.8202 1.0302-4.4068 3.2327-.3005 1.1297-.5437 2.2735-.7082 3.4387-.0573.4263-.043.8526.05 1.2718.2218.9662.9444 1.4849 2.1534 1.563 2.2892.1421 3.9919-1.1296 4.4855-3.3534.1645-.7531.1645-.7531-.6152-.7531-.6081 0-1.2162 0-1.8243 0-.2289 0-.4793.0284-.4865-.3055-.0143-.3979.1789-.6821.5008-.6821.5795-.0355 1.1518-.0284 1.7241-.0284z"/><path d="m60.588 9.51851c1.3735-1.07282 2.6898-2.09591 3.999-3.1119.415-.31971.8299-.63233 1.2377-.96625.2718-.22735.5723-.31261.9228-.2913.1789.01421.322.03553.3863.23446.0573.18472-.05.28419-.1717.38366-.7297.56838-1.4594 1.13677-2.1962 1.71225-1.2162.95205-2.4324 1.90409-3.6629 2.84197-.2146.1634-.2217.2486-.0429.4476 1.395 1.6056 2.7829 3.2113 4.1636 4.8312.1574.1847.4793.3624.2003.6821-.1645.1847-.7511.135-.9657-.064-.1217-.1136-.229-.2415-.3363-.3694-1.2376-1.4352-2.4824-2.8775-3.7201-4.3197-.05-.064-.1144-.1208-.2146-.2274-.1574.7389-.3147 1.4352-.4578 2.1315-.1717.8241-.3434 1.6412-.5223 2.4653-.093.4405-.4221.6181-.8584.4689-.2504-.0852-.2147-.2771-.1717-.4689.2933-1.3783.5937-2.7495.8871-4.1279.4363-2.03194.8656-4.07102 1.2948-6.10299.1002-.47602.3935-.64653.8657-.50444.2289.07105.2074.24156.1717.43339-.2361 1.12256-.4651 2.24512-.7011 3.36768-.0215.1563-.0573.31261-.1073.55417z"/><path d="m103.34 35.6287c-.829.0213-1.573-.1563-2.224-.6252-.337-.2416-.594-.5471-.716-.952-.071-.2487-.029-.4618.229-.5613.25-.0924.537-.1492.701.135.358.6394.887 1.016 1.624 1.0586.901.0497 1.76-.0568 2.49-.6536.2-.1635.336-.3695.422-.6111.179-.5115.057-.8596-.422-1.1438-.472-.2842-1.009-.4121-1.538-.5613-.251-.0711-.508-.1279-.759-.2061-2.082-.6607-1.817-2.2877-1.023-3.3676.294-.405.701-.6821 1.166-.8455 1.138-.3979 2.261-.4334 3.348.1634.408.2203.723.5471.852 1.0089.078.27.071.5257-.258.6394-.322.1137-.565.0355-.708-.27-.229-.4973-.622-.7673-1.152-.8454-.865-.1208-1.703-.0356-2.382.5826-.744.6678-.615 1.4707.279 1.8969.529.2558 1.102.3766 1.66.5258.436.1137.865.27 1.244.5258.608.412.866.9804.716 1.7193-.251 1.2718-1.166 2.0959-2.568 2.302-.322.0568-.666.1065-.981.0852z"/><path d="m6.08146 16.4246c.83701 0 1.66688-.0213 2.50389.0071.55086.0213.93002.3482 1.12317.8526.19316.4902.10016.9591-.24323 1.3641-.27901.3268-.65101.476-1.0731.476-1.54525.0071-3.09767.0142-4.64292-.0071-.82271-.0071-1.39503-.5968-1.38788-1.357 0-.7531.55086-1.3144 1.36641-1.3428.78694-.0213 1.57388-.0071 2.36081-.0071-.00715.0071-.00715.0142-.00715.0142z"/><path d="m10.3383 5.19163c.7511 0 1.5023-.0071 2.2535 0 .8584.00711 1.4451.54707 1.4522 1.3286.0072.79574-.5866 1.37123-1.4451 1.37833-1.5238.00711-3.04757.01421-4.57137 0-.76547-.0071-1.30917-.48312-1.41648-1.1936-.093-.60391.30762-1.22913.91571-1.44228.19315-.07105.40062-.07105.60093-.07105z"/><path d="m110.566 10.4423c-.064-1.32152-.794-2.1883-1.924-2.42987-1.202-.25577-2.325-.07104-3.291.7389-.122.09947-.243.19894-.415.33393.265-1.23624.508-2.40853.758-3.57371.036-.17762.058-.34103-.028-.51155-.236 0-.48 0-.716 0-.186.19893-.229.4476-.286.70337-.272 1.29308-.551 2.58615-.823 3.88633-.45 2.1172-.894 4.2345-1.352 6.3446-.028.1421-.078.2842.065.3907.257.1919.801.0143.887-.2913.064-.2273.107-.4618.172-.7175.522.6749.879.9591 1.495 1.087 1.609.3339 3.033-.0213 4.07-1.3357 1.073-1.3428 1.474-2.9414 1.388-4.6252zm-.966.4192c-.021 1.0799-.264 2.1101-.801 3.055-.608 1.0657-1.502 1.691-2.776 1.6696-1.073-.0142-1.838-.6536-1.903-1.7193-.071-1.1936.122-2.3801.78-3.4032.701-1.08705 1.731-1.67674 3.069-1.6128.988.04263 1.581.64654 1.639 1.6199 0 .135-.008.2629-.008.3908z"/><path d="m74.4305 8.09748c-.3363-.19183-.7726 0-.8657.38366-.05.19893-.0572.40497-.1716.61101-.3721-.53996-.8085-.93783-1.438-1.08703-1.6311-.37656-3.205.19183-4.1279 1.58437-.8656 1.31441-1.2734 2.79221-1.1947 4.36941.0644 1.3002.7011 2.167 1.767 2.4299 1.2735.3055 2.461.135 3.434-.8384.0715-.071.1574-.1421.2647-.2487-.0358.1777-.0573.3198-.0859.4548-.1216.547.0286.7033.5723.611.279-.0498.3363-.2558.3864-.4832.3004-1.4209.6081-2.8419.9157-4.2628.2146-1.0018.4292-2.0107.6367-3.01247.0357-.17052.1288-.37656-.093-.51155zm-2.2678 5.82592c-.6367 1.0373-1.5382 1.6554-2.8044 1.6696-1.0373.0072-1.6526-.4689-1.7241-1.492-.1145-1.5417.2289-2.984 1.2162-4.22022.4292-.53286.9944-.86678 1.6811-.98756 1.4809-.26288 2.4539.53996 2.4467 2.20248-.1359.8526-.2504 1.9041-.8155 2.8277z"/><path d="m87.2426 8.10501c-.2933-.19183-.7726-.01421-.8656.32682-.0573.20604-.093.41919-.1574.69627-.3935-.55417-.8084-.95204-1.4237-1.10835-1.5524-.39786-3.162.135-4.0849 1.44228-.9443 1.34987-1.3664 2.88457-1.2877 4.51867.0716 1.3144.7369 2.1669 1.8171 2.4298.6367.1563 1.2734.135 1.9101-.0071.6868-.1563 1.2162-.5684 1.7456-1.1368-.0501.2345-.0787.3766-.1073.5116-.1145.5186 0 .6465.5365.5968.3077-.0284.3792-.2345.4364-.476.279-1.3144.5652-2.6359.8442-3.9503.2361-1.1083.4793-2.21669.7082-3.32504.0501-.17051.1431-.37655-.0715-.51865zm-2.9546 6.65009c-.6438.6252-1.4451.8952-2.3465.8313-.9157-.064-1.4522-.6182-1.5238-1.5986-.0071-.1279 0-.2629 0-.3908.0644-1.3215.3363-2.579 1.1804-3.64474.5938-.746 1.3807-1.13677 2.3608-1.10124.9801.03552 1.7241.58259 1.7814 1.54178.093 1.6127-.229 3.1545-1.4523 4.3623z"/><path d="m119.886 8.11879c-.243-.18472-.772-.02842-.865.26288-.072.22025-.108.4476-.165.68206-.143-.02842-.165-.1492-.229-.22735-.329-.40497-.73-.71048-1.252-.83126-1.631-.37656-3.205.19183-4.128 1.58437-.872 1.31441-1.273 2.79221-1.194 4.36941.064 1.3002.701 2.167 1.767 2.4299 1.273.3055 2.461.135 3.434-.8384.071-.071.157-.1421.264-.2487-.036.1777-.057.3198-.086.4548-.121.547.029.7033.58.611.279-.0498.336-.2629.386-.4903.301-1.4209.608-2.8419.916-4.2628.215-1.0018.429-2.0107.644-3.01248.028-.15631.107-.34813-.072-.48313zm-2.911 6.57191c-.594.611-1.353.9094-2.218.8952-1.045-.0142-1.631-.547-1.717-1.5914-.007-.1279 0-.2629 0-.3908.064-1.3286.329-2.6004 1.195-3.67318.601-.74601 1.387-1.12256 2.368-1.08704.972.03553 1.716.60391 1.767 1.56302.078 1.5844-.237 3.0906-1.395 4.2842z"/><path d="m76.5561 27.1883c-.465-.0497-.6939-.0639-.7941.5045-.0286.1563-.0715.3126-.1216.5542-.3934-.5755-.8298-.9805-1.4594-1.1297-1.6239-.3837-3.2121.1918-4.1278 1.5773-.8728 1.3215-1.2805 2.7993-1.2018 4.3765.05 1.0729.4578 2.0036 1.5595 2.3588 1.302.4263 2.5396.27 3.5841-.7105.093-.0852.186-.1776.3291-.3055-.0429.2061-.0715.3482-.1002.4832-.1144.5115-.0143.6181.508.5897.329-.0142.4077-.2274.465-.4832.3505-1.6483.7082-3.3037 1.0588-4.952.1716-.7887.3433-1.5702.5007-2.3588.0358-.1989.1216-.4689-.2003-.5045zm-2.7685 6.6004c-.5938.6181-1.345.9236-2.2106.9165-1.0874-.0071-1.6812-.5612-1.7456-1.6341-.0071-.1208 0-.2344 0-.3552.0644-1.3215.3291-2.5791 1.1733-3.6448.6009-.7602 1.4021-1.151 2.3894-1.1083.9729.0426 1.7169.611 1.7598 1.5701.0787 1.5631-.2217 3.0622-1.3663 4.2558z"/><path d="m99.5054 29.4406c-.1145-1.3073-.8871-2.1528-2.1749-2.3517-1.6239-.2558-2.9474.3055-3.9418 1.5559-1.023 1.2931-1.3807 2.8206-1.302 4.4334.0643 1.3144.9872 2.2522 2.2892 2.4938.5223.0995 1.0517.0782 1.5668-.0284.9944-.2061 1.8886-.5826 2.4681-1.4707.1145-.1776.3219-.3979.1288-.6039-.186-.1918-.4722-.1208-.7083-.0497-.093.0284-.1788.1136-.2504.1918-.7583.881-1.7527 1.1367-2.8616 1.0799-.8799-.0497-1.4236-.5328-1.6025-1.3925-.0858-.4121-.05-.8242-.0143-1.2363.0215-.2557.1073-.3552.3863-.3481.8728.0213 1.7385.0071 2.6113.0071h2.6469.0358c.3005.0142.5079-.1066.5723-.4121.136-.611.2075-1.2362.1503-1.8685zm-.9515.8596c-.093.5755.0429.4903-.5795.4974-1.5023 0-3.0047 0-4.507 0-.0215 0-.0501-.0071-.093-.0142.2861-1.4352 1.395-2.5435 2.7686-2.7851 1.6025-.2842 2.6613.7176 2.4109 2.3019z"/></g></svg>