<svg fill="none" height="40" viewBox="0 0 120 40" width="120" xmlns="http://www.w3.org/2000/svg"><path d="m0 0h120v40h-120z" fill="#fff"/><path d="m0 0h120v40h-120z" fill="#ebf0fb"/><g fill="#31373f"><path d="m14.8299 5c-8.19044 0-14.8299 6.7259-14.8299 15.0506 0 1.4885.217687 2.9495.653061 4.3553.272109-.3859.544219-.7718.789119-1.1853 1.03401-1.5437 2.04081-3.0873 3.04762-4.6585l.73469-1.1853c.2449-.3859.4898-.7994.70748-1.1853.4898-.7994.95238-1.5988 1.38776-2.3982.21769-.4135.43537-.7994.68027-1.2129s.43537-.7994.65306-1.2128c.21769-.4135.43538-.827.62585-1.2129l.59864-1.24044.05442-.0827c.32653-.66156 1.11563-.93722 1.79593-.634.4898.27565.7891.79939.7619 1.37826 0 .71668-.1361 1.46098-.1905 2.17768s-.0816 1.4609-.136 2.2052c-.0545 1.4609-.0817 2.9495-.0817 4.4104 0 1.461.0817 2.9219.2177 4.3277.0817.6892.1905 1.3783.3266 2.0674.1088.6065.2993 1.2129.5714 1.7642.0816.1654.1905.3308.3265.4686.0816.0551.0272.0276.0816.0276h.0545l.0544-.0276h.0272l.0816-.0276c.0272-.0275.0817-.0551.1089-.0826.2177-.1654.4081-.3584.5986-.5789.4354-.5238.8436-1.0475 1.1973-1.6264.3809-.5788.7347-1.2128 1.0884-1.8468.7075-1.268 1.3606-2.5636 1.9864-3.8867.2993-.6616.6259-1.3231.9252-2.0123.2993-.6615.5986-1.3507.8707-2.0122.2721-.6892 1.0613-1.0199 1.7415-.7443.4354.1654.7347.5513.8164 1.0199 0 .1654.0272.3859.0544.6065l.0816.634c.0544.4134.1089.8269.1905 1.2404.136.8269.2993 1.6539.517 2.4533s.4898 1.5988.8163 2.3706c.3266.7718.7347 1.4885 1.2517 2.1501.1089.1654.0817.3859-.0544.4961-.136.1103-.3265.1103-.4354 0-.6802-.6064-1.2789-1.2955-1.7959-2.0398-.517-.7442-.9524-1.5436-1.3605-2.343-.2721-.5513-.4898-1.1026-.7347-1.6539-.1633.3308-.2993.6615-.4626.9648-.6531 1.3506-1.3061 2.7013-2.068 4.052-.381.7167-.7619 1.3783-1.1973 2.0399-.4354.6891-.9252 1.3507-1.4422 1.9571-.2993.3583-.6531.6616-1.0068.9648-.1088.0827-.2177.1654-.3537.2205l-.2449.1378-.1361.0551h-.0272l-.0816.0276h-.0545l-.1088.0276c-.0816.0275-.1361.0551-.2177.0551-.1633.0276-.3265.0551-.4898.0827-.3537.0276-.7347-.0276-1.0612-.1378-.3265-.1103-.6259-.3032-.898-.5238-.4081-.3583-.7619-.7994-1.0068-1.2955-.3809-.7719-.653-1.5988-.8163-2.4533-.16326-.7719-.2721-1.5712-.35374-2.3431-.16326-1.5436-.21768-3.0597-.24489-4.6034 0-.7166 0-1.4609 0-2.1776-.27211.5237-.54422 1.0475-.81633 1.5436-.21769.4135-.43537.827-.68027 1.2405l-.68027 1.2404c-.92517 1.6539-1.87756 3.2803-2.88436 4.9066-.62585 1.0475-1.27891 2.095-1.93197 3.1149 4.48979 6.9464 13.68703 8.876 20.54423 4.3277 6.8571-4.5482 8.7619-13.8653 4.2721-20.8117-2.7483-4.16234-7.4014-6.7259-12.4082-6.7259z"/><path d="m42.5034 25.4533v-9.9786h-.2449l-3.1564 10.0062h-.7891l-3.1565-10.0062h-.2449v9.9786h-1.3061v-11.0261h2.3129l2.8027 8.7658 2.7483-8.7658h2.3402v11.0537h-1.3062z"/><path d="m45.7148 15.8606v-1.4334h1.415v1.4334zm.0273 9.5927v-8.5176h1.3877v8.5176z"/><path d="m55.5383 22.6695c0 1.6539-.6259 2.9219-3.347 2.9219-3.4286 0-3.619-1.9847-3.619-4.4105 0-2.4257.1904-4.4104 3.619-4.4104 2.7211 0 3.347 1.268 3.347 2.9219h-1.3062c0-1.3507-.4626-2.0122-2.0408-2.0122-2.1224 0-2.2313 1.1577-2.2313 3.4732 0 2.3154.1089 3.4732 2.2313 3.4732 1.5782 0 2.0408-.6616 2.0408-2.0123z"/><path d="m58.232 17.8451c.6531-.4135 1.4966-.9648 2.2857-.9923.1633-.0276.3266-.0276.4898-.0276.2177 0 .4082 0 .6531.0276l-.1088 1.0199c-.2177-.0276-.4082-.0276-.5987-.0276-.1632 0-.3265 0-.517.0276-.7347.0275-1.5238.5788-2.0952.9096v6.6984h-1.3878v-8.5452h1.0885z"/><path d="m69.4426 21.2083c0 2.4257-.1904 4.4104-3.6734 4.4104s-3.6735-1.9847-3.6735-4.4104c0-2.4258.1905-4.4104 3.6735-4.4104s3.6734 1.9846 3.6734 4.4104zm-5.9591 0c0 2.3155.1088 3.4732 2.2857 3.4732 2.1768 0 2.2857-1.1302 2.2857-3.4732 0-2.3431-.1089-3.4732-2.2857-3.4732-2.1769 0-2.2857 1.1301-2.2857 3.4732z"/><path d="m71.9723 27.438c.517.0551 1.1973.0827 1.9592.0827 2.1224 0 2.3945-.5789 2.4217-2.8392-.6258.3583-1.4966.7718-2.3945.7994-3.0749.0551-3.2653-1.6264-3.2653-4.2726 0-2.6463.1632-4.4104 3.1292-4.4104 1.0068 0 1.932.4686 2.6667.9372l.136-.7719h1.0885v7.5529c0 3.0597-.6803 3.997-3.4558 3.997-.8163 0-1.6327-.0827-2.4218-.193zm4.3809-8.9311c-.5986-.3859-1.3605-.7718-2.0952-.7718-2.0408 0-2.1769 1.1577-2.1769 3.4732 0 2.2603.1361 3.3354 2.1769 3.3354.7347 0 1.5238-.4135 2.0952-.7167z"/><path d="m85.2522 25.4533-.1361-.7718c-.6803.441-1.5782.9372-2.5578.9372-3.0749.0551-3.2653-1.709-3.2653-4.4104s.1632-4.4104 3.2109-4.4104c1.0068 0 1.9047.4686 2.585.882l.136-.7442h1.0885v8.5176zm-.2722-7.0015c-.5714-.3308-1.3605-.7167-2.0952-.7167-2.0408 0-2.1769 1.1577-2.1769 3.4732s.1361 3.4732 2.1769 3.4732c.7347 0 1.4966-.4135 2.0952-.7718z"/><path d="m89.2518 17.6798c.6259-.3859 1.4694-.8545 2.3674-.8821 1.415-.0551 2.1496.3308 2.5034.9372.653-.4135 1.5238-.9096 2.4762-.9372 2.8843-.0827 3.0748 1.4058 3.0748 3.4732v5.1823h-1.3877v-5.0996c0-1.7642-.1089-2.6187-1.9864-2.6187-.6803 0-1.3878.4135-1.9592.7718.136.6065.1904 1.2405.1632 1.8745v5.0995h-1.1972v-5.1271c0-1.7642-.1089-2.6187-1.9864-2.6187-.6531 0-1.3606.4135-1.9048.7167v7.0016h-1.3878v-8.5177h1.0885z"/><path d="m101.387 15.8606v-1.4334h1.415v1.4334zm.027 9.5927v-8.5176h1.388v8.5176z"/><path d="m105.742 17.6798c.68-.3859 1.578-.8545 2.558-.8821 3.075-.0827 3.265 1.4058 3.265 3.4732v5.1823h-1.388v-5.0996c0-1.7641-.136-2.6187-2.176-2.6187-.735 0-1.524.4135-2.096.7443v7.0015h-1.387v-8.5452h1.088z"/><path d="m114.259 27.438c.517.0551 1.198.0827 1.96.0827 2.122 0 2.394-.5789 2.421-2.8392-.626.3583-1.496.7718-2.394.7994-3.075.0551-3.266-1.6264-3.266-4.2726 0-2.6463.164-4.4104 3.13-4.4104 1.007 0 1.932.4686 2.666.9372l.136-.7719h1.089v7.5529c0 3.0597-.68 3.997-3.456 3.997-.816 0-1.633-.0827-2.422-.193zm4.354-8.9311c-.599-.3859-1.36-.7718-2.095-.7718-2.041 0-2.177 1.1577-2.177 3.4732 0 2.2603.136 3.3354 2.177 3.3354.735 0 1.524-.4135 2.095-.7167z"/></g></svg>