<svg fill="none" height="40" viewBox="0 0 120 40" width="120" xmlns="http://www.w3.org/2000/svg"><g fill="#31373f"><path d="m104.576 17.858c-1.086-2.1816-2.147-4.3791-3.225-6.5607-.375-.7723-.743-1.55256-1.143-2.30895-.5059-.9634-1.7469-1.1306-2.4327-.31052-.449.54142-.3673 1.16245-.0816 1.75957.5225 1.0908 1.0613 2.1657 1.592 3.2485.5797 1.1704 1.1593 2.3488 1.7473 3.5192.449.8997.922 1.7994 1.363 2.6991.653 1.3137 1.282 2.6354 1.927 3.9571.457.9316.922 1.8552 1.388 2.7788.171.3423.326.6926.506 1.035.261.4937.767.6529 1.265.6449.556-.0159 1.054-.2388 1.307-.7962.049-.1114.073-.1433.122-.3025.057-.1752.131-.3822.057-.5494-.612-1.2421-1.2-2.4443-1.82-3.6864-.858-1.7277-1.723-3.4236-2.572-5.1275z"/><path d="m19.8417 21.9498c-.6613-.0398-1.5593.6847-1.4695 1.3535.0245.1672-.0327.3424-.0735.5096-.1878.8758-.947 1.5765-1.7879 1.6481-1.2002.1035-2.0329-.3423-2.3921-1.3376-.1225-.3264-.1388-.6927-.2041-1.043-.1388-.7564-1.0369-1.2739-1.7961-1.0669-.547.1433-.8328.5414-1.1185.9554 0 .3743.0082.422.0571.9316.0245.2468.0409.3344.0572.422.5715 2.6035 3.0779 4.4189 5.9353 3.9252.2939-.0477.3837.0478.498.2469.3347.613.6695 1.2341 1.0205 1.8392.3429.5812.9062.7404 1.5349.6369.5878-.0876.8898-.5095 1.0695-1.0271.1387-.3981.0163-.7484-.1633-1.0987-.3756-.6927-.7511-1.3934-1.1267-2.0781.9307-.9634 1.3471-2.1179 1.3716-3.3918.0163-.7882-.645-1.3774-1.4124-1.4252z"/><path d="m65.3085 8.37434c-.1306-.10351-.2776-.25479-.4164-.30256-.3837-.1035-.498-.08758-.8164 0-.3837.14332-.5551.34237-.7266.58919-1.3307 1.81533-2.637 3.64663-3.9596 5.46983-1.3552 1.8791-2.7186 3.7501-4.082 5.6212-.4409.6051-.3021 1.5606.2939 1.9905.6858.4936 1.5593.3583 2.0655-.3264.5388-.7246 1.0695-1.4571 1.6002-2.1976.9552-1.3296 1.9022-2.6672 2.8574-3.9969 1.192-1.6481 2.4084-3.2883 3.584-4.9523.4899-.68474.3184-1.3217-.4-1.89496z"/><path d="m108.821 9.00429c-.424-.80416-1.347-1.08283-2.13-.60511-.547.3344-.694.85989-.702 1.43316-.009 2.83446-.009 5.67686 0 8.51136 0 .199.065.414.155.5971.939 1.903 1.886 3.7979 2.833 5.6929 0-5.1196-.009-10.064-.009-15.1915-.016-.19905-.073-.28663-.147-.43791z"/><path d="m12.6978 14.5218c.8409-.1831 1.2491-.6688 1.2981-1.5446.0653-1.2739 1.094-1.9268 1.943-1.9825 1.2246-.0797 2.2043.6847 2.3758 1.8073.0408.3026.0571.6131.1714.8918.2205.5493.9552.9554 1.4696.8599.7511-.1434 1.3307-.7166 1.3062-1.4013-.0571-1.4651-.5551-2.731-1.7389-3.73421-1.2002-1.01118-2.5554-1.38539-4.0739-1.21819-1.9267.19905-3.731 1.78349-4.2453 3.6466-.049.1831-.0817.3105-.147.629-.049.4618-.049.6927-.049 1.0908.1225.1513.2286.3105.3592.4538.3593.3742.7919.6131 1.3308.5016z"/><path d="m13.9714 21.5358c0-2.2054 0-4.3472 0-6.5208-1.0287.5016-2.0166.6369-2.9636-.0956v6.6085c.9715-.637 1.9512-.6609 2.9636.0079z"/><path d="m88.1841 9.29074c-.7511-.58918-1.5838-1.03505-2.5227-1.08283-1.543-.07962-3.1023-.03981-4.6453-.01592-.596.00796-1.1757.61307-1.2247 1.1943-.0816.95541.5144 1.59241 1.5104 1.60031 1.2491.008 2.4982 0 3.7555 0 .9878 0 1.9839.8281 2.0737 1.7835.0734.7246.1061 1.4571.0734 2.1816-.0653 1.3376-1.0776 2.2055-2.392 2.1657-1.1838-.0398-2.3676-.016-3.5514-.008-.8654.008-1.4859.637-1.4777 1.465.0081.7962.6041 1.3376 1.4858 1.3376.6777.008 1.3634 0 2.0411 0h1.7961c2.1879-.0079 4.131-1.4411 4.7596-3.5351.2939-.9714.2286-1.9666.2286-2.9539-.0081-1.6481-.547-3.0654-1.9104-4.13226z"/><path d="m38.9465 8.23989c-.547-.19904-1.2246-.06369-1.5675.43791-.2122.31848-.3021.76435-.3102 1.14653-.0082.70067-.0082 1.40127-.0163 2.10197-.0082 2.102 0 4.196 0 6.2979v8.3203c0 .215.0081.422.0244.6369.049.8201.9063 1.2501 1.641 1.0988.8409-.1752 1.2328-.6927 1.2328-1.5685 0-4.7055 0-9.419 0-14.1246 0-.9793.0082-1.9666 0-2.9459 0-.6688-.3837-1.17837-1.0042-1.40131z"/><path d="m93.563 8.17586c-.8899-.00796-1.4532.57326-1.4532 1.50482v8.55912 4.2995c0 1.4331 0 2.8663-.0082 4.2994-.0081.9236.6042 1.465 1.4369 1.5048.8409.0399 1.4451-.621 1.4451-1.4888 0-5.7167 0-11.4334 0-17.15014 0-.8997-.596-1.5287-1.4206-1.5287z"/><path d="m72.1167 8.15994c-1.8533.03184-3.2901.80416-4.3188 2.30896-.5552.8121-.8409 1.7118-.8246 2.6912.0082.621.3756 1.0271.9389 1.2818.5715.2548 1.0695.0876 1.5267-.2866s.3919-.9077.4735-1.3854c.2041-1.1863 1.5103-2.0303 2.7023-1.7198.996.2548 1.6736 1.1147 1.6981 2.1577.0164.7246.6695 1.3536 1.4124 1.3695.6613.0239 1.4124-.629 1.4532-1.266.0817-1.25-.3347-2.3726-1.1348-3.3042-.996-1.1704-2.2941-1.86309-3.9269-1.84716z"/><path d="m32.5621 21.9578c-.6858.0716-1.2573.6927-1.2736 1.3854-.0163.7484-.3266 1.3774-.9552 1.7834-.7429.4778-1.5757.4698-2.3594.0876-.7511-.3662-.996-1.051-1.1022-1.8233-.0489-.3423-.1877-.7325-.4163-.9793-.4327-.4698-1.0042-.5971-1.6247-.3264-.6368.2786-.8899.7723-.8572 1.449.0571.3981.0735.8201.1878 1.2023.6286 2.1099 2.7513 3.7979 5.4617 3.551 2.1227-.191 4.1637-1.9347 4.4413-4.0287.0571-.43.1061-.8758.0245-1.2899-.1143-.6608-.8327-1.0828-1.5267-1.0111z"/><path d="m75.7991 21.9578c-.6858-.0239-1.5022.5414-1.494 1.4968.0082 1.0032-.9307 1.9428-1.8859 2.0144-1.5349.1194-2.2696-.7325-2.4901-1.7039-.0979-.4219-.0979-.8997-.3265-1.242-.2939-.4379-.8246-.6609-1.3961-.5414-.5878.1274-1.0858.4379-1.1675 1.0669-.0571.4379-.0489.8997.0572 1.3296.7348 3.0335 3.7228 4.6896 6.7925 3.6386 1.9512-.6688 3.2575-2.4761 3.3065-4.5144-.0082-.8838-.5878-1.5128-1.3961-1.5446z"/><path d="m44.5628 14.4976c.6776-.1672 1.1021-.7086 1.1103-1.4252.0163-1.0988.996-2.0781 2.09-2.086 1.2654-.008 2.2451.8519 2.3104 2.0223.0164.2468.0735.5016.1633.7325.2041.5494 1.0042.9315 1.5675.7803.9226-.2548 1.2491-.8281 1.1593-1.8791-.2367-2.5319-2.588-4.4507-5.0046-4.49051-2.7349-.03981-5.1433 2.18951-5.2168 4.81701.0571.2707.0653.5653.1878.7962.3265.621.9878.8917 1.6328.7325z"/><path d="m51.4853 21.9574c-.6694.0159-1.2083.4459-1.3389 1.0987-.0572.2867-.0571.5813-.1388.852-.3266 1.1147-1.2736 1.6879-2.539 1.5366-1.0205-.1194-1.8206-1.1385-1.8125-2.086.0082-.4936-.2122-.9236-.6694-1.1943-.5143-.3025-1.0205-.3025-1.5349.008-.5225.3184-.7511.7802-.6612 1.3296-.0245 1.1704.4082 2.1577 1.1021 2.9698 1.5593 1.8154 3.7147 2.2692 5.87 1.4969 1.4777-.5255 2.4492-1.6243 2.9636-3.0733.2122-.6051.3755-1.2421.2122-1.895-.1551-.5892-.8082-1.0589-1.4532-1.043z"/><path d="m97.5318 12.1401c-.0164.008-.0409.0239-.0572.0319v14.5226c0 .1593.0163.3185.0245.4777.0572.844.947 1.2501 1.6491 1.0988.8001-.1672 1.2248-.6927 1.2248-1.4889 0-2.2692-.057-4.5383.024-6.7995.049-1.4013-.187-2.6673-.8977-3.9014-.7429-1.2659-1.3226-2.6195-1.9675-3.9412z"/><path d="m24.046 21.4247c1.3307-.5414 1.4777-.5414 2.8411.0558.0081-.0717.0081-.1354.0081-.1991 0-3.9013 0-7.7948 0-11.69612 0-.80416-.6531-1.4252-1.4777-1.41724-.849.00797-1.396.55734-1.396 1.41724v11.53692c0 .0955.0163.199.0245.3025z"/><path d="m33.5731 8.41458c-.4572-.31848-.9716-.35829-1.4614-.11147-.5307.26275-.8246.71658-.8246 1.31373v11.62446.2787c.947-.6131 1.8777-.6529 2.8574-.0239.0082-.1672.0164-.2707.0164-.3742 0-3.8377 0-7.6674 0-11.50506.0081-.50161-.1715-.91563-.5878-1.20226z"/><path d="m64.752 24.1148c-1.0613-2.1497-2.1227-4.2994-3.2003-6.481-.4654.629-.8899 1.258-1.3634 1.8472-.3837.4856-.694.9395-.1796 1.5207.0653.0717.0653.1991.1143.2946 1.0286 2.0781 2.0491 4.1562 3.0941 6.2342.098.1991.2368.3981.4082.5255.5144.3663 1.3634.3185 1.8206-.0557.5144-.422.645-1.0908.3429-1.7278-.3592-.7245-.6858-1.449-1.0368-2.1577z"/><path d="m75.8318 21.0099c-1.7308-2.3965-3.4208-4.7374-5.1516-7.1339-.4571 1.0828-1.2654 1.5526-2.4165 1.5685 1.7471 2.4204 3.4615 4.7851 5.2005 7.1897.4817-1.0033 1.2328-1.5526 2.3676-1.6243z"/><path d="m57.6078 15.071c.2123-.2866.3266-.5812.3266-.9475-.0245-1.5127-.0082-3.0255-.0082-4.5383 0-.82008-.6123-1.40927-1.4287-1.41723-.8409 0-1.4369.55734-1.445 1.38538-.0082 2.96985 0 5.93965 0 9.00495.8817-1.2102 1.7144-2.3567 2.5553-3.4873z"/><path d="m82.1574 20.835c-.792.0319-1.6084.1195-2.3595-.4458-.0163.1274-.0245.1831-.0245.2309 0 2.1178 0 4.2437.0082 6.3616 0 .1194.0082.2388.0408.3503.2286.7166.8083 1.0191 1.4859.9714.8654-.0637 1.3471-.5892 1.3552-1.3456.0082-1.8711-.0081-3.7342.0082-5.6052.0082-.3981-.0817-.5335-.5143-.5176z"/><path d="m18.4043 15.0225v6.4571c.9715-.5971 1.9104-.6051 2.8329.0398 0-2.1975 0-4.3313 0-6.481-1.2164.5732-1.9022.4697-2.8329-.0159z"/><path d="m42.8164 15.0383v6.4413c.9715-.5812 1.9104-.6051 2.8411.0318 0-2.1895 0-4.3313 0-6.5129-.947.5733-1.8859.5494-2.8411.0398z"/><path d="m57.8861 22.459c-.947.5971-1.8614.5971-2.8411.0079 0 1.5686-.0082 3.0654.0082 4.5623 0 .2388.0898.5016.2286.7006.3265.4857 1.0613.7007 1.6165.5255.6694-.215 1.0205-.6688 1.0205-1.3535 0-1.3615 0-2.731 0-4.0925 0-.1035-.0164-.199-.0327-.3503z"/><path d="m82.2555 11.9091c-.8246.0238-1.6573.0477-2.441-.4618v5.2469c.7837-.5733 1.6246-.4538 2.441-.4459.3184 0 .4246-.0796.4246-.3981-.0164-1.1783-.0164-2.3567 0-3.5351 0-.3185-.1143-.414-.4246-.406z"/></g></svg>