<svg fill="none" height="40" viewBox="0 0 120 40" width="120" xmlns="http://www.w3.org/2000/svg" xmlns:xlink="http://www.w3.org/1999/xlink"><clipPath id="a"><path d="m0 0h120v40h-120z"/></clipPath><g clip-path="url(#a)" clip-rule="evenodd" fill="#31373f" fill-rule="evenodd"><path d="m116.699 22.0373 3.343 5.3316-3.811.0034-3.152-5.0063h-.034v5.0063h-3.434v-12.9816h5.126c1.192-.0692 2.372.2714 3.337.9633.433.3697.772.8335.99 1.3547.219.5213.312 1.0855.271 1.648.021.8658-.247 1.7147-.763 2.416-.201.3317-.472.6164-.795.8347-.324.2183-.691.3651-1.078.4299zm-1.139-4.298c-.13-.2139-.319-.3876-.544-.5011-.237-.1176-.491-.1961-.753-.2326-.293-.0415-.589-.0618-.885-.0603h-.333v3.2454h.333c.296.0016.592-.0185.885-.0601.262-.0365.516-.115.753-.2326.226-.1129.414-.2867.544-.501.132-.2572.2-.541.2-.8289s-.068-.5717-.2-.8288zm-15.5823-3.3481h7.5133v2.8744h-4.066v2.0901h4.066v2.9616h-4.066v2.0901h4.066v2.9615h-7.5133zm-49.6744 2.8744h-4.0661v2.0901h4.0661v2.9616h-4.0661v2.0901h4.0661v2.9615h-7.5133v-12.9777h7.5133zm-12.7376 10.1067-3.1521-5.0063h-.0342v5.0063h-3.4341v-12.9816h5.1271c1.1919-.0689 2.371.2716 3.3366.9633.4324.3697.7714.8335.9902 1.3547.2188.5213.3113 1.0855.2702 1.648.0211.8658-.2465 1.7145-.7621 2.416-.253.3379-.5712.6231-.9365.8394s-.7706.3594-1.1922.4211l3.5978 5.3316zm-.6725-9.6319c-.1301-.214-.3186-.3877-.5441-.5011-.2362-.1177-.4905-.1962-.7526-.2326-.2932-.0415-.5892-.0615-.8854-.06h-.3317v3.2451h.3317c.2963.0016.5922-.0185.8854-.0601.2621-.0364.5164-.1148.7526-.2326.2261-.1126.4148-.2865.5441-.501.1319-.2571.2006-.5409.2006-.8289s-.0687-.5718-.2006-.8288zm22.4255-2.8573c.751.3253 1.4276.7963 1.9894 1.3852.5762.6039 1.0295 1.3113 1.3348 2.0835.6377 1.6291.635 3.4337-.0076 5.061-.3094.7695-.7657 1.4736-1.3444 2.0738-.5638.5865-1.2399 1.0572-1.9893 1.3852-.748.3314-1.5594.502-2.3796.4999h-4.4981v-12.9799h4.4981c.8249-.0039 1.6414.163 2.3967.4896zm-3.722 2.367v7.2638h.7115c.4619.0037.9214-.0689 1.359-.2144.4306-.143.8227-.3795 1.1475-.6925.3249-.3129.5738-.6941.7284-1.1149.1928-.515.2863-1.0608.2756-1.6095.0286-.4848-.041-.9703-.2048-1.4284-.1637-.458-.4184-.8795-.7492-1.2397-.3305-.3239-.7256-.5767-1.1604-.7425s-.8996-.241-1.3655-.2208zm21.8421 0h-2.8375v10.1216h-3.4309v-10.1216h-2.838v-2.8578h9.1064zm5.5273 10.1244h-3.4343v-13.0195h3.4343zm3.915-11.19c.5983-.5869 1.3172-1.041 2.1085-1.3315.8595-.3135 1.77-.4694 2.6865-.4601 1.1683-.0285 2.3211.2681 3.326.8557.9767.6105 1.7409 1.5 2.191 2.5496l-3.0177 1.2582c-.197-.5596-.5522-1.0521-1.0237-1.4198-.4654-.3483-1.0372-.5304-1.6216-.5162-.4695-.0071-.9329.1041-1.3467.3226-.3995.2136-.7439.5145-1.0068.8797-.2736.3779-.4821.7977-.6168 1.2425-.2801.9104-.2801 1.8823 0 2.7928.135.4437.3462.8614.6247 1.2346.2698.3608.6198.6561 1.0231.8635.4236.2141.8941.3219 1.3702.3143.6362.0245 1.2612-.1692 1.7683-.5484.2359-.1921.4286-.4308.5655-.7005.1369-.2696.2152-.5644.2298-.8656h-2.5953v-2.4849h6.3105c-.005.8991-.0943 1.7959-.2668 2.6788-.1737.77-.5083 1.4958-.9827 2.1314-.5497.7785-1.2995 1.3996-2.1725 1.7996-.9022.4002-1.8822.6013-2.8717.5892-.8976.0094-1.7893-.1467-2.6287-.46-.7773-.2922-1.4844-.7404-2.0767-1.3158-.5907-.5783-1.0498-1.2735-1.3472-2.0397-.3214-.8321-.4812-1.716-.4708-2.6061-.0115-.9146.1507-1.8234.4781-2.6794.3017-.7814.7662-1.4921 1.3635-2.0862z"/><path d="m16.6924 17.2277c-.0121.3535.0167.749-.5436.9297-.3319.1071-.7397-.3399-.7615-.6515.1659-.2179.3927-.3831.6528-.4754.5212-.1938.6448-.2306.6523.1972zm-9.62581.9297c-.56034-.1813-.53147-.5762-.54356-.9297.00748-.4278.13047-.391.65227-.1966.25994.0922.48691.2575.65254.4753-.02244.3133-.42987.7587-.76182.6516zm12.69271 10.3407c.3429-.1604.6545-.3791.9205-.6459 1.3076-1.3751 1.5621-2.9592 1.7186-4.7927.0408-.4776.032-.9592.0573-1.4493.0034-.0754.0157-.4153.0508-.4148.1026.1112.184.2396.2405.3791.1603.4271.2622.8733.3031 1.3269.1497.8918.1755 1.7994.077 2.6981-.0447.3128-.1502.6143-.3107.8878-.8175 1.3485-1.7211 2.5989-2.5846 3.9259-.0714.1093-.1239-.1009-.1728-.1366l-.0688-.0685c-.1962-.1043-.2722-.1168-.3666-.0533-.0305.0567-.0575.1133-.0862.17-.202.4408-.5668 1.145-.8211 1.6-.0163.0281-.0414.0501-.0717.0626-.0303.0126-.064.0149-.0957.0066-.0318-.0083-.06-.0267-.0801-.0523s-.0309-.0571-.0309-.0894c0-.506.0035-1.0119-.0034-1.5179-.004-.3156.0034-.7009-.4407-.7003-.4332 0-.4465.3728-.4517.6963-.0046.2952 0 .591 0 .9309.0003.0266-.0064.0528-.0199.0758-.0136.023-.0332.042-.0568.055-.0235.013-.0503.0195-.0772.0188-.027-.0007-.0533-.0085-.0762-.0226-.3646-.2704-.7671-.4872-1.1949-.6437-.3407-.1343-.7095-.1839-1.0742-.1444-.3648.0396-.7141.167-1.0169.371l.0933-.0833c.2579-.2307.5681-.3974.9048-.4861.3366-.0887.6898-.0968 1.0303-.0238.1889.0404.3824.0557.5753.0454.0233-.0013.0461-.0079.0663-.0193s.0372-.0274.05-.0466.0207-.0411.0233-.0639-.0002-.0459-.0084-.0674c-.2681-.702-1.1055-3.2749.6163-4.1485.0223-.0107.0415-.0266.0562-.0464.0146-.0197.0243-.0427.0278-.0669.0604-.4726.9346-2.5151-1.4419-3.8477-.3728.3263-.8323 1.0884-1.4186 1.5762 1.0356.2193 1.5821-.3966 2.0832-.8209-.2053 1.1898-1.1459 1.2748-1.8955 1.7071.6455-.2731 1.2879.0974 2.0548-.3015-.5546 1.0459-1.6528.5298-2.3276 1.0816.6472.4119 1.2449.187 1.838.1236.1676-.0224.3379-.0161.5034.0187-.1397.1992-.3016.3824-.4826.5461-.2297.1708-.4898.2977-.7669.374-.2822.0878-.5839.0958-.8705.0232-.848-.2612-1.6804-.5722-2.5077-.8929-.0794-.0374-.1499-.0912-.2064-.1576-.0566-.0665-.0978-.1441-.1214-.2277-.0518-.2652.0102-.549-.0157-.8221-.0317-.1667.0052-.3389.1022-.479.0971-.1401.2466-.2366.4158-.2683.7789-.2129 1.4627-.6769 1.9422-1.3179.1604-.2291.2756-.4859.3399-.757-.0003-.005-.0003-.0101 0-.0152.0016-.25-.0427-.4982-.1307-.7326-.0493-.1865-.0444-.3828.0144-.5666l.0146-.0606c0-.0029 0-.0057 0-.0085h.0033l.1686-.7134c.0558-.2209.1905-.4147.3792-.5461l.0511-.0307c.0202-.0158.0416-.0299.0644-.0419.3167-.163.6483-.2968.9901-.3994.595-.2311 1.1296-.5909 1.5644-1.0528.4349-.4619.7587-1.0141.9478-1.6158.1448-.4051.1804-.8403.1031-1.2629-.1151.2306-.293.6929-.4028.9258-.0658.181-.1914.3349-.3568.4369-.1654.1021-.361.1463-.5551.1257-1.1017.0079-2.1628.1909-2.7658 1.3218-.256.6057-.7216 1.1025-1.314 1.4023-.0101-.3283.0406-.6557.15-.966-.512-.2074-.3101-.5009-.0368-.7932.3722-.3966.748-.7887 1.1427-1.2029-.3329-.0817-.638-.2486-.8843-.4838h2.154c0-.0216.0033-.0425.0056-.0641-.6587-.118-1.2933-.3417-1.8784-.6623 1.0004-.6079 3.0803-.306 3.4312-.4164.0041-.0822-.2876-.1434-.5862-.2391-.6904-.1757-.9499-.2306-1.6385-.4142-.6838-.1828-1.3429-.4459-1.963-.7836h2.8282c-.962-.5386-2.0223-.8851-3.1203-1.0198-.6208-.0391-1.0683-.038-1.4509-.0318l-.0028-.1784v.1784c-.3832-.0062-.8301-.0073-1.4509.0318-1.09823.1347-2.15893.4812-3.12112 1.0198h2.82815c-.62024.3378-1.27951.6008-1.96352.7836-.69036.183-.9479.238-1.63768.4142-.29915.0957-.59028.1569-.58625.2391.35093.1133 2.43054-.191 3.43097.4164-.58486.3206-1.21932.5443-1.87785.6623 0 .0216.0036.0425.0059.0641h2.1537c-.24604.2352-.55071.4021-.88344.4838.39407.4142.7708.8063 1.14244 1.2029.27326.2912.4752.5847-.0368.7932.10966.3102.16086.6376.15084.966-.59267-.2997-1.05848-.7965-1.31463-1.4023-.60233-1.1331-1.66439-1.3145-2.76607-1.3218-.19406.0206-.38938-.0236-.55479-.1257-.16541-.102-.29125-.2559-.35703-.4369-.10931-.2329-.28776-.6947-.40282-.9258-.07744.4227-.04165.8579.10366 1.2629.1889.6018.5129 1.1541.94777 1.616.43486.4619.96957.8217 1.56464 1.0526.34167.1027.67277.2364.98935.3994.02273.012.04447.0261.06461.0419.01668.0097.03386.0193.05112.0307.18873.1314.32337.3252.37922.5461l.16855.7134h.0028c.00029.0028.00029.0056 0 .0085l.01433.0606c.0584.1838.06314.3802.01376.5666-.08781.2345-.13207.4826-.13062.7326.00084.005.00084.0102 0 .0152.06443.2711.18012.5279.34074.757.47905.6411 1.16277 1.1052 1.94157 1.3179.1692.0317.3185.1282.4155.2683.0971.1401.1339.3123.1023.479-.0254.2725.0363.5569-.0155.8221-.0235.0836-.0651.1612-.1216.2277-.0566.0664-.1271.1202-.2065.1576-.8273.3207-1.66022.6317-2.50763.8929-.28658.0728-.58825.0649-.87053-.0226-.27707-.0765-.53718-.2033-.76687-.374-.18094-.1637-.34259-.3469-.48203-.5462.16525-.0348.33538-.0411.50282-.0187.5937.0635 1.1904.2884 1.84105-.1235-.67539-.5518-1.77357-.0357-2.32758-1.0816.76687.3966 1.40936.0283 2.05426.3014-.74788-.4323-1.69017-.5184-1.89555-1.7071.50166.4238 1.04996 1.0403 2.08376.821-.58623-.4878-1.04605-1.2499-1.41941-1.5762-2.37654 1.3326-1.50259 3.3757-1.44161 3.8476.00348.0242.01288.0473.02753.067.01465.0198.03409.0357.05646.0463 1.72185.8737.88355 3.4466.61546 4.1485-.00799.0216-.01074.0447-.00814.0675.00259.0228.01067.0447.02331.064.01264.0191.02947.035.04944.0465s.04237.0183.06545.0198c.19296.0103.38645-.005.5753-.0453.34049-.0731.69371-.065 1.03036.0237.33664.0887.64711.2554.90507.4862l.09354.0833c-.30275-.204-.65168-.3315-1.01631-.371-.36464-.0395-.73362.0101-1.07418.1443-.42808.1563-.83086.3731-1.19553.6437-.02285.0141-.04914.022-.07613.0226-.02698.0007-.0537-.0058-.07725-.0188-.02355-.0129-.04295-.0319-.05646-.055-.01351-.023-.02055-.0492-.02022-.0757 0-.34 0-.6357 0-.9309-.00518-.3241-.0185-.6952-.4517-.6964-.44413 0-.43642.3848-.44102.7003-.0069.506-.0048 1.012-.00365 1.5179-.00004.0324-.01084.0638-.0309.0894-.02006.0257-.0483.044-.08006.0523s-.06521.006-.09551-.0065-.05564-.0346-.07191-.0627c-.2537-.4532-.6183-1.1592-.8208-1.6-.02589-.0566-.05776-.1133-.08652-.17-.09435-.064-.17243-.0515-.3663.0533l-.06911.0685c-.04832.0357-.10114.2459-.17247.1366-.86294-1.3275-1.76797-2.5774-2.58489-3.9259-.160754-.2734-.26627-.5749-.3106808-.8878-.09888897-.8986-.0730752-1.8063.0769678-2.6981.040762-.4536.142917-.8998.303378-1.3269.056141-.1395.137406-.2679.239893-.379.035092 0 .047111.3399.050562.4147.025313.4901.01674.9717.057586 1.4493.15648 1.8335.410654 3.4176 1.718294 4.7927.26596.267.57759.4858.92053.6465.02801.011.05879.0133.0882.0068s.05616-.0216.07669-.0434c.02052-.0217.03373-.0491.0382-.0784.00447-.0294-.00005-.0594-.0132-.0861-.39868-.7995-.829-1.5865-1.15059-2.4154-.32734-.8447-.54665-1.7314-.79805-2.6062-.00764-.0256-.00801-.0527-.00112-.0785.00688-.0258.02074-.0492.04017-.0678.01943-.0185.04385-.0315.07022-.0375.02638-.006.05379-.0047.0795.0036.18639.0634.43613.1637.63288.2385.02588.0097.05398.0121.08118.007.0272-.0052.05238-.0177.07275-.0362.02038-.0184.03497-.0422.04242-.0684.00746-.0263.00742-.0541-.00028-.0803-.2491-.8442-1.05845-3.3139-1.05845-3.3139.0489.0566.52226.7365.55563.7971.38017.6027.71375 1.2326.99806 1.8845.13519.3445.24579.5932.30562.7235.02704.0567.0374.1241-.01208.1655-.67194.5609-.1283 1.6306.15647 1.9637.39342.4659.67672 1.012.82951 1.5989.04027.1202.09275.2918.15028.4726.01216.0324.03544.0596.06602.0766.03057.017.06633.0229.10084.0164s.06555-.0248.08764-.0516c.0221-.0269.03393-.0607.03315-.0952-.05063-.7553-.18593-1.7802-.43906-2.0148-.39004-.3615-.30772-1.6074.1295-1.8295.40673-.2062.49808-.4255.29271-.7774-.01025-.0169-.01684-.0358-.01967-.0553-.00283-.0196-.00165-.0395.00337-.0586.00503-.0191.01374-.0371.02585-.0528.01211-.0158.02733-.029.04466-.0389l1.87083-1.0544c.02698-.0151.04862-.038.0618-.0657.01317-.0276.01729-.0586.01179-.0887-.00549-.03-.02027-.0576-.04241-.079s-.05057-.0355-.08118-.0403c-.64883-.0583-1.29582.1292-1.80931.5241-.10663.0622-.22623.0999-.34973.1103s-.24771-.0069-.36349-.0505c-.11578-.0435-.22007-.1123-.30506-.2012-.085-.0888-.14868-.1955-.18596-.3119-.03954-.0934-.07253-.1894-.09888-.2872-.02186-.0799.05176-.1474.1323-.17.92047-.2266 1.0585-.2731 1.10452-.5479.0033-.0209.00216-.0422-.00365-.0625-.0058-.0204-.01591-.0392-.02977-.0554-.01386-.0161-.03116-.0291-.05057-.0381s-.04063-.0137-.06208-.014c-.32045.0459-.6475.0068-.94749-.1133-.17791-.1786-.294-.4081-.33147-.6555-.00767-.0267-.00732-.0549.00056-.0815s.02308-.0504.04411-.0688c.02102-.0184.04698-.0306.07472-.0352.02773-.0046.05606-.0014.08202.0093.32447.1359.41325.1314.59159-.0034.01618-.0123.02957-.0277.0396-.0453.01004-.0176.01652-.0369.01883-.0569.0023-.0201.00044-.0403-.00534-.0597-.00579-.0193-.01541-.0373-.02837-.0529-.03985-.0499-.0854-.0953-.1354-.1354-.67482-.5184-1.71152-3.3819-1.677-4.2272-.27101.2282-.47328.525-.58541.8583-.71279-.2867-1.256613-.3768-1.155361-1.3666l.789341.4023s.04139-.3009-.38203-.6493c-.907812-.7473-1.045134-1.7411-1.0738989-2.821-.0154172-.1752.0185919-.3512.0985979-.5084s.202759-.2895.354502-.3822.326512-.1421.505069-.1428c.17855-.00075.35397.0473.50647.1388 1.76212.8158 4.19046 1.6374 6.19536 1.3841l.06545-.0136.00646-.0034-.00477.0029c1.24741-.2535 2.51722-.3863 3.79082-.3967h.0107c1.2736.0104 2.5434.1432 3.7908.3967l-.0048-.0029.0059.0034.066.0136c2.0043.2533 4.4298-.5666 6.1948-1.3841.1525-.0917.3278-.13983.5065-.1392.1786.0006.3538.0501.5056.1428.1519.0927.2745.225.3545.3823s.1141.3334.0986.5087c-.0288 1.0799-.1661 2.0742-1.0744 2.821-.4235.3484-.3815.6493-.3815.6493l.7893-.4023c.1013.9898-.4431 1.0799-1.1553 1.3666-.1122-.3333-.3144-.6301-.5854-.8583.0345.8453-1.0017 3.7088-1.6765 4.2272-.0501.0402-.0958.0856-.1359.1354-.0133.0156-.0231.0337-.029.0532-.0058.0195-.0073.04-.0047.0602.0021.0199.0083.0391.0182.0567.0099.0175.023.0329.0391.0452.1783.1349.2665.1394.5921.0034.0259-.0107.0543-.014.082-.0094.0278.0046.0537.0167.0747.0352.0211.0184.0364.0423.0441.069.0078.0266.0079.0548 0 .0814-.0375.2474-.1534.4767-.3309.6556-.3001.12-.6274.1592-.948.1133-.0214.0003-.0424.0052-.0618.0142s-.0367.022-.0506.0381c-.0138.0161-.0239.0349-.0297.0552-.0059.0203-.0072.0416-.004.0625.046.2748.1818.3207 1.104.5479.0805.0198.1541.0878.1323.1699-.0264.0979-.0594.1939-.0989.2873-.0374.1163-.1009.2229-.186.3117-.085.0888-.1893.1575-.305.2011-.1158.0436-.24.0608-.3635.0505s-.2431-.0479-.3497-.1101c-.5135-.3949-1.1605-.5823-1.8093-.524-.0306.0049-.0589.019-.0809.0404-.0221.0214-.0368.0491-.0422.0791-.0054.0301-.0014.061.0118.0886s.0348.0505.0618.0655l1.8708 1.0544c.0173.01.0324.0233.0444.039.0121.0158.0208.0337.0259.0528.005.0191.0061.039.0033.0586-.0027.0195-.0092.0383-.0193.0553-.2054.3524-.1152.5717.2921.7773.4378.2216.5178 1.4681.1301 1.8295-.2532.2346-.3885 1.2601-.4397 2.0148-.0007.0346.0111.0683.0332.0952s.0531.0452.0876.0517c.0345.0064.0703.0006.1009-.0164.0305-.0171.0538-.0442.066-.0767.0575-.1807.11-.3518.1503-.4725.1531-.5868.4364-1.1329.8295-1.5989.2876-.3331.829-1.4028.157-1.9638-.0207-.0221-.0334-.0505-.0357-.0805s.006-.06.0231-.0849c.0575-.1303.1724-.379.3053-.7235.2847-.6518.6185-1.2817.9983-1.8845.034-.0629.5074-.7428.5557-.7972 0 0-.8088 2.4698-1.0579 3.314-.0076.0261-.0077.0538-.0003.08s.0221.0499.0424.0683c.0203.0185.0454.031.0725.0362s.055.003.0809-.0066c.1968-.0748.4465-.1751.6329-.2386.0257-.0085.0533-.0099.0798-.004.0264.0059.0507.0189.0702.0375s.0333.0421.0402.068c.0068.0259.0064.0531-.0015.0787-.2514.8737-.4701 1.7604-.798 2.6063-.3222.8284-.7525 1.6159-1.1506 2.4153-.0135.0267-.0184.0569-.014.0864.0043.0295.0178.057.0384.0789.0207.0218.0474.0369.077.0434.0296.0064.0605.0038.0885-.0075zm-12.2958-6.5242-.08202.0414c.02992-.0142.05785-.0272.08259-.0414zm-3.37676-10.7894c.15572.0378.30535.0721.44917.1031-.14689-.0449-.29672-.0793-.4486-.1031zm-.19635.2108c-2.07738-.1604-1.69234 1.3484-1.28963 2.2448l.3354.5467c.01982.0219.03594.0468.04775.0737 0 .0051.00446.0102.00618.0153.51777 1.2028.94807 3.7609 3.44025 4.7417-.0955-.0544-.19049-.1146-.28484-.1807-.71869-.5995-1.30683-1.3359-1.72925-2.1649-1.11262-2.2046-.82101-3.5871-.9562-4.1361.21516.0736.97797.2346 1.12755.2867.01438-.034-1.33871-.6119-1.72588-.8125.1714-.1053.36385-.1735.56406-.2.87789-.0895 1.20805.1847 1.77644.2646.38026.0336.76338.0041 1.13373-.0873zm11.86041 10.5792c.0247.0141.0529.0277.0823.0413zm2.9281-10.6863c.1438-.0317.293-.0663.4495-.1031-.1521.0235-.3024.0578-.4495.1025zm1.5453 2.9887c0-.0051.0047-.0102.007-.0153.0117-.027.0278-.0518.0478-.0736l.3348-.5468c.4027-.8963.7874-2.4051-1.2894-2.2448l-2.4472.5909c.3703.0914.7535.1209 1.1337.0873.5684-.0805.8989-.3541 1.7768-.2646.2001.0266.3923.0947.5637.2-.386.2006-1.7391.7785-1.7259.8125.1513-.0516.913-.2131 1.1276-.2867-.1358.5518.1559 1.9337-.9568 4.1361-.4223.829-1.0104 1.5654-1.7292 2.1649-.0944.0662-.1894.1263-.2849.1807 2.4939-.9825 2.9242-3.5378 3.442-4.7412zm-8.6224 7.833c-.2986 0-.6215 0-1.0357-.0074-.3764.0056-.74971-.0653-1.09693-.2085-.09507-.0654-.16905-.1564-.21293-.2621s-.05589-.2217-.03455-.3339c.02128-.3088.42922-.5269.42922-.5269-.01496.7224.62139.9161 1.94979.9275h.0121c1.3283-.0119 1.9644-.2051 1.9494-.9275 0 0 .4074.2181.4287.5269.0212.1123.0091.2282-.0348.334-.044.1057-.1181.1967-.2132.262-.3473.1432-.7206.2142-1.097.2085-.4125.0074-.7354.0097-1.0357.0074l-.0056-.0323zm.0056 7.7389c.0391.953-1.62329 1.0352-3.02758.2068-.07939-.2946.0746-.8017-.0882-.9127-.2422-.1649-.62773.0527-.87165.2057-.24393.1529-.40255.447-.64187.6306.10355-1.4731 1.59462-2.8092 3.8872-2.9349.2514-.0136.5062-.0301.7427-.0289.2364.0011.4913.0153.7427.0289 2.292.1252 3.7839 1.4629 3.8874 2.9349-.2416-.1836-.397-.4771-.6421-.6306-.2451-.1536-.63-.37-.8717-.2057-.1628.1133-.0091.6181-.0879.9127-1.4054.8284-3.0681.7462-3.029-.2068z"/></g></svg>