<svg fill="none" height="40" viewBox="0 0 120 40" width="120" xmlns="http://www.w3.org/2000/svg"><g fill="#31373f"><path d="m46.6745 21.8025c0 1.0592.8387 1.8651 1.8637 1.8651.2329 0 .4659-.046 1.0017-.2533l.792 1.9112c-.7687.2993-1.2579.3914-1.7937.3914-2.1898 0-3.9835-1.75-3.9835-3.9375v-12.7335h2.1198v3.2007h3.6574v2.0723h-3.6574z"/><path d="m51.7305 21.8027v-6.4013c0-2.1875 1.7937-3.9375 3.9834-3.9375 2.1898 0 3.9835 1.75 3.9835 3.9375v6.4013c0 2.1875-1.7937 3.9375-3.9835 3.9375-2.1897 0-3.9834-1.75-3.9834-3.9375zm4.0067-8.2665c-1.0016 0-1.8636.852-1.8636 1.8652v6.4013c0 1.0131.862 1.8651 1.8636 1.8651 1.025 0 1.8637-.8289 1.8637-1.8651v-6.4013c0-1.0362-.8387-1.8652-1.8637-1.8652z"/><path d="m71.7178 14.9869c0-.7829-.6522-1.4507-1.4676-1.4507-.792 0-1.4676.6678-1.4676 1.4507v10.477h-2.0965v-10.477c0-.7829-.6523-1.4507-1.4676-1.4507-.7921 0-1.4676.6678-1.4676 1.4507v10.477h-2.0966v-10.477c0-1.9572 1.5841-3.523 3.5642-3.523.9784 0 1.8636.3684 2.5158 1.0131.629-.6447 1.5142-1.0131 2.4926-1.0131 2.0034 0 3.5875 1.5658 3.5875 3.523v10.477h-2.1199z"/><path d="m85.1362 15.4011c0-1.0132-.8387-1.8421-1.8637-1.8421-1.0016 0-1.8636.8289-1.8636 1.8421v10.0625h-2.1198v-19.01975h2.1198v5.48025c.5591-.2993 1.1881-.4835 1.8636-.4835 2.1898 0 3.9835 1.75 3.9835 3.9375v10.0625h-2.1198z"/><path d="m89.1191 21.8027v-6.4013c0-2.1875 1.7938-3.9375 3.9835-3.9375 2.1898 0 3.9835 1.75 3.9835 3.9375v6.4013c0 2.1875-1.7937 3.9375-3.9835 3.9375-2.1897 0-3.9835-1.75-3.9835-3.9375zm4.0068-8.2665c-1.0017 0-1.8636.852-1.8636 1.8652v6.4013c0 1.0131.8619 1.8651 1.8636 1.8651 1.025 0 1.8636-.8289 1.8636-1.8651v-6.4013c0-1.0362-.8386-1.8652-1.8636-1.8652z"/><path d="m102.98 13.5362c-1.002 0-1.864.852-1.864 1.8652v10.0625h-2.0965v-10.0625c0-2.1875 1.7705-3.9375 3.9605-3.9375 1.397 0 2.702.7138 3.564 2.1644l-1.794 1.0593c-.512-.806-1.095-1.1514-1.77-1.1514z"/><path d="m112.904 15.4014c0-1.0132-.862-1.8652-1.864-1.8652-1.025 0-1.863.829-1.863 1.8652v10.0625h-2.12v-10.0625c0-2.1875 1.793-3.9375 3.983-3.9375s3.96 1.75 3.96 3.9375v10.0625h-2.096z"/><path d="m62.2129 33.7996v-3.6382c0-.852.6988-1.5427 1.5608-1.5427.6289 0 1.188.3684 1.4676 1.0361l-.6756.2994c-.1631-.3915-.4659-.5757-.792-.5757-.4426 0-.8154.3684-.8154.8059v3.6382c0 .4375.3728.8059.8154.8059s.8153-.3684.8153-.8059v-.7829h-1.1881v-.7368h1.9103v1.5197c0 .852-.6989 1.5428-1.5608 1.5428-.8387-.0461-1.5375-.7139-1.5375-1.5658z"/><path d="m70.9952 33.1779h-1.6306v2.0493h-.7455v-5.0658c0-.852.6989-1.5427 1.5608-1.5427s1.5608.6907 1.5608 1.5427v5.0658h-.7455zm-.8153-3.7994c-.4426 0-.8153.3684-.8153.8059v2.2796h1.6306v-2.2796c0-.4605-.3727-.8059-.8153-.8059z"/><path d="m78.3789 30.921-1.0482 2.9243h-.3961l-1.0249-2.9243v4.3289h-.7222v-6.5395h.7222l1.2346 3.5 1.2114-3.5h.7454v6.5395h-.7222z"/><path d="m83.8314 28.7104h-.7455v6.5395h.7455z"/><path d="m88.4896 30.8519v4.398h-.7455v-6.5395h.7222l1.6539 4.3981v-4.3981h.7222v6.5395h-.7222z"/><path d="m94.2441 33.7996v-3.6382c0-.852.6989-1.5427 1.5608-1.5427.629 0 1.1881.3684 1.4676 1.0361l-.6755.2994c-.1631-.3915-.466-.5757-.7921-.5757-.4426 0-.8153.3684-.8153.8059v3.6382c0 .4375.3727.8059.8153.8059s.8153-.3684.8153-.8059v-.7829h-1.188v-.7368h1.9102v1.5197c0 .852-.6989 1.5428-1.5608 1.5428-.8386-.0461-1.5375-.7139-1.5375-1.5658z"/><path d="m35.3313 7.25c.9784 1.08224.9551 2.74013-.0932 3.7763-1.0716 1.0362-2.7722 1.0592-3.8437.0461 2.213 2.2105 3.4942 5.2039 3.4942 8.4276 0 6.6316-5.4743 12.0428-12.1834 12.0428-4.3329 0-8.3163-2.3027-10.4828-5.8948-.6756-1.1283-2.05-1.6348-3.28462-1.1973l-.06989.023c-1.58407.5756-2.28293 2.4177-1.42101 3.8684 3.12152 5.273 8.92202 8.6579 15.25832 8.6579 9.7607 0 17.7044-7.852 17.7044-17.5 0-4.6974-1.8636-9.0493-5.0783-12.25z"/><path d="m36.0525 8.90789v-.02302c0-.06908-.0233-.16119-.0233-.23027 0 0 0 0 0-.02302-.0233-.09211-.0233-.16119-.0466-.23027-.1164-.41447-.3261-.80592-.6289-1.12828-.0233-.02303-.0466-.06908-.0932-.09211-3.3545-3.36184-7.8039-5.18092-12.5561-5.18092-9.7607 0-17.7044 7.85197-17.7044 17.5 0 3.1546.83863 6.148 2.35282 8.75-.76875-1.4276-.06989-3.2007 1.49089-3.7533l.06989-.023c1.2346-.4375 2.5858.0691 3.2846 1.1743-1.0716-1.8191-1.6772-3.9145-1.6772-6.125 0-6.6316 5.4743-12.04274 12.1834-12.04274 3.2613 0 6.3363 1.26645 8.6425 3.54604.0233.023.0466.0461.0699.0461.4659.4375 1.0716.6908 1.6772.7368h.0233.2563.0233c.0699 0 .163 0 .2329-.023h.0466c.0699 0 .1398-.023.2097-.023.0233 0 .0466 0 .0699-.0231.0698-.023.1164-.023.1863-.046.0233 0 .0466-.023.0932-.023.0466-.0231.1165-.0461.1631-.0461.0465-.023.0698-.023.0931-.0461.0466-.023.0932-.046.1398-.069.0466-.0231.0699-.0461.1165-.0691s.0699-.0461.1165-.0691.0931-.0691.1397-.0921c.0233-.023.0466-.046.0932-.0691.0699-.0691.1398-.1151.2097-.1842s.1397-.1381.1863-.2072c.0233-.023.0466-.0461.0699-.0691.0466-.0461.0699-.0921.0932-.1382.0233-.046.0466-.069.0699-.1151.0233-.046.0466-.0691.0699-.1151.0233-.0461.0466-.0921.0699-.1382.0233-.046.0465-.0691.0465-.1151.0233-.0461.0466-.0921.0466-.13817 0-.02303.0233-.06908.0233-.09211.0233-.04605.0233-.11513.0466-.16118 0-.02303.0233-.04605.0233-.06908.0233-.06908.0233-.11513.0233-.18421 0-.02302 0-.04605 0-.06908 0-.06908.0233-.13816.0233-.20723 0-.02303 0-.02303 0-.04606-.0466-.0921-.0466-.18421-.0466-.25329z"/></g></svg>