<svg fill="none" height="40" viewBox="0 0 120 40" width="120" xmlns="http://www.w3.org/2000/svg"><path d="m14.6658 8.64511-4.6658 27.35489h27.366l4.6658-27.35489z" fill="#f05e22"/><path d="m32.7006 32.1875c-.7611-1.9396-1.5222-3.8792-2.2833-5.8188-.1323-.3344-.2647-.4013-.6287-.4013-2.8789 0-5.7909 0-8.6697 0-.3309 0-.4964.1003-.6949.3679-1.3568 1.8727-2.7466 3.7454-4.1364 5.6181-.1985.2675-.3971.4013-.728.4013-.9927-.0335-2.0185 0-3.1436 0 5.2283-7.0227 10.3905-13.9784 15.5857-21.0011.4302 1.0701.7942 2.0399 1.1913 3.0097 1.4891 3.8123 3.0112 7.6246 4.5003 11.4369.0331.0669.0662.1003.0993.1672-.3309 2.0399-.6618 4.1467-1.092 6.2201zm-5.7578-14.6807c-1.3236 1.8058-2.5811 3.5113-3.9047 5.2837h5.9563c-.6618-1.7389-1.3567-3.4779-2.0516-5.2837z" fill="#fdfdfd"/><path d="m65.0634 5h-24.818-2.8789l-4.7981 27.3215h.1323v.0668h27.4984z" fill="#0193bf"/><path d="m53.6469 22.3226c-.728 0-1.456 0-2.184 0-.9597 0-1.9193 0-2.8789 0-.2978 0-.4302-.0669-.364-.4013.1654-.8026.2978-1.6052.4302-2.3743.0331-.2341.0992-.3344.364-.3344h8.3719c.3309 0 .364.1003.2978.4013-.1654.836-.2978 1.6386-.4302 2.4746-.0331.2007-.0992.3679-.1985.5351-2.1178 3.4444-5.096 5.6181-9.133 6.0863-4.4673.535-8.1072-1.9396-9.1-5.986-.6618-2.6753-.1654-5.2168 1.1913-7.5577 1.9193-3.3107 4.732-5.45091 8.5043-6.15318 2.7465-.50162 5.2945 0 7.4785 1.93958 1.1913 1.0701 1.9193 2.4412 2.3494 3.9795.0993.3344 0 .4013-.3309.4013-.8934-.0334-1.7869 0-2.6803 0-.1655 0-.3309 0-.4302-.2006-1.1913-2.6753-4.2025-3.7789-7.0483-2.876-3.4414 1.0701-5.6254 3.411-6.1218 7.0561-.4963 3.6451 2.1178 6.4542 5.7578 6.3538 2.5811-.1003 4.5665-1.3042 6.1549-3.3441z" fill="#fdfdfd"/><g fill="#000"><path d="m73.2032 21.1192-.2316-1.5717h-3.4083l-.7942 1.5717h-1.8531l4.5334-8.6612h2.0847l1.5222 8.6612zm-2.8127-3.1434h2.3826l-.5295-3.6117z"/><path d="m75.5859 19.7829 1.4229-.7023c.1655.5351.5626.8026 1.1913.8026.5295 0 .8273-.1672.8934-.4681.0331-.3345-.4301-.5351-1.0258-.7023-.8603-.2341-1.9854-.6688-1.7538-2.0734.0993-.5685.3971-1.0366.8604-1.3376.4633-.3344 1.0258-.4682 1.6214-.4682 1.0589 0 1.8862.4682 2.2833 1.3042l-1.4229.7023c-.1324-.4013-.4633-.6354-.9265-.6354-.4633 0-.7611.1672-.8273.5351-.0662.3678.3971.5685.9927.7357.8935.2006 2.0185.6019 1.7538 2.0399-.1985 1.2039-1.2243 1.8058-2.5811 1.8058-1.2574-.0334-2.0847-.535-2.4818-1.5383z"/><path d="m81.4766 21.1206 1.092-6.1866h1.5883l-1.092 6.1866zm2.3163-8.8953c.5295 0 .8935.4682.8273 1.0032-.0993.5351-.5957.9698-1.1251.9698-.5295 0-.8935-.4347-.7942-.9698.0662-.5685.5626-1.0032 1.092-1.0032z"/><path d="m90.2449 14.9339h1.5883l-1.0919 6.1866h-1.5884l.0993-.5685c-.5295.5016-1.2244.7357-2.0186.7357-.9265 0-1.5883-.3344-2.0516-1.0367-.4633-.7022-.5956-1.4714-.4302-2.3743.1655-.8695.5626-1.6052 1.1913-2.2071.6287-.602 1.3898-.9029 2.2833-.9029.8603 0 1.489.3344 1.8861 1.0032zm-.5625 3.2103.033-.2006c.1324-1.0033-.4963-1.6386-1.4229-1.6386-.9596 0-1.7869.6688-1.9523 1.7389-.1986 1.0367.3971 1.7724 1.3898 1.7724.9265-.0335 1.7538-.7023 1.9524-1.6721z"/><path d="m74.196 27.271-.0993.6689c-.1985 1.2707-.7611 2.274-1.6545 3.0431-.8935.7692-1.9854 1.137-3.2429 1.137-1.3236 0-2.3494-.4347-3.0774-1.3376-.728-.903-.9927-2.0065-.7611-3.2773.1985-1.2707.7942-2.3074 1.7538-3.1434.9596-.8361 2.0847-1.2374 3.3422-1.2374 1.6876 0 2.945.7692 3.5737 2.1068l-1.5552.8026c-.4302-.836-1.1582-1.2708-2.184-1.2708-.8273 0-1.5553.2676-2.1509.8026-.5956.5351-.9596 1.2039-1.092 2.0399-.1323.8361 0 1.5383.3971 2.04.4302.535 1.0589.8026 1.9193.8026 1.4229 0 2.3494-.5351 2.8127-1.6387h-2.5149l.2647-1.5048h4.2687z"/><path d="m80.2507 25.7335h1.5884l-1.092 6.1866h-1.5883l.0992-.5685c-.5294.5017-1.2243.7357-2.0185.7357-.9265 0-1.5884-.3344-2.0516-1.0366-.4633-.7023-.5957-1.4714-.4302-2.3744.1655-.8694.5625-1.6051 1.1913-2.2071.6287-.6019 1.3898-.9029 2.2832-.9029.8604 0 1.4891.3344 1.8862 1.0033zm-.5625 3.2104.0331-.2007c.1324-1.0032-.4964-1.6386-1.4229-1.6386-.9596 0-1.7869.6688-1.9523 1.739-.1986 1.0366.397 1.7723 1.3898 1.7723.9265-.0334 1.7538-.7022 1.9523-1.672z"/><path d="m91.6009 26.2686c.364.4682.4963 1.1035.364 1.8392l-.6618 3.8123h-1.5884l.6287-3.7119c.1324-.7357-.1654-1.1705-.8272-1.1705-.6949 0-1.1251.4013-1.3568 1.1705l-.6287 3.7119h-1.5883l.6287-3.7119c.1324-.7357-.1655-1.1705-.7942-1.1705-.728 0-1.2574.4682-1.3898 1.3711l-.5956 3.5113h-1.5884l1.092-6.1866h1.5884l-.0993.6354c.4633-.5351 1.0589-.8026 1.7869-.8026.7611 0 1.2574.301 1.5553.9364.4963-.6354 1.1581-.9364 1.9523-.9364.6287 0 1.1582.2341 1.5222.7023z"/><path d="m92.5938 31.9202 1.0919-6.1866h1.5884l-1.092 6.1866zm2.3494-8.8953c.5294 0 .8934.4681.8273 1.0032-.0993.5351-.5957.9698-1.1251.9698-.5295 0-.8935-.4347-.7942-.9698.0331-.5685.5294-1.0032 1.092-1.0032z"/><path d="m101.661 26.2686c.364.4682.496 1.1035.364 1.8727l-.662 3.8123h-1.5881l.6291-3.6117c.132-.836-.265-1.2707-.9931-1.2707-.7611 0-1.3567.4347-1.5884 1.3376l-.6287 3.5448h-1.5883l1.092-6.2201h1.5883l-.1324.6688c.4633-.5685 1.1251-.836 1.8866-.836.728 0 1.224.2341 1.621.7023z"/><path d="m108.445 25.7338h1.555l-1.025 5.8856c-.331 2.0065-1.721 2.9429-3.541 2.9429-1.357 0-2.35-.5351-2.813-1.5049l1.423-.7357c.265.5685.761.836 1.522.836 1.026 0 1.721-.535 1.886-1.5383l.1-.535c-.53.535-1.225.8026-2.019.8026-.926 0-1.654-.3344-2.085-.9698-.463-.6688-.628-1.438-.463-2.3409.132-.836.53-1.5717 1.125-2.1402.629-.602 1.357-.903 2.25-.903.927 0 1.589.3679 1.986 1.0702zm-.529 3.0766.033-.1338c.132-.9698-.497-1.6052-1.456-1.6052-.464 0-.927.1338-1.291.4682-.364.301-.595.7023-.695 1.2039-.099.4682 0 .9029.298 1.2039.265.301.662.4682 1.158.4682.927 0 1.754-.6689 1.953-1.6052z"/></g></svg>