<svg fill="none" height="40" viewBox="0 0 120 40" width="120" xmlns="http://www.w3.org/2000/svg"><path d="m99.0655 3h-78.1182v34h78.1182z" fill="#1a212a"/><path d="m21.1493 16.1509c.7405.7405 1.4811 1.4729 2.2176 2.2175.5099.5168 1.0117 1.0457 1.469 1.5137-.8053.8382-1.6268 1.7008-2.4605 2.5552-.4046.4151-.8174.822-1.2261 1.2329-.3764.3662-.7527.7324-1.1493 1.119 0-3.2592 0-6.49 0-9.7614.3966.3866.7729.7569 1.1493 1.1231z" fill="#f8e107"/><path d="m98.8793 23.711c-.522-.5249-1.0481-1.0538-1.5701-1.5747-.7082-.7039-1.4124-1.4078-2.1246-2.1077-.0931-.0895-.0971-.1342 0-.2278 1.2059-1.1882 2.4038-2.3844 3.6057-3.5766.0323-.0326.0607-.0692.093-.1058.3642-.354.7285-.708 1.1167-1.0864v9.7736c-.3923-.3866-.7565-.7406-1.1207-1.0946z" fill="#f8e107"/><path d="m27.5275 26.6893c0-2.0142 0-4.0283-.0041-6.0424 0-.1546.0365-.1994.1943-.1994 2.4604.0041 4.9249.0041 7.3853 0 .1295 0 .2023.0326.2711.1506.3925.6957.5625 1.4363.5585 2.2338-.0081 1.9205.004 3.837.0081 5.7575 0 .4842-.0567.9603-.2064 1.4201-.4816 1.5055-1.9627 2.9337-3.9092 2.9378-1.3678.004-2.7396-.0041-4.1074.004-.1659 0-.1943-.0488-.1943-.2034.0081-2.0141.0081-4.0364.0041-6.0586zm2.8044-.9766h-.0041c0 1.4038.0041 2.8076-.004 4.2114 0 .1464.0283.1993.1861.1912.3521-.0122.7001-.0041 1.0522-.0041.1699 0 .3359.0122.5018-.0366.6394-.179 1.044-.7243 1.0481-1.4201.004-1.0457.004-2.0873.0081-3.133 0-.9033.0081-1.8026.004-2.7059-.004-.8992-.5908-1.4892-1.4811-1.4892-.3723 0-.7405.0081-1.1128-.0041-.1579-.004-.2024.0367-.2024.1994.0081 1.3997.0041 2.7954.0041 4.191z" fill="#fdfdfd"/><path d="m27.5275 13.1152c0-2.0141.004-4.02821-.0041-6.04233 0-.17089.0405-.20751.2064-.20751 1.2424.00813 2.4807.00407 3.723.00407 2.08.00406 3.8282 1.49736 4.1641 3.56437.0445.2686.0445.5412.0445.8097 0 1.9206.0041 3.837.0081 5.7576 0 .7934-.178 1.5421-.5908 2.2257-.0647.1058-.1295.1465-.2549.1465-2.3755-.0041-4.7469-.0041-7.1223.004-.174 0-.174-.0691-.174-.1994 0-2.0222 0-4.0445 0-6.0627zm2.776.9969c.0041 0 .0041 0 0 0 .0041 1.3916.0081 2.7791-.004 4.1707 0 .1872.0486.2278.2226.2197.2671-.0163.5382-.0041.8093-.0041.9065 0 1.4973-.59 1.4973-1.4973 0-.6389-.004-1.2736-.004-1.9124 0-1.2817-.0081-2.5635-.0041-3.8452.0041-.9114-.5422-1.43631-1.1938-1.51768-.3723-.04883-.7527-.00814-1.1331-.02442-.1578-.00814-.2023.03662-.2023.19938.0162 1.40782.0121 2.80752.0121 4.21132z" fill="#fdfdfd"/><g fill="#f8e107"><path d="m75.5327 24.8626c0 1.3509.0162 2.6977-.0041 4.0486-.0283 2.1606-2.0274 4.313-4.6173 4.0201-2.1973-.2482-3.7553-2.0386-3.7472-4.2602.0121-2.6733.0081-5.3425.004-8.0158 0-.1953.0486-.2441.2428-.2441.777.0122 1.5499.0122 2.3269 0 .17-.0041.2104.0447.2104.2115-.0081 2.6652-.0081 5.3303-.0081 7.9955 0 .7405.3926 1.2776 1.0522 1.4567.8053.2156 1.6672-.3784 1.7482-1.2126.0081-.0936.0081-.1912.0081-.2848 0-2.6448.004-5.2896 0-7.9344 0-.1872.0485-.236.2347-.2319.781.0122 1.566.0081 2.3471 0 .174-.0041.2266.0366.2266.2197-.0081 1.4119-.0041 2.8197-.0041 4.2317-.0081 0-.0121 0-.0202 0z"/><path d="m67.1901 14.971c0-1.3428-.0162-2.6855.004-4.0283.0284-1.90422 1.4852-3.62538 3.3426-3.99158 2.1812-.43131 4.2653.8382 4.8804 2.97845.1214.42313.1578.86263.1538 1.30613-.0081 1.6276-.0081 3.2551-.0081 4.8827 0 1.005-.0081 2.006 0 3.011 0 .1872-.0567.2198-.2267.2198-.7891-.0082-1.5782-.0082-2.3673 0-.1699 0-.2104-.0448-.2104-.2116.0081-2.6245.0081-5.249.0121-7.8734 0-.4924-.1254-.9318-.522-1.2451-.4532-.35808-.9591-.42725-1.4811-.17497-.5382.26037-.8134.71617-.8134 1.32237-.004 1.4038-.004 2.8076-.004 4.2114 0 1.2532-.0041 2.5105.004 3.7637 0 .1709-.0445.2116-.2104.2116-.781-.0081-1.5661-.0122-2.3471 0-.1902.0041-.2186-.061-.2145-.2319.0081-1.3834.004-2.7669.004-4.1503z"/><path d="m59.6338 20.415h.2388c1.3961 0 2.7922.004 4.1883-.0041.1376 0 .2226.0407.3035.1465.5949.7893.9429 1.6804 1.0927 2.6529.1861 1.2003.0607 2.4088.085 3.6132.0121.6714.0242 1.3428-.0122 2.0141-.0971 1.7822-.9712 3.0883-2.5859 3.7801-2.4685 1.062-5.0341-.4395-5.6533-2.7913-.0971-.3703-.1416-.7446-.1335-1.1271.0081-.6022.0081-1.2085.004-1.8107 0-.1424.0365-.1831.1781-.179.8174.0081 1.6308.0081 2.4483 0 .1618 0 .1861.0529.178.1953-.0202.5615-.0364 1.123-.0404 1.6886-.0041.5493.1821 1.0091.6677 1.3102.9024.5574 2.1164-.057 2.1407-1.123.0283-1.355.0769-2.714-.0405-4.0649-.1052-1.2532-.6434-2.3071-1.6268-3.1127-.4653-.3744-.9226-.7609-1.4325-1.1881z"/><path d="m63.0247 19.3124c-.0809.0529-.1497.0326-.2104.0326-1.384 0-2.764 0-4.1479.004-.1417 0-.2348-.0447-.3197-.1587-.5868-.7975-.9105-1.6967-1.0603-2.6692-.1335-.8504-.0728-1.7049-.0769-2.5553-.004-1.0375-.0162-2.0751.0243-3.1127.0729-1.87578 1.5175-3.53997 3.3426-3.90211 2.1488-.42723 4.2167.80972 4.852 2.90522.1255.41499.1781.84629.1741 1.28169-.0081.5982-.0122 1.1922-.0081 1.7904 0 .1261-.0243.1749-.166.1749-.8295-.0081-1.6591-.0041-2.4887 0-.1254 0-.1578-.0366-.1578-.1587.004-.6388.0162-1.2735-.0041-1.9124-.0242-.7446-.6029-1.30609-1.3232-1.32237-.7487-.01628-1.3962.52897-1.4326 1.28167-.0405.8382-.0243 1.6805-.0324 2.5228-.004.5818-.0242 1.1637.0648 1.7456.1821 1.245.7648 2.2501 1.7401 3.0354.4168.3255.8174.6713 1.2302 1.0172z"/></g><path d="m37.9555 26.6648c0-2.0141.004-4.0282-.0041-6.0423 0-.1709.0446-.2116.2105-.2116 2.2945.0041 4.5849.0041 6.8794 0 .174 0 .2185.0488.2023.2156-.0161.175-.0161.354-.004.529.0121.1465-.0405.179-.1821.175-1.3638-.0082-2.7235 0-4.0872-.0082-.1659 0-.2145.0367-.2145.2075.0041 2.7873.0041 5.5745-.004 8.3617 0 .1709.0323.2238.2145.2238 1.3637-.0041 2.7234.0081 4.0871.0041.166 0 .1983.0488.1983.2034-.0162.826-.0242 1.6561-.0283 2.4821 0 .1098-.0243.1505-.1416.1505-2.3269-.004-4.6538-.0081-6.9806 0-.1821 0-.1498-.1017-.1498-.2034 0-2.0304 0-4.0608.0041-6.0872-.0041 0 0 0 0 0z" fill="#fdfdfd"/><path d="m77.44 13.091c0-2.0019.0041-3.99972-.004-6.00164 0-.17496.0323-.22786.2185-.22379 2.3107.00814 4.6254.00407 6.9361 0 .1659 0 .2144.03662.2104.20752-.0122.81378-.0122 1.62757-.0041 2.44136 0 .17089-.0566.1953-.2063.1953-1.3759-.00406-2.7518.00407-4.1277-.00406-.174 0-.2064.04882-.2064.21565.0041 2.78726.0041 5.57446-.004 8.35756 0 .1791.0404.2238.2226.2238 1.3677-.0081 2.7355-.0041 4.1074-.0122.1659 0 .2266.0407.2104.2116-.0162.1546-.0121.3133 0 .4679.0121.1465-.0405.1791-.1821.1791-.9105-.0041-1.821-.0041-2.7315-.0041-1.4043 0-2.8044-.0041-4.2086.0041-.1902 0-.2469-.0367-.2469-.2401.0081-2.006.0041-4.012.0041-6.022.0121.004.0121.004.0121.004z" fill="#f8e107"/><path d="m37.9594 13.103c0-2.006 0-4.01601-.004-6.02199 0-.15869.0242-.21565.2023-.21565 2.2945.00813 4.5849.00813 6.8794.00407.17 0 .1943.05696.1902.20344-.0081.81379-.0081 1.62758-.004 2.44136 0 .15869-.0364.20345-.1983.19938-1.3637-.00814-2.7234-.00407-4.0872-.00814-.1538 0-.2023.03255-.2023.19531.004 2.79942.004 5.59882-.0041 8.40232 0 .1709.0526.1953.2064.1953 1.3678-.004 2.7396 0 4.1074-.0081.17 0 .2347.0448.2064.2116-.0081.0651-.004.1343-.004.2034-.0041.4354-.0041.4354-.4452.4354-2.2135 0-4.423-.0041-6.6366.0041-.1902 0-.2185-.057-.2185-.2279.004-2.006.004-4.016.004-6.022.0041.0081.0081.0081.0081.0081z" fill="#fdfdfd"/><path d="m91.461 14.5394c0 1.534-.004 3.064.0041 4.5979 0 .1709-.0445.2157-.2145.2116-.8012-.0081-1.6065-.0081-2.4078 0-.17.0041-.2104-.0447-.2104-.2116.004-3.0639.004-6.1278.0121-9.19168 0-.19938-.0526-.24414-.2428-.24007-.7972.01221-1.5904.00407-2.3876.00814-.1416 0-.1821-.03662-.1821-.17903.0081-.83413.0122-1.66826.0041-2.5024 0-.13834.0445-.16275.1699-.16275 2.6102.00407 5.2203.00407 7.8264 0 .1376 0 .166.04069.166.17089-.0081.83413-.0122 1.66826-.0081 2.5024 0 .13427-.0365.17089-.17.17089-.7203-.00407-1.4447.00407-2.165-.00407-.1578 0-.2024.03662-.2024.19938.0122 1.5421.0122 3.0883.0081 4.6304z" fill="#f8e107"/><path d="m52.7943 14.5192c0 1.538-.004 3.0761.0041 4.6141 0 .1669-.0405.2157-.2105.2116-.7972-.0081-1.5903-.0122-2.3875 0-.1862.0041-.2145-.0569-.2145-.2278.0081-3.0639.004-6.1278.0121-9.19174 0-.1709-.0283-.22786-.2145-.2238-.8093.01221-1.6186.00407-2.428.00814-.1295 0-.17-.03255-.17-.16682.0081-.83413.0122-1.66827.0041-2.5024 0-.14648.0486-.17496.1821-.17496 2.5899.00407 5.1758 0 7.7657-.00407.1416 0 .1983.01628.1942.1831-.0121.82193-.0162 1.63978-.0121 2.46171 0 .15868-.0445.20344-.2064.19937-.7082-.00813-1.4164.00407-2.1245-.00407-.1579 0-.2024.03663-.2024.19938.0162 1.54216.0122 3.08016.0081 4.61826.0041 0 .0041 0 0 0z" fill="#fdfdfd"/><path d="m77.4358 26.6648c0-2.0141.0041-4.0282-.004-6.0383 0-.1668.0405-.2116.2104-.2116 2.3188.0041 4.6376.0041 6.9563 0 .1498 0 .2186.0285.2024.1953-.0162.175-.0122.354 0 .529.0121.1546-.0364.1912-.1902.1912-1.3435-.004-2.683 0-4.0265 0-.3116 0-.3116 0-.3116.3052-.0041 3.6946-.0122 7.3892-.0081 11.0838 0 .1993-.0526.2441-.2428.24-.8013-.0122-1.6066-.0081-2.4078 0-.1538 0-.1862-.0447-.1862-.1912.0081-2.0385.0081-4.0689.0081-6.1034z" fill="#f8e107"/><path d="m88.6408 26.665c0-2.0141.004-4.0283-.0041-6.0424 0-.1668.0405-.2116.2105-.2116.7972.0082 1.5903.0082 2.3875 0 .1781-.004.2347.0367.2347.2279-.0081 3.2023-.0081 6.4004-.0081 9.6027 0 .8423-.004 1.6805.0041 2.5228 0 .1505-.0364.1912-.1902.1912-.8094-.0081-1.6187-.0081-2.428 0-.166 0-.2105-.0366-.2105-.2075.0041-2.0264 0-4.0568.0041-6.0831z" fill="#f8e107"/><path d="m52.787 26.7055c0 2.0142-.0041 4.0283.004 6.0424 0 .175-.0486.2075-.2104.2075-.8013-.0081-1.6066-.0081-2.4078 0-.1376 0-.1943-.0162-.1943-.1831.0081-4.0608.0122-8.1216.0081-12.1824 0-.1424.0364-.179.1781-.179.8174.0081 1.6308.0081 2.4482 0 .1579 0 .1862.0488.1862.1912-.0041 2.0345-.0041 4.069-.0041 6.1034-.004 0-.004 0-.008 0z" fill="#fdfdfd"/><path d="m30.3323 25.7128c0-1.3957.0041-2.7954-.004-4.191 0-.1628.0445-.2035.2023-.1994.3723.0122.7406.0041 1.1129.0041.8902 0 1.4811.5859 1.4811 1.4892.004.9033-.0041 1.8025-.0041 2.7058-.004 1.0458-.004 2.0874-.0081 3.1331-.004.6958-.4087 1.241-1.0481 1.4201-.1659.0447-.3359.0325-.5018.0366-.352.0041-.7001-.0081-1.0521.0041-.1579.0081-.1862-.0448-.1862-.1913.0041-1.4038.0041-2.8075.0041-4.2113z" fill="#010100"/><path d="m30.3029 14.1122c0-1.4038.004-2.8076-.0041-4.21135 0-.16276.0445-.20752.2024-.19938.3763.01628.7608-.02441 1.1331.02442.6515.08544 1.1978.60631 1.1937 1.51771-.004 1.2817 0 2.5634.0041 3.8451 0 .6389.004 1.2736.004 1.9124-.004.9074-.5948 1.4933-1.4973 1.4974-.2711 0-.5382-.0122-.8093.0041-.174.0122-.2266-.0326-.2226-.2198.0041-1.3915 0-2.779-.004-4.1706.004 0 .004 0 0 0z" fill="#010100"/></svg>