<svg width="120" height="40" viewBox="0 0 120 40" fill="none" xmlns="http://www.w3.org/2000/svg">
<path d="M18.032 5.05293C25.8988 4.37445 32.8119 10.2974 33.4904 18.3108C33.8938 23.0602 31.9868 27.7179 28.3926 30.7619C23.2398 35.1262 15.8132 35.2362 10.532 31.0736C4.29734 26.1409 3.16043 16.9906 8.00149 10.6275C10.422 7.43678 14.0712 5.41968 18.032 5.05293ZM18.1421 5.54804C10.5504 6.17151 4.88414 12.9563 5.48927 20.6947C6.0944 28.4331 12.7509 34.2093 20.3425 33.5859C27.9525 32.9624 33.6004 26.1959 32.9953 18.4392C32.6469 14.0382 30.2814 10.0774 26.6322 7.69351C24.12 6.06148 21.1494 5.30965 18.1421 5.54804Z" fill="#E40707"/>
<path d="M17.2802 6.2815C23.8634 5.25461 30.1714 9.39885 31.9685 15.9453C32.9587 19.5577 32.4269 23.6286 30.3731 26.7643C28.5027 27.6262 26.3939 27.7729 24.3768 27.6812C21.0027 27.5162 17.702 26.6176 14.3096 26.5259C12.4025 26.4709 10.4404 26.7277 8.66168 27.5162C4.3524 21.5382 5.61768 13.1213 11.4856 8.73871C13.1727 7.45509 15.1714 6.62991 17.2802 6.2815ZM19.2607 6.53822C18.9856 7.3634 18.7289 8.18858 18.4538 9.0321C17.592 9.0321 16.7301 9.01377 15.8683 9.05044C16.5651 9.56389 17.2619 10.0773 17.9587 10.6091C17.702 11.4343 17.4269 12.2595 17.1702 13.103C17.867 12.5896 18.5639 12.0761 19.2607 11.5627C19.9575 12.0761 20.6543 12.5896 21.3511 13.103C21.0944 12.2778 20.8194 11.4343 20.5626 10.6091C21.2594 10.0957 21.9563 9.58222 22.6531 9.05044C21.7912 9.0321 20.9294 9.05044 20.0675 9.05044C19.7925 8.18859 19.5174 7.3634 19.2607 6.53822ZM13.2644 9.78394C13.1727 10.2057 13.1177 10.6275 13.026 11.0492L11.7607 11.2143L12.8793 11.8377C12.8059 12.2595 12.7326 12.6996 12.6592 13.103C12.971 12.8096 13.2827 12.5162 13.5944 12.2045C13.9612 12.4062 14.3279 12.6262 14.713 12.8096C14.5296 12.4245 14.3463 12.0211 14.1629 11.636C14.4746 11.3426 14.7864 11.0309 15.0798 10.7375C14.658 10.7925 14.2362 10.8475 13.8145 10.9025C13.6311 10.5724 13.4477 10.1874 13.2644 9.78394ZM24.7069 10.9575L23.4416 10.7925C23.7533 11.1042 24.0467 11.3976 24.3585 11.691C24.1751 12.0761 23.9917 12.4795 23.8083 12.8646L24.9269 12.2595C25.2387 12.5529 25.5504 12.8646 25.8621 13.158C25.7704 12.7362 25.7154 12.2962 25.6421 11.8744C26.0088 11.6727 26.3756 11.4526 26.7607 11.2509L25.4954 11.0859C25.4037 10.6641 25.3487 10.224 25.257 9.82061C25.0736 10.1874 24.8902 10.5724 24.7069 10.9575ZM9.24847 12.8096C9.26681 13.0663 9.28515 13.323 9.30349 13.5798L8.58833 13.8732L9.32182 14.0565C9.34016 14.3133 9.3585 14.57 9.37684 14.8267C9.5052 14.6067 9.63356 14.3866 9.78026 14.1849L10.5138 14.3499L10.037 13.7631L10.4404 13.103L9.72525 13.3964C9.57855 13.1947 9.41351 12.993 9.24847 12.8096ZM28.7778 13.3964L28.0809 13.103L28.4844 13.7631C28.3193 13.9649 28.1543 14.1482 27.9893 14.3499L28.7228 14.1849L29.1262 14.8267L29.1812 14.0565L29.9147 13.8732L29.2179 13.5798L29.2729 12.8096L28.7778 13.3964ZM11.1922 14.735C10.3854 14.9551 9.61522 15.4685 9.2118 16.2203C9.17512 18.8609 9.2118 21.5015 9.19346 24.1604C9.7986 24.5822 10.4587 24.8756 11.1739 25.059C11.9991 25.279 12.8426 25.224 13.6861 25.169C14.5296 25.114 15.3915 24.8939 16.015 24.3071C16.9868 23.4453 17.2802 21.9233 16.7668 20.713C16.4917 20.0345 15.8866 19.5577 15.2448 19.2644C15.8866 18.8609 16.3817 18.1641 16.345 17.3756C16.3634 15.9636 15.1531 14.735 13.8145 14.5883C12.9526 14.4966 12.0541 14.4966 11.1922 14.735ZM14.823 14.5333C15.7766 14.8817 16.4 15.7619 16.7301 16.6971C17.1519 16.6971 17.5736 16.6971 17.9954 16.6971C17.9954 19.5211 17.9954 22.3634 17.9954 25.1873H20.1592C20.1592 22.3634 20.1592 19.5211 20.1592 16.6971C20.5626 16.6971 20.9661 16.6971 21.3511 16.6971C21.9929 15.7252 22.8915 14.9001 23.9917 14.5333C20.9294 14.5516 17.867 14.5333 14.823 14.5333ZM24.2668 14.8267C23.0932 15.2485 22.1396 16.092 21.5895 17.2289C20.9844 18.4575 20.8927 19.8695 21.0944 21.2081C21.2778 22.4734 21.9013 23.6653 22.9098 24.4538C23.8634 25.2057 25.1103 25.444 26.2655 25.3524C27.4391 25.2607 28.6677 24.9306 29.6029 24.1604C29.6029 22.4734 29.6029 20.7864 29.6029 19.081C28.4294 19.081 27.2558 19.081 26.0822 19.081C26.0822 19.7228 26.0822 20.3829 26.0822 21.0247H27.4575C27.4575 21.6665 27.4575 22.3267 27.4575 22.9685C26.7423 23.4636 25.7888 23.4636 24.9819 23.1702C24.1017 22.8218 23.4966 21.9416 23.3132 21.0247C23.1299 20.0895 23.1849 19.1177 23.5333 18.2375C23.8634 17.4306 24.5418 16.7705 25.3854 16.6054C26.4306 16.3304 27.5125 16.7888 28.301 17.4673C28.6127 16.8622 28.9061 16.257 29.2362 15.6519C27.9159 14.4233 25.9171 14.2766 24.2668 14.8267Z" fill="#E40707"/>
<path d="M49.2972 18.4942C49.6273 18.7876 49.9757 19.081 50.3241 19.3744C50.104 19.5394 49.8657 19.6861 49.6456 19.8512C50.0857 20.5663 50.104 21.4832 49.7373 22.235C49.3339 22.9502 48.527 23.3536 47.7202 23.3536C47.3718 23.3719 47.005 23.2253 46.675 23.427C46.5283 23.482 46.3082 23.702 46.5466 23.812C46.8033 23.9221 47.0967 23.8304 47.3718 23.7937C48.1603 23.647 49.0588 23.6287 49.7556 24.0688C50.5992 24.6739 50.4891 26.1042 49.6273 26.636C48.1786 27.5712 46.1982 27.4062 44.7862 26.4526C45.0979 26.0859 45.4097 25.7191 45.7214 25.3707C46.5099 26.0675 47.7019 26.2693 48.6371 25.7558C48.8571 25.6458 48.9305 25.3707 48.8204 25.1507C48.7654 25.059 48.6737 24.9673 48.5637 24.9306C47.7202 24.6739 46.8583 25.059 46.0148 24.9123C45.5564 24.8756 45.0429 24.6006 45.0063 24.0871C44.9146 23.537 45.3913 23.1519 45.8131 22.9135C44.7679 22.3267 44.4195 20.768 45.1713 19.8145C45.9965 18.7326 47.5735 18.6226 48.7471 19.136L49.2972 18.4942ZM46.895 20.0712C46.1798 20.3463 46.0698 21.4099 46.5833 21.905C46.9133 22.235 47.4268 22.2717 47.8485 22.1433C48.4904 21.905 48.6554 20.9698 48.2886 20.438C47.9952 19.9795 47.3718 19.8878 46.895 20.0712ZM113.405 19.1177C113.588 18.916 113.79 18.6959 113.973 18.4942C114.303 18.7876 114.652 19.081 115 19.3744C114.78 19.5394 114.542 19.6861 114.321 19.8512C114.707 20.493 114.78 21.2998 114.505 21.9966C114.211 22.6935 113.588 23.1886 112.836 23.2986C112.451 23.3719 112.066 23.2986 111.681 23.2986C111.461 23.3719 111.131 23.427 111.112 23.7204C111.332 23.9587 111.663 23.8487 111.938 23.812C112.726 23.647 113.606 23.6103 114.34 24.0321C115.183 24.5272 115.202 25.9025 114.468 26.5076C113.735 27.1128 112.781 27.2961 111.864 27.2595C111.002 27.2228 110.159 26.9477 109.444 26.4526C109.755 26.0859 110.067 25.7375 110.361 25.3707C110.911 25.8475 111.626 26.0859 112.341 26.0309C112.744 25.9759 113.258 25.9392 113.496 25.5358C113.625 25.224 113.331 24.9123 113.038 24.894C112.139 24.7656 111.204 25.1507 110.324 24.8389C109.921 24.7473 109.645 24.3805 109.645 23.9587C109.627 23.4636 110.086 23.1336 110.452 22.9135C109.407 22.3451 109.059 20.768 109.81 19.8145C110.672 18.7326 112.249 18.6042 113.405 19.1177ZM111.553 20.0712C110.764 20.383 110.746 21.6666 111.461 22.0517C111.938 22.3084 112.653 22.2534 112.965 21.7583C113.221 21.2998 113.221 20.658 112.836 20.2729C112.524 19.9429 111.974 19.9062 111.553 20.0712ZM62.0233 19.4478C62.9585 18.5676 64.5172 18.6592 65.4891 19.4478C66.3509 18.7326 67.6896 18.6042 68.6431 19.2094C69.1932 19.5761 69.45 20.2546 69.45 20.8964C69.45 22.235 69.45 23.5737 69.45 24.9123H67.983C67.983 23.6837 67.983 22.4918 67.983 21.2632C67.983 20.8964 67.928 20.4746 67.6346 20.2363C67.0844 19.8145 66.2042 19.9979 65.8558 20.5847C65.8192 22.0333 65.8558 23.4636 65.8375 24.9123H64.3705C64.3705 23.5737 64.3889 22.235 64.3705 20.8964C64.3889 20.1079 63.3803 19.7962 62.7935 20.1446C62.5735 20.2913 62.225 20.4563 62.225 20.768C62.2067 22.1433 62.225 23.5186 62.225 24.9123H60.7581V18.9526H61.7666L62.0233 19.4478ZM70.7703 19.8878C71.8522 18.6226 73.8876 18.4942 75.1896 19.5028C76.0331 20.1629 76.3448 21.3548 76.0331 22.3634C74.5294 22.3634 73.0441 22.3634 71.5404 22.3634C71.5954 22.9502 71.9255 23.5187 72.4756 23.702C73.2458 23.9771 74.1993 23.9037 74.8778 23.3536C75.0612 23.702 75.2629 24.0688 75.4463 24.4355C74.5844 25.0223 73.5025 25.0773 72.494 24.9856C71.5037 24.894 70.5319 24.1971 70.2018 23.2069C69.835 22.1067 69.9634 20.768 70.7703 19.8878ZM72.5306 20.1079C72.0172 20.2729 71.7238 20.7864 71.5954 21.2998C72.6223 21.2998 73.6492 21.2998 74.6761 21.2998C74.5844 20.9147 74.4927 20.5297 74.1627 20.2913C73.7042 19.9612 73.0624 19.9429 72.5306 20.1079ZM85.2568 19.1727C86.302 18.7509 87.4756 18.7143 88.5575 19.081C89.181 19.3011 89.6027 19.9062 89.7127 20.548C89.9328 21.5932 89.7678 22.6385 89.8778 23.6837C89.9145 24.0504 90.0795 24.3805 90.3362 24.6189C90.0795 25.004 89.6027 25.0773 89.181 24.9856C88.8509 24.894 88.6675 24.6006 88.5025 24.3438C88.0991 24.8023 87.4573 24.9856 86.8705 25.0223C86.2286 25.0406 85.5502 24.9123 85.0734 24.4355C84.5783 23.9404 84.5049 23.1336 84.7066 22.4734C84.9084 21.8133 85.5135 21.3915 86.1553 21.1715C86.8705 20.9514 87.6223 20.8964 88.3741 21.0248C88.3191 20.658 88.1724 20.2729 87.8057 20.1446C87.0905 19.8695 86.2653 19.9795 85.5685 20.2546C85.4585 19.9062 85.3485 19.5394 85.2568 19.1727ZM86.467 22.3451C85.9536 22.6568 85.9169 23.6103 86.522 23.8304C87.0172 23.9771 87.6406 23.9587 88.0624 23.592C88.4475 23.2069 88.3558 22.6201 88.3741 22.1067C87.7323 22.015 87.0172 21.9966 86.467 22.3451ZM92.0966 19.4478C93.0135 18.5676 94.5905 18.6592 95.544 19.4478C96.4059 18.7326 97.7445 18.6042 98.6797 19.2094C99.2298 19.5761 99.5049 20.2546 99.4866 20.8964C99.5049 22.235 99.4866 23.5737 99.4866 24.9306H98.0196C98.0196 23.7204 98.0196 22.5101 98.0196 21.2815C98.0196 20.9147 97.9646 20.493 97.6712 20.2363C97.121 19.8145 96.2408 19.9979 95.8741 20.5847C95.8374 22.0333 95.8741 23.4636 95.8558 24.9123H94.3888C94.3704 23.5737 94.4071 22.235 94.3704 20.8964C94.3704 20.1079 93.3619 19.7962 92.7751 20.1446C92.555 20.2913 92.2066 20.4563 92.2066 20.768C92.2066 22.1433 92.2066 23.5186 92.2066 24.9123H90.7396C90.7396 22.9319 90.7396 20.9331 90.7396 18.9526H91.7482C91.8949 19.1177 92.0049 19.2827 92.0966 19.4478ZM104.786 19.4844C105.501 18.7693 106.638 18.6959 107.555 18.9893C108.38 19.2644 108.93 20.0896 108.967 20.9698C109.004 22.29 108.967 23.6103 108.985 24.9306H107.518C107.518 23.757 107.518 22.5834 107.518 21.4099C107.518 20.9514 107.408 20.4196 106.987 20.1812C106.308 19.8328 105.483 20.0529 104.969 20.5663C104.951 22.015 104.969 23.4636 104.969 24.9123H103.502C103.502 22.9319 103.502 20.9331 103.502 18.9526H104.566C104.621 19.136 104.694 19.3011 104.786 19.4844ZM41.8706 18.9526H44.1627C44.1627 20.9331 44.1627 22.9319 44.1627 24.9123H42.6774C42.6774 23.2986 42.6774 21.7032 42.6774 20.0896H41.8706C41.8889 19.7228 41.8706 19.3377 41.8706 18.9526ZM57.3473 18.9526H59.6395V24.9123H58.1541C58.1541 23.2986 58.1541 21.7032 58.1541 20.0896C57.8974 20.0896 57.6224 20.0896 57.3473 20.0896V18.9526ZM100.073 18.9526H102.366C102.366 20.9331 102.366 22.9319 102.366 24.9123H100.899C100.899 23.2986 100.899 21.7032 100.899 20.0896H100.092C100.073 19.7045 100.073 19.3377 100.073 18.9526ZM78.802 17.4673C79.6822 16.7888 80.8558 16.5688 81.956 16.6421C82.6895 16.6972 83.4047 16.9539 84.0098 17.4306C83.7898 17.8157 83.5881 18.2191 83.368 18.6042C82.6345 18.1091 81.7543 17.7791 80.8741 17.9991C79.9206 18.1641 79.1688 18.9893 78.9671 19.9245C78.7653 20.8231 78.802 21.8316 79.2971 22.6385C80.0123 23.812 81.736 24.1238 82.8546 23.3536C82.8546 22.8218 82.8546 22.2717 82.8546 21.7399H81.6626C81.6626 21.3182 81.6626 20.9147 81.6626 20.493C82.5795 20.493 83.478 20.493 84.3766 20.493C84.3766 21.7216 84.3766 22.9319 84.3766 24.1605C83.4597 24.8023 82.3228 25.0406 81.2409 25.0406C80.1773 25.059 79.0404 24.6922 78.3252 23.8671C77.3717 22.8585 77.1333 21.3732 77.335 20.0162C77.4634 19.026 77.9952 18.0908 78.802 17.4673ZM35.8376 16.7522C36.6811 16.7338 37.5063 16.6788 38.3498 16.6788C39.0833 16.6971 39.8535 16.8255 40.4403 17.2839C41.0087 17.7424 41.2288 18.5492 41.0271 19.246C40.8804 19.7412 40.4586 20.0529 40.0368 20.2913C40.6053 20.493 41.1554 20.8597 41.3938 21.4282C41.7422 22.235 41.6872 23.2619 41.0637 23.9221C40.4219 24.6189 39.4684 24.894 38.5698 24.894C37.653 24.9123 36.7178 24.894 35.8009 24.894L35.8376 16.7522ZM37.3596 17.9258C37.3596 18.5676 37.3596 19.2277 37.3596 19.8695C37.928 19.8878 38.5515 19.9612 39.0833 19.7045C39.6884 19.4294 39.7801 18.4392 39.1933 18.1091C38.6432 17.8157 37.983 17.9258 37.3596 17.9258ZM37.3596 21.0248C37.3596 21.9233 37.3596 22.8218 37.3596 23.702C38.0014 23.7387 38.6615 23.7937 39.2667 23.5737C40.2752 23.2619 40.3119 21.4832 39.3033 21.1715C38.6982 20.9514 38.0197 21.0064 37.3596 21.0248ZM41.8889 16.7705H44.1627C44.1627 17.1923 44.1627 17.6324 44.1627 18.0541C43.3926 18.0541 42.6407 18.0541 41.8706 18.0541C41.8706 17.6324 41.8889 17.1923 41.8889 16.7705ZM50.7825 16.7522C52.7996 16.7522 54.8351 16.7522 56.8705 16.7522C56.8705 17.1739 56.8705 17.614 56.8705 18.0541H55.0551C55.0551 20.3279 55.0551 22.6385 55.0551 24.9123C54.5417 24.9123 54.0282 24.9123 53.5148 24.9123C53.5148 22.6201 53.5148 20.3279 53.5148 18.0541H50.7825V16.7522ZM57.3473 18.0541C57.3473 17.6324 57.3473 17.1923 57.3473 16.7705C58.0991 16.7705 58.8693 16.7705 59.6211 16.7705V18.0541C58.8693 18.0541 58.0991 18.0541 57.3473 18.0541ZM100.092 16.7705C100.844 16.7705 101.614 16.7705 102.384 16.7705C102.384 17.1923 102.384 17.6324 102.384 18.0541C101.632 18.0541 100.862 18.0541 100.11 18.0541C100.092 17.6324 100.092 17.1923 100.092 16.7705Z" fill="#E40707"/>
<path d="M11.7607 16.9905C12.3108 16.312 13.5761 16.4221 13.9428 17.2656C14.0895 17.724 13.8878 18.3658 13.3743 18.4942C12.7875 18.6592 12.1824 18.5675 11.5773 18.5859C11.614 18.0724 11.4489 17.4673 11.7607 16.9905ZM11.5773 20.3463C12.3291 20.3829 13.1176 20.2362 13.8328 20.5296C14.878 20.9514 14.8047 22.7668 13.7594 23.1335C13.0443 23.2252 12.2558 23.2802 11.5773 22.9318C11.5773 22.0883 11.5773 21.2081 11.5773 20.3463ZM15.7215 27.1494C19.554 27.5345 23.3682 28.5797 27.2374 28.1213C28.1543 28.0296 29.0528 27.8096 29.933 27.4612C29.2545 28.3597 28.5393 29.2215 27.6408 29.9C26.9256 30.0284 26.2105 29.955 25.5137 29.8817C23.4416 29.6066 21.4611 28.9648 19.4807 28.3047C18.2337 27.9196 17.0051 27.4428 15.7215 27.1494ZM13.2093 27.9746C14.8597 28.0113 16.4367 28.5797 18.0137 29.0932C20.6176 29.9367 23.1848 30.9636 25.9354 31.1836C24.7618 31.8438 23.5332 32.3756 22.2129 32.669C22.0296 32.724 21.8829 32.5773 21.7178 32.5223C20.0858 31.6054 18.5271 30.5602 16.8951 29.5883C15.7215 28.9098 14.5113 28.2863 13.2093 27.9746ZM11.1555 30.1751C12.3108 30.2484 13.4844 30.4135 14.5296 30.9269C15.7215 31.4587 16.7668 32.2289 17.8303 32.9624C15.4098 32.6506 13.0993 31.6971 11.1555 30.1751Z" fill="#E40707"/>
</svg>
