<svg fill="none" height="40" viewBox="0 0 120 40" width="120" xmlns="http://www.w3.org/2000/svg"><path d="m59.6465 21.248c0-2.1024 0-4.1931 0-6.2955 0-.8131.023-1.6378.1842-2.4392.1957-.9989.5411-1.9282 1.1973-2.718.3685-.44138.8175-.80145 1.3125-1.09184 2.1184-1.20799 4.3519-1.64937 6.7582-1.17314.7253.151 1.4161.40653 2.0723.74338 1.0937.55753 1.8421 1.45191 2.3717 2.5438.5411 1.115.8289 2.2998.9441 3.531.1266 1.3938.046 2.7877-.2764 4.1467-.2763 1.1731-.7483 2.2533-1.4966 3.1942-1.278 1.6029-2.9589 2.3347-4.9967 2.2069-.5526-.0349-1.0937-.1278-1.6233-.3136-.7484-.2556-1.3816-.6853-1.8882-1.3009-.1266-.151-.2417-.3253-.3569-.4879-.023-.0232-.0575-.0348-.0921-.0348-.046 0-.069.0232-.069.0697v.3368 4.9597c0 .2091 0 .4066-.0231.6157-.1266.9176-.8519 1.6493-1.7615 1.719-.6792.0581-1.3585.0232-2.0378.0232-.1266 0-.2072-.0696-.2072-.209 0-.1278 0-.2556 0-.3949-.0115-2.5322-.0115-5.0876-.0115-7.6313zm10.7877-5.5754c.0115-.8363-.0806-1.6726-.3569-2.474-.2994-.8944-.8059-1.6262-1.6809-2.0327-.5526-.2555-1.1283-.3136-1.727-.2671-.898.0696-1.6118.4762-2.1414 1.2079-.3109.4298-.5066.906-.6217 1.4171-.2648 1.2429-.2993 2.5089-.0921 3.7634.0691.4181.1957.8363.3799 1.2196.403.8131.9671 1.4403 1.8651 1.7074 1.1744.3601 2.7171.1859 3.6151-1.2893.1727-.2903.3224-.5807.426-.906.2533-.7433.3454-1.5332.3339-2.3463z" fill="#1a212a"/><path d="m13.0411 9.55156c.2187-.06969.2648-.19746.3454-.29038.9671-1.18476 2.199-1.8236 3.7187-1.90491 1.4276-.06969 2.7401.25554 3.8799 1.16153.7138.56915 1.2779 1.27769 1.7269 2.0791.5987 1.0803.9326 2.2534 1.0708 3.4846.1496 1.3358.1381 2.6716-.1037 3.9957-.2072 1.1615-.6101 2.2534-1.2549 3.2407-.5756.906-1.3585 1.5564-2.3486 1.9397-1.301.5227-2.6596.7202-4.0526.6389-1.6464-.1046-3.1661-.6156-4.5822-1.4636-.8405-.4994-1.4161-1.2312-1.79607-2.1256-.46052-1.0686-.63322-2.2069-.63322-3.3684-.01151-1.8817-.01151-3.7517-.01151-5.6334 0-2.54378 0-5.08753.01151-7.63128 0-.16262 0-.33685.01152-.49946 0-.10454.06907-.16262.17269-.17423h.16118c.57566 0 1.1398.01161 1.7154 0 .8635-.02323 1.8767.72015 1.9573 1.89329.0115.16262.0115.33685.0115.49946v3.5659zm.0345 6.09804c0 .3136-.0115.6272 0 .9408.0461.6505.1612 1.2893.4145 1.8933.3914.9176 1.0362 1.5681 2.0148 1.8353.3914.1045.8059.1045 1.2088.0813.9902-.0697 1.75-.5343 2.2796-1.3706.3684-.5924.5757-1.2429.6793-1.9282s.1382-1.3706.1036-2.0559c-.0345-.7318-.1497-1.4403-.449-2.114-.5066-1.1267-1.301-1.8933-2.5789-1.9862-1.0822-.0813-2.0378.2207-2.7516 1.1151-.2303.2904-.403.6156-.5411.964-.3339.848-.426 1.7307-.38 2.6251z" fill="#23aee5"/><path d="m53.8437 16.7532c-1.5083 0-3.0165 0-4.5247 0-.6677 0-.6332 0-.5641.662.0921.7666.3224 1.4752.8404 2.0792.3685.4181.8175.6969 1.3471.8247.6332.151 1.2779.151 1.9111 0 .5181-.1278.9786-.3485 1.3125-.7783.5181-.6737 1.1859-.8827 1.9918-.8363.6562.0349 1.324.0116 1.9917.0116.1497 0 .2994 0 .4375.0117.1036.0116.1497.0929.1267.1974-.0115.0697-.0346.1394-.0576.2207-.6793 2.1488-2.0608 3.624-4.1792 4.3441-1.6234.5576-3.2928.5924-4.9506.1743-2.0724-.5343-3.477-1.8585-4.3059-3.8215-.3684-.8595-.5642-1.7655-.6563-2.6947-.1151-1.1151-.1151-2.2302.0231-3.3336.1611-1.2428.5065-2.4276 1.1858-3.4962 1.0016-1.57969 2.4523-2.48568 4.2598-2.81091 1.2434-.22069 2.4984-.18585 3.7303.10454 1.1858.27876 2.2565.81307 3.12 1.68421.6793.6853 1.1398 1.49836 1.4737 2.39276.4029 1.057.5756 2.1488.6217 3.2639.023.4994.0115.9989.0115 1.51 0 .2323-.0691.2904-.2994.3136-.1266.0116-.2532 0-.3914 0-1.4737-.0232-2.9704-.0232-4.4555-.0232zm-5.1579-2.7993c.1842.1394.3799.0813.5641.0929h4.6859c.944 0 .8059.1045.6677-.8479-.0576-.3717-.1842-.7202-.3569-1.0454-.3108-.5575-.7599-.9524-1.37-1.1499-.6102-.1975-1.2204-.2439-1.8536-.1162-.4951.1046-.9326.3137-1.324.6505-.7254.6388-.9556 1.4868-1.0132 2.416z" fill="#23aee5"/><path d="m94.75 18.3099v4.6809c0 .151 0 .302-.0115.4414-.0116.1045-.0691.1626-.1727.1742-.0922.0117-.1843.0117-.2764.0117-1.0822 0-2.1759 0-3.2582 0-.0921 0-.1842 0-.2763-.0117-.1036-.0116-.1611-.0813-.1611-.1858 0-.1278 0-.2555 0-.3949 0-2.8458 0-5.6799 0-8.5257 0-.8014.0575-1.5913.1957-2.3811.1496-.8363.426-1.6145.921-2.29983.2763-.39492.6217-.73176 1.0362-.99892 1.3931-.90599 2.9243-1.40545 4.5707-1.46353 1.2088-.04646 2.3832.19747 3.4996.66208.334.13938.668.31361.99.48784 1.106.55753 1.762 1.48676 2.13 2.64826.3.9293.403 1.8817.415 2.8574.011 1.1848.011 2.3811.011 3.5659v5.4011.4414c0 .1045-.069.1626-.172.1858-.035 0-.069.0117-.115.0117-.645 0-1.29.0116-1.935-.0117-.575-.0116-1.07-.2555-1.439-.7085-.276-.3252-.38-.7085-.426-1.1267-.011-.1626-.011-.3368-.011-.4994 0-2.5206 0-5.0527 0-7.5732 0-.3717-.012-.7434-.104-1.1035-.138-.5691-.4374-1.0105-.9209-1.3357-1.0823-.7202-2.4408-.7318-3.4885-.0233-.4836.3253-.7829.7783-.9095 1.3474-.0806.3485-.1036.6969-.1036 1.0454.023 1.5681.0115 3.1245.0115 4.681z" fill="#1a212a"/><path d="m29.9529 13.1644c0-1.5797 0-3.1594 0-4.73909 0-.12777 0-.25553 0-.39492.0115-.26715.0461-.31361.3339-.31361h3.4769c.2764 0 .2994.04646.3109.33684v.33685c.0115 3.06643.0115 6.13283.023 9.19933 0 .2788.0115.5575.0461.8363.0806.9176.5756 1.5564 1.4046 1.9049 1.1282.4762 2.199.3368 3.1891-.3833.5641-.4065.7829-1.0222.8519-1.6842.0231-.2556.0231-.5227.0231-.7783 0-2.474.0115-4.9365.0115-7.4105 0-.18586-.0115-.3717.0115-.55755.0806-.95245.8059-1.71906 1.75-1.77714.6793-.04646 1.3585-.01161 2.0378-.01161.1957 0 .2418.05807.2533.27876v.27877c0 2.95027 0 5.91217.0115 8.86247 0 .7782-.0691 1.5565-.2188 2.3231-.1496.7317-.4029 1.4286-.8289 2.0443-.2993.4297-.6562.8014-1.1168 1.0686-2.1874 1.2776-4.5016 1.6726-6.9654.9989-.8174-.2207-1.6003-.5576-2.3371-.9873-.9326-.5343-1.4967-1.359-1.8421-2.3463-.3224-.9176-.4375-1.8817-.4375-2.8458 0-1.4054 0-2.8225.0115-4.2395-.0115 0 0 0 0 0z" fill="#23aee5"/><path d="m105.48 12.1414c0-2.85735 0-5.72633 0-8.5837 0-.49945-.069-.52268.507-.52268.518 0 1.036.01161 1.543 0 1.139-.03485 2.06.9873 2.037 2.04429-.011.70853 0 1.41707 0 2.11398v.39492c0 .10454.069.17423.173.17423.242.01162.484.01162.714.01162h1.324c.127 0 .207.05808.207.19746v.72015c-.011 1.10345-.898 1.88163-1.842 1.93973-.15.0116-.299.0116-.437.0233-.081.0116-.139.058-.139.1393-.011.1162-.011.2207-.011.3369v8.1423.1162c.011.7433.334 1.0802 1.082 1.1034.345.0116.702 0 1.048.0116.265 0 .299.0349.299.2788v2.567c0 .2555-.023.2787-.288.2904-1.324.058-2.648.0348-3.972-.0697-.126-.0116-.253-.0233-.38-.0465-.84-.1858-1.416-.6737-1.681-1.51-.149-.4994-.195-1.0221-.195-1.5448.011-2.7877.011-5.5521.011-8.3282z" fill="#1a212a"/><path d="m24.7963 13.245c0-3.1942 0-6.38842 0-9.58263 0-.63885-.0806-.62723.6332-.62723h1.4391c.3339 0 .6563.06969.9556.22069.6447.32523 1.0131.84792 1.0822 1.56807.023.18584.0115.37169.0115.55753.0115 5.85407.0115 11.70827.0115 17.55077 0 .7085.0576.6736-.6447.6736-.9786 0-1.9572 0-2.9243 0-.1497 0-.2993 0-.4375-.0232-.0806-.0116-.1382-.0697-.1497-.151-.0115-.1626-.0115-.3368-.0115-.4994 0-3.2291 0-6.4698 0-9.6988.0115.0116.023.0116.0346.0116z" fill="#23aee5"/><g fill="#1a212a"><path d="m75.2459 18.9831c0-1.0569 0-2.1139 0-3.1825 0-.8596.0691-1.7075.2648-2.5438.3569-1.51 1.0592-2.7993 2.2565-3.79821.6333-.52269 1.3586-.89438 2.1185-1.16153 1.2894-.44138 2.6134-.60399 3.972-.58076.2532 0 .2763.03484.2763.302v3.682c0 .2207-.0346.2556-.2648.2556-.3454.0116-.7023 0-1.0477 0-.426 0-.852.0348-1.2665.1278-1.1397.2671-1.819.9989-2.0608 2.1372-.0921.4181-.1151.8479-.1151 1.2777v7.4686.3368c.023.302-.0921.3137-.3224.3137-1.1743 0-2.3602 0-3.5345 0-.2533 0-.2878-.0349-.2878-.2904 0-.8131 0-1.6378 0-2.4509.0115-.6272.0115-1.266.0115-1.8933z"/><path d="m85.3547 15.638c0-2.4741 0-4.9481 0-7.41057 0-.48784-.046-.52269.5181-.52269h1.6003c.7368.01162 1.3125.32523 1.7269.94084.2073.302.2879.63884.3109.99892.0115.151 0 .302 0 .4414v12.9278.3369c-.0115.209-.0576.2555-.2648.2555-.8289 0-1.6579 0-2.4868 0-.3914 0-.7714 0-1.1628 0-.1842 0-.2418-.0581-.2418-.2323-.0115-.151 0-.302 0-.4414 0-2.416 0-4.8552 0-7.2944z"/><path d="m87.2763 33.1915c.1381-.0813.1496-.1742.1842-.2672.6332-1.8236 1.2664-3.6472 1.8881-5.4708.0346-.0929.0576-.1742.0921-.2671.1497-.4182.1497-.3717.4951-.3717h1.5427c.38 0 .3799.0116.3915.4181v.1626 7.852.2207c-.0116.2788-.0346.3136-.3224.3136-.403 0-.8059 0-1.2204 0-.1266 0-.1957-.0697-.1957-.2091 0-.1277 0-.2555.0115-.3949.0115-1.5216.0345-3.0432.0461-4.5648 0-.151 0-.302 0-.4414 0-.0697-.0116-.151-.0921-.1858-.1152-.0349-.1612.0697-.1843.151-.2763.7898-.5411 1.5796-.8174 2.3695-.3454.9989-.6908 1.9978-1.0361 2.9967-.0922.2788-.1152.2904-.3915.2904-.2418 0-.4835 0-.7138 0-.2878 0-.3109-.0116-.403-.2788-.1957-.5459-.3799-1.0802-.5641-1.6261-.4375-1.2661-.875-2.5205-1.3125-3.7866-.0345-.1045-.0921-.1974-.1381-.2904-.0115-.0116-.0806-.0116-.0921.0116-.0231.0465-.0461.1046-.0461.151 0 .3369.0115.6737.0115.999.0115 1.4286.0346 2.8573.0461 4.286 0 .1162.0115.2207 0 .3369 0 .1045-.0691.1626-.1727.1742-.0691 0-.1497.0116-.2188.0116-.3684 0-.7368 0-1.1052 0-.1727 0-.2188-.0581-.2303-.2439 0-.1162 0-.2207 0-.3369 0-2.6018 0-5.2036 0-7.8055 0-.6736-.023-.604.5987-.604h1.3816c.3223 0 .3338.0117.4375.302.2763.7667.5411 1.5449.8059 2.3115.3914 1.1267.7713 2.2417 1.1513 3.3684.0575.1626.1151.2788.1727.4182z"/><path d="m71.885 31.0305h2.153.3914c.1727.0116.2187.0697.2303.2439.023.7899-.1267 1.5449-.5066 2.2534-1.324 2.4508-3.9145 2.8806-5.7796 2.1256-1.5428-.6272-2.4869-1.8236-2.7862-3.473-.3339-1.87.2993-3.3916 1.7385-4.588.4029-.3369.8635-.5808 1.3585-.7202 1.3471-.3717 2.6596-.3252 3.8915.4298.7483.4646 1.2434 1.1499 1.6118 1.9281.0576.1162 0 .2091-.1496.2091-.5296 0-1.0708 0-1.6004 0-.1842 0-.3108-.0697-.4375-.1974-.2072-.2091-.4375-.395-.7138-.5227-1.6694-.8015-3.5921.2323-3.8914 2.1023-.1958 1.2196.3338 2.3812 1.37 2.9852.9902.5807 2.7286.5807 3.6612-.9757.0115-.0116.023-.0349.023-.0465.0806-.151.0231-.2555-.1496-.2555-.7714 0-1.5428 0-2.3257-.0116-.2418 0-.4835 0-.7138 0-.1036 0-.1842-.0581-.1842-.1626 0-.3717-.0115-.7434 0-1.1151 0-.1742.0575-.2207.2533-.2207.1496-.0116.2993 0 .4375 0 .7253.0116 1.4276.0116 2.1184.0116z"/><path d="m109.209 31.0305h2.153.392c.184.0117.242.0581.242.2323.023.604-.046 1.1964-.265 1.754-1.059 2.6366-3.673 3.4962-5.895 2.6947-1.635-.5924-2.613-1.8352-2.913-3.5659-.322-1.8236.3-3.322 1.693-4.5067.414-.3485.886-.6156 1.404-.755 1.393-.3833 2.729-.3253 3.984.4762.702.453 1.174 1.1151 1.531 1.8585.058.1277 0 .2206-.138.2206-.553 0-1.105 0-1.658.0117-.184 0-.299-.1046-.426-.2207-.507-.5111-1.128-.755-1.842-.755-1.128-.0116-1.946.5343-2.452 1.51-.68 1.2893-.311 2.9967 1.082 3.833.978.5924 2.74.5808 3.673-.9524.011-.0117.011-.0349.023-.0465.08-.1626.046-.2555-.127-.2555-.426-.0117-.852 0-1.267-.0117-.575 0-1.139 0-1.715 0-.207 0-.242-.0232-.242-.209 0-.3717 0-.7434 0-1.1151 0-.1045.069-.1742.173-.1742.127-.0116.253 0 .391 0 .726-.0233 1.463-.0233 2.199-.0233z"/><path d="m100.747 26.8258h1.404c.127 0 .208.058.219.1974v.3369 7.9681.2787c0 .1394-.092.1975-.207.1975-.403 0-.806 0-1.209 0-.196 0-.288-.1394-.38-.2788-.368-.5924-.7482-1.1964-1.1166-1.7887-.7368-1.1732-1.4737-2.3579-2.2105-3.5311-.023-.0348-.0576-.0929-.1382-.0581-.069.0349-.0575.093-.0575.1394v.3949 4.6229c0 .4995 0 .4995-.4721.4995-.3453 0-.7023 0-1.0476 0-.1267 0-.2073-.0581-.2073-.2091 0-.1161 0-.2207 0-.3368 0-2.6135 0-5.2385 0-7.852 0-.0697 0-.151 0-.2207.0115-.3368.023-.36.3339-.36h.7714c.5987.0116.4835-.1162.875.4878.9671 1.4984 1.9226 2.9968 2.8785 4.4835.08.1278.161.2555.242.3717.034.0581.057.151.149.1394.138-.0232.092-.1394.092-.2207 0-1.5565 0-3.1245 0-4.681 0-.1742-.046-.3717.081-.5807z"/><path d="m81.3252 35.8049c-.2187 0-.4375 0-.6677 0-.1612 0-.2764-.0581-.3339-.2207-.1497-.4065-.3109-.8015-.4605-1.1964-.0231-.0697-.0461-.1394-.0691-.2091-.0461-.1626-.1382-.2439-.3224-.2439-.9441 0-1.8766 0-2.8207 0-.1957 0-.2878.1046-.3569.2788-.1496.4181-.2993.8363-.449 1.2544-.1266.3253-.1381.3369-.472.3369-.403 0-.8059 0-1.2204 0-.1842 0-.2303-.0697-.1612-.2439.2303-.604.4721-1.208.7023-1.812.5296-1.3822 1.0592-2.7645 1.6003-4.1467.3224-.8247.6448-1.661.9556-2.4857.0806-.1974.1842-.302.403-.2903.3108.0116.6217.0116.944 0 .1957 0 .2994.0696.3684.2555.2188.604.4606 1.208.6908 1.8236.8174 2.1488 1.6349 4.2977 2.4408 6.4465.0345.0813.0691.1742.0921.2555.046.1394 0 .1975-.1497.1975-.2302.0116-.472 0-.7138 0zm-2.2796-3.5427c.0115-.0813.0346-.1394.0115-.1858-.2993-.8479-.6101-1.7075-.9095-2.5554-.1266.0465-.1612.1394-.1842.2207-.2072.5575-.4145 1.1034-.6217 1.661-.0806.2091-.1612.4181-.2418.6272-.046.1394 0 .2323.1267.2323z"/><path d="m92.7344 26.8264h1.5542c.1267 0 .2073.0813.2073.209v.2788 8.0843.2206c0 .1162-.0691.1627-.1727.1743-.023 0-.0346.0116-.0576.0116-.4375 0-.8865 0-1.324 0-.1266 0-.2072-.0697-.1957-.2091 0-.0929 0-.1858 0-.2788 0-2.6599 0-5.3082 0-7.9681-.0115-.151-.0115-.2903-.0115-.5226z"/><path d="m87.4146 6.33383c-.5872 0-1.1744 0-1.7615 0-.2533 0-.2879-.04646-.2879-.29038 0-.906 0-1.82361 0-2.7296 0-.22069.0461-.26715.2533-.27877.6793 0 1.3586-.02323 2.0378.01162.9671.05807 1.727.78984 1.8421 1.75391.0461.44138.0231.89438.0231 1.33576 0 .13938-.1037.18584-.2303.18584-.2993 0-.5872 0-.8865 0-.3224.01162-.6563.01162-.9901.01162z"/></g></svg>