<svg fill="none" height="40" viewBox="0 0 120 40" width="120" xmlns="http://www.w3.org/2000/svg"><path d="m34.1792 28.5168h5.0156v5.9723c-.7247.5273-1.4919.9193-2.3089 1.1545-.817.2423-1.6695.3563-2.5576.3563-1.158 0-2.2165-.1853-3.1685-.5487-.9519-.3635-1.7689-.8695-2.4438-1.5109s-1.2006-1.404-1.5701-2.2877c-.3694-.8837-.5541-1.8458-.5541-2.8792 0-1.0548.1776-2.024.5257-2.9078.3481-.8837.8454-1.6463 1.4919-2.2877s1.4351-1.1403 2.3515-1.4966c.9165-.3563 1.9466-.5345 3.0833-.5345.5896 0 1.1367.0499 1.6553.1425.5186.0998.9946.2281 1.4279.3991.4334.1711.8312.3706 1.1935.5987.3624.2352.6821.4846.9662.7554l-.9448 1.4468c-.1492.228-.3411.3634-.5755.4204-.2344.0499-.4902-.0071-.7601-.1781-.2558-.1568-.5045-.2922-.7318-.4063-.2273-.114-.4618-.2066-.7033-.2779-.2416-.0713-.4902-.1212-.7531-.1568-.2628-.0356-.5612-.0499-.888-.0499-.611 0-1.1651.1069-1.6553.3279-.4902.2138-.9093.5202-1.2503.9193-.3482.392-.611.8695-.7957 1.4254s-.2771 1.1688-.2771 1.8458c0 .7483.1066 1.4182.3126 2.0026s.4973 1.0762.8738 1.4753c.3766.3991.8312.7055 1.3569.9193.5258.2067 1.1083.3136 1.7477.3136.3907 0 .753-.0356 1.0727-.114s.6323-.1782.9307-.3136v-2.1452h-1.3924c-.2061 0-.3695-.057-.4831-.1639-.1137-.1069-.1776-.2494-.1776-.4204v-1.796zm19.6432 7.3263h-2.5362c-.2841 0-.5115-.0641-.6891-.1995s-.3055-.2993-.3978-.5131l-.8312-2.4659h-5.3637l-.8241 2.473c-.0711.1782-.199.3421-.3837.4917-.1847.1426-.412.221-.682.221h-2.5575l5.4561-14.1467h3.3532zm-5.1932-5.4021-1.3072-3.8698c-.0994-.2423-.1989-.5345-.3125-.8695-.1066-.3349-.2203-.6913-.3268-1.0833-.0995.392-.199.7626-.3126 1.0976-.1066.3349-.2132.6271-.3126.8766l-1.2859 3.8484zm22.1582-8.7374v14.1467h-2.8843v-8.1388c0-.1853.0071-.392.0142-.6129.0071-.221.0284-.4419.0497-.6699l-3.7439 7.2693c-.1137.228-.27.3991-.4689.5131s-.4191.1782-.6749.1782h-.4476c-.2486 0-.4759-.057-.6749-.1782-.1989-.114-.3552-.2851-.4688-.5131l-3.744-7.2907c.0213.2352.0355.4632.0497.6841.0142.221.0213.4277.0213.6129v8.1317h-2.8843v-14.1324h2.4936c.1421 0 .2629 0 .3694.0071.1066.0071.199.0285.2842.057.0853.0285.1563.0856.2273.1497.0711.0713.135.1639.199.2851l3.6445 7.1766c.1278.2495.2557.4989.3694.7697.1207.2637.2344.5345.341.8125.1065-.2851.2273-.563.341-.8338.1208-.2709.2486-.5274.3836-.7769l3.6161-7.1481c.0639-.1212.1279-.221.1989-.2851.071-.0713.1421-.1212.2273-.1497.0853-.0356.1776-.0499.2842-.057s.2273-.0071.3694-.0071zm6.0174 2.5229v3.2997h4.433v2.4302h-4.433v3.371h5.7899v2.5229h-9.0792v-14.1467h9.0792v2.5229zm15.5938.3492c-.0994.1568-.1989.2708-.3055.3492-.1065.0784-.2415.114-.412.114-.1492 0-.3055-.0499-.476-.1425-.1705-.0927-.3623-.1996-.5825-.3136-.2132-.114-.4618-.2209-.7389-.3136-.2771-.0926-.5968-.1425-.952-.1425-.6109 0-1.0727.1283-1.3711.392s-.4476.6129-.4476 1.0619c0 .285.0924.5202.27.7055s.4192.3492.7104.4846c.2913.1354.6323.2637 1.0088.3706.3766.1141.7602.2423 1.158.3778.3908.1425.7815.2993 1.158.4917.3766.1853.7105.4276 1.0088.7198.2913.2922.5329.6485.7105 1.0619.1776.4205.2699.9194.2699 1.5109 0 .6556-.1136 1.2685-.341 1.8316-.2273.5701-.5541 1.069-.9804 1.4895-.4262.4204-.959.7554-1.5842.9977-.6323.2423-1.3427.3635-2.1455.3635-.4405 0-.888-.0428-1.3427-.1354-.4547-.0927-.8952-.221-1.3214-.3849-.4263-.1639-.8241-.3634-1.2006-.5844-.3766-.228-.7034-.4775-.9804-.7554l.9662-1.5323c.0781-.1069.1776-.1995.3054-.2779.1279-.0713.2629-.114.4121-.114.1918 0 .3907.0641.5825.1852.199.1212.4192.2566.6678.4063.2487.1496.5329.285.8597.4062.3196.1212.7033.1853 1.1437.1853.5968 0 1.0515-.1283 1.3854-.392.3268-.2637.4902-.677.4902-1.2472 0-.3278-.0924-.5986-.27-.8053s-.4191-.3777-.7104-.5131-.6252-.2566-1.0017-.3564c-.3766-.1069-.7602-.2209-1.1509-.342-.3907-.1283-.7744-.278-1.1509-.4633s-.7104-.4276-1.0017-.7269-.5328-.6771-.7104-1.1261c-.1776-.4489-.27-1.0048-.27-1.6676 0-.5274.1066-1.0477.3197-1.5537s.5257-.955.9378-1.3469c.412-.392.9164-.7127 1.5203-.9479.5967-.2352 1.2858-.3563 2.0602-.3563.4334 0 .8525.0356 1.2646.0997.412.0642.7956.1711 1.1651.2994.3694.1354.7104.2922 1.0301.4775s.6039.3919.8596.6271z" fill="#15161a"/><g fill="#eb1b23"><path d="m17.1861 4.14966c.9733 0 1.8045.09265 2.4865.27082s1.2433.43473 1.6766.76969c.4334.33496.746.73406.9449 1.20443s.2984.99775.2984 1.58215c0 .3207-.0427.62003-.135.91935-.0924.2922-.2345.57014-.4263.82671-.1918.25656-.4404.49179-.7459.70559s-.6678.3991-1.0941.5558c.9307.2281 1.6127.5916 2.0603 1.0976.4475.506.6678 1.1616.6678 1.9598 0 .5987-.1137 1.1617-.3481 1.682-.2345.5202-.5755.9692-1.0231 1.3541-.4475.3848-1.0017.6841-1.6624.9051-.6607.2138-1.4066.3278-2.252.3278h-5.6337v-14.16094zm-1.9181 2.45874v3.4921h1.705c.3623 0 .6891-.0285.9804-.0784.2913-.04985.5399-.1425.7388-.27078.206-.12829.3552-.30646.4618-.53451.1066-.22806.1563-.51313.1563-.85522 0-.33496-.0426-.6129-.1279-.84096-.0852-.22093-.2131-.40622-.3836-.54163-.1776-.13541-.3979-.23519-.6607-.2922-.27-.05702-.5826-.08552-.952-.08552h-1.9181zm2.3017 9.2149c.4334 0 .7886-.057 1.0586-.1639.277-.1069.4902-.2494.6465-.4276s.2628-.3706.3197-.5915c.0568-.2209.0852-.4419.0852-.6699 0-.2566-.0355-.4918-.0994-.6985-.0711-.2066-.1848-.3848-.3482-.5273-.1634-.1426-.3836-.2495-.6535-.3279-.27-.0784-.611-.114-1.0231-.114h-2.2875v3.5206zm54.7598-11.67364v14.14664h-2.8844v-8.1316c0-.18533.0071-.392.0142-.61293s.0284-.44187.0498-.66992l-3.744 7.26935c-.1137.228-.27.3991-.4689.5131s-.4191.1782-.6749.1782h-.4475c-.2487 0-.476-.057-.6749-.1782-.199-.114-.3553-.2851-.4689-.5131l-3.744-7.29073c.0213.23518.0355.46324.0498.68417.0142.22093.0213.42761.0213.61286v8.1317h-2.8844v-14.13954h2.4936c.1421 0 .2629 0 .3695.00713.1065.00713.1989.02851.2841.05701.0853.03564.1563.08552.2274.14967.071.07126.1349.16391.1989.28507l3.6303 7.17666c.1278.2494.2557.4989.3694.7697.1208.2637.2344.5345.341.8125.1066-.2851.2273-.5631.341-.8339.1208-.2708.2486-.5274.3836-.7768l3.6161-7.14816c.0639-.12116.1279-.22093.1989-.28507.0711-.07127.1421-.12116.2273-.14967.0853-.03563.1777-.04988.2842-.05701.1066-.00713.2274-.00713.3694-.00713zm6.0244 14.14664h-3.2893v-14.14664h3.2893zm15.0326-14.14664v14.14664h-1.705c-.2487 0-.4618-.0427-.6323-.1211s-.341-.221-.5115-.4205l-6.6496-8.43812c.0284.24944.0426.49888.0497.73402.0071.2352.0142.4562.0142.6628v7.5829h-2.8843v-14.14664h1.7192c.1421 0 .2629.00713.3553.02138.0994.01426.1847.03564.2628.07127.0782.03563.1492.08552.2203.14966.071.06414.1491.14967.2415.26369l6.7064 8.49514c-.0355-.2708-.0568-.5345-.071-.7911-.0142-.2565-.0213-.4989-.0213-.7198v-7.48311h2.9056zm9.5055 6.82034h5.016v5.9722c-.725.5274-1.492.9194-2.309 1.1546-.817.2423-1.67.3563-2.558.3563-1.158 0-2.216-.1853-3.1683-.5487-.952-.3635-1.769-.8695-2.4439-1.5109s-1.2006-1.404-1.57-2.2877-.5541-1.8459-.5541-2.8792c0-1.0548.1776-2.02405.5257-2.90777s.8454-1.64629 1.4919-2.2877 1.435-1.14028 2.3515-1.49662c.9162-.35634 1.9462-.53451 3.0832-.53451.59 0 1.137.04989 1.655.14254.519.09977.995.22805 1.428.3991.434.17104.832.37059 1.194.59865.362.23518.682.48462.966.75543l-.945 1.45387c-.149.22806-.341.36347-.575.42048-.235.04989-.491-.00713-.76-.17817-.256-.15679-.505-.2922-.732-.40623-.228-.11403-.462-.20667-.704-.27794-.241-.07127-.49-.12116-.753-.15679-.262-.03563-.561-.04989-.888-.04989-.611 0-1.165.1069-1.655.32783-.49.21381-.909.52026-1.2503.91936-.3481.39197-.6109.86947-.7956 1.42536-.1848.55589-.2771 1.1688-.2771 1.8458 0 .7483.1066 1.4183.3126 2.0027s.4973 1.0761.8738 1.4752c.3766.3991.8316.7056 1.3566.9194.526.2066 1.109.3135 1.748.3135.391 0 .753-.0356 1.073-.114.319-.0784.632-.1782.93-.3136v-2.1451h-1.392c-.206 0-.369-.057-.483-.1639s-.178-.2495-.178-.4205v-1.8031zm-51.2004.955c-.3979 2.1594-2.2734 3.7202-4.4615 3.7202h-.0995c-.3197-.0072-.6607 0-1.5132-.3635-.8454-.3635-1.0301-.5773-1.6482-1.0619-.3552-.2779-.8667-.8124-1.3711-1.2614-.4973.5416-1.6269 1.7959-1.7264 1.8957.4334.4704 1.4919 1.3968 1.9182 1.7247l-.0639-.057c.9377.7839 2.0815 1.3327 3.339 1.5393.3907.0642.7317.0927 1.0585.0927.3552 0 .6465-.0143.9591-.0499 2.8062-.3421 5.1577-2.3447 5.9249-5.0885z"/><path d="m43.8063 8.10467c.8312-.96211 2.0532-1.56789 3.4172-1.56789 1.0656 0 2.0673.37059 2.863 1.01913l-1.0798.77682 4.9801 2.29487-.5115-5.47341-1.2859.91222c-1.3001-1.3042-3.0691-2.04538-4.9588-2.04538-2.181 0-4.1276.99775-5.4206 2.56564v.00713c-.0497.06414-3.9499 4.8462-5.5555 6.4284-.0853.0855-.1776.1639-.27.2423-.0142.0142-.0355.0285-.0497.0427-.1137.0998-.2273.1996-.341.2922-.0213.0214-.0497.0428-.0711.057-.1065.0856-.2131.1711-.3125.2495-.0285.0214-.0569.0427-.0782.0641-.071.057-.1421.1069-.206.1568-.0284.0214-.0568.0428-.0782.0641-.0284.0214-.0568.0428-.0852.0571-.0924.0641-.1847.1282-.27.1924-.0284.0214-.0497.0356-.0781.0499l-.2558.171c-.0213.0143-.0426.0285-.071.0428-.0782.0499-.1492.0926-.2203.1354-.0284.0142-.0568.0356-.0852.0499-.071.0427-.135.0784-.1989.114-.4689.2566-.8596.4205-1.1864.5203-.3268.0997-.5826.1496-1.1012.1496-2.5149-.1211-4.5041-2.3019-4.3123-4.889.1634-2.23777 1.9892-4.04797 4.2199-4.19763 1.428-.09265 2.6855.52025 3.6232 1.43961.1563.14966 1.428 1.52513 1.6979 1.86009.4831-.52025 1.6411-1.8886 1.6838-1.93848-.2274-.29933-1.1865-1.31133-1.2504-1.3826-1.364-1.53226-3.3319-2.53001-5.5413-2.5015-3.6729.04988-6.742 2.99325-6.9409 6.67071-.2131 3.9197 2.7707 7.198 6.5643 7.4546.135.0071.7389.0285 1.0586-.0072.3268-.0356.6181-.1069.8667-.1639.3978-.0926.8028-.3064.8099-.3064.0213-.0071.0426-.0214.0639-.0285.0782-.0357.1634-.0713.2487-.1141.0355-.0142.0781-.0356.1136-.057.0853-.0427.1777-.0855.27-.1354.0355-.0142.0639-.0356.0995-.0499.2486-.1354.5186-.285.7885-.4561.0356-.0214.0782-.0499.1137-.0712.0995-.0642.1989-.1283.3055-.1996.0426-.0285.0924-.0641.1421-.0926.0994-.0713.206-.1426.3126-.221.0426-.0356.0852-.0641.135-.0998.1065-.0783.2131-.1639.3196-.2423.0285-.0213.0569-.0427.0782-.0641.0213-.0143.0355-.0285.0568-.0428.1563-.1211.3126-.2565.476-.3919.0355-.0285.0782-.0642.1137-.0998.1208-.1069.2486-.2138.3765-.3278.0568-.0499.1066-.0998.1634-.1426.0213-.0214.0497-.0427.071-.0641.0924-.0855.1848-.1711.2842-.2637.0569-.0499 1.4777-1.4468 2.4368-2.6155.9591-1.1688 1.9963-2.56569 3.0619-3.82713z"/></g></svg>