<svg fill="none" height="40" viewBox="0 0 120 40" width="120" xmlns="http://www.w3.org/2000/svg" xmlns:xlink="http://www.w3.org/1999/xlink"><linearGradient id="a" gradientUnits="userSpaceOnUse" x1="33.7619" x2="16.6462" y1="26.0139" y2="23.7662"><stop offset="0" stop-color="#000056"/><stop offset="1" stop-color="#1010cb"/></linearGradient><linearGradient id="b"><stop offset="0" stop-color="#01f5fc"/><stop offset="1" stop-color="#1010cb"/></linearGradient><linearGradient id="c" gradientUnits="userSpaceOnUse" x1="42.2092" x2="56.9152" xlink:href="#b" y1="33.3242" y2="-40.9857"/><linearGradient id="d" gradientUnits="userSpaceOnUse" x1="21.449" x2="21.449" xlink:href="#b" y1="4.38175" y2="37.4975"/><linearGradient id="e"><stop offset="0" stop-color="#00fffd"/><stop offset="1" stop-color="#1010cb"/></linearGradient><linearGradient id="f" gradientUnits="userSpaceOnUse" x1="44.3793" x2="22.7714" xlink:href="#e" y1="28.7049" y2="-45.205"/><linearGradient id="g" gradientUnits="userSpaceOnUse" x1="-1.19592" x2="26.3583" xlink:href="#e" y1="19.3164" y2="29.4898"/><mask id="h" height="8" maskUnits="userSpaceOnUse" width="74" x="42" y="28"><path d="m42.8184 28.1685h72.1826v7.8315h-72.1826z" fill="#fff" opacity=".64"/></mask><mask height="8" maskUnits="userSpaceOnUse" width="72" x="43" y="28"><path d="m43.9835 29.1576 1.7841 2.295 1.7909-2.295h.4582v4.9228h-.5067v-4.0631l-1.7285 2.191h-.0278l-1.7215-2.191v4.0631h-.5068v-4.9228zm7.8124 3.1131-1.1731.1595c-.324.0416-.5565.1191-.6976.2323-.1412.1132-.2117.2623-.2117.4472 0 .2311.0787.3964.236.4958.1573.0993.3517.149.5831.149.3933 0 .7022-.1097.9267-.3293s.3366-.4681.3366-.7454zm-1.3189 1.8929c-.4118 0-.7231-.0936-.9336-.2808-.2106-.1872-.3159-.4449-.3159-.7731 0-.5963.4443-.9522 1.3328-1.0678l1.2356-.1595v-.097c0-.5963-.3331-.8944-.9996-.8944-.5645 0-.8931.2334-.9857.7003h-.4928c.0509-.3421.1978-.6148.4407-.8182.2431-.2034.5959-.3051 1.0586-.3051.4906 0 .8585.119 1.1038.3571.2453.238.3679.5605.3679.9672v1.5462c0 .3467.0347.594.1041.7419h-.4859c-.0508-.1387-.0763-.3397-.0763-.6032-.2684.4576-.7197.6864-1.3537.6864zm5.5842-3.6124h.6595l-1.4648 1.4561 1.5758 2.0731h-.6109l-1.3119-1.7403-.7984.7765v.9638h-.4929v-5.2002h.4929v3.6332zm1.7939-.8736c-.1065 0-.192-.0312-.2569-.0936-.0647-.0624-.0971-.1445-.0971-.2462 0-.1016.0324-.186.0971-.2531.0649-.067.1504-.1005.2569-.1005.1018 0 .1863.0335.2534.1005.0671.0671.1006.1515.1006.2531 0 .1017-.0335.1838-.1006.2462s-.1516.0936-.2534.0936zm-.2499 4.4028v-3.5292h.4929v3.5292zm2.3285-3.5292v.5408c.0832-.1572.2221-.3004.4164-.4299.1944-.1294.4443-.1941.7497-.1941.4258 0 .7555.1248.9892.3744.2338.2496.3506.5778.3506.9846v2.2534h-.4928v-2.1564c0-.3281-.0776-.5812-.2326-.7591-.155-.178-.3876-.267-.6977-.267-.31 0-.5645.0947-.7635.2843-.199.1895-.2985.4553-.2985.7974v2.1008h-.4929v-3.5292zm6.5629.6448v-.6448h.472v3.3558c0 .4993-.1423.9061-.4269 1.2204s-.693.4715-1.2252.4715c-.4628 0-.8296-.111-1.1003-.3329-.2707-.2218-.4408-.4853-.5102-.7904h.5068c.0693.208.2024.3733.3991.4957.1967.1226.4361.1838.7184.1838.3564 0 .6364-.1052.84-.3155s.3054-.4842.3054-.8216v-.6587c-.273.4761-.7104.7142-1.312.7142-.509 0-.9139-.1757-1.2148-.527-.3008-.3513-.4512-.7765-.4512-1.2758 0-.4992.1504-.9244.4512-1.2757.3009-.3514.7058-.527 1.2148-.527.6156 0 1.0598.2427 1.3329.728zm-.3402 2.0523c.2268-.2588.3402-.5847.3402-.9776s-.1123-.7176-.3367-.9741-.5264-.3848-.9059-.3848-.6838.1294-.9129.3883c-.229.2588-.3435.5823-.3435.9706s.1145.7131.3435.9742c.2291.2612.5334.3917.9129.3917s.6803-.1294.9024-.3883zm4.5875-2.0592c.2684-.4807.708-.7211 1.3189-.7211.523 0 .9325.1791 1.2287.5374.2962.3582.4443.7962.4443 1.3139 0 .513-.1481.9487-.4443 1.3069-.2962.3583-.7057.5374-1.2287.5374-.6201 0-1.0667-.245-1.3397-.7349v.6517h-.4721v-5.2002h.4929zm-.0139 1.1302c0 .3975.1111.7303.3332.9984.2222.2681.5252.4022.9094.4022.3841 0 .6907-.1341.9197-.4022.2291-.2681.3437-.6009.3437-.9984 0-.4022-.1146-.7373-.3437-1.0054-.229-.2681-.5356-.4021-.9197-.4021-.3842 0-.6872.1328-.9094.3987-.2221.2657-.3332.602-.3332 1.0088zm7.2641.1386h-2.9364c.0231.3698.1481.6726.3748.9083.2268.2358.5207.3537.8816.3537.264 0 .4954-.0682.6942-.2046.1989-.1363.3376-.3154.4169-.5374h.513c-.1061.3514-.3029.6368-.5895.8564-.2873.2195-.6341.3293-1.0417.3293-.5364 0-.9612-.1791-1.2736-.5374-.3124-.3582-.4686-.7961-.4686-1.3139 0-.5085.1608-.943.4825-1.3035.3216-.3605.7396-.5408 1.2526-.5408.5138 0 .9257.1722 1.2357.5165.3106.3444.4656.7731.4656 1.2862zm-1.6942-1.5461c-.3326 0-.6105.1074-.8327.3223-.2221.215-.354.4889-.3956.8217h2.4363c-.0325-.3467-.1556-.624-.3715-.8321-.2151-.2079-.4939-.3119-.8365-.3119zm4.2305 2.7041v.4437c-.0828.0231-.208.0347-.3743.0347-.6107 0-.9165-.3212-.9165-.9638v-2.1633h-.6737v-.416h.6737v-1.0053h.4926v1.0053h.8124v.416h-.8124v2.1286c0 .3698.162.5547.4862.5547zm2.3148 0v.4437c-.0835.0231-.208.0347-.375.0347-.6107 0-.9158-.3212-.9158-.9638v-2.1633h-.6737v-.416h.6737v-1.0053h.4926v1.0053h.8124v.416h-.8124v2.1286c0 .3698.162.5547.4862.5547zm4.043-1.158h-2.9361c.0233.3698.1479.6726.375.9083.2265.2358.5202.3537.8811.3537.2639 0 .4954-.0682.6942-.2046.1996-.1363.3383-.3154.4168-.5374h.5138c-.1069.3514-.3036.6368-.5902.8564-.2866.2195-.6341.3293-1.041.3293-.5371 0-.9617-.1791-1.2738-.5374-.3128-.3582-.4692-.7961-.4692-1.3139 0-.5085.1614-.943.4826-1.3035.322-.3605.7396-.5408 1.2533-.5408.5138 0 .9257.1722 1.2356.5165.31.3444.465.7731.465 1.2862zm-1.6935-1.5461c-.3333 0-.6107.1074-.8329.3223-.2222.215-.3545.4889-.3956.8217h2.4365c-.0325-.3467-.1564-.624-.3715-.8321-.2151-.2079-.4939-.3119-.8365-.3119zm4.515-.3883v.4645c-.0559-.0046-.1132-.0069-.1734-.0069-.3149 0-.5696.0936-.7636.2808-.1946.1872-.2915.4588-.2915.8147v2.0038h-.4933v-3.5292h.4721v.5477c.0835-.1525.22-.2877.4097-.4056.1897-.1178.4303-.1767.7218-.1767zm5.5524.6725v-.6448h.4721v3.3558c0 .4993-.1423.9061-.4268 1.2204-.2852.3143-.6935.4715-1.2257.4715-.4628 0-.8294-.111-1.0997-.3329-.271-.2218-.4409-.4853-.5102-.7904h.5067c.0693.208.2024.3733.3991.4957.1967.1226.4359.1838.7183.1838.356 0 .6362-.1052.84-.3155s.305-.4842.305-.8216v-.6587c-.2724.4761-.7098.7142-1.3113.7142-.5095 0-.9143-.1757-1.2151-.527s-.4515-.7765-.4515-1.2758c0-.4992.1507-.9244.4515-1.2757.3008-.3514.7056-.527 1.2151-.527.615 0 1.0594.2427 1.3325.728zm-.3403 2.0523c.2271-.2588.3403-.5847.3403-.9776s-.1125-.7176-.3368-.9741-.5265-.3848-.9058-.3848c-.3794 0-.6837.1294-.9129.3883-.2293.2588-.3433.5823-.3433.9706s.114.7131.3433.9742c.2292.2612.5335.3917.9129.3917.3793 0 .68-.1294.9023-.3883zm4.4668-.9776-1.1733.1595c-.3241.0416-.5563.1191-.6978.2323-.1408.1132-.2116.2623-.2116.4472 0 .2311.0786.3964.2364.4958.1571.0993.3517.149.5824.149.3935 0 .7027-.1097.9271-.3293.2243-.2196.3368-.4681.3368-.7454zm-1.3191 1.8929c-.4119 0-.7233-.0936-.9334-.2808-.2109-.1872-.3164-.4449-.3164-.7731 0-.5963.4445-.9522 1.3333-1.0678l1.2356-.1595v-.097c0-.5963-.3333-.8944-.9999-.8944-.5648 0-.8931.2334-.9858.7003h-.4926c.051-.3421.1975-.6148.4409-.8182.2427-.2034.5959-.3051 1.0587-.3051.4904 0 .8584.119 1.1033.3571.2455.238.3679.5605.3679.9672v1.5462c0 .3467.0347.594.1041.7419h-.4855c-.0509-.1387-.0764-.3397-.0764-.6032-.2682.4576-.7197.6864-1.3538.6864zm6.0285-2.1425v2.0593h-.493v-2.1564c0-.3189-.073-.5697-.219-.7522-.146-.1826-.368-.2739-.669-.2739-.297 0-.539.0971-.729.2912s-.285.4576-.285.7905v2.1008h-.493v-3.5292h.472v.5408c.227-.416.6-.624 1.118-.624.56 0 .944.2265 1.152.6795.112-.1895.273-.3502.486-.4819s.465-.1976.756-.1976c.412 0 .731.1283.955.3848s.337.5813.337.9742v2.2534h-.493v-2.1564c0-.3142-.073-.5638-.219-.7487s-.367-.2774-.662-.2774c-.292 0-.534.0971-.726.2912s-.288.4715-.288.832zm6.882.4368h-2.937c.024.3698.149.6726.376.9083.227.2358.52.3537.881.3537.264 0 .496-.0682.695-.2046.198-.1363.337-.3154.416-.5374h.513c-.106.3514-.302.6368-.59.8564-.286.2195-.633.3293-1.041.3293-.537 0-.961-.1791-1.274-.5374-.312-.3582-.468-.7961-.468-1.3139 0-.5085.161-.943.483-1.3035.321-.3605.738-.5408 1.252-.5408s.926.1722 1.236.5165c.31.3444.465.7731.465 1.2862zm-1.694-1.5461c-.333 0-.611.1074-.833.3223-.222.215-.354.4889-.395.8217h2.436c-.032-.3467-.156-.624-.371-.8321-.215-.2079-.494-.3119-.837-.3119zm3.926 3.2518c-.477 0-.833-.1121-1.066-.3363-.234-.2242-.362-.5073-.385-.8494h.5c.018.2358.107.4207.266.5547.16.1341.388.2012.685.2012.291 0 .519-.0544.683-.163.164-.1087.247-.2531.247-.4334 0-.1849-.075-.3224-.226-.4125-.15-.0901-.332-.1514-.545-.1838-.213-.0323-.427-.0716-.642-.1179-.215-.0462-.398-.1432-.548-.2911-.151-.148-.226-.3559-.226-.6241 0-.2865.118-.5315.354-.7349s.555-.3051.958-.3051c.444 0 .773.1133.986.3397.213.2265.333.4854.361.7766h-.493c-.023-.2034-.107-.3686-.251-.4958-.142-.127-.348-.1906-.617-.1906-.264 0-.466.0554-.607.1664s-.212.2519-.212.4229c0 .1526.054.2728.163.3606s.244.1444.406.1698c.162.0255.337.059.524.1006.188.0416.363.0878.525.1387.161.0508.297.1502.405.2981.109.1479.164.3374.164.5686 0 .2866-.122.5316-.365.735-.243.2033-.591.305-1.044.305z" fill="#fff" opacity=".64"/></mask><mask id="i" height="32" maskUnits="userSpaceOnUse" width="31" x="5" y="4"><path d="m17.7628 5.45575c2.0421-.67407 4.8369-1.45575 7.5643-1.45575.2074 0 .4141.00453.6204.01391-.7083.10874-1.4009.23657-2.055.34718-3.0594.51745-7.5002 1.76557-8.5518 5.1879-1.0515 3.42231 1.9109 7.06921 4.3912 9.58641 2.4803 2.517 6.1949 5.2607 9.3192 4.3275 3.1245-.9333 4.2325-5.5668 4.914-7.8954.519-1.7737.7498-3.3713.7785-4.7578.1003.3703.1782.7633.2317 1.1839.3562 2.7943-.3353 6.7434-.9539 9.4628-1.2187 5.3573-3.5013 12.2804-8.7802 13.6836-5.279 1.403-10.5021-3.4063-13.7676-7.0211-3.2655-3.6145-7.45372-8.2021-6.26798-13.4138.62064-2.7286 4.69166-6.65269 12.55718-9.24935z" fill="#fff"/></mask><mask id="j" height="32" maskUnits="userSpaceOnUse" width="31" x="5" y="4"><path d="m17.7628 5.45575c2.0421-.67407 4.8369-1.45575 7.5643-1.45575.2074 0 .4141.00453.6204.01391-.7083.10874-1.4009.23657-2.055.34718-3.0594.51745-7.5002 1.76557-8.5518 5.1879-1.0515 3.42231 1.9109 7.06921 4.3912 9.58641 2.4803 2.517 6.1949 5.2607 9.3192 4.3275 3.1245-.9333 4.2325-5.5668 4.914-7.8954.519-1.7737.7498-3.3713.7785-4.7578.1003.3703.1782.7633.2317 1.1839.3562 2.7943-.3353 6.7434-.9539 9.4628-1.2187 5.3573-3.5013 12.2804-8.7802 13.6836-5.279 1.403-10.5021-3.4063-13.7676-7.0211-3.2655-3.6145-7.45372-8.2021-6.26798-13.4138.62064-2.7286 4.69166-6.65269 12.55718-9.24935z" fill="#fff"/></mask><mask id="k" height="16" maskUnits="userSpaceOnUse" width="21" x="7" y="20"><path d="m26.8801 23.5789c.7861 3.7811.5786 7.6095-2.3214 10.1818-.7215.64-1.5412 1.1457-2.4323 1.5385-4.1547-.6165-8.0312-4.2826-10.6493-7.1807-1.4268-1.5794-3.02984-3.3445-4.28374-5.2664.5524.1265 1.09652.239 1.62115.3403 4.12989.7977 9.66779 1.1256 12.28069-1.3365.2803-.2642.51-.5519.6957-.8579 1.5691 1.2564 3.3541 2.3063 5.0892 2.5809z" fill="#fff"/></mask><mask id="l" height="17" maskUnits="userSpaceOnUse" width="23" x="7" y="19"><path d="m26.8801 23.5791c4.2602.5442 2.8999 8.7658 0 11.338-.7215.64-3.2289 1.8192-4.7537.3823-4.1547-.6166-8.0312-4.2825-10.6493-7.1807-1.4268-1.5793-3.02984-3.3445-4.28374-5.2663.5524.1263.95511-1.3368 1.47973-1.2355 4.12991.7976 4.87621.1578 7.48901-2.3043.2803-.2642 5.4431 1.9917 5.6288 1.6857 1.5691 1.2563 3.3541 2.3062 5.0892 2.5808z" fill="#fff"/></mask><path d="m40.9199 15.4648c0-2.5833.7894-4.6911 2.3681-6.32344 1.5788-1.63237 3.6057-2.44854 6.0809-2.44854 2.1103 0 3.9033.58638 5.3789 1.75914 1.4756 1.17278 2.388 2.75754 2.7371 4.75444h-3.0703c-.2856-1.1728-.8767-2.0919-1.7731-2.7576-.8965-.66559-1.9873-.9984-3.2726-.9984-1.6818 0-3.0027.5428-3.9627 1.6284-.9599 1.0856-1.4399 2.5476-1.4399 4.386s.48 3.3043 1.4399 4.3979c.96 1.0935 2.2809 1.6403 3.9627 1.6403 1.2853 0 2.3761-.3329 3.2726-.9985.8964-.6656 1.4875-1.5848 1.7731-2.7575h3.0703c-.3491 1.9968-1.2615 3.5816-2.7371 4.7544-1.4756 1.1727-3.2686 1.7591-5.3789 1.7591-2.4752 0-4.5021-.8162-6.0809-2.4486-1.5787-1.6323-2.3681-3.748-2.3681-6.3471zm26.8982 2.6625-3.2844.4992c-1.5391.2377-2.3087.8241-2.3087 1.7591 0 1.0777.7299 1.6166 2.1897 1.6166 1.0948 0 1.9357-.2932 2.5228-.8796.587-.5864.8806-1.3234.8806-2.2108zm-3.9746 6.0857c-1.4598 0-2.5467-.3407-3.2607-1.0222s-1.071-1.5848-1.071-2.7101c0-2.1553 1.5788-3.4549 4.7363-3.8986l3.57-.4992v-.1902c0-1.5056-.8806-2.2584-2.6418-2.2584-1.5391 0-2.4118.6102-2.618 1.8305h-2.7609c.127-1.2045.6307-2.199 1.5113-2.9834.8807-.7845 2.1936-1.1767 3.939-1.1767 1.7612 0 3.09.4041 3.9865 1.2124.8965.8082 1.3447 1.9413 1.3447 3.3993v5.6816c0 .9985.119 1.7751.357 2.3297h-2.6894c-.0158 0-.0357-.0594-.0595-.1783-.0238-.1188-.0476-.313-.0714-.5824s-.0357-.5547-.0357-.8558c-.841 1.2678-2.2531 1.9018-4.2364 1.9018zm13.0229-.2853h-2.8325v-17.82919h2.8325zm14.9029-5.3487h-9.4014c.1111.9825.4684 1.763 1.0714 2.3415.6029.5785 1.3962.8677 2.3799.8677.6504 0 1.2377-.1584 1.7607-.4754.5237-.317.8966-.7449 1.1188-1.2837h2.8562c-.3807 1.2519-1.0912 2.2623-2.1301 3.0309-1.0396.7686-2.2653 1.153-3.6771 1.153-1.8407 0-3.3282-.6102-4.4626-1.8305s-1.702-2.7655-1.702-4.6355c0-1.8227.5711-3.3519 1.714-4.5881 1.1422-1.2362 2.6177-1.8542 4.4266-1.8542 1.8088 0 3.273.6061 4.3911 1.8185 1.1188 1.2124 1.6779 2.7378 1.6779 4.5762zm-6.0456-4.9684c-.8882 0-1.6263.2615-2.2137.7845-.5866.5229-.9518 1.2203-1.0947 2.0919h6.5693c-.1273-.8716-.4762-1.569-1.0473-2.0919-.5711-.523-1.3092-.7845-2.2136-.7845zm14.3073 7.7972v2.4486c-.3484.0951-.8402.1426-1.475.1426-2.4118 0-3.6177-1.2123-3.6177-3.6371v-6.5136h-1.8803v-2.2584h1.8803v-3.20925h2.8321v3.20925h2.3096v2.2584h-2.3096v6.2283c0 .9667.4607 1.4501 1.3807 1.4501zm10.025-3.2805-3.285.4992c-1.539.2377-2.309.8241-2.309 1.7591 0 1.0777.731 1.6166 2.19 1.6166 1.095 0 1.936-.2932 2.523-.8796s.881-1.3234.881-2.2108zm-3.975 6.0857c-1.46 0-2.547-.3407-3.261-1.0222s-1.071-1.5848-1.071-2.7101c0-2.1553 1.579-3.4549 4.736-3.8986l3.571-.4992v-.1902c0-1.5056-.881-2.2584-2.642-2.2584-1.539 0-2.412.6102-2.618 1.8305h-2.761c.127-1.2045.63-2.199 1.512-2.9834.88-.7845 2.193-1.1767 3.938-1.1767 1.761 0 3.09.4041 3.987 1.2124.896.8082 1.344 1.9413 1.344 3.3993v5.6816c0 .9985.119 1.7751.357 2.3297h-2.689c-.016 0-.036-.0594-.06-.1783-.024-.1188-.047-.313-.071-.5824-.023-.2694-.035-.5547-.035-.8558-.842 1.2678-2.254 1.9018-4.237 1.9018z" fill="#0a1070"/><g mask="url(#h)" opacity=".64"><path clip-rule="evenodd" d="m43.9835 29.1576 1.7841 2.295 1.7909-2.295h.4582v4.9228h-.5067v-4.0631l-1.7285 2.191h-.0278l-1.7215-2.191v4.0631h-.5068v-4.9228zm7.8124 3.1131-1.1731.1595c-.324.0416-.5565.1191-.6976.2323-.1412.1132-.2117.2623-.2117.4472 0 .2311.0787.3964.236.4958.1573.0993.3517.149.5831.149.3933 0 .7022-.1097.9267-.3293s.3366-.4681.3366-.7454zm-1.3189 1.8929c-.4118 0-.7231-.0936-.9336-.2808-.2106-.1872-.3159-.4449-.3159-.7731 0-.5963.4443-.9522 1.3328-1.0678l1.2356-.1595v-.097c0-.5963-.3331-.8944-.9996-.8944-.5645 0-.8931.2334-.9857.7003h-.4928c.0509-.3421.1978-.6148.4407-.8182.2431-.2034.5959-.3051 1.0586-.3051.4906 0 .8585.119 1.1038.3571.2453.238.3679.5605.3679.9672v1.5462c0 .3467.0347.594.1041.7419h-.4859c-.0508-.1387-.0763-.3397-.0763-.6032-.2684.4576-.7197.6864-1.3537.6864zm5.5842-3.6124h.6595l-1.4648 1.4561 1.5758 2.0731h-.6109l-1.3119-1.7403-.7984.7765v.9638h-.4929v-5.2002h.4929v3.6332zm1.7939-.8736c-.1065 0-.192-.0312-.2569-.0936-.0647-.0624-.0971-.1445-.0971-.2462 0-.1016.0324-.186.0971-.2531.0649-.067.1504-.1005.2569-.1005.1018 0 .1863.0335.2534.1005.0671.0671.1006.1515.1006.2531 0 .1017-.0335.1838-.1006.2462s-.1516.0936-.2534.0936zm-.2499 4.4028v-3.5292h.4929v3.5292zm2.3285-3.5292v.5408c.0832-.1572.2221-.3004.4164-.4299.1944-.1294.4443-.1941.7497-.1941.4258 0 .7555.1248.9892.3744.2338.2496.3506.5778.3506.9846v2.2534h-.4928v-2.1564c0-.3281-.0776-.5812-.2326-.7591-.155-.178-.3876-.267-.6977-.267-.31 0-.5645.0947-.7635.2843-.199.1895-.2985.4553-.2985.7974v2.1008h-.4929v-3.5292zm6.5629.6448v-.6448h.472v3.3558c0 .4993-.1423.9061-.4269 1.2204s-.693.4715-1.2252.4715c-.4628 0-.8296-.111-1.1003-.3329-.2707-.2218-.4408-.4853-.5102-.7904h.5068c.0693.208.2024.3733.3991.4957.1967.1226.4361.1838.7184.1838.3564 0 .6364-.1052.84-.3155s.3054-.4842.3054-.8216v-.6587c-.273.4761-.7104.7142-1.312.7142-.509 0-.9139-.1757-1.2148-.527-.3008-.3513-.4512-.7765-.4512-1.2758 0-.4992.1504-.9244.4512-1.2757.3009-.3514.7058-.527 1.2148-.527.6156 0 1.0598.2427 1.3329.728zm-.3402 2.0523c.2268-.2588.3402-.5847.3402-.9776s-.1123-.7176-.3367-.9741-.5264-.3848-.9059-.3848-.6838.1294-.9129.3883c-.229.2588-.3435.5823-.3435.9706s.1145.7131.3435.9742c.2291.2612.5334.3917.9129.3917s.6803-.1294.9024-.3883zm4.5875-2.0592c.2684-.4807.708-.7211 1.3189-.7211.523 0 .9325.1791 1.2287.5374.2962.3582.4443.7962.4443 1.3139 0 .513-.1481.9487-.4443 1.3069-.2962.3583-.7057.5374-1.2287.5374-.6201 0-1.0667-.245-1.3397-.7349v.6517h-.4721v-5.2002h.4929zm-.0139 1.1302c0 .3975.1111.7303.3332.9984.2222.2681.5252.4022.9094.4022.3841 0 .6907-.1341.9197-.4022.2291-.2681.3437-.6009.3437-.9984 0-.4022-.1146-.7373-.3437-1.0054-.229-.2681-.5356-.4021-.9197-.4021-.3842 0-.6872.1328-.9094.3987-.2221.2657-.3332.602-.3332 1.0088zm7.2641.1386h-2.9364c.0231.3698.1481.6726.3748.9083.2268.2358.5207.3537.8816.3537.264 0 .4954-.0682.6942-.2046.1989-.1363.3376-.3154.4169-.5374h.513c-.1061.3514-.3029.6368-.5895.8564-.2873.2195-.6341.3293-1.0417.3293-.5364 0-.9612-.1791-1.2736-.5374-.3124-.3582-.4686-.7961-.4686-1.3139 0-.5085.1608-.943.4825-1.3035.3216-.3605.7396-.5408 1.2526-.5408.5138 0 .9257.1722 1.2357.5165.3106.3444.4656.7731.4656 1.2862zm-1.6942-1.5461c-.3326 0-.6105.1074-.8327.3223-.2221.215-.354.4889-.3956.8217h2.4364c-.0326-.3467-.1557-.624-.3716-.8321-.2151-.2079-.4939-.3119-.8365-.3119zm4.2305 2.7041v.4437c-.0828.0231-.208.0347-.3743.0347-.6107 0-.9165-.3212-.9165-.9638v-2.1633h-.6737v-.416h.6737v-1.0053h.4926v1.0053h.8124v.416h-.8124v2.1286c0 .3698.162.5547.4862.5547zm2.3148 0v.4437c-.0835.0231-.208.0347-.375.0347-.6107 0-.9158-.3212-.9158-.9638v-2.1633h-.6737v-.416h.6737v-1.0053h.4926v1.0053h.8124v.416h-.8124v2.1286c0 .3698.162.5547.4862.5547zm4.043-1.158h-2.9361c.0233.3698.1479.6726.375.9083.2265.2358.5202.3537.8811.3537.2639 0 .4954-.0682.6942-.2046.1996-.1363.3383-.3154.4168-.5374h.5138c-.1069.3514-.3036.6368-.5902.8564-.2866.2195-.6341.3293-1.041.3293-.5371 0-.9617-.1791-1.2738-.5374-.3128-.3582-.4692-.7961-.4692-1.3139 0-.5085.1614-.943.4826-1.3035.322-.3605.7396-.5408 1.2533-.5408.5138 0 .9257.1722 1.2356.5165.31.3444.465.7731.465 1.2862zm-1.6935-1.5461c-.3333 0-.6107.1074-.8329.3223-.2222.215-.3545.4889-.3956.8217h2.4365c-.0325-.3467-.1564-.624-.3715-.8321-.2151-.2079-.494-.3119-.8365-.3119zm4.515-.3883v.4645c-.0559-.0046-.1132-.0069-.1734-.0069-.3149 0-.5696.0936-.7636.2808-.1946.1872-.2915.4588-.2915.8147v2.0038h-.4933v-3.5292h.4721v.5477c.0835-.1525.22-.2877.4097-.4056.1897-.1178.4303-.1767.7218-.1767zm5.5524.6725v-.6448h.4721v3.3558c0 .4993-.1423.9061-.4268 1.2204-.2852.3143-.6935.4715-1.2257.4715-.4628 0-.8294-.111-1.0997-.3329-.271-.2218-.4409-.4853-.5102-.7904h.5067c.0693.208.2024.3733.3991.4957.1967.1226.4359.1838.7183.1838.356 0 .6362-.1052.84-.3155s.305-.4842.305-.8216v-.6587c-.2724.4761-.7098.7142-1.3113.7142-.5095 0-.9143-.1757-1.2151-.527s-.4515-.7765-.4515-1.2758c0-.4992.1507-.9244.4515-1.2757.3008-.3514.7056-.527 1.2151-.527.615 0 1.0594.2427 1.3325.728zm-.3403 2.0523c.2271-.2588.3403-.5847.3403-.9776s-.1125-.7176-.3368-.9741-.5265-.3848-.9058-.3848c-.3794 0-.6837.1294-.9129.3883-.2293.2588-.3433.5823-.3433.9706s.114.7131.3433.9742c.2292.2612.5335.3917.9129.3917.3793 0 .68-.1294.9023-.3883zm4.4668-.9776-1.1733.1595c-.3241.0416-.5563.1191-.6978.2323-.1408.1132-.2116.2623-.2116.4472 0 .2311.0786.3964.2364.4958.1571.0993.3517.149.5824.149.3935 0 .7027-.1097.9271-.3293.2243-.2196.3368-.4681.3368-.7454zm-1.3191 1.8929c-.4119 0-.7232-.0936-.9334-.2808-.2109-.1872-.3164-.4449-.3164-.7731 0-.5963.4445-.9522 1.3333-1.0678l1.2356-.1595v-.097c0-.5963-.3333-.8944-.9999-.8944-.5648 0-.8931.2334-.9858.7003h-.4926c.051-.3421.1975-.6148.4409-.8182.2427-.2034.5959-.3051 1.0587-.3051.4904 0 .8584.119 1.1033.3571.2455.238.3679.5605.3679.9672v1.5462c0 .3467.0347.594.1041.7419h-.4855c-.0509-.1387-.0764-.3397-.0764-.6032-.2682.4576-.7197.6864-1.3538.6864zm6.0285-2.1425v2.0593h-.493v-2.1564c0-.3189-.073-.5697-.219-.7522-.146-.1826-.368-.2739-.669-.2739-.297 0-.539.0971-.729.2912s-.285.4576-.285.7905v2.1008h-.493v-3.5292h.472v.5408c.227-.416.6-.624 1.118-.624.56 0 .944.2265 1.152.6795.112-.1895.273-.3502.486-.4819s.465-.1976.756-.1976c.412 0 .731.1283.955.3848s.337.5813.337.9742v2.2534h-.493v-2.1564c0-.3142-.073-.5638-.219-.7487s-.367-.2774-.662-.2774c-.292 0-.534.0971-.726.2912s-.288.4715-.288.832zm6.882.4368h-2.937c.024.3698.149.6726.376.9083.227.2358.52.3537.881.3537.264 0 .496-.0682.695-.2046.198-.1363.337-.3154.416-.5374h.513c-.106.3514-.302.6368-.59.8564-.286.2195-.633.3293-1.041.3293-.537 0-.961-.1791-1.274-.5374-.312-.3582-.468-.7961-.468-1.3139 0-.5085.161-.943.483-1.3035.321-.3605.738-.5408 1.252-.5408s.926.1722 1.236.5165c.31.3444.465.7731.465 1.2862zm-1.694-1.5461c-.333 0-.611.1074-.833.3223-.222.215-.354.4889-.395.8217h2.436c-.032-.3467-.156-.624-.371-.8321-.215-.2079-.494-.3119-.837-.3119zm3.926 3.2518c-.477 0-.833-.1121-1.066-.3363-.234-.2242-.362-.5073-.385-.8494h.5c.018.2358.107.4207.266.5547.16.1341.388.2012.685.2012.291 0 .519-.0544.683-.163.164-.1087.247-.2531.247-.4334 0-.1849-.075-.3224-.226-.4125-.15-.0901-.332-.1514-.545-.1838-.213-.0323-.427-.0716-.642-.1179-.215-.0462-.398-.1432-.548-.2911-.151-.148-.226-.3559-.226-.6241 0-.2865.118-.5315.354-.7349s.555-.3051.958-.3051c.444 0 .773.1133.986.3397.213.2265.333.4854.361.7766h-.493c-.023-.2034-.107-.3686-.25-.4958-.143-.127-.349-.1906-.618-.1906-.264 0-.466.0554-.607.1664s-.212.2519-.212.4229c0 .1526.054.2728.163.3606s.244.1444.406.1698c.162.0255.337.059.524.1006.188.0416.363.0878.525.1387.161.0508.297.1502.405.2981.109.1479.164.3374.164.5686 0 .2866-.122.5316-.365.735-.243.2033-.591.305-1.044.305z" fill-rule="evenodd" opacity=".8" stroke="#fff" stroke-width=".6"/></g><path d="m43.9835 29.1577 1.7841 2.295 1.7909-2.295h.4582v4.9228h-.5067v-4.063l-1.7285 2.1909h-.0278l-1.7215-2.1909v4.063h-.5068v-4.9228zm7.8124 3.1132-1.1731.1594c-.324.0416-.5565.1191-.6976.2323-.1412.1133-.2117.2623-.2117.4472 0 .2311.0787.3964.236.4958s.3517.1491.5831.1491c.3933 0 .7022-.1098.9267-.3294s.3366-.468.3366-.7453zm-1.3189 1.8928c-.4118 0-.7231-.0936-.9336-.2808-.2106-.1872-.3159-.4449-.3159-.7731 0-.5963.4443-.9522 1.3328-1.0678l1.2356-.1594v-.0971c0-.5963-.3331-.8944-.9996-.8944-.5645 0-.8931.2334-.9857.7003h-.4928c.0509-.3421.1978-.6148.4407-.8182.2431-.2034.5959-.3051 1.0587-.3051.4905 0 .8584.1191 1.1037.3571s.3679.5605.3679.9672v1.5463c0 .3466.0347.5939.1041.7418h-.4859c-.0508-.1387-.0763-.3397-.0763-.6032-.2684.4576-.7197.6864-1.3537.6864zm5.5842-3.6124h.6595l-1.4648 1.4561 1.5758 2.0731h-.6109l-1.3119-1.7403-.7984.7765v.9638h-.4929v-5.2002h.4929v3.6332zm1.7939-.8736c-.1065 0-.192-.0312-.2568-.0936s-.0972-.1445-.0972-.2461c0-.1017.0324-.1861.0972-.2531s.1503-.1006.2568-.1006c.1018 0 .1863.0336.2534.1006s.1006.1514.1006.2531c0 .1016-.0335.1837-.1006.2461s-.1516.0936-.2534.0936zm-.2499 4.4028v-3.5292h.4929v3.5292zm2.3285-3.5292v.5408c.0833-.1572.2221-.3004.4164-.4298.1944-.1295.4443-.1942.7497-.1942.4258 0 .7556.1248.9892.3744.2338.2496.3506.5779.3506.9846v2.2534h-.4928v-2.1564c0-.3281-.0776-.5812-.2326-.7591-.155-.178-.3875-.267-.6977-.267-.31 0-.5645.0948-.7635.2843s-.2985.4553-.2985.7974v2.1008h-.4929v-3.5292zm6.5629.6449v-.6449h.472v3.3559c0 .4992-.1423.906-.4269 1.2203s-.693.4715-1.2252.4715c-.4628 0-.8296-.1109-1.1003-.3329-.2707-.2218-.4408-.4853-.5102-.7904h.5068c.0693.2081.2024.3733.3991.4958s.4361.1837.7184.1837c.3564 0 .6364-.1051.84-.3154.2036-.2104.3054-.4843.3054-.8217v-.6587c-.273.4761-.7104.7142-1.312.7142-.509 0-.9139-.1757-1.2148-.527-.3008-.3513-.4512-.7765-.4512-1.2757 0-.4993.1504-.9245.4512-1.2758.3009-.3513.7058-.527 1.2148-.527.6156 0 1.0598.2427 1.3329.7281zm-.3402 2.0523c.2268-.2588.3402-.5848.3402-.9776 0-.393-.1123-.7177-.3367-.9742s-.5264-.3848-.9059-.3848-.6838.1294-.9129.3883c-.229.2588-.3435.5824-.3435.9707s.1145.713.3435.9741c.2291.2612.5334.3918.9129.3918s.6803-.1295.9024-.3883zm4.5875-2.0593c.2684-.4807.7081-.7211 1.3189-.7211.523 0 .9325.1791 1.2288.5374.2961.3582.4442.7962.4442 1.3139 0 .5131-.1481.9487-.4442 1.307-.2963.3582-.7058.5373-1.2288.5373-.6201 0-1.0667-.2449-1.3397-.7349v.6517h-.4721v-5.2002h.4929zm-.0139 1.1302c0 .3975.1111.7303.3332.9984.2222.2681.5253.4022.9094.4022s.6907-.1341.9198-.4022c.229-.2681.3436-.6009.3436-.9984 0-.4022-.1146-.7373-.3436-1.0054-.2291-.2681-.5357-.4021-.9198-.4021s-.6872.1328-.9094.3987c-.2221.2658-.3332.602-.3332 1.0088zm7.2641.1386h-2.9364c.0231.3698.1481.6726.3749.9084.2267.2357.5206.3536.8815.3536.264 0 .4954-.0682.6942-.2046.1989-.1363.3376-.3154.4169-.5373h.513c-.1061.3513-.3029.6367-.5895.8563-.2873.2196-.634.3293-1.0417.3293-.5364 0-.9612-.1791-1.2736-.5373-.3124-.3583-.4686-.7962-.4686-1.314 0-.5084.1609-.9429.4825-1.3035.3216-.3605.7396-.5408 1.2527-.5408.5137 0 .9256.1722 1.2356.5165.3106.3444.4656.7732.4656 1.2863zm-1.6941-1.5461c-.3326 0-.6106.1074-.8328.3224-.2221.2149-.3539.4888-.3956.8216h2.4364c-.0326-.3467-.1557-.624-.3716-.832-.2151-.208-.4939-.312-.8364-.312zm4.2305 2.7041v.4437c-.0828.0231-.2081.0347-.3744.0347-.6107 0-.9164-.3212-.9164-.9638v-2.1633h-.6738v-.416h.6738v-1.0053h.4925v1.0053h.8124v.416h-.8124v2.1287c0 .3697.1621.5546.4862.5546zm2.3148 0v.4437c-.0835.0231-.2081.0347-.3751.0347-.6107 0-.9157-.3212-.9157-.9638v-2.1633h-.6737v-.416h.6737v-1.0053h.4925v1.0053h.8124v.416h-.8124v2.1287c0 .3697.1621.5546.4862.5546zm4.0429-1.158h-2.9361c.0233.3698.1479.6726.375.9084.2265.2357.5202.3536.8811.3536.264 0 .4954-.0682.6942-.2046.1996-.1363.3383-.3154.4169-.5373h.5137c-.1068.3513-.3036.6367-.5902.8563s-.6341.3293-1.041.3293c-.5371 0-.9617-.1791-1.2738-.5373-.3128-.3583-.4692-.7962-.4692-1.314 0-.5084.1614-.9429.4827-1.3035.322-.3605.7395-.5408 1.2533-.5408.5137 0 .9256.1722 1.2356.5165.3099.3444.4649.7732.4649 1.2863zm-1.6934-1.5461c-.3334 0-.6108.1074-.833.3224-.2222.2149-.3545.4888-.3956.8216h2.4366c-.0326-.3467-.1564-.624-.3716-.832-.2151-.208-.4939-.312-.8364-.312zm4.5149-.3883v.4645c-.0559-.0046-.1132-.0069-.1733-.0069-.315 0-.5697.0936-.7636.2808-.1946.1872-.2916.4588-.2916.8147v2.0038h-.4932v-3.5292h.472v.5478c.0835-.1525.2201-.2877.4097-.4056.1897-.1179.4303-.1768.7219-.1768zm5.5525.6726v-.6449h.472v3.3559c0 .4992-.1423.906-.4267 1.2203-.2852.3143-.6936.4715-1.2257.4715-.4629 0-.8294-.1109-1.0998-.3329-.271-.2218-.4409-.4853-.5102-.7904h.5067c.0693.2081.2024.3733.3991.4958.1968.1225.436.1837.7183.1837.356 0 .6362-.1051.84-.3154.2038-.2104.305-.4843.305-.8217v-.6587c-.2724.4761-.7098.7142-1.3113.7142-.5095 0-.9143-.1757-1.2151-.527-.3007-.3513-.4515-.7765-.4515-1.2757 0-.4993.1508-.9245.4515-1.2758.3008-.3513.7056-.527 1.2151-.527.615 0 1.0594.2427 1.3326.7281zm-.3404 2.0523c.2271-.2588.3404-.5848.3404-.9776 0-.393-.1126-.7177-.3369-.9742s-.5265-.3848-.9058-.3848-.6836.1294-.9129.3883c-.2293.2588-.3432.5824-.3432.9707s.1139.713.3432.9741c.2293.2612.5336.3918.9129.3918s.6801-.1295.9023-.3883zm4.4668-.9776-1.1733.1594c-.3241.0416-.5562.1191-.6978.2323-.1408.1133-.2116.2623-.2116.4472 0 .2311.0786.3964.2364.4958.1571.0994.3517.1491.5824.1491.3935 0 .7027-.1098.9271-.3294.2243-.2196.3368-.468.3368-.7453zm-1.3191 1.8928c-.4119 0-.7232-.0936-.9334-.2808-.2109-.1872-.3163-.4449-.3163-.7731 0-.5963.4444-.9522 1.3332-1.0678l1.2356-.1594v-.0971c0-.5963-.3333-.8944-.9999-.8944-.5647 0-.8931.2334-.9858.7003h-.4926c.051-.3421.1975-.6148.4409-.8182.2428-.2034.5959-.3051 1.0587-.3051.4904 0 .8584.1191 1.1033.3571.2455.238.368.5605.368.9672v1.5463c0 .3466.0346.5939.104.7418h-.4855c-.0509-.1387-.0764-.3397-.0764-.6032-.2682.4576-.7197.6864-1.3538.6864zm6.0285-2.1424v2.0592h-.493v-2.1564c0-.3188-.073-.5697-.219-.7522-.145-.1826-.368-.2739-.669-.2739-.297 0-.539.0971-.729.2912s-.285.4576-.285.7905v2.1008h-.493v-3.5292h.472v.5408c.227-.4159.6-.624 1.118-.624.56 0 .944.2265 1.152.6795.112-.1895.273-.3501.486-.4818.213-.1318.465-.1977.756-.1977.412 0 .731.1283.955.3848.224.2566.337.5813.337.9742v2.2534h-.493v-2.1564c0-.3142-.073-.5638-.219-.7487s-.367-.2774-.662-.2774c-.292 0-.534.0971-.726.2912s-.288.4715-.288.8321zm6.882.4367h-2.936c.023.3698.148.6726.375.9084.227.2357.52.3536.881.3536.264 0 .496-.0682.695-.2046.198-.1363.337-.3154.416-.5373h.513c-.106.3513-.302.6367-.59.8563-.286.2196-.633.3293-1.041.3293-.537 0-.961-.1791-1.274-.5373-.312-.3583-.468-.7962-.468-1.314 0-.5084.161-.9429.483-1.3035.321-.3605.738-.5408 1.252-.5408s.926.1722 1.236.5165c.31.3444.465.7732.465 1.2863zm-1.694-1.5461c-.333 0-.611.1074-.833.3224-.222.2149-.354.4888-.395.8216h2.436c-.032-.3467-.156-.624-.371-.832s-.494-.312-.837-.312zm3.926 3.2518c-.477 0-.833-.1121-1.066-.3363-.234-.2242-.362-.5073-.385-.8493h.5c.018.2358.107.4206.266.5546.16.1341.388.2012.685.2012.291 0 .519-.0544.683-.163s.247-.2531.247-.4334c0-.1849-.075-.3223-.226-.4125-.15-.0901-.332-.1514-.545-.1837-.213-.0324-.427-.0717-.642-.1179s-.398-.1433-.548-.2912c-.151-.148-.226-.3559-.226-.6241 0-.2865.118-.5315.354-.7349s.555-.3051.958-.3051c.444 0 .773.1133.986.3398.213.2264.333.4853.361.7765h-.493c-.023-.2033-.107-.3686-.25-.4957s-.349-.1907-.618-.1907c-.264 0-.466.0555-.607.1664-.141.111-.212.2519-.212.423 0 .1525.054.2727.163.3605s.244.1444.406.1699c.162.0254.337.0589.524.1005.188.0416.363.0878.525.1387.161.0508.297.1502.405.2982.109.1478.164.3373.164.5685 0 .2866-.122.5316-.365.735-.243.2033-.591.305-1.044.305z" fill="#0a1070"/><path d="m25.8784 4c-2.969 0-6.1899.69226-8.7041 1.72313-2.9212 1.19775-6.2018 2.9516-8.54938 5.20727 1.05277-.6588 2.32438-1.27323 3.82828-1.78268 2.2705-.76915 6.646-2.5057 9.1915-.4438 2.5454 2.06208 2.4613 6.72368 1.8522 10.22928-.609 3.5057-1.8536 8.0602-5.2192 9.1491-3.3657 1.0888-6.9024-1.8409-9.13388-4.0657-.76189-.7595-1.59701-1.5886-2.34304-2.487 1.78558 2.9054 4.91972 5.325 6.78372 6.887 6.3664 5.3344 9.6739 7.5802 12.2324 6.5312 4.887-2.0037 6.6588-8.0211 7.7035-12.809 1.0447-4.788 2.5705-12.25718-.4554-15.72002-1.5112-1.72951-4.223-2.41878-7.1857-2.41878-.0003 0-.0005 0-.0009 0z" fill="url(#a)"/><g mask="url(#i)"><path clip-rule="evenodd" d="m47.0029 45.9502-54.1904-10.4658 12.7576-46.2261 54.1904 10.465817z" fill="url(#c)" fill-rule="evenodd"/></g><g mask="url(#j)"><path d="m3.23633.771057v36.726443h38.53717v-36.726443z" fill="url(#d)"/></g><g mask="url(#k)"><path clip-rule="evenodd" d="m63.976 33.2805-55.85312 16.088-19.52718-47.44064 55.8531-16.08806z" fill="url(#f)" fill-rule="evenodd"/></g><g mask="url(#l)"><path d="m3.23633 8.45039v.42472c.17559-.13518.34896-.26568.51882-.39133.6004-.44379 1.22948-.92276 1.88676-1.39406-.83893.39586-1.64313.85938-2.40558 1.36067zm17.91187 4.10411c.771 2.3321 2.5591 6.8396-.0537 9.3016-2.6129 2.4621-8.1508 2.1341-12.28065 1.3365-1.78064-.3439-3.78588-.8172-5.57752-1.5212v12.8724c.94936.2371 1.88605.4533 2.78322.6612 5.62715 1.3042 14.01435 2.569 18.53845-1.444 4.5244-4.0132 2.4952-11.0838.3638-16.2621-1.082-2.6286-2.8653-6.3349-4.9934-8.50453-.3202-.32649-.6481-.61682-.9844-.87588.8453 1.18651 1.6169 2.65981 2.2042 4.43601z" fill="url(#g)"/></g></svg>