<svg width="120" height="40" viewBox="0 0 120 40" fill="none" 
    xmlns="http://www.w3.org/2000/svg">
    <path d="M0 0H120V40H0V0Z" />
    <path d="M43.1944 21.5018L44.1178 19.8762H44.8564L45.2627 26.3599H44.5471C43.9962 24.4965 43.3468 23.1472 42.5989 22.3122C42.2026 21.8237 41.7037 21.4278 41.1374 21.1525C40.571 20.8773 39.951 20.7292 39.3211 20.7189C38.3928 20.6986 37.4832 20.9816 36.7311 21.5248C35.9276 22.1348 35.3273 22.9726 35.0091 23.9286C34.547 25.2404 34.3432 26.6288 34.409 28.0177C34.3466 29.3733 34.5504 30.728 35.0091 32.0056C35.3143 32.9345 35.8916 33.751 36.6665 34.3495C37.3903 34.8559 38.2571 35.1188 39.141 35.1001C39.685 35.1345 40.2302 35.0565 40.7426 34.8711C41.255 34.6857 41.7235 34.3968 42.1188 34.0225C42.4698 33.655 42.7436 33.2214 42.9244 32.7469C43.1051 32.2725 43.1891 31.7668 43.1714 31.2596V29.7307C43.1763 29.6209 43.1531 29.5116 43.1038 29.4133C43.0545 29.315 42.9808 29.2309 42.8897 29.1689C42.6082 29.0137 42.287 28.9449 41.9664 28.9709H40.5814V28.2019H46.9847V28.9709H46.4861C46.1768 28.9426 45.8668 29.0171 45.6043 29.1828C45.5152 29.2589 45.4449 29.3547 45.3993 29.4626C45.3536 29.5705 45.3337 29.6875 45.3412 29.8044V35.9842H44.6118C44.3471 35.0172 44.0716 34.0962 43.7854 33.2213C43.3065 34.0475 42.6311 34.7434 41.8187 35.2474C41.0352 35.7047 40.141 35.9388 39.2334 35.9243C37.8874 35.9319 36.5658 35.5668 35.4154 34.8698C33.6568 33.7624 32.3898 32.0255 31.8747 30.0157C31.3596 28.0058 31.6354 25.8755 32.6454 24.0621C33.2953 22.8171 34.2617 21.7643 35.4477 21.009C36.5114 20.2923 37.7607 19.8988 39.0441 19.8762C39.7181 19.8732 40.3872 19.9901 41.02 20.2216C41.806 20.5353 42.5392 20.967 43.1944 21.5018Z" fill="#231F20"/>
    <path d="M57.9683 34.8008L58.1391 35.1048C58.1391 35.685 57.4374 35.6205 56.7818 35.6205C56.2832 35.6205 55.2814 35.5929 54.9352 35.335C54.5889 35.0771 54.4504 34.7778 54.1919 34.0963C53.6698 34.6926 53.0442 35.1902 52.3452 35.5653C51.7443 35.8254 51.0935 35.9512 50.4386 35.9337C49.5787 35.9945 48.7245 35.7534 48.0241 35.2521C47.7606 35.0446 47.5489 34.779 47.4055 34.4763C47.2622 34.1735 47.191 33.8417 47.1977 33.5069C47.1977 32.4385 47.8271 31.5498 49.0859 30.8406C50.6521 30.0438 52.3606 29.5634 54.1134 29.4269V27.8658C54.1141 27.593 54.054 27.3233 53.9374 27.0764C53.8209 26.8296 53.6507 26.6116 53.4394 26.4383C52.9653 26.0328 52.3553 25.8206 51.7312 25.8443C51.155 25.8293 50.585 25.9658 50.0785 26.2403C49.7492 26.4399 49.5845 26.6348 49.5845 26.8251C49.6232 27.0178 49.7142 27.1963 49.8476 27.3409C50.0332 27.5623 50.1446 27.836 50.1662 28.1237C50.1716 28.2727 50.1461 28.4212 50.0913 28.5598C50.0365 28.6985 49.9535 28.8244 49.8476 28.9296C49.7366 29.0351 49.6054 29.1173 49.4618 29.1711C49.3183 29.2249 49.1653 29.2493 49.012 29.2427C48.8406 29.2478 48.67 29.2172 48.5111 29.153C48.3521 29.0888 48.2083 28.9923 48.0887 28.8697C47.9654 28.7433 47.869 28.5932 47.8055 28.4286C47.742 28.264 47.7127 28.0882 47.7194 27.9119C47.7194 27.1874 48.1287 26.5243 48.9474 25.9226C49.8962 25.2746 51.0303 24.9514 52.179 25.0016C53.1798 24.9339 54.1732 25.2138 54.9906 25.7936C55.2915 26.021 55.5356 26.3147 55.7038 26.6519C55.872 26.989 55.9597 27.3604 55.9601 27.7369V33.3641C55.942 33.7037 56.0273 34.0408 56.2048 34.3312C56.3357 34.5371 56.5433 34.6829 56.7818 34.7364C57.1753 34.7864 57.5718 34.8079 57.9683 34.8008ZM54.1319 30.1499C52.2668 30.4078 50.9449 30.8253 50.1662 31.4024C49.8799 31.6201 49.6512 31.9041 49.4999 32.2299C49.3487 32.5557 49.2795 32.9135 49.2983 33.272C49.2718 33.756 49.4377 34.2308 49.7599 34.5936C49.9124 34.749 50.0961 34.8704 50.2991 34.9498C50.502 35.0292 50.7195 35.0647 50.9372 35.0541C51.3606 35.0568 51.7798 34.9709 52.1679 34.8019C52.5559 34.633 52.9042 34.3848 53.1901 34.0733C53.5063 33.7462 53.7538 33.3593 53.9179 32.9355C54.082 32.5116 54.1595 32.0592 54.1457 31.605L54.1319 30.1499Z" fill="#231F20"/>
    <path d="M57.5991 25.3234L60.5537 25.1346C60.7081 25.8559 60.8145 26.5867 60.8723 27.322C61.3046 26.6453 61.8757 26.0678 62.5481 25.6274C63.1072 25.2985 63.7457 25.1281 64.3948 25.1346C65.0297 25.1098 65.6535 25.3069 66.1583 25.6918C66.691 26.1766 67.0643 26.8107 67.2294 27.5108C67.6386 26.8044 68.198 26.1961 68.8683 25.7287C69.4518 25.3406 70.1383 25.1353 70.8396 25.1392C71.2315 25.1103 71.625 25.1703 71.9903 25.3147C72.3557 25.459 72.6836 25.684 72.9494 25.9727C73.584 26.7795 73.9112 27.7846 73.8728 28.8094V33.9162C73.858 34.0314 73.8712 34.1485 73.9114 34.2575C73.9516 34.3665 74.0175 34.4642 74.1036 34.5425C74.3726 34.7312 74.699 34.8207 75.0269 34.7957H75.5117V35.62H70.3226V34.7957H70.8396C71.1634 34.8258 71.4881 34.748 71.7629 34.5747C71.8546 34.4915 71.926 34.3885 71.9716 34.2736C72.0172 34.1586 72.0358 34.0348 72.0261 33.9116V28.8001C72.0677 28.1604 71.8685 27.5282 71.4675 27.0272C71.2834 26.8211 71.0559 26.6581 70.8014 26.5498C70.5468 26.4416 70.2713 26.3907 69.9948 26.401C69.5502 26.3964 69.1144 26.5247 68.7437 26.7694C68.3577 27.0296 68.0535 27.3937 67.8665 27.8193C67.593 28.3332 67.4354 28.9006 67.4048 29.4817V33.9162C67.3947 34.0385 67.4113 34.1616 67.4536 34.2769C67.4958 34.3922 67.5627 34.4969 67.6495 34.5839C67.8648 34.7427 68.1306 34.818 68.3974 34.7957H69.1038V35.62H63.8223V34.7957H64.4317C64.7272 34.8173 65.0214 34.7395 65.2673 34.5747C65.3549 34.5097 65.4256 34.4248 65.4738 34.3272C65.522 34.2295 65.5461 34.1218 65.5443 34.0129V29.2698C65.6071 28.5022 65.4193 27.7349 65.0088 27.0825C64.841 26.8621 64.6226 26.6851 64.3719 26.5665C64.1212 26.4479 63.8457 26.3911 63.5684 26.401C63.2276 26.3818 62.887 26.4435 62.5748 26.5812C62.2626 26.7189 61.9876 26.9286 61.7725 27.193C61.18 27.9352 60.865 28.86 60.8815 29.8086V33.9162C60.8671 34.033 60.8782 34.1515 60.9141 34.2635C60.95 34.3756 61.0097 34.4786 61.0893 34.5655C61.364 34.7399 61.688 34.8206 62.0126 34.7957H62.5435V35.62H57.3359V34.7957H58.1162C58.3625 34.8123 58.6057 34.7331 58.7948 34.5747C58.8721 34.5034 58.9332 34.4163 58.9739 34.3194C59.0145 34.2224 59.0337 34.1179 59.0302 34.0129V27.2667C59.0421 27.1156 59.0228 26.9638 58.9736 26.8204C58.9244 26.6771 58.8462 26.5453 58.744 26.4332C58.408 26.201 58.0079 26.0787 57.5991 26.0832V25.3234Z" fill="#231F20"/>
    <path d="M75.7379 25.3243L79.4313 25.2046V34.0599C79.4216 34.1534 79.4323 34.2478 79.4626 34.3368C79.4929 34.4258 79.542 34.5073 79.6067 34.5756C79.7835 34.7268 80.0111 34.8058 80.2438 34.7967H81.4118V35.6209H75.1055V34.7967H76.6243C76.7527 34.8092 76.8823 34.7948 77.0048 34.7544C77.1272 34.7139 77.2398 34.6483 77.3353 34.5618C77.4976 34.3713 77.5788 34.1251 77.5615 33.8757V27.3919C77.5731 27.2223 77.5477 27.0521 77.4872 26.8931C77.4266 26.7342 77.3323 26.5901 77.2107 26.471C76.9118 26.2416 76.5387 26.1301 76.1627 26.1578H75.7426L75.7379 25.3243ZM78.1755 20.4569C78.3381 20.4568 78.4989 20.4898 78.6482 20.5539C78.7974 20.6181 78.932 20.712 79.0435 20.8299C79.1628 20.9433 79.2575 21.0798 79.3218 21.2311C79.3861 21.3823 79.4187 21.5452 79.4174 21.7095C79.4184 21.8695 79.3865 22.028 79.3238 22.1753C79.261 22.3226 79.1688 22.4555 79.0527 22.566C78.9087 22.7062 78.7326 22.8091 78.5395 22.8658C78.3465 22.9224 78.1425 22.9311 77.9453 22.891C77.7481 22.8509 77.5638 22.7633 77.4084 22.6358C77.253 22.5083 77.1313 22.3448 77.0539 22.1595C76.9764 21.9743 76.9456 21.7729 76.9642 21.5731C76.9827 21.3732 77.05 21.181 77.1601 21.013C77.2703 20.8451 77.42 20.7066 77.5962 20.6097C77.7724 20.5127 77.9697 20.4603 78.1709 20.4569H78.1755Z" fill="#231F20"/>
    <path d="M81.1062 25.3246L84.5317 25.1174C84.6855 25.8633 84.7888 26.6187 84.8411 27.3784C85.2416 26.6946 85.8024 26.1179 86.4753 25.6976C87.1212 25.3188 87.8591 25.1244 88.6082 25.1358C89.2062 25.1149 89.799 25.2532 90.3256 25.5364C90.8177 25.837 91.2059 26.2805 91.4382 26.8074C91.7237 27.4151 91.8674 28.0795 91.8583 28.7507V33.7608C91.8437 33.9039 91.8587 34.0484 91.9024 34.1854C91.9461 34.3225 92.0175 34.4491 92.1123 34.5574C92.3563 34.7383 92.6591 34.822 92.9617 34.7923H93.2618V35.6166H88.6682V34.7923H88.7606C89.1151 34.8261 89.4712 34.7454 89.7762 34.5621C89.8746 34.4771 89.9516 34.3704 90.0013 34.2505C90.051 34.1306 90.072 34.0007 90.0625 33.8713V29.4644C90.1059 28.7251 89.9463 27.9879 89.6008 27.3323C89.4078 27.0132 89.1315 26.7525 88.8013 26.5781C88.4711 26.4037 88.0995 26.3222 87.7265 26.3423C87.3263 26.3374 86.9305 26.4251 86.57 26.5985C86.2096 26.7719 85.8943 27.0262 85.649 27.3416C85.069 28.0836 84.7742 29.0081 84.818 29.9479V33.7608C84.8031 33.9042 84.8184 34.0492 84.863 34.1863C84.9075 34.3235 84.9802 34.4499 85.0765 34.5574C85.3225 34.7378 85.6266 34.8214 85.9306 34.7923H86.2214V35.6166H81.2031V34.7923H81.9187C82.2097 34.8122 82.499 34.7344 82.7405 34.5713C82.8284 34.5085 82.8999 34.4255 82.949 34.3293C82.998 34.2331 83.0231 34.1266 83.0221 34.0187V27.3784C83.0349 27.196 83.0095 27.013 82.9475 26.841C82.8855 26.6689 82.7883 26.5116 82.662 26.3791C82.3769 26.1352 82.0072 26.0128 81.6325 26.0384H81.1016L81.1062 25.3246Z" fill="#231F20"/>
    <path d="M101.078 25.8997C101.812 25.1583 103.848 24.0578 104.522 24.0578C104.707 24.0331 104.895 24.046 105.075 24.0959C105.256 24.1458 105.424 24.2315 105.57 24.3479C105.814 24.5827 105.376 25.1123 105.376 25.4484C105.384 25.6978 105.294 25.9405 105.126 26.1254C105.055 26.2087 104.967 26.2758 104.867 26.3219C104.768 26.368 104.659 26.392 104.549 26.3924C104.131 26.3924 103.848 26.1361 103.7 25.6234C103.64 25.4024 103.543 25.2965 103.404 25.2965C102.74 25.5292 102.126 25.8854 101.595 26.3464C101.861 26.6916 102.08 27.0711 102.246 27.4746C102.365 27.8038 102.424 28.1515 102.421 28.5015C102.432 29.0958 102.272 29.6809 101.959 30.1869C101.569 30.7433 101.039 31.1879 100.422 31.4763C99.7932 31.827 99.0881 32.0198 98.3677 32.0381H97.1674C96.5897 31.988 96.0084 32.0781 95.4731 32.3006C95.3399 32.3868 95.2312 32.5059 95.1577 32.6462C95.0841 32.7866 95.048 32.9435 95.053 33.1018C95.0479 33.2317 95.0767 33.3606 95.1366 33.4761C95.1965 33.5915 95.2854 33.6894 95.3946 33.7603C95.7959 33.9497 96.2404 34.0291 96.6826 33.9906L99.4018 33.9353C100.775 33.9353 101.764 34.164 102.37 34.6214C102.667 34.836 102.906 35.12 103.067 35.4483C103.228 35.7767 103.306 36.1395 103.294 36.5048C103.299 36.9284 103.208 37.3477 103.029 37.7318C102.85 38.1159 102.587 38.4551 102.26 38.7244C101.296 39.5748 99.8604 40 97.9522 40C96.3733 40 95.2022 39.7099 94.439 39.1296C94.1725 38.9684 93.9492 38.745 93.7884 38.4787C93.6276 38.2124 93.534 37.9112 93.5156 37.6008C93.5217 37.3733 93.5763 37.1496 93.6758 36.9447C93.7753 36.7399 93.9174 36.5585 94.0927 36.4127C94.6564 35.9758 95.3279 35.699 96.0363 35.6115C95.4318 35.4961 94.8664 35.2299 94.3928 34.8379C94.2151 34.6778 94.074 34.4814 93.9792 34.2621C93.8844 34.0428 93.8381 33.8057 93.8434 33.5669C93.8418 33.116 94.0061 32.6802 94.3051 32.342C94.7336 31.9137 95.2666 31.6042 95.8516 31.444C95.2856 31.1512 94.8017 30.7223 94.4436 30.1961C94.1284 29.6946 93.9678 29.1117 93.9819 28.5199C93.9761 28.0409 94.079 27.5667 94.2828 27.1329C94.4867 26.6991 94.7863 26.3169 95.1591 26.0148C96.0211 25.316 97.1103 24.9572 98.22 25.0064C98.7238 25.0053 99.2249 25.0798 99.7065 25.2274C100.194 25.3837 100.656 25.6102 101.078 25.8997ZM98.8294 35.6253C97.4782 35.6253 96.5149 35.8126 95.9394 36.1871C95.6892 36.3175 95.4777 36.5113 95.3262 36.7489C95.1747 36.9865 95.0884 37.2596 95.0761 37.5409C95.0715 37.7765 95.1293 38.009 95.2436 38.2152C95.3579 38.4214 95.5246 38.5938 95.727 38.7152C96.4694 39.1393 97.3199 39.3377 98.1738 39.2862C99.1651 39.3512 100.155 39.134 101.027 38.6599C101.667 38.2424 101.987 37.7819 101.987 37.2785C101.984 36.9743 101.88 36.6797 101.692 36.4404C101.445 36.1496 101.115 35.942 100.745 35.8463C100.122 35.6819 99.4784 35.6075 98.834 35.6253H98.8294ZM98.1784 25.7109C97.8719 25.7036 97.5675 25.7643 97.2873 25.8885C97.0071 26.0128 96.758 26.1974 96.558 26.4293C96.1024 26.9996 95.8754 27.7184 95.9209 28.4462C95.8721 29.2156 96.0978 29.9774 96.558 30.5967C96.7582 30.8325 97.0075 31.0219 97.2885 31.1518C97.5696 31.2817 97.8756 31.349 98.1854 31.349C98.4951 31.349 98.8011 31.2817 99.0822 31.1518C99.3632 31.0219 99.6125 30.8325 99.8127 30.5967C100.272 29.9859 100.496 29.231 100.445 28.4693C100.487 27.7355 100.259 27.0117 99.8035 26.4339C99.6046 26.2005 99.3558 26.0144 99.0754 25.8893C98.795 25.7642 98.4901 25.7032 98.183 25.7109H98.1784Z" fill="#231F20"/>
    <path d="M104.91 24.1174C105.073 24.1173 105.233 24.1502 105.383 24.2144C105.532 24.2785 105.666 24.3725 105.778 24.4904C105.897 24.6037 105.992 24.7403 106.056 24.8915C106.121 25.0428 106.153 25.2057 106.152 25.37C106.153 25.53 106.121 25.6886 106.059 25.836C105.996 25.9833 105.903 26.1162 105.787 26.2265C105.643 26.3667 105.467 26.4696 105.274 26.5263C105.081 26.5829 104.877 26.5916 104.68 26.5515C104.483 26.5114 104.298 26.4238 104.143 26.2963C103.988 26.1688 103.866 26.0052 103.788 25.82C103.711 25.6348 103.68 25.4334 103.699 25.2336C103.717 25.0337 103.784 24.8414 103.895 24.6735C104.005 24.5056 104.154 24.3671 104.331 24.2701C104.507 24.1732 104.704 24.1208 104.905 24.1174H104.91Z" fill="#231F20"/>
    <path d="M25.5417 2.60306H38.0067L38.316 6.81196H37.5773C37.2865 5.08051 37.2495 4.72593 36.6124 4.04901C35.9753 3.37209 34.7242 3.44116 33.704 3.44116H30.5138C30.4075 3.43416 30.3008 3.44937 30.2006 3.48584C30.1004 3.52232 30.009 3.57925 29.9322 3.65298C29.7889 3.83271 29.7181 4.05935 29.7336 4.28846V9.62556H31.1186C31.4625 9.63565 31.8043 9.56893 32.119 9.4303C32.4338 9.29167 32.7134 9.08463 32.9376 8.8243C33.4615 8.1121 33.7269 7.24327 33.6901 6.36067H34.4518V13.8897H33.6901C33.6532 12.6433 33.3993 11.7515 32.9284 11.2143C32.6872 10.945 32.3888 10.7328 32.0549 10.5934C31.7211 10.454 31.3601 10.3908 30.9986 10.4084H29.7244V16.4454C29.718 16.5474 29.7361 16.6495 29.777 16.7431C29.8179 16.8368 29.8806 16.9195 29.9599 16.9842C30.194 17.1303 30.4695 17.1966 30.7447 17.173H33.2654C36.003 17.173 37.5773 16.2797 37.9974 12.7937H38.7915L38.5145 17.9973H25.5417V17.1776H26.2296C26.5542 17.2107 26.8804 17.131 27.1529 16.952C27.2433 16.8698 27.3139 16.7683 27.3595 16.6551C27.405 16.5418 27.4244 16.4198 27.4161 16.2981V4.27004C27.4254 4.15381 27.4096 4.03694 27.3698 3.92731C27.33 3.81768 27.2671 3.71785 27.1853 3.63455C26.978 3.47733 26.7199 3.40191 26.4604 3.42273H25.5371L25.5417 2.60306Z" fill="#231F20"/>
    <path d="M37.7812 7.70615H43.4182V8.45216C42.9796 8.42696 42.5404 8.48797 42.1255 8.63175C42.0391 8.67335 41.9666 8.73893 41.9167 8.82061C41.8667 8.90228 41.8415 8.9966 41.8439 9.09224C41.8484 9.25174 41.8862 9.40855 41.9547 9.55273L44.6924 15.6312L47.1853 9.73692C47.2214 9.63799 47.2401 9.53365 47.2407 9.4284C47.2407 8.89423 46.7129 8.56114 45.6572 8.42913V7.68314H49.9322V8.42913C49.5622 8.45082 49.205 8.57174 48.8981 8.77911C48.6342 8.97765 48.4285 9.24323 48.3026 9.54812L44.5215 18.2975H43.926L39.8633 9.31788C39.756 9.0443 39.5696 8.80869 39.3278 8.64095C38.8265 8.49867 38.307 8.43042 37.7859 8.43835L37.7812 7.70615Z" fill="#231F20"/>
    <path d="M53.9057 7.40148C54.5625 7.38896 55.2144 7.51639 55.8178 7.77527C56.4213 8.03415 56.9624 8.41851 57.4051 8.90267C58.38 9.98255 58.8892 11.402 58.8224 12.8537C58.8514 13.8517 58.6342 14.8416 58.1899 15.7364C57.7773 16.5207 57.1518 17.1733 56.3848 17.6198C55.6206 18.0762 54.7456 18.3151 53.8549 18.3105C53.2123 18.3185 52.5757 18.1872 51.989 17.9256C51.4023 17.664 50.8796 17.2784 50.457 16.7955C49.5535 15.6803 49.0605 14.2898 49.0605 12.856C49.0605 11.4222 49.5535 10.0316 50.457 8.91648C50.888 8.43038 51.4194 8.04323 52.0148 7.78168C52.6101 7.52014 53.2552 7.39043 53.9057 7.40148ZM53.9057 8.1843C53.501 8.18422 53.1029 8.28638 52.7485 8.48124C52.3941 8.67611 52.0949 8.95735 51.879 9.2987C51.3496 10.0416 51.0849 11.2159 51.0849 12.8215C51.0849 14.427 51.3481 15.6212 51.8743 16.4041C52.0872 16.7507 52.3858 17.037 52.7415 17.2353C53.0973 17.4337 53.4981 17.5375 53.9057 17.5369C54.3214 17.5408 54.7313 17.4389 55.0964 17.2406C55.4616 17.0424 55.77 16.7545 55.9924 16.4041C56.5248 15.6489 56.7911 14.4209 56.7911 12.7201C56.7911 11.1299 56.5279 9.98023 56.0016 9.27107C55.7707 8.92975 55.4581 8.65121 55.0922 8.46066C54.7262 8.2701 54.3184 8.17354 53.9057 8.17969V8.1843Z" fill="#231F20"/>
    <path d="M62.253 2.41449V16.4871C62.2496 16.5729 62.2647 16.6585 62.2974 16.7379C62.33 16.8174 62.3795 16.8889 62.4423 16.9476C62.6342 17.0976 62.8726 17.1758 63.1163 17.1686H63.7811V17.9929H58.7813V17.1778H59.3907C59.664 17.1987 59.9345 17.111 60.1432 16.9338C60.2288 16.8429 60.2951 16.7357 60.3379 16.6185C60.3808 16.5014 60.3993 16.3768 60.3925 16.2523V4.56038C60.4056 4.41335 60.3859 4.26523 60.3349 4.12669C60.2838 3.98815 60.2025 3.86263 60.097 3.75913C59.8181 3.52271 59.4611 3.39799 59.0952 3.40915H58.1719V2.58487L62.253 2.41449Z" fill="#231F20"/>
    <path d="M67.4849 7.52148V14.346C67.4414 15.0474 67.6676 15.7391 68.1173 16.28C68.3245 16.5043 68.5778 16.6813 68.8598 16.7989C69.1419 16.9165 69.4461 16.972 69.7516 16.9616C70.1535 16.9636 70.5506 16.8752 70.9135 16.703C71.2764 16.5308 71.5956 16.2792 71.8476 15.9669C72.4335 15.2711 72.741 14.3838 72.7109 13.4756V9.62593C72.719 9.46895 72.6887 9.31237 72.6228 9.1696C72.5569 9.02684 72.4572 8.90215 72.3323 8.80626C71.8861 8.5641 71.3805 8.45237 70.8735 8.48391V7.7149L74.4975 7.5307V15.9807C74.4866 16.1453 74.5106 16.3103 74.5678 16.465C74.6251 16.6197 74.7144 16.7607 74.8299 16.8787C75.0847 17.0997 75.4162 17.2122 75.7533 17.1918H76.4042V17.9148L72.9325 17.9931L72.7109 15.9715C72.1903 16.6159 71.5663 17.1699 70.8642 17.6109C70.2947 17.9612 69.6405 18.1506 68.9714 18.1588C68.5384 18.1717 68.1072 18.0967 67.704 17.9384C67.3009 17.7801 66.9342 17.5418 66.6262 17.2379C65.9891 16.6239 65.6705 15.5801 65.6705 14.1065V9.62593C65.6836 9.44521 65.6476 9.26431 65.5664 9.10225C65.4852 8.94018 65.3617 8.80294 65.2089 8.70495C64.7827 8.51604 64.3168 8.43385 63.8516 8.4655V7.69647L67.4849 7.52148Z" fill="#231F20"/>
    <path d="M78.4902 3.51031H79.2288V7.71H85.5121V8.70466H79.2288V15.3081C79.1961 15.7807 79.3409 16.2486 79.6351 16.6205C79.7626 16.7687 79.9215 16.8869 80.1003 16.9665C80.2791 17.0461 80.4734 17.0852 80.6692 17.081C80.9225 17.0777 81.1712 17.0131 81.3939 16.8928C81.6167 16.7725 81.8068 16.6 81.948 16.3903C82.3719 15.6981 82.5867 14.8987 82.5666 14.0878H83.3053C83.2622 15.457 82.9544 16.4731 82.382 17.1363C82.1039 17.4595 81.7568 17.7166 81.3662 17.8887C80.9756 18.0609 80.5513 18.1436 80.1244 18.1309C79.3921 18.1723 78.6732 17.9222 78.1254 17.4356C77.8827 17.196 77.6932 16.9082 77.5692 16.5909C77.4451 16.2736 77.3893 15.9338 77.4052 15.5936V8.70466H75.6094V7.93563C76.3323 7.8399 76.9921 7.47464 77.456 6.91334C78.1496 5.91505 78.5113 4.7247 78.4902 3.51031Z" fill="#231F20"/>
    <path d="M83.291 7.70589L87.3998 7.58617V16.4414C87.3905 16.5349 87.4013 16.6293 87.4316 16.7182C87.4618 16.8072 87.5108 16.8887 87.5753 16.9572C87.7521 17.1084 87.9796 17.1873 88.2124 17.1782H88.9556V18.0025H83.9373V17.1782H84.6021C84.7305 17.1908 84.8601 17.1764 84.9826 17.1359C85.105 17.0955 85.2176 17.0299 85.3131 16.9434C85.4754 16.7529 85.5566 16.5066 85.5393 16.2572V9.97152C85.5509 9.80185 85.5255 9.63169 85.465 9.47272C85.4044 9.31375 85.3101 9.16972 85.1885 9.05054C84.8896 8.82113 84.5165 8.70965 84.1405 8.7374H83.291V7.70589ZM86.1533 2.83851C86.3166 2.83797 86.4782 2.87078 86.6283 2.93493C86.7784 2.99908 86.9137 3.09321 87.0259 3.2115C87.1469 3.32566 87.243 3.46351 87.3082 3.61644C87.3733 3.76938 87.4061 3.93409 87.4044 4.10025C87.4054 4.26027 87.3735 4.41879 87.3108 4.56608C87.2481 4.71337 87.1558 4.84631 87.0397 4.95676C86.8958 5.09697 86.7196 5.19991 86.5265 5.25657C86.3335 5.31322 86.1295 5.32187 85.9323 5.28178C85.7352 5.24168 85.5509 5.15407 85.3955 5.02656C85.2401 4.89905 85.1184 4.73554 85.0409 4.5503C84.9635 4.36506 84.9327 4.16372 84.9512 3.96386C84.9697 3.76401 85.037 3.57173 85.1472 3.40379C85.2574 3.23585 85.4071 3.09737 85.5833 3.00044C85.7595 2.90351 85.9568 2.85107 86.1579 2.84771L86.1533 2.83851Z" fill="#231F20"/>
    <path d="M94.1453 7.40148C94.8021 7.38896 95.454 7.51639 96.0574 7.77527C96.6609 8.03415 97.202 8.41851 97.6447 8.90267C98.6196 9.98255 99.1288 11.402 99.062 12.8537C99.0912 13.8518 98.874 14.8417 98.4295 15.7364C98.0169 16.5207 97.3914 17.1733 96.6244 17.6198C95.8603 18.0764 94.9852 18.3154 94.0945 18.3105C93.4519 18.3185 92.8153 18.1872 92.2286 17.9256C91.6419 17.664 91.1192 17.2784 90.6966 16.7955C89.7923 15.6807 89.2988 14.2901 89.2988 12.856C89.2988 11.4219 89.7923 10.0313 90.6966 8.91648C91.1276 8.43038 91.659 8.04323 92.2544 7.78168C92.8497 7.52014 93.4948 7.39043 94.1453 7.40148ZM94.1453 8.1843C93.7405 8.18379 93.3422 8.28578 92.9878 8.48068C92.6333 8.67559 92.3342 8.95705 92.1186 9.2987C91.5892 10.0416 91.3245 11.2159 91.3245 12.8215C91.3245 14.427 91.5877 15.6212 92.114 16.4041C92.3272 16.7504 92.6258 17.0364 92.9815 17.2347C93.3371 17.4331 93.7378 17.5371 94.1453 17.5369C94.5609 17.5404 94.9706 17.4383 95.3357 17.2401C95.7008 17.0419 96.0093 16.7542 96.232 16.4041C96.7644 15.6489 97.0307 14.4209 97.0307 12.7201C97.0307 11.1299 96.7675 9.98023 96.2412 9.27107C96.0106 8.92945 95.6981 8.65068 95.3321 8.46009C94.9661 8.26951 94.5581 8.17312 94.1453 8.17969V8.1843Z" fill="#231F20"/>
    <path d="M98.8446 7.70636L102.27 7.49915C102.424 8.24652 102.528 9.00345 102.58 9.76476C102.98 9.08064 103.541 8.50382 104.214 8.08396C104.859 7.70451 105.597 7.51011 106.347 7.52216C106.945 7.50194 107.537 7.64017 108.064 7.92279C108.556 8.22316 108.945 8.6667 109.177 9.19375C109.463 9.80135 109.606 10.4659 109.597 11.137V16.1472C109.582 16.2902 109.598 16.4347 109.641 16.5717C109.685 16.7087 109.756 16.8353 109.851 16.9438C110.095 17.1243 110.398 17.2079 110.7 17.1787H111V18.003H106.411V17.1787H106.504C106.858 17.2128 107.214 17.132 107.519 16.9484C107.617 16.8632 107.694 16.7565 107.744 16.6366C107.794 16.5168 107.815 16.3871 107.806 16.2577V11.8508C107.849 11.1114 107.69 10.3741 107.344 9.71872C107.151 9.39924 106.875 9.13822 106.545 8.96376C106.214 8.7893 105.843 8.70801 105.47 8.72865C105.069 8.72345 104.673 8.811 104.313 8.9844C103.952 9.1578 103.637 9.41233 103.392 9.72792C102.812 10.4699 102.517 11.3944 102.561 12.3343V16.1472C102.546 16.2906 102.562 16.4354 102.606 16.5726C102.651 16.7097 102.724 16.8361 102.82 16.9438C103.066 17.1238 103.37 17.2073 103.674 17.1787H103.964V18.003H99.3479V17.1787H99.6387C99.9297 17.1985 100.219 17.1207 100.46 16.9576C100.548 16.8953 100.619 16.813 100.668 16.7177C100.717 16.6224 100.742 16.5168 100.742 16.4097V9.76476C100.755 9.58239 100.729 9.39936 100.667 9.22732C100.605 9.05528 100.508 8.89801 100.382 8.7655C100.097 8.522 99.7271 8.39968 99.3525 8.42474H98.8262L98.8446 7.70636Z" fill="#231F20"/>
    <path d="M21.165 18.108H20.9249V17.7396H21.0265C21.1057 17.7301 21.1861 17.738 21.2619 17.7626C21.2909 17.777 21.3151 17.7994 21.3315 17.8272C21.3479 17.855 21.3558 17.887 21.3543 17.9192C21.3545 17.9455 21.3491 17.9715 21.3384 17.9955C21.3277 18.0194 21.312 18.0409 21.2923 18.0583C21.2726 18.0758 21.2494 18.0888 21.2243 18.0966C21.1992 18.1044 21.1726 18.1067 21.1465 18.1034L21.165 18.108ZM21.5759 17.9238C21.5779 17.8684 21.5668 17.8133 21.5435 17.7629C21.5203 17.7125 21.4855 17.6683 21.442 17.6337C21.335 17.5616 21.205 17.5321 21.0773 17.5508H20.6987V18.7297H20.9249V18.2922H21.1234L21.3589 18.7297H21.6128L21.3497 18.2692C21.4195 18.2496 21.4807 18.2072 21.5234 18.1487C21.5661 18.0902 21.5878 18.0191 21.5851 17.9468L21.5759 17.9238ZM21.1234 19.0889C20.9408 19.0889 20.7623 19.0348 20.6105 18.9336C20.4586 18.8325 20.3403 18.6886 20.2704 18.5203C20.2005 18.352 20.1822 18.1669 20.2178 17.9882C20.2535 17.8095 20.3414 17.6454 20.4705 17.5166C20.5997 17.3878 20.7642 17.3001 20.9433 17.2646C21.1224 17.2291 21.3081 17.2473 21.4768 17.317C21.6455 17.3867 21.7897 17.5048 21.8912 17.6562C21.9926 17.8077 22.0468 17.9857 22.0468 18.1679C22.0468 18.4121 21.9495 18.6464 21.7763 18.8191C21.6032 18.9918 21.3683 19.0889 21.1234 19.0889ZM21.1234 17.0397C20.897 17.0397 20.6756 17.1066 20.4874 17.2321C20.2991 17.3576 20.1523 17.536 20.0657 17.7447C19.979 17.9533 19.9563 18.183 20.0005 18.4045C20.0447 18.626 20.1537 18.8295 20.3139 18.9892C20.474 19.1489 20.678 19.2577 20.9001 19.3018C21.1222 19.3458 21.3524 19.3232 21.5616 19.2368C21.7708 19.1503 21.9496 19.004 22.0754 18.8162C22.2012 18.6284 22.2684 18.4076 22.2684 18.1817C22.2684 17.8788 22.1477 17.5883 21.933 17.3742C21.7183 17.16 21.4271 17.0397 21.1234 17.0397Z" fill="#A3A3A3"/>
    <path d="M9.01953 2.09223C14.5087 -0.831894 21.5953 2.25339 22.1308 9.69493C11.9511 10.4916 10.7231 5.91891 9.01953 2.09223Z" fill="url(#paint0_linear)"/>
    <path d="M9.01953 18.0485C14.5087 20.9726 21.5953 17.8873 22.1308 10.4457C11.9511 9.62606 10.7231 14.231 9.01953 18.0485Z" fill="url(#paint1_linear)"/>
    <path d="M20.2231 4.41565C18.9398 2.75355 17.1006 1.60668 15.0405 1.18405C12.9804 0.761415 10.8367 1.09116 9 2.11319C10.5281 5.53925 11.673 9.55934 19.2028 9.79419C20.1193 8.16439 20.4775 6.28081 20.2231 4.42946V4.41565ZM10.8513 14.2748C11.0683 14.2748 11.2852 14.307 11.5068 14.307C12.9565 14.3089 14.3841 13.9524 15.6618 13.2693C16.9396 12.5863 18.0277 11.598 18.8288 10.3928C14.3091 10.6093 12.1809 12.2486 10.8513 14.2748Z" fill="url(#paint2_radial)"/>
    <defs>
        <linearGradient id="paint0_linear" x1="15.4874" y1="6.69253" x2="14.3942" y2="16.9344" gradientUnits="userSpaceOnUse">
            <stop stop-color="#DADCDF"/>
            <stop offset="1" stop-color="#A8A8A8"/>
        </linearGradient>
        <linearGradient id="paint1_linear" x1="3275.69" y1="2479.13" x2="3261.57" y2="2675.86" gradientUnits="userSpaceOnUse">
            <stop stop-color="#DADCDF"/>
            <stop offset="1" stop-color="#A8A8A8"/>
        </linearGradient>
        <radialGradient id="paint2_radial" cx="0" cy="0" r="1" gradientUnits="userSpaceOnUse" gradientTransform="translate(12.4117 7.95683) scale(10.4844 10.4578)">
            <stop stop-color="#C2C2C2"/>
            <stop offset="0.22" stop-color="#BDBDBD"/>
            <stop offset="0.46" stop-color="#B0B0B0"/>
            <stop offset="0.72" stop-color="#999999"/>
            <stop offset="0.99" stop-color="#7A7A7A"/>
            <stop offset="1" stop-color="#787878"/>
        </radialGradient>
    </defs>
</svg>
