<svg fill="none" height="40" viewBox="0 0 120 40" width="120" xmlns="http://www.w3.org/2000/svg" xmlns:xlink="http://www.w3.org/1999/xlink"><linearGradient id="a" gradientUnits="userSpaceOnUse" x1="42.3043" x2="25.7375" y1=".858933" y2="35.9749"><stop offset="0" stop-color="#70abdc"/><stop offset=".17" stop-color="#67a6da"/><stop offset=".46" stop-color="#4d9ad4"/><stop offset=".6" stop-color="#3e93d0"/><stop offset=".99" stop-color="#1b7cc1"/></linearGradient><linearGradient id="b" gradientUnits="userSpaceOnUse" x1="45.2996" x2="44.5766" y1="2.01211" y2="37.0154"><stop offset="0" stop-color="#3e93d0"/><stop offset=".99" stop-color="#1b7cc1"/></linearGradient><path d="m42.3466 12.4523-.2672 12.4767s-.3989-4.9216.2672-12.4767z" fill="#fff"/><g fill="#3d434b"><path d="m78.8409 28.1139c-.0003.0811-.0318.1589-.088.2168-.0561.0579-.1324.0914-.2125.0933-.8141.023-1.5565.1114-2.4376.1562-.8513.0424-1.6762.0751-2.3323.2145-.0487.0107-.0992.0093-.1472-.0042s-.092-.0387-.1282-.0734c-.0303-.029-.0544-.0639-.0708-.1026-.0165-.0388-.025-.0805-.025-.1227v-1.6958c0-.057-.0156-.1129-.045-.1615-.0293-.0486-.0714-.0881-.1215-.1142-.0501-.026-.1063-.0376-.1625-.0334-.0561.0042-.1101.0239-.1559.0571-.6866.5199-1.4035.9976-2.1467 1.4306-1.0308.5814-1.7779.8564-2.7382.8564-2.3825 0-4.4107-1.4039-4.4107-5.1021v-6.7083c0-1.817-.285-2.2034-1.1733-2.4081l-.7675-.1587c-.0647-.0145-.123-.0499-.1662-.1008s-.0689-.1145-.0732-.1815l-.0276-.3936c-.0031-.0415.0021-.0832.0154-.1225.0132-.0394.0341-.0757.0615-.1066.0274-.031.0607-.0561.0979-.0738.0371-.0176.0775-.0275.1186-.029 1.0105-.0364 3.4792-.1103 4.4778-.189.0437-.0036.0878.0024.129.0176.0413.0153.0788.0394.11.0707s.0553.0691.0706.1107c.0154.0416.0217.0862.0184.1305-.0754 1.0538-.0754 2.5534-.0754 4.597v4.6224c0 3.0477 1.5289 3.8689 3.1296 3.8689 1.244 0 2.5562-.4845 3.7379-1.5493.0325-.0294.0584-.0655.0762-.1057.0177-.0403.0268-.0839.0268-.128v-7.8712c0-1.817-.3197-2.2373-1.4942-2.4081l-1.0332-.1672c-.0722-.0115-.1378-.0488-.1853-.1049-.0474-.0562-.0734-.1277-.0734-.2016v-.3815c-.0003-.0803.0302-.1576.0852-.2155.055-.0578.1301-.0918.2094-.0946 1.1422-.0364 3.9342-.1127 4.9603-.1938.0419-.0032.0841.0024.1238.0165s.0761.0364.1069.0654.0554.0641.0721.1032c.0168.039.0253.0812.0252.1237v11.0897c0 1.7116.2838 2.6879 1.6762 2.7861l.6645.0242c.0794.0028.1546.0367.2098.0946.0552.0578.086.1351.0859.2155z"/><path d="m60.6994 24.516c-.4346 1.1568-.9315 2.4542-1.3876 3.6279-.0318.0817-.0872.1517-.159.201s-.1566.0755-.2433.0752h-11.1406c-.0806.0002-.1596-.0224-.2281-.0652s-.1239-.1041-.1598-.1771l-.0168-.0363c-.0341-.0705-.0488-.149-.0425-.2273.0064-.0782.0334-.1533.0784-.2173 2.8519-4.0627 5.5518-8.1582 8.2732-12.3966.0422-.0659.0662-.1421.0694-.2205.0032-.0785-.0144-.1564-.0511-.2256-.0367-.0691-.0911-.1271-.1575-.1678-.0664-.0406-.1424-.0625-.22-.0633h-2.3682c-2.561 0-3.0231.5136-4.0192 2.4312l-.3233.6056c-.0488.0907-.1277.161-.2228.1985s-.2003.0397-.2968.0062l-.1473-.0508c-.106-.0369-.1937-.1139-.2447-.2149-.0509-.1011-.061-.2182-.0283-.3266.3329-1.0902.7076-2.2579.965-3.4583.0203-.098.0732-.186.1499-.2493.0768-.0633.1726-.098.2716-.0984h10.3049c.0832.0001.1647.0245.2346.0702.0698.0458.1252.111.1593.1878.0302.0679.0427.1425.0364.2167-.0062.0742-.0312.1456-.0723.2073-2.725 4.0834-5.3925 8.1922-8.1127 12.4657-.042.0659-.0657.1419-.0687.2202-.0031.0782.0146.1559.0513.2249s.0909.1268.1571.1674c.0663.0406.142.0625.2194.0634h2.7298c2.6975 0 3.411-.7158 4.7568-2.7594l.0167-.0278.2563-.4543c.054-.0959.142-.1676.2461-.2006.1042-.033.2169-.025.3154.0226l.2023.0969c.0974.0474.1737.1301.2138.2317.0402.1016.0412.2147.0029.317z"/><path d="m94.2715 27.9538c.0003-.1157.0429-.2271.1196-.3127.0768-.0857.1821-.1396.2958-.1513 1.9672-.2011 2.9764-.5196 2.9764-2.7v-7.0536c0-1.9877-.0933-2.6455-1.8581-2.9738-.1067-.0192-.2033-.0757-.2731-.1596s-.1083-.1898-.1088-.2995v-.3924c-.0001-.1214.0467-.2381.1303-.3252s.1975-.1377.3174-.1412c.7699-.0218 2.4042-.0775 3.8828-.1877.0632-.0049.1268.0036.1866.0248.0596.0211.1146.0546.1616.0983.046.0437.083.0966.108.1555s.038.1224.038.1865v11.0679c0 2.1804.416 2.4989 2.335 2.6988.114.0114.22.0652.296.1509.077.0857.12.1972.121.313 0 .0613-.012.1219-.035.1785-.024.0566-.058.108-.1.1513-.043.0433-.094.0777-.15.1011s-.116.0355-.176.0355h-7.8066c-.122 0-.2391-.049-.3255-.1362s-.1351-.2055-.1354-.3289z"/><path d="m93.8981 14.084c.0013.1622-.0588.3187-.1678.4376-.1091.1189-.2589.1912-.4189.202-.6537.0496-1.2763.212-1.5492.6771-.0513.0594-.0796.1356-.0796.2144 0 .0789.0283.155.0796.2144.4764.7652.7257 1.6528.7183 2.5571 0 3.6982-3.2015 5.4788-6.2258 5.4788-.4808-.0039-.9608-.0407-1.4367-.1102-.1302-.0201-.2632-.0111-.3896.0264-.1263.0374-.2431.1024-.342.1904-.3687.3368-.7183.7971-.7183 1.1593 0 .6505.6405 1.0599 2.2413 1.0599 1.317 0 2.5597-.1139 3.7199-.0085 2.191.1987 4.6861 1.9454 4.6861 4.6902 0 2.8794-3.4493 5.0198-8.1797 5.0198-3.9834 0-6.4138-1.9842-6.4138-3.9368 0-2.4094 2.5621-3.1689 3.4014-3.8133.0387-.0288.0689-.0675.0876-.1123.0187-.0447.0251-.0936.0186-.1417s-.0256-.0936-.0555-.1316-.0693-.0671-.1141-.0844c-1.0309-.413-1.863-.5511-2.1647-1.0708-1.1039-1.9018 1.8869-2.3984 2.4784-2.9992.0309-.0305.054-.0682.0673-.1099.0133-.0416.0164-.0858.0089-.1289-.0074-.0431-.0251-.0837-.0515-.1183-.0265-.0345-.0608-.0621-.1002-.0802-1.4726-.7268-2.7944-2.2725-2.7944-4.4371 0-3.869 3.6277-5.6835 6.3671-5.6835h.0359c.7394.001 1.4738.1237 2.1743.3634.0928.0323.1903.0491.2885.0496h4.1904c.1652 0 .3237.0659.4411.1834.1175.1174.1844.277.1863.4441zm-11.6531 16.7768c0 1.8836 1.8379 3.5044 4.4695 3.5044 3.2589 0 4.6573-1.3603 4.8968-2.6346.2885-1.5396-.5112-2.3827-1.5349-3.0283-.8034-.5027-1.3817-.7268-2.9441-.8116-3.3128-.1757-4.8873 2.0108-4.8873 2.9701zm1.0309-12.6789c0 2.6649 1.3876 4.5885 3.344 4.5885 1.5648-.0339 2.9524-1.37 2.9524-4.0749 0-2.6649-1.317-4.5885-3.3787-4.5885-1.4942.0061-2.9165 1.4379-2.9165 4.0749z"/></g><path d="m20.5559 8.56538 24.1681-6.56538-.88 35-26.844-5.1469z" fill="url(#a)"/><path d="m44.7237 2 1.3075.95937-.8501 32.50463-1.3373 1.536z" fill="url(#b)"/><path d="m20.5568 8.56538-.3496 1.66432c0 .0776-.006.1551-.006.2338 0 10.1352 8.0025 18.3516 18.5325 18.3516 1.803.0001 3.5977-.2468 5.3351-.7341l.6561-26.081z" fill="#fff" opacity=".15"/><path d="m41.7502 26.1804c-.4334 1.3639-1.7816 5.165-2.3239 6.3776l-19.9849-2.9399.0718-.7922c3.6805.2423 4.0301.0303 4.2791-2.4941l1.2296-12.3398c.2813-2.786-.0527-2.8321-3.3835-2.2821l.0778-.8189 19.8735-4.77259c-.1197 1.01751-.2275 3.73815-.3412 5.79379l-1.3421.384c-.2096-1.605-.5616-2.39119-1.0572-3.09739-.5376-.7268-1.7349-.71711-4.9855.00848l-3.3835.74981c-1.3672.3004-1.4654.4203-1.5684 1.3894l-.8045 7.5877 4.0503-.2931c3.9857-.2895 4.242-.6057 5.0753-3.2306l1.299-.1527-.8848 7.4933h-1.2703c-.255-2.7-.5364-2.9072-4.3293-2.7267l-4.0707.2011-.6609 6.2432c-.1617 1.548.0107 2.3015.7183 2.786.7411.533 2.1982.7159 4.2958.9812 3.2219.413 4.4575.2568 5.5254-.6541.8321-.7268 1.8295-2.0653 2.634-3.6231z" fill="#fff"/><path d="m96.12 9.07771c.2395 1.05869 1.3829 1.65349 2.555 1.33249s1.929-1.45362 1.691-2.50626c-.239-1.05264-1.3833-1.65346-2.5554-1.33246-1.1722.321-1.9288 1.44754-1.6906 2.50623z" fill="#3d91cf"/></svg>