<svg width="120" height="40" viewBox="0 0 120 40" fill="none" xmlns="http://www.w3.org/2000/svg">
<path d="M7.94455 16.7573H11.3739V19.5522L16.8036 19.6922V3.99451C16.8036 3.81162 16.7093 3.69159 16.5636 3.69159H11.6082C11.4653 3.69159 11.3681 3.81162 11.3681 3.99451V11.4247H7.93883V3.99451C7.93883 3.81162 7.84167 3.69159 7.69878 3.69159H2.812C2.66626 3.69159 2.56909 3.81162 2.56909 3.99451V19.3264L7.94455 19.4636V16.7573Z" fill="black"/>
<path d="M29.3778 3.9345C29.3321 3.7516 29.2435 3.69159 29.1291 3.69159H23.7623C23.6508 3.69159 23.5594 3.7516 23.5136 3.9345L18.9727 19.7494L33.9245 20.1466L29.3778 3.9345ZM25.0083 17.2402L26.4228 8.30402L27.7946 17.2402H25.0083Z" fill="black"/>
<path d="M54.9319 19.9208L57.2981 16.4572L59.09 20.7867L64.674 20.9296L60.5474 11.7619L65.8228 4.04595C65.96 3.83448 65.8686 3.68301 65.6885 3.68301H60.0959C59.9787 3.68587 59.873 3.75446 59.8244 3.86305L54.9319 11.7219V3.99451C54.9319 3.81161 54.8405 3.69159 54.7061 3.69159H50.1337C49.9965 3.69159 49.908 3.81161 49.908 3.99451V20.5495L54.9376 20.6781L54.9319 19.9208Z" fill="black"/>
<path d="M81.3207 17.9918C81.3207 9.7729 72.0501 12.6935 72.0501 9.4414C72.0501 8.50977 72.8389 8.08682 73.922 8.08682C75.1851 8.08682 76.4254 8.65837 77.6656 9.9558C77.7256 10.0444 77.8457 10.0701 77.9343 10.0101C77.9657 9.99009 77.9886 9.95865 78.0057 9.92436L80.5291 6.42932C80.6234 6.30072 80.6149 6.12354 80.5091 6.00637C78.7259 3.93449 76.6511 3 74.1249 3C70.6956 3 67.0205 4.68608 67.0205 10.0758C67.0205 18.7148 76.4025 15.2827 76.4025 18.8349C76.4025 19.9208 75.5252 20.4609 74.262 20.4609C72.6817 20.4609 71.1185 19.6493 69.5467 17.5117C69.4581 17.3917 69.321 17.3603 69.2324 17.5117L66.7861 20.9839L80.6949 21.344C81.1235 20.278 81.3379 19.1406 81.3207 17.9918Z" fill="black"/>
<path d="M92.7485 3.9345C92.7028 3.7516 92.6114 3.69159 92.4999 3.69159H87.133C87.0187 3.69159 86.9301 3.7516 86.8844 3.9345L81.8748 21.3669L97.7582 21.7784L92.7485 3.9345ZM88.3762 17.2402L89.805 8.30402L91.1625 17.2402H88.3762Z" fill="black"/>
<path d="M107.686 13.1394L109.098 22.0784L114.894 22.2299L119.986 4.0231C120.032 3.81162 119.963 3.6916 119.806 3.6916H115.019C114.885 3.6916 114.794 3.78304 114.771 3.97737L112.242 14.5511L110.173 3.97737C110.15 3.82591 110.058 3.6916 109.924 3.6916H105.452C105.317 3.6916 105.226 3.81162 105.203 3.97737L103.134 14.5511L100.593 3.96308C100.57 3.78304 100.479 3.67731 100.345 3.67731H95.5665C95.4094 3.67731 95.3408 3.79733 95.3865 4.00881L100.373 21.8613L106.286 22.0156L107.686 13.1394Z" fill="black"/>
<path d="M47.5731 18.8091C47.576 18.7663 47.5445 18.7291 47.5017 18.7263C47.4731 18.7234 47.4445 18.7377 47.4302 18.7634C46.7558 19.7693 45.6184 20.3666 44.4067 20.3495C41.769 20.3495 40.5259 17.7318 40.5259 14.2396C40.5259 11.0789 41.5604 8.27828 44.4582 8.27828C45.647 8.23255 46.7758 8.80982 47.4388 9.79861C47.4645 9.83576 47.5131 9.84433 47.5503 9.81861C47.5703 9.80433 47.5845 9.78146 47.5845 9.75574V3.89447C47.5874 3.7573 47.5017 3.63727 47.3731 3.59155C46.3614 3.2429 45.2983 3.06572 44.2295 3.06858C38.4083 3.06858 34.656 8.18683 34.656 14.6311C34.6303 16.5372 35.0047 18.4291 35.7563 20.1837L47.576 20.4895L47.5731 18.8091Z" fill="black"/>
<path d="M8.7991 25.4878C8.7991 25.6678 8.89341 25.7735 9.03915 25.7735H13.9802C14.1231 25.7735 14.2203 25.6535 14.2203 25.4878V20.5353L8.79053 20.3924L8.7991 25.4878Z" fill="black"/>
<path d="M0.240052 25.7878H5.14397C5.28972 25.7878 5.38688 25.6678 5.38688 25.502V20.3037L0 20.1666V25.4877C0 25.6678 0.097164 25.7878 0.240052 25.7878Z" fill="black"/>
<path d="M15.1919 25.7878H20.133C20.2673 25.7764 20.3759 25.6792 20.4016 25.5478L21.0332 22.8072H26.5773L27.2088 25.5478C27.2346 25.6792 27.3431 25.7764 27.4775 25.7878H32.4185C32.5757 25.7878 32.6443 25.6392 32.5986 25.4277L31.3497 20.9782L16.4008 20.5895L15.0119 25.4277C14.9462 25.6392 15.0348 25.7878 15.1919 25.7878Z" fill="black"/>
<path d="M58.1556 25.5763C58.1899 25.6992 58.3014 25.7821 58.4271 25.785H63.5911C63.7711 25.785 63.8397 25.6364 63.7483 25.4249L62.1051 21.7698L56.521 21.6241L58.1556 25.5763Z" fill="black"/>
<path d="M47.5559 25.7878H52.1284C52.2655 25.7878 52.3541 25.6678 52.3541 25.502V21.5211L47.3245 21.3897V25.4877C47.3302 25.6678 47.4216 25.7878 47.5559 25.7878Z" fill="black"/>
<path d="M63.8195 22.8071C65.5885 25.1219 68.3348 26.4822 71.2497 26.4822C74.1903 26.4822 76.9395 25.0534 78.134 22.1956L64.2139 21.8269L63.8195 22.3985C63.7252 22.5185 63.7252 22.6871 63.8195 22.8071Z" fill="black"/>
<path d="M78.5628 25.7878H83.501C83.6353 25.7763 83.7439 25.6792 83.7725 25.5477L84.4041 22.8071H89.951L90.5911 25.5477C90.6197 25.6792 90.7283 25.7763 90.8626 25.7878H95.7923C95.9523 25.7878 96.018 25.6392 95.9752 25.4277L95.1893 22.6271L79.3058 22.2156L78.3828 25.4277C78.3027 25.6392 78.4056 25.7878 78.5628 25.7878Z" fill="black"/>
<path d="M106.938 25.5163C106.961 25.6678 107.049 25.7878 107.183 25.7878H111.393C111.527 25.7878 111.616 25.6992 111.639 25.5163L112.325 23.0701L106.526 22.9214L106.938 25.5163Z" fill="black"/>
<path d="M98.8416 25.7878H103.048C103.183 25.7878 103.274 25.6678 103.297 25.5163L103.717 22.8472L97.8042 22.6957L98.5929 25.5163C98.6158 25.6992 98.7044 25.7878 98.8416 25.7878Z" fill="black"/>
<path d="M41.7606 26.6109C42.7866 26.6137 43.8097 26.4594 44.787 26.1479C44.9185 26.1022 45.0042 25.9793 45.0042 25.8421V21.3297L33.1816 21.0239C34.6934 24.4332 37.6912 26.6109 41.7606 26.6109Z" fill="black"/>
<path d="M7.43001 32.6521H5.56103V31.7948C5.56103 31.6434 5.47244 31.5662 5.29241 31.5662H4.90661C4.72657 31.5662 4.63798 31.6434 4.63798 31.7948V35.6042C4.63798 35.7557 4.72657 35.8328 4.90661 35.8328H5.29241C5.47244 35.8328 5.56103 35.7557 5.56103 35.6042V34.4925H5.02378V33.3494H7.43001V35.7414C7.43001 36.5987 6.90418 37.0245 5.84967 37.0245H4.33791C3.2834 37.0245 2.75757 36.5987 2.75757 35.7414V31.6576C2.75757 30.8032 3.2834 30.3774 4.33791 30.3745H5.8611C6.91561 30.3745 7.44144 30.8032 7.44144 31.6576L7.43001 32.6521Z" fill="#808184"/>
<path d="M27.3917 37.0074L27.1774 36.0157H25.5227L25.297 37.0074H23.448L25.2227 30.3631H27.5089L29.2836 37.0074H27.3917ZM25.8142 34.7212H26.8887L26.3601 32.3321L25.8142 34.7212Z" fill="#808184"/>
<path d="M47.0731 37.0074H45.3984V30.3745H47.4389L48.582 33.9239L49.6994 30.3745H51.7255V37.0074H50.0594V32.795L49.2021 35.5814H47.9133L47.0559 32.8179L47.0731 37.0074Z" fill="#808184"/>
<path d="M68.2805 30.3745H70.1609V37.0074H68.2805V30.3745Z" fill="#808184"/>
<path d="M89.8537 30.3745H91.5684V37.0074H89.9623L88.4249 33.5209V37.0074H86.7102V30.3745H88.3048L89.8423 33.9239L89.8537 30.3745Z" fill="#808184"/>
<path d="M112.747 32.6521H110.881V31.7948C110.881 31.6434 110.793 31.5662 110.613 31.5662H110.227C110.047 31.5662 109.958 31.6434 109.958 31.7948V35.6042C109.958 35.7557 110.047 35.8328 110.227 35.8328H110.595C110.775 35.8328 110.864 35.7557 110.864 35.6042V34.4925H110.327V33.3494H112.744V35.7414C112.744 36.5987 112.219 37.0245 111.167 37.0245H109.641C108.586 37.0245 108.061 36.5987 108.061 35.7414V31.6576C108.061 30.8032 108.586 30.3774 109.641 30.3745H111.167C112.219 30.3745 112.744 30.8032 112.744 31.6576L112.747 32.6521Z" fill="#808184"/>
</svg>
