<svg fill="none" height="40" viewBox="0 0 120 40" width="120" xmlns="http://www.w3.org/2000/svg"><g fill="#78be21"><path d="m62.1344 4h-.9371v32h.9371v-6.1571h11.8367v-3.7279h-9.1074v-4.2931h7.7855v-3.7561h-7.7855v-4.1527h9.1074v-3.756h-11.8367z"/><path d="m25.2916 22.2285-3.3636-5.3638-4.3114-6.6415-.0428-.0667h-3.5738v19.6858h3.9658v-12.1l2.9574 4.7143 4.7568 7.3857h3.6023v-19.6858h-3.9907z"/><path d="m31.5137 29.8423h13.0981v-3.7279h-9.1074v-4.2931h7.7854v-3.7561h-7.7854v-4.1527h9.1074v-3.756h-13.0981z"/><path d="m46.2188 13.9406h4.5786v15.9017h3.9907v-15.9017h4.5501v-3.7841h-13.1194z"/><path d="m87.2584 22.2624-3.3636-5.3603-4.3114-6.6415-.0428-.0702h-3.5738v19.6859h3.9622v-12.1001l2.9574 4.7144 4.7604 7.3857h3.6023v-19.6859h-3.9907z"/><path d="m92.8809 10.1904v3.7841h4.5786v15.9018h3.9905v-15.9018h4.55v-3.7841z"/></g></svg>