<svg width="120" height="40" viewBox="0 0 120 40" fill="none" xmlns="http://www.w3.org/2000/svg">
<path d="M43.0099 26.7528C43.1998 26.9435 43.3265 27.2612 43.3265 27.5789C43.3265 27.8331 43.2632 28.0237 43.1998 28.2143C43.0732 28.4049 42.9465 28.532 42.8199 28.6591C42.6299 28.7862 42.4399 28.7862 42.1866 28.7862H40.8568V30.5654C40.8568 30.6289 40.8568 30.6289 40.7935 30.6289L40.7302 30.6925C40.6668 30.6925 40.6668 30.6925 40.6668 30.6289L40.6035 30.5654V26.5622C40.6035 26.4987 40.6035 26.4987 40.6668 26.4987L40.7302 26.4351H42.1866C42.5033 26.4351 42.7566 26.5622 43.0099 26.7528ZM42.8199 28.2779C43.0098 28.0872 43.0732 27.8966 43.0732 27.5789C43.0732 27.2612 43.0098 27.0705 42.8199 26.8799C42.6299 26.6893 42.4399 26.6257 42.1866 26.6257H40.8568V28.532H42.1866C42.4399 28.5956 42.6299 28.4685 42.8199 28.2779Z" fill="#1D1934"/>
<path d="M47.2533 30.5655C47.2533 30.629 47.2533 30.629 47.19 30.629L47.1266 30.6926H47.0633C46.9367 30.629 46.8733 30.502 46.81 30.3749C46.7467 30.2478 46.6834 29.9936 46.6834 29.6759C46.6834 29.3582 46.62 29.104 46.4301 28.9769C46.2401 28.8499 46.0501 28.7863 45.7968 28.7863H44.4037V30.5655C44.4037 30.629 44.4037 30.629 44.3404 30.629L44.277 30.6926C44.2137 30.6926 44.2137 30.6926 44.2137 30.629L44.1504 30.5655V26.5623C44.1504 26.4988 44.1504 26.4988 44.2137 26.4988L44.277 26.4352H45.8602C46.1135 26.4352 46.3034 26.4988 46.4934 26.5623C46.6834 26.6894 46.81 26.8165 46.9367 26.9436C47.0633 27.0707 47.0633 27.3248 47.0633 27.5155C47.0633 27.7696 47 28.0238 46.8733 28.2144C46.7467 28.4051 46.5567 28.5321 46.3034 28.5957C46.4934 28.6592 46.6834 28.7863 46.81 28.9769C46.9367 29.1676 47 29.3582 47 29.6759C47 29.9301 47 30.1207 47.0633 30.2478C47.1266 30.3749 47.1266 30.4384 47.19 30.502L47.2533 30.5655ZM45.8602 28.5321C46.1135 28.5321 46.3034 28.4051 46.4934 28.2144C46.6834 28.0238 46.7467 27.7696 46.7467 27.5155C46.7467 27.2613 46.6834 27.0707 46.4934 26.88C46.3034 26.6894 46.0501 26.6259 45.7968 26.6259H44.3404V28.5321H45.8602Z" fill="#1D1934"/>
<path d="M50.6083 30.502L50.6717 30.5655C50.6717 30.629 50.6717 30.629 50.6083 30.629L50.545 30.6926H48.2653C48.202 30.6926 48.202 30.6926 48.202 30.629L48.1387 30.5655V26.5623C48.1387 26.4988 48.1387 26.4988 48.202 26.4988L48.2653 26.4352H50.545C50.6083 26.4352 50.6083 26.4352 50.6083 26.4988L50.6717 26.5623C50.6717 26.6259 50.6717 26.6259 50.6083 26.6259L50.545 26.6894H48.392V28.4051H50.2917C50.355 28.4051 50.355 28.4051 50.355 28.4686L50.4184 28.5321C50.4184 28.5957 50.4184 28.5957 50.355 28.5957L50.2917 28.6592H48.392V30.502H50.545C50.545 30.4384 50.6083 30.502 50.6083 30.502Z" fill="#1D1934"/>
<path d="M55.2944 26.4988V26.5623V30.5655C55.2944 30.629 55.2944 30.629 55.2311 30.629L55.1678 30.6926C55.1045 30.6926 55.1045 30.6926 55.1045 30.629L55.0411 30.5655V26.9436L53.458 29.2947C53.458 29.3582 53.3947 29.3582 53.3947 29.3582C53.3314 29.3582 53.3314 29.3582 53.268 29.2947L51.6849 26.88V30.5655C51.6849 30.629 51.6849 30.629 51.6216 30.629L51.5583 30.6926C51.495 30.6926 51.495 30.6926 51.495 30.629L51.4316 30.5655V26.5623C51.4316 26.5623 51.4316 26.4988 51.495 26.4988L51.5583 26.4352C51.6216 26.4352 51.6216 26.4352 51.6849 26.4988L53.3947 29.0405L55.1045 26.4988C55.1678 26.4352 55.1678 26.4352 55.2311 26.4352C55.2311 26.4352 55.2944 26.4352 55.2944 26.4988Z" fill="#1D1934"/>
<path d="M56.688 30.6928L56.6247 30.7564C56.5614 30.7564 56.5614 30.7564 56.5614 30.6928L56.498 30.6293V26.6261C56.498 26.5626 56.498 26.5626 56.5614 26.5626L56.6247 26.499C56.688 26.499 56.688 26.499 56.688 26.5626L56.7513 26.6261V30.6293C56.7513 30.6293 56.7513 30.6293 56.688 30.6928Z" fill="#1D1934"/>
<path d="M60.9938 26.4988L61.0572 26.5623V29.2311C61.0572 29.4853 60.9938 29.803 60.8672 29.9936C60.7405 30.2478 60.5506 30.4384 60.2973 30.5655C60.044 30.6926 59.7907 30.7561 59.5374 30.7561C59.2841 30.7561 58.9674 30.6926 58.7775 30.5655C58.5242 30.4384 58.3342 30.2478 58.2076 29.9936C58.0809 29.7395 58.0176 29.4853 58.0176 29.2311V26.5623C58.0176 26.4988 58.0176 26.4988 58.0809 26.4988L58.1442 26.4352C58.2076 26.4352 58.2076 26.4352 58.2076 26.4988L58.2709 26.5623V29.2311C58.2709 29.4853 58.3342 29.6759 58.4609 29.8665C58.5875 30.0572 58.7141 30.2478 58.9674 30.3749C59.1574 30.502 59.4107 30.5655 59.6007 30.5655C59.7907 30.5655 60.044 30.502 60.2339 30.3749C60.4239 30.2478 60.6139 30.1207 60.7405 29.8665C60.8672 29.6124 60.9305 29.4217 60.9305 29.2311V26.5623C60.9305 26.4988 60.9305 26.4988 60.9938 26.4988L61.0572 26.4352C61.0572 26.4352 60.9938 26.4352 60.9938 26.4988Z" fill="#1D1934"/>
<path d="M65.9976 26.4988V26.5623V30.5655C65.9976 30.629 65.9976 30.629 65.9342 30.629L65.8709 30.6926C65.8076 30.6926 65.8076 30.6926 65.8076 30.629L65.7443 30.5655V26.9436L64.1612 29.2947C64.1612 29.3582 64.0978 29.3582 64.0978 29.3582C64.0345 29.3582 64.0345 29.3582 63.9712 29.2947L62.3881 26.88V30.5655C62.3881 30.629 62.3881 30.629 62.3247 30.629L62.2614 30.6926C62.1981 30.6926 62.1981 30.6926 62.1981 30.629L62.1348 30.5655V26.5623C62.1348 26.5623 62.1348 26.4988 62.1981 26.4988L62.2614 26.4352C62.3247 26.4352 62.3247 26.4352 62.3881 26.4988L64.0978 29.0405L65.8076 26.4988C65.8709 26.4352 65.8709 26.4352 65.9342 26.4352C65.9342 26.4352 65.9976 26.4352 65.9976 26.4988Z" fill="#1D1934"/>
<path d="M72.5835 26.4988V26.5623V30.5655C72.5835 30.629 72.5835 30.629 72.5202 30.629L72.4569 30.6926C72.3935 30.6926 72.3935 30.6926 72.3935 30.629L72.3302 30.5655V26.9436L70.7471 29.2947C70.7471 29.3582 70.6838 29.3582 70.6838 29.3582C70.6204 29.3582 70.6204 29.3582 70.5571 29.2947L68.974 26.88V30.5655C68.974 30.629 68.974 30.629 68.9107 30.629L68.8474 30.6926C68.784 30.6926 68.784 30.6926 68.784 30.629L68.7207 30.5655V26.5623C68.7207 26.5623 68.7207 26.4988 68.784 26.4988L68.8474 26.4352C68.9107 26.4352 68.9107 26.4352 68.974 26.4988L70.6838 29.0405L72.3935 26.4988C72.4569 26.4352 72.4569 26.4352 72.5202 26.4352C72.5202 26.4352 72.5202 26.4352 72.5835 26.4988Z" fill="#1D1934"/>
<path d="M77.2682 29.7395C77.0783 30.0572 76.825 30.3113 76.5717 30.502C76.255 30.6926 75.9384 30.7561 75.4951 30.7561C75.0519 30.7561 74.7352 30.6926 74.4186 30.502C74.102 30.3113 73.8487 30.0572 73.722 29.7395C73.5321 29.4217 73.4688 29.0405 73.4688 28.5957C73.4688 28.1509 73.5321 27.7696 73.722 27.4519C73.912 27.1342 74.1653 26.88 74.4186 26.6894C74.7352 26.4988 75.0519 26.4352 75.4951 26.4352C75.9384 26.4352 76.255 26.4988 76.5717 26.6894C76.8883 26.88 77.1416 27.1342 77.2682 27.4519C77.4582 27.7696 77.5215 28.1509 77.5215 28.5957C77.5215 28.9769 77.4582 29.3582 77.2682 29.7395ZM77.0149 27.579C76.8883 27.2613 76.635 27.0707 76.3817 26.88C76.1284 26.6894 75.8118 26.6259 75.4318 26.6259C75.1152 26.6259 74.7986 26.6894 74.4819 26.88C74.2286 27.0707 73.9753 27.2613 73.8487 27.579C73.722 27.8967 73.5954 28.2144 73.5954 28.5957C73.5954 28.9769 73.6587 29.2947 73.8487 29.6124C73.9753 29.9301 74.2286 30.1207 74.4819 30.3113C74.7352 30.502 75.0519 30.5655 75.4318 30.5655C75.7484 30.5655 76.0651 30.502 76.3817 30.3113C76.635 30.1207 76.8883 29.9301 77.0149 29.6124C77.1416 29.2947 77.2682 28.9769 77.2682 28.5957C77.2682 28.2144 77.2049 27.8332 77.0149 27.579Z" fill="#1D1934"/>
<path d="M81.1953 28.8499C81.322 29.0405 81.4486 29.2947 81.4486 29.5488C81.4486 29.9301 81.322 30.1842 81.0687 30.3749C80.8154 30.5655 80.5621 30.6926 80.1821 30.6926H78.4724C78.409 30.6926 78.409 30.6926 78.409 30.629L78.3457 30.5655V26.5623C78.3457 26.4988 78.3457 26.4988 78.409 26.4988L78.4724 26.4352H80.1188C80.4354 26.4352 80.6887 26.4988 80.8787 26.6894C81.0687 26.88 81.1953 27.1342 81.1953 27.4519C81.1953 27.7061 81.132 27.8967 81.0053 28.0873C80.8787 28.278 80.752 28.4051 80.5621 28.4686C80.8154 28.5321 81.0053 28.6592 81.1953 28.8499ZM80.752 26.88C80.6254 26.753 80.3721 26.6894 80.1188 26.6894H78.6623V28.4051H80.1188C80.3721 28.4051 80.5621 28.3415 80.752 28.1509C80.8787 27.9603 81.0053 27.7696 81.0053 27.4519C80.942 27.1978 80.8787 27.0071 80.752 26.88ZM80.8787 30.2478C81.0687 30.1207 81.132 29.8665 81.132 29.5488C81.132 29.2311 81.0687 29.0405 80.8787 28.8499C80.6887 28.6592 80.4354 28.5957 80.1188 28.5957H78.599V30.4384H80.1188C80.4354 30.4384 80.6887 30.3749 80.8787 30.2478Z" fill="#1D1934"/>
<path d="M82.4615 30.6928L82.3981 30.7564C82.3348 30.7564 82.3348 30.7564 82.3348 30.6928L82.2715 30.6293V26.6261C82.2715 26.5626 82.2715 26.5626 82.3348 26.5626L82.3981 26.499C82.3981 26.499 82.4615 26.499 82.4615 26.5626L82.5248 26.6261V30.6293C82.5248 30.6293 82.5248 30.6293 82.4615 30.6928Z" fill="#1D1934"/>
<path d="M86.1349 30.502L86.1982 30.5655C86.1982 30.629 86.1982 30.629 86.1349 30.629L86.0715 30.6926H83.8552C83.7918 30.6926 83.7918 30.6926 83.7918 30.629L83.7285 30.5655V26.5623C83.7285 26.4988 83.7285 26.4988 83.7918 26.4988L83.8552 26.4352C83.8552 26.4352 83.9185 26.4352 83.9185 26.4988L83.9818 26.5623V30.502H86.0715C86.0715 30.4384 86.0715 30.502 86.1349 30.502Z" fill="#1D1934"/>
<path d="M89.2997 30.502L89.3631 30.5655C89.3631 30.629 89.3631 30.629 89.2997 30.629L89.2364 30.6926H86.9567C86.8934 30.6926 86.8934 30.6926 86.8934 30.629L86.8301 30.5655V26.5623C86.8301 26.4988 86.8301 26.4988 86.8934 26.4988L86.9567 26.4352H89.2364C89.2997 26.4352 89.2997 26.4352 89.2997 26.4988L89.3631 26.5623C89.3631 26.6259 89.3631 26.6259 89.2997 26.6259L89.2364 26.6894H87.0201V28.4051H88.9198C88.9831 28.4051 88.9831 28.4051 88.9831 28.4686L89.0464 28.5321C89.0464 28.5957 89.0464 28.5957 88.9831 28.5957L88.9198 28.6592H87.0201V30.502H89.1731C89.2364 30.4384 89.2997 30.502 89.2997 30.502Z" fill="#1D1934"/>
<path d="M94.936 28.6595L94.9993 28.723V30.248C94.9993 30.3116 94.9993 30.3116 94.936 30.3751C94.746 30.5022 94.556 30.6293 94.3027 30.6928C94.1128 30.7564 93.8595 30.8199 93.6062 30.8199C93.1629 30.8199 92.7829 30.7564 92.4663 30.5657C92.1497 30.3751 91.8964 30.1209 91.7064 29.8032C91.5164 29.4855 91.4531 29.1043 91.4531 28.6595C91.4531 28.2147 91.5164 27.8334 91.7064 27.5157C91.8964 27.198 92.1497 26.9438 92.4663 26.7532C92.7829 26.5626 93.1629 26.499 93.6062 26.499C93.8595 26.499 94.0494 26.499 94.2394 26.5626C94.4294 26.6261 94.6194 26.6897 94.8093 26.8167C94.8727 26.8167 94.8726 26.8803 94.8726 26.9438C94.8726 27.0074 94.8727 27.0074 94.8093 27.0074L94.746 27.0709H94.6827C94.3661 26.8803 93.9861 26.7532 93.6062 26.7532C93.2262 26.7532 92.9096 26.8167 92.593 27.0074C92.2763 27.198 92.0864 27.3886 91.8964 27.7063C91.7064 28.024 91.6431 28.3418 91.6431 28.723C91.6431 29.1043 91.7064 29.422 91.8964 29.7397C92.0864 30.0574 92.2763 30.248 92.593 30.4387C92.9096 30.6293 93.2262 30.6928 93.6062 30.6928C93.7961 30.6928 93.9861 30.6928 94.1761 30.6293C94.3661 30.5657 94.556 30.5022 94.6827 30.3751V29.0407H93.6062C93.5428 29.0407 93.5428 29.0407 93.5428 28.9772L93.4795 28.9136C93.4795 28.8501 93.4795 28.8501 93.5428 28.8501L93.6062 28.7866H94.8093C94.8727 28.5959 94.936 28.5959 94.936 28.6595Z" fill="#1D1934"/>
<path d="M99.052 30.5655C99.052 30.629 99.052 30.629 98.9887 30.629H98.9254H98.8621L98.7987 30.5655L98.2921 29.2947H96.2658L95.7592 30.5655C95.7592 30.629 95.6958 30.629 95.6325 30.629C95.5692 30.629 95.5692 30.629 95.5692 30.629L95.5059 30.5655V30.502L97.1523 26.4988C97.1523 26.4352 97.1523 26.4352 97.2156 26.4352H97.2789C97.3423 26.4352 97.4056 26.4352 97.4056 26.4988L99.052 30.5655ZM96.3924 29.1676H98.2288L97.2789 26.88L96.3924 29.1676Z" fill="#1D1934"/>
<path d="M103.611 26.4988V26.5623V30.5655C103.611 30.629 103.611 30.629 103.548 30.629L103.484 30.6926C103.421 30.6926 103.421 30.6926 103.421 30.629L103.358 30.5655V26.9436L101.774 29.2947C101.774 29.3582 101.711 29.3582 101.711 29.3582C101.648 29.3582 101.648 29.3582 101.584 29.2947L100.001 26.88V30.5655C100.001 30.629 100.001 30.629 99.938 30.629L99.8747 30.6926C99.8114 30.6926 99.8114 30.6926 99.8114 30.629L99.748 30.5655V26.5623C99.748 26.5623 99.748 26.4988 99.8114 26.4988L99.8747 26.4352C99.938 26.4352 99.938 26.4352 100.001 26.4988L101.711 29.0405L103.421 26.4988C103.484 26.4352 103.484 26.4352 103.548 26.4352C103.548 26.4352 103.611 26.4352 103.611 26.4988Z" fill="#1D1934"/>
<path d="M107.284 30.502L107.347 30.5655C107.347 30.629 107.347 30.629 107.284 30.629L107.221 30.6926H104.941C104.878 30.6926 104.878 30.6926 104.878 30.629L104.814 30.5655V26.5623C104.814 26.4988 104.814 26.4988 104.878 26.4988L104.941 26.4352H107.221C107.284 26.4352 107.284 26.4352 107.284 26.4988L107.347 26.5623C107.347 26.6259 107.347 26.6259 107.284 26.6259L107.221 26.6894H105.068V28.4051H106.967C107.031 28.4051 107.031 28.4051 107.031 28.4686L107.094 28.5321C107.094 28.5957 107.094 28.5957 107.031 28.5957L106.967 28.6592H105.068V30.502H107.221C107.284 30.4384 107.284 30.502 107.284 30.502Z" fill="#1D1934"/>
<path d="M108.488 30.629C108.234 30.502 108.044 30.3749 107.854 30.1207L107.791 30.0572C107.791 29.9936 107.791 29.9936 107.854 29.9936L107.918 29.9301C107.981 29.9301 107.981 29.9301 108.044 29.9936C108.234 30.1843 108.361 30.3113 108.614 30.4384C108.804 30.5655 109.058 30.5655 109.311 30.5655C109.627 30.5655 109.881 30.502 110.071 30.3113C110.261 30.1843 110.387 29.9301 110.387 29.7395C110.387 29.5488 110.324 29.3582 110.197 29.2311C110.071 29.104 109.944 28.9769 109.817 28.9134C109.691 28.8499 109.437 28.7228 109.184 28.6592C108.931 28.5321 108.678 28.4686 108.551 28.4051C108.424 28.3415 108.234 28.2144 108.171 28.0873C108.044 27.9603 107.981 27.7696 107.981 27.5155C107.981 27.3248 108.044 27.1342 108.171 26.9436C108.298 26.753 108.424 26.6259 108.614 26.5623C108.804 26.4988 109.058 26.4352 109.311 26.4352C109.564 26.4352 109.754 26.4988 110.007 26.5623C110.261 26.6259 110.387 26.753 110.514 26.9436C110.577 27.0071 110.577 27.0707 110.577 27.0707C110.577 27.1342 110.577 27.1342 110.514 27.1342C110.514 27.1342 110.451 27.1978 110.387 27.1978C110.324 27.1978 110.324 27.1978 110.324 27.1342C110.197 27.0071 110.071 26.88 109.881 26.8165C109.691 26.753 109.501 26.6894 109.311 26.6894C108.994 26.6894 108.741 26.753 108.551 26.88C108.361 27.0071 108.234 27.1978 108.234 27.4519C108.234 27.6425 108.298 27.7696 108.361 27.8967C108.488 28.0238 108.614 28.0873 108.741 28.2144C108.868 28.278 109.058 28.3415 109.311 28.4686C109.564 28.5957 109.817 28.6592 110.007 28.7228C110.197 28.7863 110.324 28.9134 110.451 29.104C110.577 29.2947 110.641 29.4853 110.641 29.7395C110.641 29.9301 110.577 30.1207 110.451 30.2478C110.324 30.4384 110.197 30.5655 110.007 30.629C109.817 30.7561 109.564 30.7561 109.311 30.7561C108.994 30.7561 108.741 30.6926 108.488 30.629Z" fill="#1D1934"/>
<path d="M51.6864 19.7632C51.1798 20.7164 50.4833 21.4789 49.5967 22.0508C48.7102 22.6227 47.697 22.8768 46.5571 22.8768C45.4173 22.8768 44.4041 22.6227 43.5176 22.0508C42.631 21.4789 41.9345 20.7164 41.4279 19.7632C40.9213 18.8101 40.668 17.7299 40.668 16.5861C40.668 15.4424 40.9213 14.3621 41.4279 13.409C41.9345 12.4559 42.631 11.6933 43.5176 11.1215C44.4041 10.5496 45.4173 10.2954 46.5571 10.2954C47.697 10.2954 48.7102 10.5496 49.5967 11.1215C50.4833 11.6933 51.1798 12.4559 51.6864 13.409C52.193 14.3621 52.4463 15.4424 52.4463 16.5861C52.4463 17.7299 52.193 18.8101 51.6864 19.7632ZM49.6601 14.4892C49.3434 13.8538 48.9002 13.3455 48.3302 12.9642C47.7603 12.5829 47.1271 12.3923 46.4305 12.3923C45.7339 12.3923 45.1007 12.5829 44.5308 12.9642C43.9608 13.3455 43.5176 13.8538 43.2643 14.4892C42.9477 15.1246 42.821 15.8236 42.821 16.6497C42.821 17.4122 42.9477 18.1747 43.2643 18.8101C43.5809 19.4455 44.0242 19.9539 44.5308 20.3351C45.1007 20.7164 45.7339 20.907 46.4305 20.907C47.1271 20.907 47.7603 20.7164 48.3302 20.3351C48.9002 19.9539 49.3434 19.4455 49.6601 18.8101C49.9767 18.1747 50.1033 17.4757 50.1033 16.7132C50.1666 15.8236 49.9767 15.1246 49.6601 14.4892Z" fill="#1D1934"/>
<path d="M61.438 14.2349C61.8812 14.9339 62.1345 15.9505 62.1345 17.1578V21.86C62.1345 22.1777 62.0079 22.4319 61.8179 22.6225C61.6279 22.8131 61.3746 22.9402 61.058 22.9402C60.7414 22.9402 60.4881 22.8767 60.2981 22.6225C60.1082 22.4319 59.9815 22.1777 59.9815 21.86V17.1578C59.9815 16.5224 59.8549 16.0141 59.6016 15.6328C59.3483 15.2516 58.905 15.0609 58.2084 15.0609C57.5118 15.0609 57.0052 15.2516 56.6253 15.6328C56.2454 16.0141 56.0554 16.5224 56.0554 17.0943V21.7965C56.0554 22.1142 55.9287 22.3683 55.7388 22.559C55.5488 22.7496 55.2955 22.8767 54.9789 22.8767C54.6622 22.8767 54.4089 22.8131 54.219 22.559C54.029 22.3683 53.9023 22.1142 53.9023 21.7965V14.1713C53.9023 13.8536 54.029 13.5995 54.219 13.4088C54.4089 13.2182 54.6622 13.0911 54.9789 13.0911C55.2955 13.0911 55.5488 13.2182 55.7388 13.4088C55.9287 13.5995 56.0554 13.8536 56.0554 14.1713V14.6161C56.372 14.1713 56.752 13.8536 57.2585 13.5359C57.7651 13.2182 58.3351 13.0911 58.905 13.0911C60.1715 13.2182 60.9947 13.5359 61.438 14.2349Z" fill="#1D1934"/>
<path d="M72.2039 18.4929C72.014 18.6835 71.7607 18.7471 71.444 18.7471H65.6815C65.8082 19.446 66.1248 19.9544 66.6314 20.3356C67.138 20.7169 67.7079 20.9075 68.3411 20.9075C68.8477 20.9075 69.1644 20.844 69.481 20.7804C69.7343 20.7169 69.9876 20.5898 70.1142 20.5263C70.2409 20.3992 70.3675 20.3356 70.4309 20.3356C70.6208 20.2086 70.8108 20.2086 71.0008 20.2086C71.2541 20.2086 71.444 20.2721 71.634 20.4627C71.824 20.6534 71.8873 20.844 71.8873 21.0982C71.8873 21.4159 71.6973 21.67 71.3807 21.9877C71.0641 22.2419 70.6208 22.4961 70.0509 22.6867C69.481 22.8773 68.9744 22.9409 68.4045 22.9409C67.4546 22.9409 66.5681 22.7503 65.8715 22.3055C65.1749 21.9242 64.605 21.3523 64.1617 20.5898C63.7818 19.8908 63.5918 19.0648 63.5918 18.1752C63.5918 17.1585 63.7818 16.2689 64.225 15.5064C64.6683 14.7439 65.1749 14.172 65.8715 13.7908C66.5681 13.4095 67.2646 13.1553 68.0878 13.1553C68.8477 13.1553 69.6076 13.346 70.2409 13.7908C70.9374 14.2356 71.444 14.8074 71.8873 15.5064C72.2673 16.2054 72.5206 16.9679 72.5206 17.7939C72.5206 18.1117 72.4572 18.3658 72.2039 18.4929ZM65.7448 17.0314H70.3042V16.9043C70.2409 16.396 69.9876 16.0147 69.6076 15.6335C69.1644 15.2522 68.6578 15.1252 68.1512 15.1252C66.8213 15.1252 65.9981 15.7606 65.7448 17.0314Z" fill="#1D1934"/>
<path d="M82.019 10.4858C82.209 10.6764 82.3357 10.9306 82.3357 11.2483C82.3357 11.566 82.209 11.8202 82.019 11.9472C81.8291 12.1379 81.5758 12.2014 81.2591 12.2014H78.5362V21.7963C78.5362 22.114 78.4095 22.3682 78.2196 22.5588C78.0296 22.7495 77.713 22.8766 77.3963 22.8766C77.0797 22.8766 76.8264 22.7495 76.5731 22.5588C76.3832 22.3682 76.2565 22.114 76.2565 21.7963V12.2649H73.5335C73.2169 12.2649 72.9636 12.2014 72.7737 12.0108C72.5837 11.8202 72.457 11.566 72.457 11.2483C72.457 10.9306 72.5837 10.7399 72.7737 10.5493C72.9636 10.3587 73.2169 10.2951 73.5335 10.2951H81.2591C81.5758 10.2316 81.8291 10.2951 82.019 10.4858Z" fill="#1D1934"/>
<path d="M89.9338 20.5898C89.4905 21.3523 88.9206 21.9242 88.224 22.3055C87.5275 22.6867 86.7042 22.9409 85.8177 22.9409C84.9312 22.9409 84.1079 22.7503 83.4114 22.3055C82.7148 21.9242 82.1449 21.3523 81.7016 20.5898C81.2583 19.8273 81.0684 19.0012 81.0684 18.0481C81.0684 17.095 81.2583 16.2689 81.7016 15.5064C82.1449 14.7439 82.7148 14.172 83.4114 13.7908C84.1079 13.346 84.9312 13.1553 85.8177 13.1553C86.7042 13.1553 87.4641 13.346 88.224 13.7908C88.9206 14.2356 89.5539 14.8074 89.9338 15.5064C90.3771 16.2689 90.567 17.095 90.567 18.0481C90.567 19.0012 90.3771 19.8273 89.9338 20.5898ZM88.0974 16.5231C87.8441 16.0783 87.5275 15.697 87.1475 15.5064C86.7676 15.2522 86.3243 15.1252 85.8177 15.1252C85.3111 15.1252 84.8678 15.2522 84.4879 15.5064C84.1079 15.7606 83.7913 16.0783 83.538 16.5231C83.2847 16.9679 83.1581 17.4762 83.1581 18.0481C83.1581 18.62 83.2847 19.1283 83.538 19.5731C83.7913 20.0179 84.1079 20.3356 84.4879 20.5898C84.8678 20.844 85.3111 20.9711 85.8177 20.9711C86.3243 20.9711 86.7676 20.844 87.1475 20.5898C87.5275 20.3356 87.8441 20.0179 88.0974 19.5731C88.3507 19.1283 88.4773 18.62 88.4773 18.0481C88.4773 17.4762 88.3507 16.9679 88.0974 16.5231Z" fill="#1D1934"/>
<path d="M99.8127 13.473C100.003 13.6637 100.129 13.9178 100.129 14.2356V18.8742C100.129 20.145 99.8127 21.0982 99.1161 21.8607C98.4195 22.6232 97.4063 22.9409 96.1398 22.9409C94.8733 22.9409 93.8601 22.5596 93.1636 21.8607C92.467 21.1617 92.1504 20.145 92.1504 18.8742V14.2356C92.1504 13.9178 92.277 13.6637 92.467 13.473C92.657 13.2824 92.9103 13.1553 93.2269 13.1553C93.5435 13.1553 93.7968 13.2824 93.9868 13.473C94.1768 13.6637 94.3034 13.9178 94.3034 14.2356V18.8742C94.3034 19.5731 94.4301 20.145 94.7467 20.4627C95.0633 20.7804 95.5066 20.9711 96.1398 20.9711C96.7731 20.9711 97.2797 20.7804 97.5963 20.4627C97.9129 20.145 98.0396 19.5731 98.0396 18.8742V14.2356C98.0396 13.9178 98.1662 13.6637 98.3562 13.473C98.5462 13.2824 98.7995 13.1553 99.1161 13.1553C99.3694 13.2189 99.6227 13.2824 99.8127 13.473Z" fill="#1D1934"/>
<path d="M108.616 13.6633C109.249 13.981 109.503 14.3623 109.503 14.8706C109.503 15.1248 109.439 15.379 109.249 15.5696C109.123 15.7602 108.869 15.8873 108.679 15.8873C108.489 15.8873 108.363 15.8873 108.236 15.8238C108.109 15.7602 107.983 15.6967 107.92 15.6331C107.793 15.5696 107.73 15.4425 107.603 15.4425C107.476 15.379 107.286 15.3154 107.096 15.3154C106.843 15.2519 106.716 15.2519 106.526 15.2519C105.64 15.2519 104.943 15.506 104.5 16.0779C103.993 16.6498 103.74 17.3488 103.74 18.1748C103.74 19.0009 103.993 19.6998 104.5 20.2717C105.007 20.8436 105.64 21.0978 106.4 21.0978C106.97 21.0978 107.413 21.0342 107.666 20.9072C107.73 20.8436 107.856 20.7801 107.983 20.7165C108.109 20.653 108.236 20.5894 108.299 20.5259C108.426 20.4624 108.553 20.4624 108.679 20.4624C108.996 20.4624 109.186 20.5259 109.376 20.7165C109.566 20.9072 109.629 21.1613 109.629 21.4155C109.629 21.6697 109.439 21.9874 109.123 22.178C108.806 22.4322 108.363 22.6228 107.856 22.7499C107.35 22.877 106.78 22.9405 106.146 22.9405C105.26 22.9405 104.437 22.7499 103.803 22.3051C103.107 21.8603 102.6 21.2884 102.22 20.5894C101.84 19.8269 101.65 19.0009 101.65 18.1113C101.65 17.1581 101.84 16.3321 102.22 15.5696C102.6 14.8071 103.17 14.2352 103.867 13.8539C104.563 13.4091 105.387 13.2185 106.21 13.2185C107.223 13.2185 107.983 13.3456 108.616 13.6633Z" fill="#1D1934"/>
<path d="M118.367 14.2354C118.81 14.9344 119 15.9511 119 17.1584V21.797C119 22.1147 118.873 22.3689 118.683 22.5595C118.493 22.7501 118.24 22.8772 117.924 22.8772C117.607 22.8772 117.354 22.7501 117.164 22.5595C116.974 22.3689 116.847 22.1147 116.847 21.797V17.1584C116.847 16.523 116.72 16.0146 116.467 15.6334C116.214 15.2521 115.771 15.0615 115.137 15.0615C114.504 15.0615 113.997 15.2521 113.617 15.6334C113.238 16.0146 113.048 16.523 113.048 17.0948V21.7334C113.048 22.0512 112.921 22.3053 112.731 22.496C112.541 22.6866 112.288 22.8137 111.971 22.8137C111.654 22.8137 111.401 22.6866 111.211 22.496C111.021 22.3053 110.895 22.0512 110.895 21.7334V11.3125C110.895 10.9947 111.021 10.7406 111.211 10.55C111.401 10.3593 111.654 10.2322 111.971 10.2322C112.288 10.2322 112.541 10.3593 112.731 10.55C112.921 10.7406 113.048 10.9947 113.048 11.3125V14.7438C113.364 14.299 113.744 13.9812 114.251 13.6635C114.757 13.3458 115.264 13.2187 115.834 13.2187C117.1 13.2187 117.924 13.5365 118.367 14.2354Z" fill="#1D1934"/>
<path d="M22.404 25.2913C21.8974 25.7361 21.8341 26.4987 22.2774 27.007C22.7206 27.5153 23.4805 27.5789 23.9871 27.1341C26.0135 25.482 27.1534 23.0038 27.1534 20.3986C27.1534 15.5693 23.2272 11.6297 18.4146 11.6297C13.6019 11.6297 9.67578 15.5693 9.67578 20.3986C9.67578 23.0674 10.8789 25.5455 12.9053 27.1976C13.4119 27.6424 14.1718 27.5153 14.6151 27.007C15.0584 26.4987 14.9317 25.7361 14.4251 25.2913C9.80243 21.5423 12.3987 13.9808 18.3512 13.9808C24.3038 14.1079 26.9634 21.5423 22.404 25.2913Z" fill="#002DB8"/>
<path d="M26.0772 31.2011C29.37 28.7865 31.5231 24.9104 31.5231 20.526C31.5231 19.8905 31.0165 19.3187 30.3199 19.3187C29.6867 19.3187 29.1167 19.827 29.1167 20.526C29.1167 24.1479 27.3437 27.325 24.6207 29.2948C24.1141 29.6761 23.9875 30.4386 24.3674 30.9469C24.7474 31.4553 25.5072 31.5824 26.0772 31.2011Z" fill="#002DB8"/>
<path d="M13.4114 3.75082C12.7781 3.94144 12.3982 4.57687 12.5881 5.21229C12.7781 5.84772 13.4114 6.22897 14.0446 6.03835C23.6699 3.17893 33.2953 10.3592 33.2953 20.399C33.2953 21.0344 33.8019 21.6063 34.4984 21.6063C35.1317 21.6063 35.7016 21.0979 35.7016 20.399C35.6383 8.77068 24.4932 0.383061 13.4114 3.75082Z" fill="#002DB8"/>
<path d="M26.6459 10.2325C18.1604 3.30636 5.24219 9.34291 5.24219 20.4629C5.24219 27.7702 11.1314 33.6797 18.4137 33.6797C19.0469 33.6797 19.6169 33.1714 19.6169 32.4724C19.6169 31.7734 19.1103 31.2651 18.4137 31.2651C12.4612 31.2651 7.64852 26.4359 7.64852 20.4629C7.64852 11.3763 18.2237 6.41995 25.1894 12.0752C25.696 12.52 26.4559 12.3929 26.8992 11.8846C27.2791 11.4398 27.2158 10.6773 26.6459 10.2325Z" fill="#002DB8"/>
<path d="M2.20317 19.3821C1.56992 19.3821 1 19.8905 1 20.5895C1 30.1844 8.78892 38.0001 18.3509 38.0001C22.4037 38.0001 26.3932 36.5386 29.4961 33.9334C30.0027 33.4886 30.066 32.7261 29.6227 32.2177C29.1794 31.7094 28.4195 31.6459 27.9129 32.0906C25.2533 34.3782 21.8338 35.5855 18.2876 35.5855C9.99209 35.5855 3.27968 28.85 3.27968 20.5259C3.40633 19.8905 2.83641 19.3821 2.20317 19.3821Z" fill="#002DB8"/>
</svg>
