<svg fill="none" height="40" viewBox="0 0 120 40" width="120" xmlns="http://www.w3.org/2000/svg"><path d="m78.6821 5.94999h-1.1221v-.94999h-3.1626-1.5302-.4336v8.1499h1.9638v-3.1249h3.1626v-1.10004h1.1221zm-4.2847.97499h2.3209v1.19999h-2.3209z" fill="#111"/><path d="m86.0535 5.94999h-1.1222v-.94999h-4.0297v.94999h-1.1477v6.22491h1.1477v.95h4.0297v-.95h1.1222zm-1.9384.97499v4.29992h-2.3719v-4.29992z" fill="#111"/><path d="m115 5h-6.096v1.92498h2.066v6.22492h1.964v-6.22492h2.066z" fill="#111"/><path d="m107.705 6.92498v-1.92498h-4.259-1.453-.511v8.1499h.511 1.453 4.259v-1.925h-4.259v-1.1999h3.163v-1.92503h-3.163v-1.17499z" fill="#111"/><path d="m100.54 8.09997v-3.09997h-1.9643v3.09997h-2.3209v-3.09997h-1.9638v8.1499h1.9638v-3.1249h2.3209v3.1249h1.9643v-3.1249h-.9951v-1.92503z" fill="#111"/><path d="m93.3718 8.09997v-2.14998h-1.1222v-.94999h-4.0296v.94999h-1.1477v6.22491h1.1477v.975h4.0296v-1.175h1.1222v-2.14994h-1.9638v1.39994h-2.3719v-4.29992h2.3719v1.17499z" fill="#111"/><path d="m100.361 26.8497h-6.0954v1.925h2.0659v6.225h1.9638v-6.225h2.0657z" fill="#111"/><path d="m93.2444 28.7747v-1.925h-4.2592-1.4537-.4846v8.15h1.9383v-3.1h3.1625v-1.925h-3.1625v-1.2z" fill="#111"/><path d="m78.5291 28.7747v-1.925h-4.9478v.975h-1.1477v2.95h1.1477v1.125h2.984v1.1749h-4.1317v1.925h4.9478v-1.125h1.1477v-2.9499h-1.1477v-.95h-2.984v-1.2z" fill="#111"/><path d="m85.7973 27.8252h-1.0457v-.95h-4.0297v.95h-1.1477v6.225h1.1477v.95h4.0297v-.95h1.0457zm-1.9639.95v4.3h-2.2953v-4.3z" fill="#111"/><path d="m84.8278 16.9004v-.95h-4.0297v.95h-1.1477v7.1749h1.9638v-2.075h2.3719v2.075h1.9638v-7.1749zm-3.2136 3.1749v-2.2249h2.3719v2.2249z" fill="#111"/><path d="m108.549 17.8498v-1.9249h-4.948v.975h-1.122v2.9499h1.122v1.1h2.984v1.2h-4.106v1.925h4.947v-1.125h1.123v-2.95h-1.123v-.95h-2.984v-1.2z" fill="#111"/><path d="m101.432 17.8498v-1.9249h-4.2338-1.4792-.4846v8.1499h.4846 1.4792 4.2338v-1.925h-4.2338v-1.2h3.1628v-1.9h-3.1628v-1.2z" fill="#111"/><path d="m75.6216 18.9998v1.925h1.1477v1.225h-2.3719v-4.3h3.2136v-1.9249h-4.0297v.975h-1.1477v6.1999h1.1477v.975h4.0297v-1.175h1.1222v-1.975-.175-1.75z" fill="#111"/><path d="m92.3015 15.9249v2.0499h-1.0966v1.075h-1.3008v-1.075h-1.0711v-.9749h-.9947v-1.075h-.9692v3.9249.275 3.95h1.9639v-3.225h1.0711.1021v1.35h1.0967v-1.35h.102 1.0966v3.225h1.9639v-8.1499z" fill="#111"/><path d="m10.3823 5h-2.52488v2.47498h2.52488z" fill="#111"/><path d="m13.2124 5h-2.5249v2.47498h2.5249z" fill="#111"/><path d="m16.0679 5h-2.5249v2.47498h2.5249z" fill="#111"/><path d="m18.8999 5h-2.5249v2.47498h2.5249z" fill="#111"/><path d="m21.7554 5h-2.5249v2.47498h2.5249z" fill="#111"/><path d="m24.5874 5h-2.5249v2.47498h2.5249z" fill="#111"/><path d="m27.4429 5h-2.5249v2.47498h2.5249z" fill="#111"/><path d="m30.2749 5h-2.5249v2.47498h2.5249z" fill="#ff6d01"/><path d="m47.1323 5h-2.5249v2.47498h2.5249z" fill="#ffb918"/><path d="m49.9898 5h-2.525v2.47498h2.525z" fill="#111"/><path d="m52.8198 5h-2.5249v2.47498h2.5249z" fill="#111"/><path d="m55.6773 5h-2.525v2.47498h2.525z" fill="#111"/><path d="m58.5073 5h-2.5249v2.47498h2.5249z" fill="#111"/><path d="m44.3023 7.75h-2.525v2.475h2.525z" fill="#111"/><path d="m47.1323 7.75h-2.5249v2.475h2.5249z" fill="#ffb918"/><path d="m49.9898 7.75h-2.525v2.475h2.525z" fill="#111"/><path d="m52.8198 7.75h-2.5249v2.475h2.5249z" fill="#111"/><path d="m55.6773 7.75h-2.525v2.475h2.525z" fill="#111"/><path d="m58.5073 7.75h-2.5249v2.475h2.5249z" fill="#111"/><path d="m61.3648 7.75h-2.525v2.475h2.525z" fill="#111"/><path d="m64.1948 7.75h-2.5249v2.475h2.5249z" fill="#111"/><path d="m41.4448 10.4999h-2.5249v2.475h2.5249z" fill="#e61973"/><path d="m44.3023 10.4999h-2.525v2.475h2.525z" fill="#111"/><path d="m47.1323 10.4999h-2.5249v2.475h2.5249z" fill="#111"/><path d="m49.9898 10.4999h-2.525v2.475h2.525z" fill="#111"/><path d="m52.8198 10.4999h-2.5249v2.475h2.5249z" fill="#111"/><path d="m55.6773 10.4999h-2.525v2.475h2.525z" fill="#111"/><path d="m58.5073 10.4999h-2.5249v2.475h2.5249z" fill="#111"/><path d="m61.3648 10.4999h-2.525v2.475h2.525z" fill="#111"/><path d="m64.1948 10.4999h-2.5249v2.475h2.5249z" fill="#111"/><path d="m41.4448 13.2499h-2.5249v2.475h2.5249z" fill="#e61973"/><path d="m44.3023 13.2499h-2.525v2.475h2.525z" fill="#111"/><path d="m47.1323 13.2499h-2.5249v2.475h2.5249z" fill="#111"/><path d="m61.3648 13.2499h-2.525v2.475h2.525z" fill="#111"/><path d="m64.1948 13.2499h-2.5249v2.475h2.5249z" fill="#111"/><path d="m41.4448 15.9999h-2.5249v2.475h2.5249z" fill="#111"/><path d="m44.3023 15.9999h-2.525v2.475h2.525z" fill="#111"/><path d="m55.6773 15.9999h-2.525v2.475h2.525z" fill="#111"/><path d="m58.5073 15.9999h-2.5249v2.475h2.5249z" fill="#111"/><path d="m61.3648 15.9999h-2.525v2.475h2.525z" fill="#111"/><path d="m64.1948 15.9999h-2.5249v2.475h2.5249z" fill="#111"/><path d="m41.4448 18.775h-2.5249v2.4749h2.5249z" fill="#111"/><path d="m44.3023 18.775h-2.525v2.4749h2.525z" fill="#111"/><path d="m55.6773 18.775h-2.525v2.4749h2.525z" fill="#111"/><path d="m58.5073 18.775h-2.5249v2.4749h2.5249z" fill="#111"/><path d="m61.3648 18.775h-2.525v2.4749h2.525z" fill="#111"/><path d="m64.1948 18.775h-2.5249v2.4749h2.5249z" fill="#111"/><path d="m41.4448 21.5249h-2.5249v2.475h2.5249z" fill="#111"/><path d="m44.3023 21.5249h-2.525v2.475h2.525z" fill="#111"/><path d="m55.6773 21.5249h-2.525v2.475h2.525z" fill="#111"/><path d="m58.5073 21.5249h-2.5249v2.475h2.5249z" fill="#111"/><path d="m61.3648 21.5249h-2.525v2.475h2.525z" fill="#111"/><path d="m64.1948 21.5249h-2.5249v2.475h2.5249z" fill="#111"/><path d="m41.4448 24.2749h-2.5249v2.4749h2.5249z" fill="#111"/><path d="m44.3023 24.2749h-2.525v2.4749h2.525z" fill="#111"/><path d="m47.1323 24.2749h-2.5249v2.4749h2.5249z" fill="#111"/><path d="m61.3648 24.2749h-2.525v2.4749h2.525z" fill="#111"/><path d="m64.1948 24.2749h-2.5249v2.4749h2.5249z" fill="#111"/><path d="m41.4448 27.0249h-2.5249v2.475h2.5249z" fill="#111"/><path d="m44.3023 27.0249h-2.525v2.475h2.525z" fill="#111"/><path d="m47.1323 27.0249h-2.5249v2.475h2.5249z" fill="#111"/><path d="m49.9898 27.0249h-2.525v2.475h2.525z" fill="#111"/><path d="m52.8198 27.0249h-2.5249v2.475h2.5249z" fill="#111"/><path d="m55.6773 27.0249h-2.525v2.475h2.525z" fill="#111"/><path d="m58.5073 27.0249h-2.5249v2.475h2.5249z" fill="#111"/><path d="m61.3648 27.0249h-2.525v2.475h2.525z" fill="#111"/><path d="m64.1948 27.0249h-2.5249v2.475h2.5249z" fill="#111"/><path d="m67.0522 15.9999h-2.5249v2.475h2.5249z" fill="#14e792"/><path d="m67.0522 18.775h-2.5249v2.4749h2.5249z" fill="#14e792"/><path d="m67.0522 21.5249h-2.5249v2.475h2.5249z" fill="#111"/><path d="m67.0522 24.2749h-2.5249v2.4749h2.5249z" fill="#111"/><path d="m67.0522 27.0249h-2.5249v2.475h2.5249z" fill="#ff1827"/><path d="m44.3023 29.7749h-2.525v2.4749h2.525z" fill="#1787e7"/><path d="m47.1323 29.7749h-2.5249v2.4749h2.5249z" fill="#111"/><path d="m49.9898 29.7749h-2.525v2.4749h2.525z" fill="#111"/><path d="m52.8198 29.7749h-2.5249v2.4749h2.5249z" fill="#111"/><path d="m55.6773 29.7749h-2.525v2.4749h2.525z" fill="#111"/><path d="m58.5073 29.7749h-2.5249v2.4749h2.5249z" fill="#111"/><path d="m61.3648 29.7749h-2.525v2.4749h2.525z" fill="#111"/><path d="m64.1948 29.7749h-2.5249v2.4749h2.5249z" fill="#111"/><path d="m47.1323 32.5248h-2.5249v2.475h2.5249z" fill="#111"/><path d="m49.9898 32.5248h-2.525v2.475h2.525z" fill="#111"/><path d="m52.8198 32.5248h-2.5249v2.475h2.5249z" fill="#111"/><path d="m55.6773 32.5248h-2.525v2.475h2.525z" fill="#111"/><path d="m58.5073 32.5248h-2.5249v2.475h2.5249z" fill="#111"/><path d="m61.3648 32.5248h-2.525v2.475h2.525z" fill="#ff6d01"/><path d="m10.3823 7.75h-2.52488v2.475h2.52488z" fill="#111"/><path d="m13.2124 7.75h-2.5249v2.475h2.5249z" fill="#111"/><path d="m7.52492 7.72507h-2.52492v2.47493h2.52492z" fill="#6314e7"/><path d="m16.0679 7.75h-2.5249v2.475h2.5249z" fill="#111"/><path d="m18.8999 7.75h-2.5249v2.475h2.5249z" fill="#111"/><path d="m21.7554 7.75h-2.5249v2.475h2.5249z" fill="#111"/><path d="m24.5874 7.75h-2.5249v2.475h2.5249z" fill="#111"/><path d="m27.4429 7.75h-2.5249v2.475h2.5249z" fill="#111"/><path d="m30.2749 7.75h-2.5249v2.475h2.5249z" fill="#ff6d01"/><path d="m10.3823 10.4749h-2.52488v2.475h2.52488z" fill="#111"/><path d="m13.2124 10.4749h-2.5249v2.475h2.5249z" fill="#111"/><path d="m7.52492 10.4749h-2.52492v2.475h2.52492z" fill="#6314e7"/><g fill="#111"><path d="m16.0679 10.4749h-2.5249v2.475h2.5249z"/><path d="m18.8999 10.4749h-2.5249v2.475h2.5249z"/><path d="m21.7554 10.4749h-2.5249v2.475h2.5249z"/><path d="m24.5874 10.4749h-2.5249v2.475h2.5249z"/><path d="m27.4429 10.4749h-2.5249v2.475h2.5249z"/><path d="m30.2749 10.4749h-2.5249v2.475h2.5249z"/><path d="m10.3823 13.225h-2.52488v2.475h2.52488z"/><path d="m7.52492 13.225h-2.52492v2.475h2.52492z"/><path d="m27.4429 13.225h-2.5249v2.475h2.5249z"/><path d="m30.2749 13.225h-2.5249v2.475h2.5249z"/><path d="m10.3823 15.9499h-2.52488v2.475h2.52488z"/><path d="m7.52492 15.9499h-2.52492v2.475h2.52492z"/><path d="m30.2749 15.9499h-2.5249v2.475h2.5249z"/><path d="m10.3823 18.6999h-2.52488v2.475h2.52488z"/><path d="m7.52492 18.6999h-2.52492v2.475h2.52492z"/><path d="m27.4429 18.6999h-2.5249v2.475h2.5249z"/><path d="m30.2749 18.6999h-2.5249v2.475h2.5249z"/><path d="m10.3823 21.4498h-2.52488v2.475h2.52488z"/><path d="m13.2124 21.4498h-2.5249v2.475h2.5249z"/><path d="m7.52492 21.4498h-2.52492v2.475h2.52492z"/><path d="m16.0679 21.4498h-2.5249v2.475h2.5249z"/><path d="m18.8999 21.4498h-2.5249v2.475h2.5249z"/><path d="m21.7554 21.4498h-2.5249v2.475h2.5249z"/><path d="m24.5874 21.4498h-2.5249v2.475h2.5249z"/><path d="m27.4429 21.4498h-2.5249v2.475h2.5249z"/><path d="m30.2749 21.4498h-2.5249v2.475h2.5249z"/><path d="m33.1304 10.4749h-2.5249v2.475h2.5249z"/><path d="m33.1304 13.225h-2.5249v2.475h2.5249z"/><path d="m33.1304 15.9499h-2.5249v2.475h2.5249z"/><path d="m33.1304 18.6999h-2.5249v2.475h2.5249z"/><path d="m33.1304 21.4498h-2.5249v2.475h2.5249z"/><path d="m10.3823 24.1749h-2.52488v2.4749h2.52488z"/><path d="m13.2124 24.1749h-2.5249v2.4749h2.5249z"/><path d="m7.52492 24.1749h-2.52492v2.4749h2.52492z"/><path d="m16.0679 24.1749h-2.5249v2.4749h2.5249z"/><path d="m18.8999 24.1749h-2.5249v2.4749h2.5249z"/><path d="m21.7554 24.1749h-2.5249v2.4749h2.5249z"/><path d="m24.5874 24.1749h-2.5249v2.4749h2.5249z"/><path d="m27.4429 24.1749h-2.5249v2.4749h2.5249z"/><path d="m30.2749 24.1749h-2.5249v2.4749h2.5249z"/><path d="m10.3823 26.9248h-2.52488v2.4749h2.52488z"/><path d="m13.2124 26.9248h-2.5249v2.4749h2.5249z"/><path d="m7.52492 26.9248h-2.52492v2.4749h2.52492z"/><path d="m16.0679 26.9248h-2.5249v2.4749h2.5249z"/><path d="m18.8999 26.9248h-2.5249v2.4749h2.5249z"/><path d="m21.7554 26.9248h-2.5249v2.4749h2.5249z"/></g><path d="m24.5874 26.9248h-2.5249v2.4749h2.5249z" fill="#e719dd"/><path d="m10.3823 29.6748h-2.52488v2.475h2.52488z" fill="#111"/><path d="m7.52492 29.6498h-2.52492v2.475h2.52492z" fill="#111"/><path d="m10.3823 32.3997h-2.52488v2.475h2.52488z" fill="#17bee7"/><path d="m7.52492 32.3997h-2.52492v2.475h2.52492z" fill="#111"/></svg>