<svg fill="none" height="40" viewBox="0 0 120 40" width="120" xmlns="http://www.w3.org/2000/svg"><path d="m58.1746 28.3034c-.1433.0095-.2866.0191-.4299.0191-16.517 0-33.034 0-49.55097 0-1.70042 0-3.00917-.6975-3.78295-2.2549-.18151-.3726-.27704-.793-.41078-1.1943 0-.3821 0-.7643 0-1.1465.1624-.5924.3248-1.1847.4872-1.7771.47764-1.8058.95529-3.6212 1.43294-5.4269.77378-2.9237 3.15246-4.739 6.19026-4.739h50.363c.1624 0 .3152.0095.4776.0191-.1624.449-.3439.8885-.4872 1.3376-.9935 3.1147-1.987 6.2199-2.9518 9.3442-.5828 1.9109-1.3756 3.7645-1.3374 5.8187zm-24.3409-13.6533c-.3534 0-.6973 0-1.0508 0-1.5093 0-2.9327.9363-3.4104 2.3695-.8024 2.3982-1.538 4.825-2.3022 7.2423-.086.2675 0 .3344.2579.3248.6018-.0095 1.2132-.0191 1.8151 0 .277.0096.3916-.0955.4681-.344.1815-.6114.3916-1.2038.5636-1.8153.0764-.2675.2006-.3535.4681-.344.554.0192 1.1177.0192 1.6717 0 .3153-.0095.4395.0383.3057.3918-.2197.5732-.3725 1.1752-.5636 1.7675-.086.2485-.0287.344.2484.3345.6209-.0096 1.2419-.0192 1.8628 0 .2293.0095.3439-.0765.4108-.2867.7547-2.4173 1.538-4.825 2.2736-7.2518.4203-1.3854-.4013-2.3982-1.8437-2.3982-.4204.0096-.7929.0096-1.1751.0096zm-18.1027 0c-.7929 0-1.5954.0095-2.3883-.0096-.277-.0095-.3916.0956-.4585.344-.2293.7548-.4681 1.5096-.7069 2.2644-.726 2.3122-1.452 4.6243-2.18762 6.927-.10509.3248-.05732.4204.28662.4108.5731-.0191 1.1463-.0287 1.7195 0 .3152.0191.4394-.1146.5158-.4013.1624-.5828.3726-1.1465.535-1.7198.0764-.2866.1911-.3822.4872-.3726.6401.0191 1.2705.0096 1.9106.0096 1.4998 0 2.9232-.9555 3.4199-2.36.3248-.8886.6019-1.8058.8598-2.7135.3726-1.3662-.4203-2.3599-1.8437-2.3695-.7165-.0095-1.433-.0095-2.1494-.0095zm24.0256 4.9683c.0477-.172.0859-.3057.1337-.4491.4299-1.3949.8598-2.7803 1.3087-4.1657.086-.2771.0574-.3631-.2483-.3631-.621.0191-1.2419.0191-1.8629 0-.2483-.0095-.3343.1051-.4012.3058-.4967 1.586-1.0126 3.172-1.4807 4.7581-.3534 1.1847.1815 2.102 1.3852 2.3599.3248.0669.2866.172.2102.4013-.2006.5828-.363 1.1848-.5637 1.7676-.0764.2389-.0573.3535.2293.344.6401-.0096 1.2705-.0192 1.9106 0 .2579.0095.3248-.1338.3821-.3249.1815-.5924.3821-1.1752.5541-1.7676.0764-.2579.1624-.3726.4585-.4204 1.3661-.2484 2.3882-1.0032 2.8659-2.3121.5732-1.5765 1.0317-3.1912 1.5476-4.7868.0859-.2771-.0096-.3249-.258-.3249-.5922.0096-1.175.0191-1.7673 0-.3056-.0095-.4394.086-.5254.3822-.4203 1.4141-.8788 2.809-1.3278 4.2135-.0478.1624-.0382.3822-.3248.3822-.726-.0096-1.4616 0-2.2258 0zm-15.6955-4.9683c-.7929 0-1.538.0095-2.2831-.0096-.2484 0-.2771.1433-.3248.3153-.9744 3.0957-1.9488 6.1913-2.9328 9.2774-.0859.2675-.0573.344.2484.344 2.2736-.0096 4.5472-.0096 6.8208 0 .2197 0 .3343-.0574.4012-.2962.449-1.4523.9075-2.895 1.3756-4.3473.0765-.2293.0573-.3535-.2292-.344-.6401.0096-1.2706.0191-1.9106 0-.258-.0095-.3248.1242-.3821.3249-.1911.621-.4013 1.2325-.5732 1.8631-.0669.2389-.172.3344-.4299.3249-.5923-.0192-1.175-.0192-1.7673 0-.2961.0095-.3534-.0669-.2484-.3536.2675-.793.5063-1.5956.7547-2.3981.4872-1.5478.9744-3.1052 1.4807-4.7008zm30.4452 5.4269c-.0287.1338-.0383.2198-.0669.3153-.363 1.2612-.7356 2.5224-1.1082 3.7836-.0859.2962-.0764.4299.2962.4204.6018-.0287 1.2037-.0096 1.815 0 .2006 0 .3153-.0478.3726-.258.4394-1.5669.9744-3.1052 1.3279-4.7008.2292-1.051-.5255-1.9778-1.6145-2.0064-.8693-.0287-1.7482-.0287-2.627-.0096-1.433.0287-2.7895.9459-3.2576 2.3026-.4872 1.4332-.8789 2.9046-1.3087 4.3569-.0765.2579.0286.3248.277.3248.5732-.0191 1.1464-.0382 1.7195.0096.3726.0286.4872-.1338.5732-.4491.3439-1.2325.7069-2.465 1.0699-3.688.0478-.1529.0287-.3917.3248-.3822.7356-.0095 1.4616-.0191 2.2068-.0191zm-3.506-5.1403c-1.0603 0-2.0729 0-3.0856 0-.1815 0-.2388.086-.2865.2389-.258.7834-.5255 1.5574-.7929 2.3313-.0765.2197-.0287.3153.2197.3153.9075-.0096 1.815-.0096 2.713 0 .1911 0 .2961-.0669.3535-.2389.2866-.8695.5731-1.7389.8788-2.6466z" fill="#2285c7"/><path d="m58.1739 28.3033c-.0478-2.0542.7547-3.9078 1.3374-5.8187.9649-3.1243 1.9584-6.2295 2.9519-9.3442.1433-.4491.3248-.8886.4872-1.3376.0668-.1051.1433-.2102.2006-.3153 1.6908-3.12433 4.2319-5.19765 7.6614-6.16265.4872-.13376.9935-.21975 1.4903-.32485h.2866c.1432.16243.3248.09554.4967.09554h25.7642c.1624 0 .3535.06689.4967-.09554h.1911c.478.1051.974.19109 1.442.33441 2.57.7548 4.796 2.76123 5.073 6.45879.01.9555-.067 1.9109-.363 2.8186-1.462 4.5574-2.723 9.1818-4.366 13.6819-.554.8695-1.07 1.7581-1.7669 2.5224-1.9583 2.1593-4.337 3.5925-7.2411 4.0511-1.1177.1815-2.2545.1242-3.3817.1242-7.7665.0096-15.5331.0096-23.29 0-1.8246 0-3.5155-.4395-4.958-1.6147-1.4998-1.223-2.2736-2.809-2.436-4.7199-.0095-.1146.0191-.2484-.0764-.3535zm29.5376 4.0129c1.5189 0 2.6462.0764 3.7447-.0191 3.5155-.2962 6.8781-3.0479 7.9385-6.4493 1.2703-4.0415 2.5313-8.0926 3.7923-12.1437.315-1.0128.459-2.0351.191-3.0861-.506-1.97776-2.168-3.30582-4.2412-3.31538-2.1208-.01911-4.2319 0-6.3527 0-.1146 0-.2293-.00955-.3343.01911-3.8212.68792-6.4865 2.79947-7.7379 6.49707-1.1464 3.4013-2.1876 6.8409-3.2384 10.271-.4013 1.2898-.9267 2.5606-.8885 3.9651.0574 2.1115 1.6049 3.8982 3.7066 4.1848 1.2896.172 2.5601.0191 3.4199.0765zm-13.2117-9.2679c-.2961.965-.5922 1.8727-.8597 2.7995-.086.2962-.2293.3726-.535.3726-1.7195-.0191-3.439-.0095-5.1586-.0095-.5827 0-.5827 0-.4012-.5637 1.2037-3.8027 2.4169-7.6054 3.6015-11.408.105-.3536.2483-.4587.6113-.4587 3.5633.0191 7.1361 0 10.6993.0191.3248 0 .4585-.0859.5541-.4012.5254-1.739 1.0795-3.47786 1.6431-5.20721.1242-.38218.1528-.5255-.3535-.5255-3.7447.01911-7.4799.00956-11.2247.00956-.191 0-.3821-.01911-.5731.0191-3.611.64015-6.2094 2.63705-7.4131 6.09575-1.4329 4.1084-2.6557 8.2933-3.9549 12.4399-.2866.9172-.3917 1.8631-.1624 2.8185.4681 1.9396 2.1112 3.2581 4.1078 3.2677 2.2927.0095 4.5854.0095 6.8781 0 .3439 0 .6973-.0574 1.0317-.1434 3.0474-.793 5.1203-2.7325 6.1616-5.6466 1.089-3.0192 1.9679-6.1149 2.9423-9.1723.086-.2675.0764-.4108-.277-.4013-2.7226.0096-5.4452.0096-8.1678 0-.2484 0-.3534.086-.4299.3249-.554 1.7962-1.1176 3.5924-1.7099 5.3887-.1147.3439-.0096.3917.3057.3917.8884-.0191 1.7673-.0096 2.6843-.0096z" fill="#060708"/><path d="m99.3378 5c-.1433.16254-.3248.09561-.4968.09561-8.588 0-17.1761 0-25.7642 0-.1624 0-.3534.06693-.4967-.09561z" fill="#0b0e0e"/><path d="m101.324 28.294c1.643-4.5002 2.895-9.1245 4.366-13.682.296-.9172.363-1.8631.363-2.8186 1.127.0287 2.254-.0955 3.382.0765 2.512.3822 4.06 2.6752 3.42 5.1498-.593 2.3218-1.252 4.6244-1.921 6.9174-.706 2.4555-3.362 4.5288-5.98 4.3951-1.213-.0573-2.426-.0287-3.63-.0382z" fill="#2285c7"/><g fill="#fdfdfd"><path d="m33.8341 14.65h1.1464c1.452.0096 2.264 1.0224 1.8437 2.3982-.726 2.4268-1.5094 4.8345-2.2736 7.2518-.0669.2102-.1815.2867-.4108.2867-.6209-.0192-1.2419-.0192-1.8628 0-.277.0095-.3248-.086-.2484-.3344.1911-.5829.3439-1.1848.5636-1.7676.1338-.3535.0096-.4013-.3056-.3918-.5541.0192-1.1177.0192-1.6718 0-.2675-.0095-.3917.0765-.4681.344-.1719.6115-.3821 1.2039-.5636 1.8154-.0764.2484-.1911.3535-.4681.3439-.6018-.0287-1.2132-.0191-1.8151 0-.2579.0096-.3439-.0573-.2579-.3248.7738-2.4173 1.4998-4.8346 2.3023-7.2423.4776-1.4332 1.901-2.3695 3.4104-2.3695.3725-.0096.726-.0096 1.0794-.0096zm.449 2.4842c-.7738 0-1.5093 0-2.2354 0-.1433 0-.2197.0382-.2674.2006-.2293.7548-.4777 1.5001-.7261 2.2931h2.1972c.1624 0 .2579-.0287.3152-.2006.2198-.7644.4681-1.5097.7165-2.2931z"/><path d="m15.7301 14.65h2.1494c1.4234.0095 2.2163 1.0032 1.8437 2.3695-.2484.9172-.535 1.8249-.8598 2.7134-.5063 1.4045-1.9201 2.36-3.4199 2.36-.64 0-1.2705.0191-1.9106-.0096-.2961-.0095-.4108.086-.4872.3726-.1528.5829-.3725 1.1466-.5349 1.7198-.0765.2867-.2007.4204-.5159.4013-.5732-.0286-1.1463-.0286-1.7195 0-.35348.0096-.39169-.086-.28661-.4108.73561-2.3026 1.46161-4.6148 2.18761-6.927.2388-.7548.4872-1.5096.7069-2.2644.0764-.2484.1815-.3535.4586-.344.7929.0287 1.5953.0192 2.3882.0192zm-1.7864 4.9683c.7833 0 1.4903-.0096 2.1876 0 .1911 0 .277-.0478.3344-.2389.2197-.7357.4585-1.4809.7069-2.2548-.7738 0-1.4998 0-2.2354 0-.1433 0-.2197.0286-.2675.191-.2293.7548-.4776 1.5096-.726 2.3027z"/><path d="m39.7575 19.6182c.7642 0 1.4903-.0095 2.2258 0 .2866 0 .2675-.2197.3248-.3822.449-1.4045.898-2.7994 1.3279-4.2135.086-.2962.2197-.4012.5254-.3821.5923.0191 1.175.0191 1.7673 0 .2484-.0096.3534.0477.2579.3248-.5158 1.5956-.9648 3.2199-1.5476 4.7868-.4776 1.3089-1.4998 2.0637-2.8658 2.3122-.2962.0573-.3917.1719-.4586.4204-.1719.5923-.363 1.1752-.554 1.7675-.0574.1911-.1242.3344-.3822.3249-.64-.0191-1.2705-.0191-1.9105 0-.2866.0095-.3057-.1051-.2293-.344.191-.5828.363-1.1847.5636-1.7676.0764-.2388.1146-.3344-.2102-.4012-1.2036-.2676-1.7386-1.1752-1.3851-2.36.4776-1.5956.9839-3.1721 1.4807-4.7581.0668-.2006.1528-.3057.4012-.3057.6209.0191 1.2419.0191 1.8628 0 .3057-.0096.3344.0859.2484.363-.449 1.3854-.8789 2.7804-1.3088 4.1658-.0477.1433-.0764.277-.1337.449z"/><path d="m24.0613 14.6501c-.5063 1.5956-.9935 3.153-1.4807 4.7008-.2484.8026-.4872 1.6052-.7547 2.3982-.0955.2866-.0478.363.2484.3535.5923-.0191 1.175-.0191 1.7673 0 .2579.0095.3534-.086.4298-.3249.1815-.621.3822-1.242.5732-1.8631.0573-.1911.1242-.3248.3821-.3248.6401.0191 1.2706.0191 1.9106 0 .2962-.0096.3057.1146.2293.3439-.4681 1.4427-.9266 2.895-1.3756 4.3473-.0765.2389-.1815.2962-.4013.2962-2.2735-.0096-4.5471-.0096-6.8207 0-.3057 0-.3344-.0764-.2484-.344.9839-3.0861 1.9583-6.1817 2.9327-9.2773.0574-.172.086-.3249.3248-.3153.7452.0191 1.4903.0095 2.2832.0095z"/><path d="m54.5062 20.0769c-.7451 0-1.4807.0096-2.2067-.0095-.2961-.0096-.277.2197-.3248.3822-.363 1.2229-.726 2.4555-1.0699 3.688-.086.3153-.2006.4777-.5732.449-.5732-.0382-1.1463-.0191-1.7195-.0095-.2484.0095-.3535-.0573-.2771-.3249.4395-1.4522.8216-2.9236 1.3088-4.3568.4681-1.3663 1.8246-2.2835 3.2575-2.3026.8789-.0191 1.7482-.0191 2.6271.0095 1.089.0383 1.8437.9555 1.6144 2.0065-.3439 1.5956-.8884 3.1338-1.3278 4.7008-.0573.2197-.172.2579-.3726.2579-.6018-.0095-1.2132-.0191-1.815 0-.3726.0191-.3822-.1242-.2962-.4204.3821-1.2612.7451-2.5223 1.1082-3.7835.0286-.0574.0382-.1529.0668-.2867z"/><path d="m51.0009 14.9368c-.3057.9076-.5923 1.7771-.8789 2.6465-.0573.172-.1624.2389-.3535.2389-.9075-.0095-1.815-.0095-2.713 0-.2579 0-.2961-.0955-.2197-.3153.2675-.7739.535-1.5574.7929-2.3313.0478-.1528.1051-.2388.2866-.2388z"/></g><path d="m87.7128 32.316c-.8597-.0478-2.1303.0956-3.4008-.0764-2.1017-.2962-3.6588-2.0733-3.7065-4.1849-.0383-1.4045.4967-2.6657.8884-3.9651 1.0508-3.43 2.0921-6.8696 3.2384-10.271 1.2514-3.6976 3.9167-5.80911 7.7379-6.49703.105-.01911.2197-.01911.3343-.01911 2.1208 0 4.2319-.00955 6.3527 0 2.0638.01911 3.7348 1.33763 4.2418 3.31544.267 1.0509.124 2.0733-.191 3.086-1.261 4.0511-2.522 8.0927-3.7929 12.1437-1.0699 3.4014-4.423 6.1531-7.9384 6.4493-1.1177.0955-2.2354.0191-3.7639.0191zm-.4108-6.1053h5.3879c.2961 0 .3057-.1911.3725-.3917.8789-2.8281 1.7673-5.6467 2.6557-8.4653.3726-1.1752.7356-2.3504 1.1177-3.5638-1.7768 0-3.4868.0096-5.2063-.0095-.3535 0-.4872.1146-.5923.4395-.7929 2.5701-1.5953 5.1403-2.3978 7.7009-.4394 1.4236-.8884 2.8376-1.3374 4.2899z" fill="#eb1f24"/><path d="m74.4999 23.0483c-.917 0-1.7959-.0095-2.6652.0096-.3153.0095-.4204-.0478-.3057-.3918.5827-1.7866 1.1463-3.5829 1.71-5.3887.0764-.2484.1815-.3248.4298-.3248 2.7226.0095 5.4452.0095 8.1678 0 .3439 0 .363.1337.277.4013-.9744 3.0574-1.8628 6.153-2.9423 9.1722-1.0413 2.9141-3.1142 4.8537-6.1616 5.6467-.3344.086-.6878.1433-1.0317.1433-2.2927.0096-4.5854.0191-6.8781 0-1.9966-.0095-3.6397-1.3376-4.1078-3.2676-.2292-.9554-.1242-1.9013.1624-2.8186 1.2992-4.1561 2.5124-8.3314 3.9549-12.4398 1.2132-3.4588 3.8021-5.45564 7.4131-6.09579.1815-.02866.3821-.01911.5732-.01911 3.7447 0 7.4799.00956 11.2246-.00955.4968 0 .4777.13376.3535.52549-.5636 1.72936-1.1082 3.46826-1.6431 5.20716-.0955.3153-.2293.4109-.5541.4013-3.5632-.0095-7.136 0-10.6992-.0191-.3631 0-.5063.1051-.6114.4586-1.1846 3.8027-2.3978 7.6054-3.6015 11.408-.1815.5637-.1815.5637.4012.5637 1.7196 0 3.4391-.0095 5.1586.0096.3057 0 .449-.0764.535-.3726.2484-.9173.5445-1.8345.8406-2.7995z" fill="#eb1f24"/><path d="m34.2836 17.1343c-.2484.7834-.4872 1.5382-.7165 2.293-.0573.172-.1528.2007-.3152.2007-.7165-.0096-1.433 0-2.1972 0 .2484-.793.4967-1.5383.726-2.2931.0478-.1528.1242-.2006.2675-.2006z" fill="#2285c7"/><path d="m13.9453 19.6182c.2579-.793.4968-1.5478.726-2.3026.0478-.1529.1242-.1911.2675-.1911h2.2354c-.2484.7835-.4872 1.5192-.7069 2.2549-.0573.1815-.1529.2388-.3344.2388-.7069 0-1.4042 0-2.1876 0z" fill="#2285c7"/><path d="m87.3008 26.2108c.4585-1.4523.898-2.8664 1.3374-4.29.8024-2.5701 1.6049-5.1307 2.3978-7.7009.0955-.3248.2388-.449.5922-.4395 1.7196.0191 3.4391.0096 5.2064.0096-.3821 1.2134-.7547 2.3886-1.1177 3.5638-.8884 2.8185-1.7673 5.6467-2.6557 8.4652-.0669.2007-.0764.3918-.3726.3918-1.7768 0-3.5632 0-5.3878 0z" fill="#060708"/></svg>