<svg fill="none" height="40" viewBox="0 0 120 40" width="120" xmlns="http://www.w3.org/2000/svg" xmlns:xlink="http://www.w3.org/1999/xlink"><clipPath id="a"><path d="m0 0h120v40h-120z"/></clipPath><g clip-path="url(#a)"><path d="m92.9578 11.5855c-4.7305.2911-2.6065 6.3918 2.6232 6.0698 5.116-.3149 2.4169-6.38-2.6232-6.0698z" fill="#ff9318"/><path d="m82.9321 9.57344c-2.7406 1.58226-4.9491 3.94376-6.3465 6.78586-1.3973 2.8421-1.9207 6.0372-1.5038 9.1812.4168 3.144 1.7551 6.0957 3.8457 8.4818 2.0905 2.3862 4.8393 4.0997 7.8989 4.9237 3.0596.8241 6.2925.7217 9.2898-.2941 2.9974-1.0158 5.6248-2.8994 7.5498-5.4127s3.061-5.5433 3.264-8.707c.204-3.1636-.534-6.3188-2.121-9.0664-2.127-3.6845-5.627-6.3752-9.7297-7.48024-4.1028-1.10503-8.4723-.53385-12.1472 1.58788zm15.2009 26.32876c-2.4525 1.4165-5.2711 2.0721-8.0993 1.8837-2.8282-.1883-5.5391-1.212-7.7896-2.9418-2.2506-1.7297-3.9398-4.0877-4.8541-6.7757-.9143-2.6881-1.0125-5.5855-.2824-8.3257.7302-2.7403 2.2561-5.2004 4.3846-7.0692s4.7641-3.06231 7.5735-3.42967c2.8094-.36737 5.6663.10795 8.2095 1.36587 2.5433 1.2579 4.6588 3.2418 6.0778 5.701 1.904 3.297 2.423 7.2133 1.444 10.8873s-3.376 6.805-6.664 8.7042zm-21.2182-35.785903c-1.8502 4.392183.9288 7.885233.9288 7.885233s-5.1742-4.18712-9.7583-5.92621c2.0825 4.44357 6.6452 9.28998 6.6452 9.28998s-3.6897-2.50781-7.9219-.3239c4.554-.004 7.9277 2.7782 8.7805 3.5547 1.3088-2.436 3.2297-4.487 5.5734-5.95102-.7811-.73045-3.8945-3.91082-4.2477-8.528783z" fill="#ff9318"/><path d="m13.2624 25.554v3.0041h-1.2624v-7.7397h2.6571c.9009 0 1.5782.2121 2.0317.6363s.6817 1.0052.6848 1.7428c0 .7316-.2325 1.3073-.6974 1.727s-1.1364.6295-2.0145.6295zm2.8226-2.3565c0-.4385-.1237-.7731-.371-1.0036-.2473-.2306-.6437-.3455-1.1893-.3447h-1.2623v2.6853h1.2623c1.0394 0 1.5595-.4456 1.5603-1.337zm6.499 5.3606-1.9484-3.0911h-.8971v3.0911h-1.2623v-7.7397h2.7575c.8926 0 1.5698.2155 2.0317.6465.4618.431.6924 1.0014.6916 1.7111 0 .6028-.1715 1.0997-.5147 1.4908-.3432.391-.8378.6393-1.4838.7448l2.0545 3.1465zm-2.8455-3.9795h1.3925c1.0196 0 1.5291-.4457 1.5283-1.337 0-.4235-.1236-.7542-.3709-.9923-.2477-.2374-.6324-.3561-1.1574-.3561h-1.3925zm10.0202 2.3023h-3.2998l-.598 1.6772h-1.3503l2.8786-7.6188h1.4506l2.8672 7.6188h-1.3514zm-.355-.9641-1.2955-3.6167-1.2954 3.6167zm8.6801-4.4847c.6197.4532 1.0556 1.1104 1.2293 1.8536h-1.3286c-.1655-.4118-.4584-.7611-.8366-.998-.4123-.2556-.8914-.3853-1.3776-.373-.4606-.0074-.9144.1098-1.3126.3391-.3896.2285-.7045.5632-.9074.964-.2256.4584-.3357.9641-.3207 1.4738-.0148.5273.0991 1.0504.3321 1.5247.2066.4085.5323.7463.9348.9697.4294.231.9119.3479 1.4005.3391.6133.0106 1.2086-.2054 1.6698-.6058.4642-.3978.7446-.9441.8412-1.6388h-2.8706v-.9211h3.9298v1.1946c-.0829.5568-.2929 1.0875-.6141 1.5518-.3258.4686-.7628.8509-1.2726 1.1132-.5595.2845-1.1814.4274-1.8102.416-.7054.0143-1.4017-.1599-2.0157-.5041-.5758-.3286-1.0444-.8138-1.3502-1.3981-.3133-.6369-.476-1.3361-.476-2.0445 0-.7085.1627-1.4077.476-2.0446.3045-.5819.7711-1.0651 1.3445-1.3924.6131-.3408 1.3071-.5129 2.01-.4984.9306 0 1.7056.2264 2.3249.6792zm10.2964-.4928v7.6188h-1.2738v-5.711l-2.2245 5.711h-1.1072l-2.2371-5.711v5.711h-1.2612v-7.6188h1.5272l2.5464 6.084 2.5019-6.084zm6.1771 5.9416h-3.294l-.5981 1.6772h-1.3548l2.8785-7.6188h1.4496l2.8683 7.6188h-1.3514zm-.3538-.9641-1.2955-3.6167-1.2954 3.6167zm7.7054-5.0984v1.0082h-2.1812v6.7315h-1.2737v-6.7315h-2.1687v-1.0082zm1.9369 0v7.7397h-1.2612v-7.7397zm7.1416.6465c.6404.4913 1.0932 1.1835 1.284 1.9632h-1.3399c-.1711-.4517-.4783-.8403-.88-1.1133-.4383-.2844-.9544-.428-1.4781-.4114-.4393-.0069-.8713.1107-1.2453.3391-.3738.2369-.6731.5729-.864.9697-.2076.4625-.3149.9631-.3149 1.4693s.1073 1.0067.3149 1.4692c.1905.3974.4899.7338.864.9709.3739.2284.806.3461 1.2453.3391.5236.0169 1.0397-.1263 1.4781-.4103.3995-.2703.7064-.6547.88-1.102h1.3399c-.1897.7783-.6428 1.4687-1.284 1.9564-.6346.4792-1.4317.7189-2.3912.7189-.6869.0128-1.3644-.1599-1.9597-.4996-.5653-.3289-1.0226-.8124-1.3172-1.3924-.3066-.6388-.4657-1.3373-.4657-2.0446s.1591-1.4057.4657-2.0445c.2957-.5808.7526-1.0658 1.3172-1.3981.5942-.3427 1.2722-.5171 1.9597-.5041.9588.0008 1.7558.2423 2.3912.7245zm10.2386 4.0891v3.0041h-1.2612v-7.7397h2.6571c.8994 0 1.5766.2121 2.0316.6363.4551.4242.6834 1.0052.6849 1.7428 0 .7316-.2325 1.3073-.6974 1.727s-1.1364.6295-2.0145.6295zm2.8272-2.3565c0-.4385-.1237-.7731-.371-1.0036-.2473-.2306-.6441-.3455-1.1904-.3447h-1.2658v2.6853h1.2623c1.0433 0 1.5649-.4456 1.5649-1.337zm3.4504 4.3852h2.7016v.9754h-3.964v-7.7397h1.2624zm8.4804-.7018h-3.2986l-.5981 1.6772h-1.3514l2.8797-7.6188h1.4496l2.8682 7.6188h-1.3513zm-.3539-.9641-1.2954-3.6167-1.2955 3.6167zm7.3699-5.0984-2.601 4.9221v2.8176h-1.2705v-2.8176l-2.6126-4.9221h1.4621l1.7942 3.585 1.7928-3.585z" fill="#010812"/></g></svg>