<svg fill="none" height="40" viewBox="0 0 120 40" width="120" xmlns="http://www.w3.org/2000/svg"><path d="m23.0254 1.53156h4.4435c2.3985 0 4.1406.22784 5.201.65822 1.0604.4557 1.8935 1.16456 2.5247 2.17722.606.98734.9342 2.20253.9342 3.59494 0 1.5443-.404 2.83546-1.2119 3.84806-.8079 1.0127-1.8936 1.7216-3.2822 2.1266-.8079.2279-2.2722.3544-4.4182.3544v9.3671h-4.1911zm4.1911 8.63294h1.3381c1.0603 0 1.7673-.076 2.1965-.22788.4039-.1519.7322-.40506.9594-.75949s.3534-.7595.3534-1.26583c0-.86076-.3282-1.46835-.9846-1.87342-.4797-.27848-1.3634-.43038-2.6762-.43038h-1.1866z" fill="#808388"/><path d="m40.0918 1.53149h4.2163v14.30381c0 1.2405.101 2.1013.3282 2.6076s.5807.9114 1.0604 1.2152c.505.3038 1.0856.4557 1.7926.4557.7321 0 1.3886-.1772 1.9188-.5064.5302-.3291.9089-.7848 1.1109-1.2911.2019-.5316.3029-1.519.3029-3.0127v-13.77211h4.2163v13.18991c0 2.2278-.1262 3.7721-.3787 4.6329-.2525.8607-.7322 1.6962-1.4391 2.5063s-1.5148 1.3924-2.4237 1.7722c-.9089.3797-1.9946.5822-3.2064.5822-1.5906 0-2.9792-.3797-4.1659-1.1139-1.1866-.7342-2.0197-1.6709-2.5499-2.7595-.505-1.1139-.7575-2.9873-.7575-5.6202z" fill="#808388"/><path d="m71.4507 4.5443-3.1054 2.7595c-1.0857-1.51899-2.1966-2.27848-3.3327-2.27848-.5554 0-1.0099.1519-1.3633.43038-.3535.27848-.5302.63291-.5302 1.01266 0 .37974.1262.73417.3787 1.06329.3534.43038 1.3633 1.3924 3.0802 2.83545 1.5905 1.3418 2.5752 2.2025 2.9034 2.5316.8584.8608 1.4643 1.6962 1.8178 2.481.3535.7849.5302 1.6456.5302 2.5823 0 1.8228-.6312 3.3165-1.8683 4.5064-1.2624 1.1898-2.8782 1.7721-4.898 1.7721-1.5653 0-2.9287-.3797-4.1153-1.1645-1.1614-.7595-2.1713-1.9747-3.0044-3.6456l3.5346-2.1266c1.0604 1.9494 2.2722 2.9367 3.6609 2.9367.7321 0 1.3381-.2025 1.8178-.6329s.7321-.9114.7321-1.4684c0-.5063-.1767-1.0126-.5554-1.4936s-1.1866-1.2659-2.449-2.3038c-2.3985-1.9747-3.9638-3.4684-4.6455-4.55699-.7069-1.06329-1.0604-2.12658-1.0604-3.18987 0-1.54431.5807-2.86076 1.7421-3.94937 1.1613-1.08861 2.6004-1.64557 4.3173-1.64557 1.1108 0 2.146.25316 3.1559.75949s2.0955 1.41773 3.2569 2.78481z" fill="#808388"/><path d="m75.8436 1.53149h4.2416v8.35444h7.3722v-8.35444h4.2415v22.10131h-4.2415v-9.6962h-7.3722v9.6962h-4.2668v-22.10131z" fill="#808388"/><g fill="#ed0d05"><path d="m34.2603 28.9999-1.5653 1.5443c-.9847-1.0379-2.146-1.5696-3.4337-1.5696-1.1361 0-2.0955.3798-2.8782 1.1393-.7826.7595-1.1613 1.6962-1.1613 2.7595 0 1.1139.4039 2.0759 1.2118 2.8607.808.7848 1.7926 1.1646 2.954 1.1646.7574 0 1.4138-.1519 1.944-.481.5302-.3292.9594-.8355 1.2624-1.519h-3.3579v-2.076h5.8321l.0253.481c0 1.0127-.2525 1.9747-.7827 2.8861s-1.2119 1.6203-2.045 2.1013c-.8332.481-1.8178.7088-2.954.7088-1.2118 0-2.2722-.2531-3.2316-.7848-.9342-.5316-1.6916-1.2658-2.247-2.2531-.5555-.9621-.8332-2.0254-.8332-3.1393 0-1.5443.5049-2.886 1.5148-4.0253 1.2119-1.3671 2.7773-2.0253 4.696-2.0253 1.0099 0 1.9441.1772 2.8278.557.7826.3544 1.5148.9113 2.2217 1.6708z"/><path d="m40.6739 27.1005h2.247l4.4688 11.6455h-2.2976l-.9089-2.405h-4.7465l-.9341 2.405h-2.2975zm1.1361 3.0886-1.5653 4h3.1054z"/><path d="m50.2171 27.1005h2.146l2.7014 8.1266 2.7268-8.1266h2.146l1.944 11.6455h-2.146l-1.2371-7.3671-2.4743 7.3671h-1.944l-2.449-7.3671-1.2876 7.3671h-2.146z"/><path d="m63.4961 27.1005h2.1965v11.6455h-2.1965z"/><path d="m68.1932 27.1005h2.1208l4.9737 7.6709v-7.6709h2.2218v11.6455h-2.1208l-4.999-7.6455v7.6455h-2.2217z"/><path d="m90.8658 28.9999-1.5653 1.5443c-.9847-1.0379-2.1461-1.5696-3.4337-1.5696-1.1361 0-2.0955.3798-2.8782 1.1393s-1.1614 1.6962-1.1614 2.7595c0 1.1139.404 2.0759 1.2119 2.8607s1.7926 1.1646 2.9539 1.1646c.7575 0 1.4139-.1519 1.9441-.481.5302-.3292.9594-.8355 1.2624-1.519h-3.3579v-2.076h5.8321l.0252.481c0 1.0127-.2524 1.9747-.7826 2.8861s-1.2119 1.6203-2.0451 2.1013c-.8331.481-1.8178.7088-2.9539.7088-1.2119 0-2.2723-.2531-3.2317-.7848-.9341-.5316-1.6915-1.2658-2.247-2.2531-.5554-.9621-.8331-2.0254-.8331-3.1393 0-1.5443.5049-2.886 1.5148-4.0253 1.2119-1.3671 2.7772-2.0253 4.696-2.0253 1.0099 0 1.9441.1772 2.8277.557.7827.3544 1.5149.9113 2.2218 1.6708z"/></g><path d="m92.3047 27.1013h1.4634v.5063h-.4794v2.1519h-.5046v-2.1519h-.4794z" fill="#808388"/><path d="m94.3744 27.1013h.4797l.6059 1.8481.6059-1.8481h.4798l.4544 2.6582h-.4797l-.2777-1.6962-.5555 1.6709h-.4544l-.5555-1.6709-.2777 1.6709h-.4797z" fill="#808388"/></svg>