<svg fill="none" height="40" viewBox="0 0 120 40" width="120" xmlns="http://www.w3.org/2000/svg"><g fill="#ff7c00"><path d="m104.576 17.8577c-1.086-2.1815-2.147-4.379-3.225-6.5606-.375-.7723-.743-1.55261-1.143-2.309-.5059-.9634-1.7469-1.1306-2.4327-.31051-.449.54141-.3673 1.16245-.0816 1.75961.5225 1.0908 1.0613 2.1656 1.592 3.2485.5797 1.1704 1.1593 2.3488 1.7473 3.5192.449.8997.922 1.7994 1.363 2.6991.653 1.3137 1.282 2.6354 1.927 3.9571.457.9315.922 1.8551 1.388 2.7787.171.3424.326.6927.506 1.0351.261.4936.767.6528 1.265.6449.556-.0159 1.054-.2389 1.307-.7962.049-.1115.073-.1433.122-.3026.057-.1751.131-.3821.057-.5493-.612-1.2421-1.2-2.4444-1.82-3.6864-.858-1.7278-1.723-3.4237-2.572-5.1276z"/><path d="m19.8417 21.9496c-.6613-.0398-1.5593.6848-1.4695 1.3536.0245.1672-.0327.3423-.0735.5095-.1878.8758-.947 1.5765-1.7879 1.6482-1.2002.1035-2.0329-.3424-2.3921-1.3377-.1225-.3264-.1388-.6926-.2041-1.043-.1388-.7564-1.0369-1.2739-1.7961-1.0669-.547.1433-.8328.5414-1.1185.9555 0 .3742.0082.4219.0571.9315.0245.2468.0409.3344.0572.422.5715 2.6036 3.0779 4.4189 5.9353 3.9253.2939-.0478.3837.0477.498.2468.3347.613.6695 1.2341 1.0205 1.8392.3429.5812.9062.7405 1.5349.6369.5878-.0875.8898-.5095 1.0695-1.027.1387-.3981.0163-.7485-.1633-1.0988-.3756-.6927-.7511-1.3933-1.1267-2.0781.9307-.9634 1.3471-2.1179 1.3716-3.3918.0163-.7882-.645-1.3774-1.4124-1.4252z"/><path d="m65.3085 8.37434c-.1306-.10351-.2776-.25479-.4164-.30256-.3837-.1035-.498-.08758-.8164 0-.3837.14332-.5551.34237-.7266.58919-1.3307 1.81533-2.637 3.64663-3.9596 5.46983-1.3552 1.8791-2.7186 3.7501-4.082 5.6212-.4409.6051-.3021 1.5606.2939 1.9905.6858.4936 1.5593.3583 2.0655-.3264.5388-.7246 1.0695-1.4571 1.6002-2.1976.9552-1.3296 1.9022-2.6672 2.8574-3.9969 1.192-1.6481 2.4084-3.2883 3.584-4.9523.4899-.68474.3184-1.3217-.4-1.89496z"/><path d="m108.821 9.00414c-.424-.80416-1.347-1.08283-2.13-.60511-.547.3344-.694.85989-.702 1.43315-.009 2.83442-.009 5.67692 0 8.51132 0 .1991.065.4141.155.5972.939 1.9029 1.886 3.7979 2.833 5.6928 0-5.1195-.009-10.0639-.009-15.19145-.016-.19905-.073-.28663-.147-.43791z"/><path d="m12.6978 14.5216c.8409-.1831 1.2491-.6688 1.2981-1.5446.0653-1.2739 1.094-1.9268 1.943-1.9825 1.2246-.0796 2.2043.6847 2.3758 1.8073.0408.3026.0571.6131.1714.8918.2205.5494.9552.9554 1.4696.8599.7511-.1433 1.3307-.7166 1.3062-1.4013-.0571-1.465-.5551-2.731-1.7389-3.7342-1.2002-1.01117-2.5554-1.38538-4.0739-1.21818-1.9267.19905-3.731 1.78348-4.2453 3.64658-.049.1831-.0817.3105-.147.629-.049.4618-.049.6927-.049 1.0908.1225.1513.2286.3105.3592.4538.3593.3742.7919.6131 1.3308.5016z"/><path d="m13.9714 21.5356c0-2.2054 0-4.3472 0-6.5208-1.0287.5016-2.0166.6369-2.9636-.0956v6.6085c.9715-.637 1.9512-.6609 2.9636.0079z"/><path d="m88.1841 9.29056c-.7511-.58919-1.5838-1.03506-2.5227-1.08283-1.543-.07962-3.1023-.03981-4.6453-.01592-.596.00796-1.1757.61307-1.2247 1.19429-.0816.9554.5144 1.5924 1.5104 1.6004 1.2491.0079 2.4982 0 3.7555 0 .9878 0 1.9839.828 2.0737 1.7834.0734.7246.1061 1.4571.0734 2.1816-.0653 1.3376-1.0776 2.2055-2.392 2.1657-1.1838-.0398-2.3676-.0159-3.5514-.008-.8654.008-1.4859.637-1.4777 1.465.0081.7962.6041 1.3376 1.4858 1.3376.6777.008 1.3634 0 2.0411 0h1.7961c2.1879-.0079 4.131-1.4411 4.7596-3.5351.2939-.9713.2286-1.9666.2286-2.9539-.0081-1.6481-.547-3.0653-1.9104-4.13224z"/><path d="m38.9465 8.23965c-.547-.19905-1.2246-.0637-1.5675.43791-.2122.31848-.3021.76435-.3102 1.14652-.0082.70062-.0082 1.40132-.0163 2.10192-.0082 2.102 0 4.196 0 6.298v8.3202c0 .215.0081.422.0244.637.049.8201.9063 1.25 1.641 1.0987.8409-.1751 1.2328-.6926 1.2328-1.5685 0-4.7055 0-9.419 0-14.1245 0-.9793.0082-1.9666 0-2.94594 0-.66881-.3837-1.17837-1.0042-1.40131z"/><path d="m93.563 8.17611c-.8899-.00797-1.4532.57326-1.4532 1.50481v8.55908 4.2995c0 1.4332 0 2.8663-.0082 4.2995-.0081.9236.6042 1.465 1.4369 1.5048.8409.0398 1.4451-.621 1.4451-1.4889 0-5.7167 0-11.4334 0-17.15009 0-.89971-.596-1.5287-1.4206-1.5287z"/><path d="m72.1167 8.15991c-1.8533.03184-3.2901.80416-4.3188 2.30899-.5552.8121-.8409 1.7118-.8246 2.6911.0082.6211.3756 1.0271.9389 1.2819.5715.2548 1.0695.0876 1.5267-.2866s.3919-.9077.4735-1.3854c.2041-1.1863 1.5103-2.0303 2.7023-1.7198.996.2548 1.6736 1.1147 1.6981 2.1577.0164.7245.6695 1.3535 1.4124 1.3695.6613.0238 1.4124-.629 1.4532-1.266.0817-1.25-.3347-2.3727-1.1348-3.3042-.996-1.17043-2.2941-1.86312-3.9269-1.84719z"/><path d="m32.5621 21.9576c-.6858.0716-1.2573.6926-1.2736 1.3853-.0163.7485-.3266 1.3775-.9552 1.7835-.7429.4777-1.5757.4698-2.3594.0876-.7511-.3663-.996-1.051-1.1022-1.8233-.0489-.3424-.1877-.7325-.4163-.9793-.4327-.4698-1.0042-.5972-1.6247-.3265-.6368.2787-.8899.7724-.8572 1.4491.0571.3981.0735.8201.1878 1.2023.6286 2.1099 2.7513 3.7978 5.4617 3.551 2.1227-.1911 4.1637-1.9347 4.4413-4.0287.0571-.43.1061-.8759.0245-1.2899-.1143-.6608-.8327-1.0828-1.5267-1.0111z"/><path d="m75.7991 21.9577c-.6858-.0239-1.5022.5414-1.494 1.4968.0082 1.0032-.9307 1.9428-1.8859 2.0144-1.5349.1194-2.2696-.7325-2.4901-1.7038-.0979-.422-.0979-.8997-.3265-1.2421-.2939-.4379-.8246-.6609-1.3961-.5414-.5878.1274-1.0858.4379-1.1675 1.0669-.0571.4379-.0489.8997.0572 1.3296.7348 3.0335 3.7228 4.6896 6.7925 3.6387 1.9512-.6689 3.2575-2.4762 3.3065-4.5145-.0082-.8838-.5878-1.5128-1.3961-1.5446z"/><path d="m44.5628 14.4977c.6776-.1672 1.1021-.7086 1.1103-1.4252.0163-1.0987.996-2.078 2.09-2.086 1.2654-.008 2.2451.8519 2.3104 2.0223.0164.2469.0735.5017.1633.7326.2041.5493 1.0042.9315 1.5675.7802.9226-.2548 1.2491-.828 1.1593-1.879-.2367-2.5319-2.588-4.45075-5.0046-4.49056-2.7349-.03981-5.1433 2.18956-5.2168 4.81696.0571.2707.0653.5653.1878.7962.3265.6211.9878.8918 1.6328.7325z"/><path d="m51.4853 21.9574c-.6694.016-1.2083.4459-1.3389 1.0988-.0572.2866-.0571.5812-.1388.8519-.3266 1.1147-1.2736 1.6879-2.539 1.5367-1.0205-.1195-1.8206-1.1386-1.8125-2.0861.0082-.4936-.2122-.9236-.6694-1.1943-.5143-.3025-1.0205-.3025-1.5349.008-.5225.3185-.7511.7803-.6612 1.3296-.0245 1.1705.4082 2.1577 1.1021 2.9699 1.5593 1.8153 3.7147 2.2691 5.87 1.4968 1.4777-.5255 2.4492-1.6242 2.9636-3.0733.2122-.6051.3755-1.2421.2122-1.895-.1551-.5891-.8082-1.0589-1.4532-1.043z"/><path d="m97.5318 12.1402c-.0164.008-.0409.0239-.0572.0318v14.5227c0 .1592.0163.3185.0245.4777.0572.844.947 1.25 1.6491 1.0988.8001-.1672 1.2248-.6927 1.2248-1.4889 0-2.2692-.057-4.5384.024-6.7996.049-1.4013-.187-2.6672-.8977-3.9013-.7429-1.266-1.3226-2.6195-1.9675-3.9412z"/><path d="m24.046 21.4248c1.3307-.5414 1.4777-.5414 2.8411.0557.0081-.0717.0081-.1354.0081-.1991 0-3.9013 0-7.7947 0-11.69609 0-.80416-.6531-1.4252-1.4777-1.41724-.849.00797-1.396.55734-1.396 1.41724v11.53689c0 .0956.0163.1991.0245.3026z"/><path d="m33.5731 8.41476c-.4572-.31848-.9716-.35829-1.4614-.11146-.5307.26274-.8246.71657-.8246 1.31372v11.62448.2787c.947-.6131 1.8777-.6529 2.8574-.0239.0082-.1672.0164-.2707.0164-.3742 0-3.8377 0-7.6674 0-11.50508.0081-.5016-.1715-.91563-.5878-1.20226z"/><path d="m64.752 24.1149c-1.0613-2.1497-2.1227-4.2994-3.2003-6.481-.4654.629-.8899 1.258-1.3634 1.8472-.3837.4856-.694.9395-.1796 1.5207.0653.0717.0653.199.1143.2946 1.0286 2.0781 2.0491 4.1561 3.0941 6.2342.098.1991.2368.3981.4082.5255.5144.3663 1.3634.3185 1.8206-.0557.5144-.422.645-1.0908.3429-1.7278-.3592-.7245-.6858-1.4491-1.0368-2.1577z"/><path d="m75.8318 21.0101c-1.7308-2.3966-3.4208-4.7374-5.1516-7.134-.4571 1.0829-1.2654 1.5526-2.4165 1.5685 1.7471 2.4205 3.4615 4.7852 5.2005 7.1897.4817-1.0032 1.2328-1.5526 2.3676-1.6242z"/><path d="m57.6078 15.0712c.2123-.2867.3266-.5813.3266-.9475-.0245-1.5128-.0082-3.0256-.0082-4.53835 0-.82008-.6123-1.40927-1.4287-1.41723-.8409 0-1.4369.55734-1.445 1.38539-.0082 2.96979 0 5.93959 0 9.00499.8817-1.2102 1.7144-2.3567 2.5553-3.4873z"/><path d="m82.1574 20.8349c-.792.0318-1.6084.1194-2.3595-.4459-.0163.1274-.0245.1831-.0245.2309 0 2.1179 0 4.2437.0082 6.3616 0 .1195.0082.2389.0408.3504.2286.7165.8083 1.0191 1.4859.9713.8654-.0637 1.3471-.5892 1.3552-1.3456.0082-1.871-.0081-3.7341.0082-5.6052.0082-.3981-.0817-.5334-.5143-.5175z"/><path d="m18.4043 15.0226v6.4572c.9715-.5971 1.9104-.6051 2.8329.0398 0-2.1975 0-4.3313 0-6.481-1.2164.5732-1.9022.4697-2.8329-.016z"/><path d="m42.8164 15.0385v6.4413c.9715-.5813 1.9104-.6051 2.8411.0318 0-2.1895 0-4.3313 0-6.5129-.947.5733-1.8859.5494-2.8411.0398z"/><path d="m57.8861 22.459c-.947.5972-1.8614.5972-2.8411.008 0 1.5685-.0082 3.0654.0082 4.5622 0 .2389.0898.5016.2286.7007.3265.4857 1.0613.7006 1.6165.5255.6694-.215 1.0205-.6688 1.0205-1.3536 0-1.3615 0-2.7309 0-4.0924 0-.1035-.0164-.1991-.0327-.3504z"/><path d="m82.2555 11.9093c-.8246.0239-1.6573.0477-2.441-.4618v5.2469c.7837-.5732 1.6246-.4538 2.441-.4458.3184 0 .4246-.0797.4246-.3981-.0164-1.1784-.0164-2.3568 0-3.5352 0-.3184-.1143-.414-.4246-.406z"/></g></svg>