<svg fill="none" height="40" viewBox="0 0 120 40" width="120" xmlns="http://www.w3.org/2000/svg" xmlns:xlink="http://www.w3.org/1999/xlink"><clipPath id="a"><path d="m0 0h120v40h-120z"/></clipPath><g clip-path="url(#a)"><path d="m15.5172 28.9889c-1.2771.8377-2.634 1.5184-4.2038 1.7278-2.63402.3666-5.8534-1.1257-6.94426-3.2725 4.33685-.3665 8.40766-1.6755 12.26556-3.6128-.2927 1.1257-.9578 2.0158-1.8092 2.9321h5.3745c-.8248-.9163-1.5166-1.7802-1.7561-2.906.0267-.0261.0533-.0523.0799-.0785.5321.1833 1.0376.4712 1.623.5236 2.4744.1309 3.9377-2.33 2.7404-4.5554 1.5432-1.3613 3.1396-2.6965 4.3901-4.3721.1596-.2094.2927-.3141.5055-.0523 1.4634 1.7541 2.9799 3.4558 3.7515 5.6549 1.0377 3.0369.133 6.3094-2.2615 8.2206-2.2882 1.8326-5.747 2.0159-8.5141.4974-.4257-.2356-.8514-.4712-1.2505-.7068 0-.0262-.0266-.0524-.0266-.0786h-.0532c0 .0786.0266.0786.0798.0262 0 .7854.3991 1.4399.6918 2.1206.9312 2.2515 2.2615 4.2412 4.2304 5.9429-4.6295 0-9.0994 0-13.862 0 .3459-.288.5854-.4712.7716-.6545 2.0487-1.9635 3.2992-4.3983 4.2038-7.0425.0267-.1047.1331-.2356-.0266-.3141.0266-.0262.0533 0 .1065 0 0-.0262 0-.0524 0-.0786-.0266.0262-.0799.0524-.1065.0786z" fill="#fc0506"/><path d="m13.2284 23.8837c-2.8469 1.2567-5.85342 1.9635-8.93976 2.3039-.8248.1047-1.6496-.0262-2.44779-.2618-1.8092411-.5498-2.314763-1.8588-1.383538-3.5343.212851.2618.106425.5497.159638.8377.212852.9425 1.30372 1.7279 2.28815 1.6232.31928-.0262.26607-.2094.23946-.3665-.37249-2.9322.93123-5.2099 2.71386-7.3828 3.77811-4.5554 7.47638-9.16312 11.20128-13.77083.3991-.49743.5854-.39271.9312.02618 2.4478 3.0369 4.9222 6.0738 7.3966 9.11075.1331.157.2927.3141.4257.4974 1.4634-1.7017 1.4368-3.24636-.133-5.20988 1.5964-.10472 2.9799 1.59699 2.634 3.24638-.1862.8639-.5587 1.6231-1.0376 2.3562-1.4101 2.0682-3.1662 3.7699-5.1883 5.2622-1.4101-1.7279-2.8202-3.4296-4.2304-5.1575-.2128-.2618-.3459-.4451-.6651-.0785-1.5964 2.042-3.2992 4.0317-4.869 6.1-1.1441 1.5184-.7184 3.351.9046 4.3982z" fill="#fc0506"/><path d="m13.229 23.8838c-1.623-1.0472-2.0487-2.8798-.9046-4.3983 1.5698-2.0682 3.2727-4.0579 4.8958-6.0738.3193-.3927.4523-.2095.6652.0785 1.4102 1.7279 2.8204 3.4296 4.2306 5.1575-2.714 2.1468-5.6408 3.9532-8.887 5.2361z" fill="#272b39"/><path d="m18.4175 23.8575c.266 1.0996.9312 1.9897 1.7561 2.906-1.8094 0-3.5389 0-5.3748 0 .8515-.8901 1.5167-1.8064 1.8093-2.9321 2.2085-1.2043 4.2839-2.5919 6.2794-4.0841 1.1974 2.2253-.2661 4.66-2.7406 4.5291-.5853-.0262-1.0909-.3141-1.623-.5236-.0266-.0262-.1064-.1047-.1064-.0785-.1065.0523-.0533.1309 0 .1832z" fill="#272b39"/><path d="m18.4169 23.8575c-.0532-.0523-.1064-.1047-.0266-.1832 0 0 .0798.0523.1064.0785 0 .0524-.0266.0785-.0798.1047z" fill="#fc0506"/><path d="m39.7019 16.4486c-.9844-.4189-1.8093-.7854-1.8093-1.44 0-.5236.4524-.8901 1.1176-.8901.7982 0 1.4368.3142 1.9689.9687l.0532.0785 1.5699-1.8326-.0266-.0523c-.3459-.4451-1.5167-1.3091-3.3526-1.3091-2.2084 0-3.8847 1.3876-3.8847 3.2202 0 2.0159 1.7561 2.7751 3.1663 3.3773.9845.4188 1.8093.7854 1.8093 1.4399 0 .6021-.5055.9686-1.3037.9686-.9313 0-1.8094-.4188-2.6608-1.2566l-.0532-.0524-1.4368 2.0421.0532.0523c.4257.4713 1.7561 1.3352 3.8049 1.3352 1.9955 0 4.1774-.9948 4.1774-3.2201-.0267-2.0683-1.7828-2.8013-3.193-3.4296z" fill="#fc0506"/><path d="m49.041 20.1923c-.2927.6546-.7716.9687-1.4368.9687-.7716 0-1.1707-.4712-1.1707-1.3614v-5.6025h-2.4745v5.812c0 2.0682.9312 3.0631 2.847 3.0631 1.0111 0 1.7561-.288 2.3149-.9425l.3192.7592h2.102v-8.6918h-2.4745v5.9952z" fill="#fc0506"/><path d="m57.5028 14.04c-1.1441 0-1.8093.5236-2.102.8639l-.4789-.7068h-1.836v11.6763h2.4745v-3.0369c.3992.0786.7983.1309 1.2772.1309 1.8359 0 3.9911-1.2566 3.9911-4.7648-.0266-2.618-1.2505-4.1626-3.3259-4.1626zm.7716 4.3459c0 2.2777-.9312 2.5657-1.7561 2.5657-.2395 0-.7184-.0524-1.0111-.2357v-4.0841c.2661-.3665.7184-.6021 1.1974-.6021 1.0111 0 1.5698.8639 1.5698 2.3562z" fill="#fc0506"/><path d="m65.5895 14.0138c-2.5809 0-4.1774 1.7279-4.1774 4.503 0 3.0107 1.4102 4.5553 4.2306 4.5553 1.7827 0 2.6075-.4712 3.2461-.9686l.0532-.0524-1.1175-1.7541-.0798.0786c-.2129.2356-.8248.7592-1.8625.7592-1.3304 0-1.9956-.6283-2.0488-1.9373h5.1884v-.0786c.0799-.6545.1065-1.0734.1065-1.5446.0532-2.1991-1.3304-3.5605-3.5388-3.5605zm-.0532 1.885c.878 0 1.3037.4712 1.3037 1.4661v.157h-2.9002c.0266-.9948.6652-1.6231 1.5965-1.6231z" fill="#fc0506"/><path d="m75.7541 14.0923c-.2128-.0523-.5055-.0785-.745-.0785-1.0377 0-1.8625.4974-2.2883 1.3875l-.4523-1.2042h-1.9423v8.718h2.4745v-5.8644c.5055-.3927 1.2771-.6545 1.9689-.6545.2661 0 .6652 0 .9845.0785l.0798.0262v-2.4086z" fill="#fc0506"/><g fill="#272b39"><path d="m82.6453 16.4486c-.9845-.4189-1.8093-.7854-1.8093-1.44 0-.5236.4523-.8901 1.1175-.8901.7982 0 1.4368.3142 1.969.9687l.0532.0785 1.5698-1.8326-.0266-.0523c-.3459-.4451-1.5166-1.3091-3.3525-1.3091-2.2085 0-3.8847 1.3876-3.8847 3.2202 0 2.0159 1.7561 2.7751 3.1663 3.3773.9845.4188 1.8093.7854 1.8093 1.4399 0 .6021-.5056.9686-1.3038.9686-.9313 0-1.8093-.4188-2.6607-1.2566l-.0533-.0524-1.4368 2.0421.0533.0523c.4257.4713 1.756 1.3352 3.8048 1.3352 1.9956 0 4.1774-.9948 4.1774-3.2201-.0266-2.0683-1.7827-2.8013-3.1929-3.4296z"/><path d="m91.3465 14.04c-1.1441 0-1.8093.5236-2.102.864l-.4789-.7069h-1.8359v11.6764h2.4745v-3.0369c.3991.0785.7982.1309 1.2771.1309 1.836 0 3.9912-1.2567 3.9912-4.7648-.0266-2.618-1.2506-4.1627-3.326-4.1627zm.7717 4.346c0 2.2776-.9313 2.5656-1.7561 2.5656-.2395 0-.7185-.0523-1.0111-.2356v-4.0841c.266-.3665.7184-.6022 1.1973-.6022 1.0111 0 1.5699.864 1.5699 2.3563z"/><path d="m102.148 20.3756v-3.4296c0-1.9897-1.117-2.906-3.5384-2.906-2.0221 0-2.9002 1.2305-3.1929 1.6494l-.0532.0524 1.7827 1.309.0266-.0786c.1863-.4189.5854-.9163 1.4368-.9163.7983 0 1.1708.3665 1.1708 1.1781v.576c-1.7295-.0786-3.0333.2618-3.7783.9687-.5056.4712-.7716 1.0995-.7716 1.8588 0 1.1781.8248 2.4347 2.6607 2.4347 1.224 0 1.8892-.4974 2.2348-.9425.32.6022.852.9163 1.623.9163.479 0 .878-.1047 1.198-.288l.026-.0261v-1.7017h-.319c-.346-.0262-.506-.2095-.506-.6546zm-3.5916.7855c-.5321 0-.8514-.288-.8514-.7593 0-.2356.0798-.4189.2394-.5498.2661-.2356.7451-.3665 1.4635-.3665.133 0 .2926 0 .4257.0262v1.1258c-.2927.2879-.7716.5236-1.2772.5236z"/><path d="m108.56 14.3018c-.266-.0785-.612-.1571-1.357-.1571-.905 0-3.885.3404-3.885 4.8695 0 2.5657 1.198 4.058 3.246 4.058 1.145 0 1.863-.5498 2.156-.8116l.372.6807h1.943v-11.6764h-2.475zm-1.011 1.8326c.399 0 .851.1047 1.091.2618v4.0056c-.346.445-.798.6807-1.357.6807-.931 0-1.437-.7854-1.437-2.3039 0-2.33.852-2.6442 1.703-2.6442z"/><path d="m116.302 14.0139c-2.581 0-4.177 1.7278-4.177 4.503 0 3.0107 1.41 4.5553 4.231 4.5553 1.782 0 2.607-.4712 3.246-.9687l.053-.0523-1.118-1.7541-.079.0785c-.213.2357-.825.7593-1.863.7593-1.33 0-1.995-.6284-2.049-1.9374h5.189v-.0785c.08-.6545.106-1.0734.106-1.5446.027-2.1992-1.33-3.5605-3.539-3.5605zm-.053 1.8849c.878 0 1.304.4713 1.304 1.4661v.1571h-2.9c.026-.9948.665-1.6232 1.596-1.6232z"/><path d="m102.361 24.9834-.479.4974c-.213-.1832-.533-.3403-1.011-.3403-.719 0-1.4639.3665-1.4639 1.754 0 1.3352.5056 1.885 1.4639 1.885.266 0 .612-.0523.771-.1571v-1.7279h.719v2.0421c-.346.2356-.825.4189-1.65.4189-1.3571 0-2.0489-.7854-2.0489-2.3824 0-1.7017.9845-2.4348 2.2349-2.4348.905 0 1.304.3142 1.464.4451z"/><path d="m106.059 26.7113v1.597c0 .288.107.4713.346.4713h.106v.4712c-.106.0524-.212.0785-.292.0785-.399 0-.612-.1832-.719-.445h-.026c-.186.2094-.479.4712-1.144.4712-.745 0-1.144-.4712-1.144-.9686 0-.8378.851-1.2305 2.208-1.1782v-.3927c0-.5497-.293-.7068-.772-.7068s-.718.2356-.851.445l-.506-.3665c.133-.1832.533-.6283 1.357-.6283.905 0 1.437.3403 1.437 1.1519zm-.665.9687c-.878-.0524-1.517.1571-1.517.6283 0 .288.213.5236.639.5236.399 0 .718-.2094.878-.445z"/><path d="m111.274 25.5331c.772 0 1.224.4189 1.224 1.2305v2.5394h-.718v-2.4085c0-.5237-.266-.7855-.692-.7855s-.718.2618-.851.5498v2.6181h-.719v-2.3563c0-.5236-.266-.8116-.718-.8116-.426 0-.719.288-.798.6022v2.5918h-.719v-3.6652h.559l.133.3665h.027c.159-.1832.479-.445 1.037-.445.612 0 .878.2356 1.038.5497h.027c.159-.2879.558-.5759 1.17-.5759z"/><path d="m116.436 28.989c-.293.2094-.692.3665-1.304.3665-1.17 0-1.782-.5759-1.782-1.9111 0-1.2829.771-1.885 1.756-1.885.958 0 1.49.576 1.49 1.4661 0 .1832 0 .3927-.027.6283h-2.501c.053.8116.399 1.1519 1.171 1.1519.399 0 .745-.157.904-.2879zm-2.395-1.8326h1.81c0-.0786 0-.1309 0-.1833 0-.5759-.266-.8901-.852-.8901-.479.0262-.904.3142-.958 1.0734z"/><path d="m117.314 26.6066c0-.5498.505-1.0472 1.383-1.0472.559 0 .985.1833 1.251.4189l-.452.445c-.187-.1832-.479-.3141-.799-.3141-.452 0-.665.2094-.665.4712 0 .7592 1.969.4451 1.969 1.7017 0 .4975-.452 1.0734-1.463 1.0734-.719 0-1.224-.2618-1.464-.4974l.426-.4712c.213.2094.612.4188 1.064.4188.479 0 .719-.2356.719-.4974 0-.733-1.969-.4451-1.969-1.7017z"/></g></g></svg>