<svg fill="none" height="40" viewBox="0 0 120 40" width="120" xmlns="http://www.w3.org/2000/svg" xmlns:xlink="http://www.w3.org/1999/xlink"><linearGradient id="a" gradientUnits="userSpaceOnUse" x1="13.5002" x2="28.5903" y1="43.8647" y2="15.5847"><stop offset="0" stop-color="#c7e3f8"/><stop offset=".3754" stop-color="#26b1e7"/><stop offset=".7171" stop-color="#246eb0"/><stop offset="1" stop-color="#223b86"/></linearGradient><linearGradient id="b" gradientUnits="userSpaceOnUse" x1="31.654" x2="7.31604" y1=".349176" y2="24.6604"><stop offset="0" stop-color="#c7e3f8"/><stop offset=".3971" stop-color="#26b1e7"/><stop offset=".4653" stop-color="#259dd7"/><stop offset=".632" stop-color="#2473b4"/><stop offset=".7825" stop-color="#23549b"/><stop offset=".9103" stop-color="#22428c"/><stop offset="1" stop-color="#223b86"/></linearGradient><g fill="#1a212a"><path d="m46.6745 21.8027c0 1.0592.8387 1.8651 1.8637 1.8651.2329 0 .4659-.046 1.0017-.2532l.792 1.9111c-.7687.2994-1.2579.3915-1.7937.3915-2.1898 0-3.9835-1.75-3.9835-3.9375v-12.73356h2.1198v3.20066h3.6574v2.0724h-3.6574z"/><path d="m51.7305 21.8026v-6.4013c0-2.1875 1.7937-3.9375 3.9834-3.9375 2.1898 0 3.9835 1.75 3.9835 3.9375v6.4013c0 2.1875-1.7937 3.9375-3.9835 3.9375-2.1897 0-3.9834-1.75-3.9834-3.9375zm4.0067-8.2664c-1.0016 0-1.8636.8519-1.8636 1.8651v6.4013c0 1.0132.862 1.8652 1.8636 1.8652 1.025 0 1.8637-.829 1.8637-1.8652v-6.4013c0-1.0362-.8387-1.8651-1.8637-1.8651z"/><path d="m71.7178 14.9868c0-.7829-.6522-1.4506-1.4676-1.4506-.792 0-1.4676.6677-1.4676 1.4506v10.477h-2.0965v-10.477c0-.7829-.6523-1.4506-1.4676-1.4506-.7921 0-1.4676.6677-1.4676 1.4506v10.477h-2.0966v-10.477c0-1.9572 1.5841-3.523 3.5642-3.523.9784 0 1.8636.3684 2.5158 1.0132.629-.6448 1.5142-1.0132 2.4926-1.0132 2.0034 0 3.5875 1.5658 3.5875 3.523v10.477h-2.1199z"/><path d="m85.1362 15.4013c0-1.0132-.8387-1.8421-1.8637-1.8421-1.0016 0-1.8636.8289-1.8636 1.8421v10.0625h-2.1198v-19.01974h2.1198v5.48024c.5591-.2993 1.1881-.4835 1.8636-.4835 2.1898 0 3.9835 1.75 3.9835 3.9375v10.0625h-2.1198z"/><path d="m89.1191 21.8026v-6.4013c0-2.1875 1.7938-3.9375 3.9835-3.9375 2.1898 0 3.9835 1.75 3.9835 3.9375v6.4013c0 2.1875-1.7937 3.9375-3.9835 3.9375-2.1897 0-3.9835-1.75-3.9835-3.9375zm4.0068-8.2664c-1.0017 0-1.8636.8519-1.8636 1.8651v6.4013c0 1.0132.8619 1.8652 1.8636 1.8652 1.025 0 1.8636-.829 1.8636-1.8652v-6.4013c0-1.0362-.8386-1.8651-1.8636-1.8651z"/><path d="m102.98 13.5362c-1.002 0-1.864.8519-1.864 1.8651v10.0625h-2.0965v-10.0625c0-2.1875 1.7705-3.9375 3.9605-3.9375 1.397 0 2.702.7138 3.564 2.1645l-1.794 1.0592c-.512-.8059-1.095-1.1513-1.77-1.1513z"/><path d="m112.904 15.4013c0-1.0132-.862-1.8651-1.864-1.8651-1.025 0-1.863.8289-1.863 1.8651v10.0625h-2.12v-10.0625c0-2.1875 1.793-3.9375 3.983-3.9375s3.96 1.75 3.96 3.9375v10.0625h-2.096z"/></g><path d="m62.2129 33.7994v-3.6382c0-.8519.6988-1.5427 1.5608-1.5427.6289 0 1.188.3684 1.4676 1.0362l-.6756.2993c-.1631-.3915-.4659-.5757-.792-.5757-.4426 0-.8154.3685-.8154.806v3.6381c0 .4375.3728.8059.8154.8059s.8153-.3684.8153-.8059v-.7829h-1.1881v-.7368h1.9103v1.5197c0 .852-.6989 1.5428-1.5608 1.5428-.8387-.0461-1.5375-.7138-1.5375-1.5658z" fill="#21b3e8"/><path d="m70.9952 33.1777h-1.6306v2.0493h-.7455v-5.0658c0-.8519.6989-1.5427 1.5608-1.5427s1.5608.6908 1.5608 1.5427v5.0658h-.7455zm-.8153-3.7994c-.4426 0-.8153.3685-.8153.806v2.2796h1.6306v-2.2796c0-.4606-.3727-.806-.8153-.806z" fill="#21b3e8"/><path d="m78.3789 30.9211-1.0482 2.9243h-.3961l-1.0249-2.9243v4.3289h-.7222v-6.5395h.7222l1.2346 3.5 1.2114-3.5h.7454v6.5395h-.7222z" fill="#21b3e8"/><path d="m83.8314 28.7105h-.7455v6.5395h.7455z" fill="#21b3e8"/><path d="m88.4896 30.852v4.398h-.7455v-6.5395h.7222l1.6539 4.3981v-4.3981h.7222v6.5395h-.7222z" fill="#21b3e8"/><path d="m94.2441 33.7994v-3.6382c0-.8519.6989-1.5427 1.5608-1.5427.629 0 1.1881.3684 1.4676 1.0362l-.6755.2993c-.1631-.3915-.466-.5757-.7921-.5757-.4426 0-.8153.3685-.8153.806v3.6381c0 .4375.3727.8059.8153.8059s.8153-.3684.8153-.8059v-.7829h-1.188v-.7368h1.9102v1.5197c0 .852-.6989 1.5428-1.5608 1.5428-.8386-.0461-1.5375-.7138-1.5375-1.5658z" fill="#21b3e8"/><path d="m35.3313 7.24997c.9784 1.08224.9551 2.74013-.0932 3.77633-1.0716 1.0362-2.7722 1.0592-3.8437.046 2.213 2.2106 3.4942 5.204 3.4942 8.4277 0 6.6315-5.4743 12.0427-12.1834 12.0427-4.3329 0-8.3163-2.3026-10.4828-5.8947-.6756-1.1283-2.05-1.6349-3.28462-1.1974l-.06989.023c-1.58407.5757-2.28293 2.4178-1.42101 3.8685 3.12152 5.273 8.92202 8.6579 15.25832 8.6579 9.7607 0 17.7044-7.852 17.7044-17.5 0-4.6974-1.8636-9.0494-5.0783-12.25003z" fill="url(#a)"/><path d="m36.0525 8.90789v-.02302c0-.06908-.0233-.16119-.0233-.23027 0 0 0 0 0-.02302-.0233-.09211-.0233-.16119-.0466-.23027-.1164-.41447-.3261-.80592-.6289-1.12828-.0233-.02303-.0466-.06908-.0932-.09211-3.3545-3.36184-7.8039-5.18092-12.5561-5.18092-9.7607 0-17.7044 7.85197-17.7044 17.5 0 3.1546.83863 6.148 2.35282 8.75-.76875-1.4276-.06989-3.2007 1.49089-3.7533l.06989-.023c1.2346-.4375 2.5858.0691 3.2846 1.1743-1.0716-1.8191-1.6772-3.9145-1.6772-6.125 0-6.6316 5.4743-12.04274 12.1834-12.04274 3.2613 0 6.3363 1.26645 8.6425 3.54604.0233.023.0466.0461.0699.0461.4659.4375 1.0716.6908 1.6772.7368h.0233.2563.0233c.0699 0 .163 0 .2329-.023h.0466c.0699 0 .1398-.023.2097-.023.0233 0 .0466 0 .0699-.0231.0698-.023.1164-.023.1863-.046.0233 0 .0466-.023.0932-.023.0466-.0231.1165-.0461.1631-.0461.0465-.023.0698-.023.0931-.0461.0466-.023.0932-.046.1398-.069.0466-.0231.0699-.0461.1165-.0691s.0699-.0461.1165-.0691.0931-.0691.1397-.0921c.0233-.023.0466-.046.0932-.0691.0699-.0691.1398-.1151.2097-.1842s.1397-.1381.1863-.2072c.0233-.023.0466-.0461.0699-.0691.0466-.0461.0699-.0921.0932-.1382.0233-.046.0466-.069.0699-.1151.0233-.046.0466-.0691.0699-.1151.0233-.0461.0466-.0921.0699-.1382.0233-.046.0465-.0691.0465-.1151.0233-.0461.0466-.0921.0466-.13817 0-.02303.0233-.06908.0233-.09211.0233-.04605.0233-.11513.0466-.16118 0-.02303.0233-.04605.0233-.06908.0233-.06908.0233-.11513.0233-.18421 0-.02302 0-.04605 0-.06908 0-.06908.0233-.13816.0233-.20723 0-.02303 0-.02303 0-.04606-.0466-.0921-.0466-.18421-.0466-.25329z" fill="url(#b)"/></svg>