<svg fill="none" height="40" viewBox="0 0 120 40" width="120" xmlns="http://www.w3.org/2000/svg"><g fill="#1a212a"><path d="m31.6636 21.569-19.2739-19.2961c-.8292-.84646-.2504-2.2729.9386-2.2729h19.274c.7352 0 1.3297.595656 1.3297 1.33239v19.29611c0 1.1757-1.4236 1.7713-2.2684.9405z"/><path d="m38.454 21.569 19.2739-19.2961c.8292-.83078.2503-2.2729-.9386-2.2729h-19.274c-.7353 0-1.3298.595656-1.3298 1.33239v19.29611c0 1.1757 1.4393 1.7713 2.2685.9405z"/><path d="m62.1552 21.569 19.2739-19.2961c.8291-.83078.2503-2.2729-.9387-2.2729h-19.2739c-.7353 0-1.3298.595656-1.3298 1.33239v19.29611c0 1.1757 1.4393 1.7713 2.2685.9405z"/><path d="m48.4735 39.9813c.0745-.3919 2.0674-5.2626 2.7006-7.0355 0 0 1.9743 4.7774 2.9242 7.0355h3.2594v-1.2877-11.3276h-2.2351-.1117v8.9762l-2.7007-6.7368h-2.1232l-2.7007 6.5502v-8.7896h-2.3281v11.3276 1.2877z"/><path d="m61.9392 27.366-3.5388 12.6339h2.7379l.9126-3.1724h3.2222l.9126 3.1724h2.8683l-3.5761-12.6339zm.6705 7.4833 1.043-3.6204 1.043 3.6204z"/><path d="m91.4411 27.366-3.5388 12.6339h2.7379l.9127-3.1724h3.2221l.9126 3.1724h2.8683l-3.576-12.6339zm.6705 7.4833 1.043-3.6204 1.043 3.6204z"/><path d="m83.0407 27.366h-3.5387v12.6339h3.3525c3.7436 0 5.0474-2.314 5.0474-6.5689-.0186-3.9936-1.3783-6.065-4.8612-6.065zm-.2235 10.7678h-.8754v-8.9017h.8941c1.9556 0 2.533 1.2877 2.533 4.1803 0 3.3964-.6519 4.7214-2.5517 4.7214z"/><path d="m77.9764 38.0218v-.3172h-4.6935l4.4142-7.726v-.1866-2.426h-7.953v1.9781.4479h5.0288l-5.0288 8.2671v1.9222h8.2323z"/><path d="m105.84 27.366h-.298v7.0541c-.149-.4106-3.073-7.0541-3.073-7.0541h-.056-.298-2.105-.3538v12.6339h2.4588v-7.2594l3.632 7.2594h2.253v-12.6339z"/></g></svg>