<svg fill="none" height="40" viewBox="0 0 120 40" width="120" xmlns="http://www.w3.org/2000/svg"><path clip-rule="evenodd" d="m54.3282 7.09863c-.3301-.90366-.6518-1.79208-.9101-2.69989-.2653-.93238-.4637-1.87785-.6131-2.83264-.0832-.53162-.0706-.54724.4592-.724944 1.0716-.35907 2.1646-.64144 3.2874-.8065544.5198-.0764488.5455-.0602019.616.4528994.2966 2.159839.925 4.225719 1.8809 6.198659.1082.22317.1667.58741.4154.59899.3163.01474.3574-.37141.4712-.60466.9517-1.9514 1.5765-3.99663 1.8639-6.136313.0776-.5778378.0946-.5915659.6986-.5052933 1.1245.1608323 2.2116.4668793 3.2841.8195273.4884.160449.4791.179979.4024.691189-.2568 1.70971-.7176 3.36841-1.3258 4.99172-.0684.18262-.277.40025-.0727.57267.161.13565.3671-.04043.5404-.10982 1.7521-.70127 3.2849-1.71903 4.6348-2.99838.0622-.05882.1234-.11852.1854-.17759.4941-.47179.4927-.47003 1.0445-.0267.8208.6592 1.6088 1.3514 2.2971 2.14158.3477.39925.344.4058-.0154.76839-2.628 2.65103-5.8006 4.39163-9.4913 5.26493-.1693.0399-.3415.0701-.508.1185-.399.1162-.427.199-.1216.4994 1.0097.9923 2.125 1.8641 3.3252 2.6331.3742.2398.3882.2303.825-.163 1.8465-1.6631 3.9299-2.9846 6.228-3.9898.6733-.2946 1.3675-.5472 2.0614-.7948.4705-.1679.5488-.1289.7427.3217.4341 1.0094.8056 2.0395 1.0434 3.1104.1068.4814.1003.5045-.4084.6777-1.1122.3788-2.1812.8447-3.2012 1.4164-.6598.3696-1.2951.7746-1.9076 1.2121-.1695.1211-.4407.2203-.4128.4455.0349.2804.3627.2602.575.325 1.5629.4769 3.1629.7756 4.7983.8968 1.2307.0913.9916.0536.8943 1.0597-.0912.9406-.281 1.8685-.5579 2.7766-.1475.4837-.1615.5022-.6825.4657-1.7868-.1254-3.5406-.4335-5.26-.9195-4.354-1.2306-8.1199-3.4132-11.3291-6.4976-.6275-.603-.5122-.6697-1.1862-.0153-3.4077 3.3078-7.4549 5.5528-12.135 6.7297-1.4136.3555-2.8521.5901-4.3096.6978-.6719.0496-.6625.0316-.8513-.5733-.3026-.9694-.4535-1.9649-.5713-2.9662-.0784-.667-.0651-.6891.6678-.7386 1.5924-.1073 3.156-.3625 4.6859-.8031.2711-.078.5402-.1633.807-.2541.2305-.0786.2567-.2252.0779-.3716-.2486-.2031-.5097-.394-.7785-.5717-1.4435-.9542-2.976-1.7429-4.6332-2.2989-.5761-.1934-.5812-.2018-.4449-.7588.2504-1.023.5703-2.0244 1.0151-2.9867.2476-.5354.2564-.549.8223-.3606 1.8831.6271 3.6495 1.4796 5.3093 2.542 1.0551.6753 2.0361 1.4385 2.9742 2.2556.4164.3629.416.357.8785.0596 1.0718-.6894 2.0658-1.47 2.9788-2.3464.1078-.1036.2192-.205.3161-.3177.1538-.1794.0841-.3088-.1224-.3809-.1222-.0427-.2515-.067-.3787-.0953-3.7516-.8324-6.965-2.58416-9.6489-5.24098-.0607-.0602-.1204-.12141-.1818-.18086-.1621-.15743-.193-.31763-.0286-.49584.8552-.92772 1.7708-1.79372 2.7852-2.56085.2092-.15819.3518-.06625.5032.084.5161.5121 1.0509 1.00404 1.6332 1.44813 1.1006.83955 2.2969 1.51789 3.6011 2.01814.116.04459.2355.116.4577.01109z" fill="#ff5111" fill-rule="evenodd"/><g fill="#010812"><path d="m30.5981 39.9867c-.2305-.1349-.4866-.1079-.7299-.1687-2.8557-.6749-4.5781-3.1721-4.3476-6.297.2241-3.0776 2.5227-5.3723 5.5001-5.4735 1.5687-.054 3.0222.3239 4.2644 1.4038.1665.1417.1601.2227.032.378-.4034.4926-.8004.9921-1.1781 1.5118-.1409.1889-.2177.1552-.3714.0202-.9476-.8301-2.049-1.1878-3.2527-.9111-1.3895.3172-2.177 1.3363-2.4523 2.7536-.2562 1.3431.0256 2.5715.986 3.5568 1.2358 1.2689 3.2591 1.0529 4.3732.3105.1089-.0742.1281-.162.1281-.2835-.0064-.2699-.0128-.5399 0-.8099.0064-.1889-.0384-.2632-.2305-.2497-.2241.0135-.4482-.0067-.6723.0068-.1601.0067-.2241-.0338-.2241-.216.0128-.5062.0064-1.0124 0-1.5186 0-.1687.0256-.2362.2049-.2362 1.0052.0068 2.0041.0068 3.0094 0 .1728 0 .2113.0608.2113.2295-.0065 1.3161-.0065 2.6322 0 3.9482 0 .1755-.0769.2633-.1921.3577-1.1013.9112-2.3307 1.4714-3.7266 1.6198-.0512.0068-.1088-.0067-.128.0608-.3906.0067-.8004.0067-1.2038.0067z"/><path d="m42.5075 39.9864c-.2177-.1552-.4802-.1282-.7235-.1822-2.7853-.6344-4.4757-3.1451-4.2964-6.108.1793-2.9359 1.9529-5.0619 4.6677-5.5478 1.9401-.351 3.7522.054 5.2889 1.4781-.461.5871-.922 1.1608-1.3638 1.7547-.1345.1823-.2113.0878-.3266-.0067-.7427-.6412-1.5815-.9651-2.5484-.9989-1.4406-.054-2.8941 1.0934-3.1758 2.9157-.2113 1.3228.064 2.5241 1.0116 3.4893 1.2422 1.2621 3.2655 1.0393 4.3733.2902.0768-.054.128-.1148.1152-.216 0-.0135 0-.0202 0-.0337 0-.3375.1089-.7492-.0384-.9922-.1473-.2362-.5699-.0675-.8644-.081-.1665-.0067-.2177-.0539-.2113-.2294.0128-.5062.0128-1.0124 0-1.5186-.0064-.1755.0512-.2295.2177-.2227 1.0053.0067 2.0041.0067 3.0094 0 .1793 0 .2049.0675.2049.2362-.0064 1.3161-.0064 2.6322 0 3.9483 0 .1754-.0769.2632-.1921.3577-1.0949.9111-2.3307 1.4713-3.7265 1.6198-.0513.0067-.1089-.0068-.1281.0607-.4418-.0135-.8644-.0135-1.2934-.0135z"/><path d="m105 39.7842c-.103-.0067-.211-.0135-.314-.0135-2.292 0-4.591-.0067-6.8831.0068-.2369 0-.3009-.0608-.3009-.3172.0064-3.6311.0064-7.2621 0-10.8999 0-.2835.0896-.3307.3201-.324.5891.0135 1.1717.0203 1.7608 0 .2561-.0067.3138.0675.3138.3307-.0064 2.8482 0 5.6896-.0128 8.5377 0 .2902.0576.378.3461.378 1.459-.0203 2.926-.0068 4.386-.0068.128 0 .256.0135.384.0135z"/><path d="m49.755 34.0133c0-1.8087.0064-3.6243-.0064-5.433 0-.2497.0384-.351.3073-.3442 1.4407.0472 2.8814-.0743 4.3156.0675 2.7213.2699 4.7446 2.4836 4.9047 5.352.1601 2.8549-1.6007 5.3049-4.2644 5.9325-.5314.1283-1.0757.1755-1.6199.1755-1.1077 0-2.2219-.0067-3.3296.0068-.2497 0-.3201-.054-.3201-.3307.0192-1.8088.0128-3.6176.0128-5.4264zm2.4011-.0337c0 1.0934.0064 2.18-.0064 3.2733 0 .189.0448.2498.2241.243.461-.0135.9156.0135 1.3766-.0135.8004-.0472 1.5239-.324 2.1066-.9246.7748-.8032.9861-1.8021.922-2.9022-.0896-1.5455-1.0949-2.7604-2.5355-3.0506-.6147-.1282-1.2358-.0472-1.8505-.081-.1921-.0067-.2497.0473-.2497.2565.0192 1.0596.0128 2.1327.0128 3.1991z"/><path d="m69.8741 39.7703c-.9157 0-1.7672-.0068-2.6188.0067-.1793 0-.2369-.1215-.3074-.2362-.6595-1.0394-1.319-2.0652-1.9657-3.1114-.1536-.2497-.3137-.4049-.6083-.3442-.192.0405-.2561-.0405-.2497-.2564.0128-.5872.0128-1.1676 0-1.7548 0-.1755.0448-.2227.2177-.2295.4867-.0067.9797.0608 1.4663-.0405.8772-.189 1.3638-.7896 1.3382-1.6535-.0256-.8842-.5186-1.4713-1.4086-1.5793-.7876-.1013-1.5752-.0203-2.3691-.0405-.1665-.0068-.1537.108-.1537.2227v1.2149c0 2.4836-.0064 4.9741.0064 7.4578 0 .2699-.0448.3712-.3265.3577-.6083-.0203-1.2166-.0135-1.8249 0-.1985.0067-.2497-.054-.2497-.2632.0064-3.6648.0064-7.3364 0-11.0012 0-.2024.0448-.2699.2497-.2699 1.5559.0067 3.1183-.0203 4.6742.0202 1.1973.0338 2.305.378 3.0926 1.4241 1.4214 1.8965.7363 4.8594-1.351 5.8448-.2625.1214-.2305.2092-.0961.4117.8196 1.2351 1.6328 2.4971 2.4844 3.82z"/><path d="m87.0145 28c1.3703.0202 2.6189.4319 3.733 1.2891.1857.1417.1921.2295.0576.4184-.3329.4792-.6531.9719-.9604 1.4714-.1025.1687-.1665.1619-.3138.0607-.7043-.4927-1.4535-.8976-2.3179-.9854-.3841-.0405-.7683-.0337-1.1333.1283-.3521.1552-.5827.4116-.6083.8301-.032.4252.1473.7357.4995.9381.5378.3037 1.1333.4455 1.716.6142.6146.1755 1.2293.3645 1.812.6479 1.1653.567 1.8056 1.5051 1.78 2.8819-.0192 1.4038-.5826 2.477-1.8056 3.0776-1.351.6682-2.7533.594-4.1555.1823-.9157-.27-1.7288-.7357-2.4652-1.3701-.1537-.135-.1601-.2092-.032-.3645.3714-.4454.7363-.9044 1.0821-1.3768.1409-.1957.2305-.1687.397-.027.9348.7829 1.9785 1.2688 3.2079 1.2081.2881-.0135.5762-.0675.8324-.2025.3393-.1755.5506-.4454.5698-.8639.0192-.4184-.16-.7086-.4994-.9044-.6339-.3712-1.3318-.5196-2.0233-.7154-.5315-.1552-1.0629-.3239-1.5688-.5669-1.2485-.6007-1.8376-1.667-1.716-3.1181.1473-1.802 1.4023-3.0574 3.2207-3.2194.2433-.0135.4674-.0202.6915-.0337z"/><path d="m82.1357 39.7977c-.7747 0-1.5431-.0067-2.3051.0068-.1664 0-.192-.108-.2305-.216-.2689-.7087-.5506-1.4106-.8067-2.1192-.0705-.2025-.1665-.27-.3714-.2633-1.0245.0135-2.049 0-3.0734.0068-.2369 0-.301-.0338-.1921-.2902.2305-.5669.4418-1.1406.6531-1.7143.0576-.1552.1281-.2227.3009-.216.4931.0135.9797 0 1.4727.0068.1729 0 .2561 0 .1665-.2362-.461-1.1609-.8964-2.3083-1.3382-3.4691-.1217.0405-.1217.162-.1537.243-1.0245 2.6524-2.0554 5.3115-3.067 7.9707-.0833.2227-.1857.297-.4098.297-.6915-.0135-1.383-.0068-2.0746-.0068-.0384-.1282.032-.2092.0705-.2969 1.4662-3.6648 2.9389-7.3229 4.4052-10.9877.0896-.2294.1921-.3239.4418-.3104.5507.0202 1.1077.0135 1.6648 0 .16 0 .2497.0472.3137.2092 1.5047 3.7525 3.0158 7.5118 4.5205 11.2643.0064.027.0064.0608.0128.1215z"/><path d="m15 28.243c.9156 0 1.7736.0068 2.638-.0067.1985 0 .2113.1619.2753.2767.7748 1.5185 1.5432 3.0438 2.3179 4.5692.0448.0877.0897.1754.1537.2969.5763-1.1136 1.1333-2.1935 1.6904-3.2733.2817-.5535.5698-1.1001.8516-1.6603.0704-.1417.1536-.216.3201-.2092.8132.0135 1.62.0067 2.4331.0067.0385.135-.0576.216-.1024.3037-1.287 2.4162-2.5804 4.8257-3.8802 7.2351-.1025.1822-.1409.3645-.1409.5737.0064 1.0461-.0064 2.0922.0064 3.1384 0 .2294-.064.2834-.2689.2834-.6211-.0135-1.2358-.0135-1.8568 0-.2306.0068-.2562-.0877-.2562-.2902.0064-1.0124 0-2.0247.0064-3.0371 0-.2227-.0448-.4117-.1472-.6074-1.2934-2.4162-2.574-4.8324-3.861-7.2486-.0512-.0945-.1025-.1958-.1793-.351z"/><path d="m95.505 34.0133c0 1.802-.0065 3.5973.0064 5.3993 0 .2632-.0449.3712-.3266.3645-.6083-.027-1.2166-.0135-1.8248 0-.1793 0-.237-.0473-.237-.243.0064-3.6783.0064-7.3566 0-11.0349 0-.2159.0705-.2564.2562-.2564.6211.0135 1.2357.0202 1.8568 0 .2433-.0068.2754.0877.2754.3104-.0129 1.8156-.0064 3.6378-.0064 5.4601z"/></g></svg>