<svg width="774" height="845" viewBox="0 0 774 845" fill="none" xmlns="http://www.w3.org/2000/svg">
<g filter="url(#filter2_d)">
<path fill-rule="evenodd" clip-rule="evenodd" d="M386 741C444.542 741 492 693.542 492 635C492 576.458 444.542 529 386 529C327.458 529 280 576.458 280 635C280 693.542 327.458 741 386 741Z" fill="#F25C05"/>
</g>
<g filter="url(#filter3_d)">
<path fill-rule="evenodd" clip-rule="evenodd" d="M525.457 341C607.618 341.31 674.002 408.418 673.797 490.958C673.592 573.498 606.875 640.273 524.714 640.17C442.552 640.067 376.001 573.126 376 490.586C376.155 407.818 443.069 340.846 525.457 341Z" fill="url(#paint2_linear)"/>
</g>
<defs>


<filter id="filter2_d" x="180" y="433" width="412" height="412" filterUnits="userSpaceOnUse" color-interpolation-filters="sRGB">
<feFlood flood-opacity="0" result="BackgroundImageFix"/>
<feColorMatrix in="SourceAlpha" type="matrix" values="0 0 0 0 0 0 0 0 0 0 0 0 0 0 0 0 0 0 127 0"/>
<feOffset dy="4"/>
<feGaussianBlur stdDeviation="50"/>
<feColorMatrix type="matrix" values="0 0 0 0 0.0117647 0 0 0 0 0.145098 0 0 0 0 0.423529 0 0 0 0.1 0"/>
<feBlend mode="normal" in2="BackgroundImageFix" result="effect1_dropShadow"/>
<feBlend mode="normal" in="SourceGraphic" in2="effect1_dropShadow" result="shape"/>
</filter>
<filter id="filter3_d" x="276" y="245" width="497.798" height="499.17" filterUnits="userSpaceOnUse" color-interpolation-filters="sRGB">
<feFlood flood-opacity="0" result="BackgroundImageFix"/>
<feColorMatrix in="SourceAlpha" type="matrix" values="0 0 0 0 0 0 0 0 0 0 0 0 0 0 0 0 0 0 127 0"/>
<feOffset dy="4"/>
<feGaussianBlur stdDeviation="50"/>
<feColorMatrix type="matrix" values="0 0 0 0 0.0117647 0 0 0 0 0.145098 0 0 0 0 0.423529 0 0 0 0.1 0"/>
<feBlend mode="normal" in2="BackgroundImageFix" result="effect1_dropShadow"/>
<feBlend mode="normal" in="SourceGraphic" in2="effect1_dropShadow" result="shape"/>
</filter>

<linearGradient id="paint2_linear" x1="376" y1="341" x2="376" y2="640.17" gradientUnits="userSpaceOnUse">
<stop stop-color="#F6F7FB"/>
<stop offset="1" stop-color="#E9EEFA"/>
</linearGradient>
</defs>
</svg>
