<svg width="80" height="80" viewBox="0 0 80 80" fill="none" xmlns="http://www.w3.org/2000/svg">
<path opacity="0.75" fill-rule="evenodd" clip-rule="evenodd" d="M28.5124 16.6553C28.9052 15.857 28.6106 14.903 27.8446 14.4746C21.1076 10.7168 15.8044 11.4567 12.0725 13.4232H12.0529C12.0529 13.4427 12.0333 13.4427 11.994 13.4621C11.8958 13.5205 11.7779 13.579 11.6797 13.6374C10.7173 14.1825 9.91199 14.7861 9.2049 15.3897C7.4961 16.7722 6.67116 17.9599 6.31761 18.6803C6.25869 18.7387 6.21941 18.7971 6.21941 18.7971H6.23905H6.21941C6.16048 18.8945 6.14084 18.9918 6.10156 19.0892C6.08192 19.167 6.06227 19.2255 6.04263 19.2644C5.90514 19.868 6.10156 20.5105 6.61223 20.9194C9.95127 23.5674 13.0546 24.7551 15.883 24.8914C18.7113 25.0277 21.0879 24.1126 22.9539 22.8665C24.8002 21.6398 26.1947 20.0822 27.0982 18.8555C27.55 18.2325 27.9035 17.7067 28.1392 17.2979C28.2374 17.1421 28.316 17.0058 28.3946 16.8695C28.3946 16.8695 28.4142 16.85 28.4142 16.8306C28.4535 16.7722 28.4731 16.7332 28.4928 16.6943L28.5124 16.6553V16.6553H28.4731H28.5124Z" fill="url(#paint0_linear)"/>
<path opacity="0.8" fill-rule="evenodd" clip-rule="evenodd" d="M70.1457 43.9122L70.1384 43.8959C67.9279 38.9902 63.6564 35.7308 58.8569 34.7724C54.5979 34.1428 52.0837 35.6561 50.0396 36.9436C47.9718 38.2219 46.4012 38.3647 46.4012 38.3647C42.6155 39.1476 40.3896 41.0419 39.1917 42.5046C35.9475 46.8369 35.1581 52.7857 37.5616 58.2118L37.5689 58.2281C37.5835 58.2608 37.5981 58.2934 37.6272 58.3587C37.671 58.4566 37.7438 58.6198 37.824 58.7994C38.0081 59.1676 38.2743 59.6754 38.6409 60.2758C39.3741 61.4767 40.5163 63.0641 42.154 64.5708C44.2153 66.4967 47.072 68.3077 50.7967 69.1522C50.7967 69.1522 54.1536 70.2753 58.3927 69.4496C58.4092 69.4423 58.4165 69.4587 58.4329 69.4514C58.4731 69.4533 58.4896 69.4461 58.5225 69.4316L58.539 69.4244L58.5719 69.4099C58.6049 69.3955 58.6451 69.3974 58.6945 69.3757L58.7109 69.3685C58.9962 69.3018 59.2815 69.2352 59.5596 69.1522C59.854 69.062 60.1887 68.9737 60.5656 68.8474C60.5985 68.8329 60.6314 68.8185 60.6643 68.804C60.8198 68.7553 60.9588 68.7138 61.0978 68.6723C61.0978 68.6723 61.9338 68.3836 63.1524 67.6731C63.2933 67.5917 63.4342 67.5104 63.5843 67.4055C65.3044 66.3187 67.5963 64.3955 69.4674 61.3099C69.5279 61.2248 69.5646 61.1306 69.6251 61.0455C69.6874 60.9206 69.7735 60.8047 69.8358 60.6797L69.8121 60.6706C71.5059 57.5848 72.017 54.452 71.935 51.7551C71.8725 49.4986 71.4092 47.5351 70.967 46.148C70.7504 45.4427 70.5264 44.8968 70.3679 44.4979C70.2804 44.302 70.2148 44.1551 70.1638 44.0409C70.1821 43.9938 70.1603 43.9448 70.1457 43.9122Z" fill="url(#paint1_linear)"/>
<path opacity="0.8" fill-rule="evenodd" clip-rule="evenodd" d="M50.7493 39.051C48.293 41.0171 46.1785 41.1492 46.1785 41.1492C45.0809 41.3623 44.1405 41.6732 43.2657 42.0579C41.0662 43.5661 39.1568 45.5707 40.7834 47.493C40.7834 47.493 46.8564 52.7809 51.7937 44.3366C51.7937 44.3366 56.0816 34.7196 62.2933 36.1559C56.209 34.7611 53.185 37.0956 50.7493 39.051Z" fill="url(#paint2_linear)"/>
<path opacity="0.8" fill-rule="evenodd" clip-rule="evenodd" d="M43.7887 52.9422V52.9233C43.7696 47.2263 41.0394 42.2485 36.8007 39.277C32.944 36.8543 29.8509 37.2518 27.3116 37.6303C24.7531 37.9899 23.1684 37.46 23.1684 37.46C19.1589 36.6083 16.1804 37.4978 14.3857 38.4063C9.36425 41.2265 6.023 46.6585 6.00391 52.9422V52.9612C6.00391 52.999 6.00391 53.0369 6.00391 53.1126C6.00391 53.2261 6.00391 53.4154 6.00391 53.6236C6.023 54.0589 6.06118 54.6646 6.15665 55.4027C6.34758 56.879 6.76762 58.9042 7.70317 61.0619C8.86784 63.8063 10.8535 66.7778 14.0993 69.1816C14.0993 69.1816 16.8678 71.6988 21.3355 72.702C21.3546 72.702 21.3546 72.7209 21.3737 72.7209C21.4119 72.7398 21.431 72.7398 21.4691 72.7398H21.4882H21.5264C21.5646 72.7398 21.6028 72.7588 21.6601 72.7588H21.6792C21.9847 72.8155 22.2901 72.8723 22.5956 72.9102C22.9202 72.948 23.283 73.0048 23.703 73.0427C23.7412 73.0427 23.7794 73.0427 23.8176 73.0427C23.9894 73.0616 24.1421 73.0805 24.2949 73.0994C24.2949 73.0994 25.2304 73.1752 26.7197 73.0048C26.8915 72.9859 27.0634 72.967 27.2543 72.9291C29.3927 72.6073 32.4476 71.7178 35.5979 69.5223C35.6933 69.4655 35.7697 69.3898 35.8652 69.333C35.9797 69.2383 36.1134 69.1626 36.2279 69.068L36.2089 69.0491C39.1873 66.7778 41.0394 63.9577 42.1276 61.308C43.0441 59.0935 43.4451 56.9926 43.6169 55.4595C43.7124 54.6835 43.7315 54.0589 43.7505 53.6047C43.7505 53.3776 43.7505 53.2072 43.7505 53.0747C43.7887 53.0369 43.7887 52.9801 43.7887 52.9422Z" fill="url(#paint3_linear)"/>
<path opacity="0.9" fill-rule="evenodd" clip-rule="evenodd" d="M26.6817 40.8178C23.3852 41.4393 21.328 40.5561 21.328 40.5561C20.1879 40.229 19.1469 40.0654 18.1307 40C15.3052 40.3271 12.5044 41.2431 13.0745 43.7619C13.0745 43.7619 16.1479 51.4493 25.021 46.1172C25.021 46.1172 33.8694 39.4112 39 43.6638C33.9686 39.5093 29.9533 40.1963 26.6817 40.8178Z" fill="url(#paint4_linear)"/>
<path opacity="0.85" fill-rule="evenodd" clip-rule="evenodd" d="M49.9763 5.86735C50.3113 6.5935 49.9492 7.43445 49.1676 7.74566C29.7443 15.4791 25.0795 31.7751 25.0795 43.0868C25.0795 43.8769 24.3902 44.5173 23.5398 44.5173C22.6894 44.5173 22 43.8769 22 43.0868C22 31.1533 26.9588 13.4755 47.9545 5.11603C48.7361 4.80482 49.6413 5.1412 49.9763 5.86735Z" fill="url(#paint5_linear)"/>
<path opacity="0.85" fill-rule="evenodd" clip-rule="evenodd" d="M37.5967 13C38.4785 13 39.1933 13.6256 39.1933 14.3973C39.1933 17.6493 39.681 22.9976 41.1456 28.3737C42.6213 33.7906 45.0301 39.0127 48.7048 42.2285C49.3283 42.7742 49.3283 43.6589 48.7048 44.2046C48.0813 44.7503 47.0703 44.7503 46.4468 44.2046C42.1381 40.4339 39.5574 34.5941 38.0394 29.0218C36.5102 23.4087 36 17.8407 36 14.3973C36 13.6256 36.7148 13 37.5967 13Z" fill="url(#paint6_linear)"/>
<defs>
<linearGradient id="paint0_linear" x1="21.8069" y1="12.0253" x2="24.8037" y2="30.6394" gradientUnits="userSpaceOnUse">
<stop stop-color="#0B9AC7"/>
<stop offset="1" stop-color="#06BEE1"/>
</linearGradient>
<linearGradient id="paint1_linear" x1="33.5631" y1="39.4883" x2="74.3096" y2="53.9694" gradientUnits="userSpaceOnUse">
<stop stop-color="#2044D7"/>
<stop offset="1" stop-color="#2044D7" stop-opacity="0.21"/>
</linearGradient>
<linearGradient id="paint2_linear" x1="47.5793" y1="53.0094" x2="44.8078" y2="42.2573" gradientUnits="userSpaceOnUse">
<stop stop-color="white"/>
<stop offset="1" stop-color="white" stop-opacity="0"/>
</linearGradient>
<linearGradient id="paint3_linear" x1="10.6956" y1="39.6156" x2="43.3778" y2="64.6103" gradientUnits="userSpaceOnUse">
<stop stop-color="#2044D7"/>
<stop offset="1" stop-color="#2044D7" stop-opacity="0.21"/>
</linearGradient>
<linearGradient id="paint4_linear" x1="16.7143" y1="52" x2="19.2153" y2="40.8528" gradientUnits="userSpaceOnUse">
<stop stop-color="white"/>
<stop offset="1" stop-color="white" stop-opacity="0"/>
</linearGradient>
<linearGradient id="paint5_linear" x1="22.4501" y1="63.5492" x2="60.2259" y2="6.81041" gradientUnits="userSpaceOnUse">
<stop stop-color="#EFF3FB" stop-opacity="0"/>
<stop offset="0.536458" stop-color="#EEF2FB" stop-opacity="0.6"/>
<stop offset="1" stop-color="#EDF1FB"/>
</linearGradient>
<linearGradient id="paint6_linear" x1="42.3323" y1="49.7663" x2="47.6502" y2="12.7058" gradientUnits="userSpaceOnUse">
<stop stop-color="#EFF3FB" stop-opacity="0.2"/>
<stop offset="0.536458" stop-color="#EEF2FB" stop-opacity="0.7"/>
<stop offset="1" stop-color="#EDF1FB"/>
</linearGradient>
</defs>
</svg>
